<?xml version='1.0' encoding='ascii'?>
<svg xmlns="http://www.w3.org/2000/svg" height="1080" version="1.1" width="1920">
    <g id="RenderLayer_LineSet" inkscape:groupmode="lineset" inkscape:label="RenderLayer_LineSet" xmlns:inkscape="http://www.inkscape.org/namespaces/inkscape">
        <g id="strokes" inkscape:groupmode="layer" inkscape:label="strokes" xmlns:inkscape="http://www.inkscape.org/namespaces/inkscape">
            <path d=" M 1521.556, 488.208 1511.556, 488.208 1501.556, 488.208 1491.556, 488.208 1481.556, 488.208 1471.556, 488.208 1461.556, 488.208 1451.556, 488.208 1441.556, 488.208 1439.338, 488.208 1438.494, 488.249 1437.724, 488.374 1437.027, 488.581 1436.403, 488.871 1435.853, 489.244 1435.376, 489.701 1434.973, 490.240 1434.643, 490.862 1434.386, 491.567 1434.202, 492.354 1434.092, 493.225 1434.056, 494.179 1434.056, 504.179 1434.056, 514.179 1434.056, 524.179 1434.056, 534.179 1434.056, 544.179 1434.056, 554.179 1434.056, 564.179 1434.056, 574.179 1434.056, 584.179 1434.056, 594.179 1434.056, 604.179 1434.056, 614.179 1434.056, 624.179 1434.056, 634.179 1434.056, 641.849 1434.116, 642.987 1434.298, 644.025 1434.601, 644.964 1435.025, 645.805 1435.571, 646.546 1436.237, 647.189 1437.025, 647.733 1437.934, 648.178 1438.965, 648.524 1440.116, 648.771 1441.389, 648.919 1442.783, 648.969 1452.783, 648.969 1462.783, 648.969 1472.783, 648.969 1482.783, 648.969 1492.783, 648.969 1502.783, 648.969 1512.783, 648.969 1521.326, 648.969 1521.849, 648.915 1522.347, 648.752 1522.819, 648.481 1523.265, 648.101 1523.686, 647.613 1524.082, 647.017 1524.452, 646.312 1524.796, 645.499 1525.115, 644.577 1525.409, 643.546 1525.677, 642.408 1525.919, 641.160 1526.139, 639.879 1526.340, 638.637 1526.522, 637.436 1526.685, 636.274 1526.828, 635.152 1526.953, 634.070 1527.058, 633.028 1527.144, 632.025 1527.211, 631.063 1527.259, 630.140 1527.288, 629.257 1527.297, 628.414 1527.292, 627.595 1527.278, 626.784 1527.254, 625.981 1527.221, 625.186 1527.177, 624.399 1527.125, 623.620 1527.063, 622.849 1526.991, 622.086 1526.910, 621.331 1526.819, 620.584 1526.718, 619.844 1526.608, 619.113 1526.361, 617.499 1526.079, 616.026 1525.761, 614.692 1525.409, 613.499 1525.021, 612.447 1524.599, 611.535 1524.141, 610.763 1523.648, 610.131 1523.120, 609.640 1522.557, 609.289 1521.959, 609.078 1521.326, 609.008 1511.326, 609.008 1501.326, 609.008 1491.326, 609.008 1481.326, 609.008 1479.069, 609.008 1479.069, 599.008 1479.069, 589.008 1479.069, 586.042 1489.069, 586.042 1499.069, 586.042 1508.235, 586.042 1508.683, 585.997 1509.106, 585.861 1509.506, 585.633 1509.881, 585.315 1510.233, 584.906 1510.561, 584.406 1510.865, 583.815 1511.144, 583.133 1511.400, 582.361 1511.632, 581.497 1511.841, 580.543 1512.025, 579.497 1512.190, 578.418 1512.341, 577.363 1512.477, 576.332 1512.599, 575.325 1512.707, 574.342 1512.800, 573.382 1512.879, 572.447 1512.943, 571.536 1512.994, 570.648 1513.030, 569.784 1513.051, 568.945 1513.058, 568.129 1513.028, 565.561 1512.937, 563.217 1512.786, 561.096 1512.573, 559.198 1512.301, 557.523 1511.967, 556.072 1511.573, 554.844 1511.119, 553.839 1510.604, 553.058 1510.028, 552.499 1509.392, 552.165 1508.695, 552.053 1498.695, 552.053 1488.695, 552.053 1479.069, 552.053 1479.069, 542.053 1479.069, 532.053 1479.069, 528.857 1489.069, 528.857 1499.069, 528.857 1509.069, 528.857 1519.069, 528.857 1521.556, 528.857 1522.326, 528.716 1523.029, 528.293 1523.666, 527.587 1524.235, 526.599 1524.737, 525.329 1525.173, 523.776 1525.541, 521.941 1525.843, 519.824 1526.077, 517.425 1526.245, 514.743 1526.345, 511.779 1526.379, 508.533 1526.345, 505.286 1526.245, 502.322 1526.077, 499.640 1525.843, 497.241 1525.541, 495.124 1525.173, 493.289 1524.737, 491.736 1524.235, 490.466 1523.666, 489.478 1523.029, 488.772 1522.326, 488.349 1521.556, 488.208 " fill="none" stroke="rgb(0, 0, 0)" stroke-linecap="butt" stroke-linejoin="round" stroke-opacity="1.0" stroke-width="3.0" />
            <path d=" M 1349.771, 488.208 1339.771, 488.208 1329.771, 488.208 1319.771, 488.208 1309.771, 488.208 1309.351, 488.208 1308.214, 488.262 1307.176, 488.425 1306.236, 488.696 1305.396, 489.075 1304.654, 489.563 1304.011, 490.160 1303.468, 490.865 1303.023, 491.678 1302.677, 492.600 1302.429, 493.630 1302.281, 494.769 1302.231, 496.016 1302.231, 506.016 1302.231, 516.016 1302.231, 526.016 1302.231, 536.016 1302.231, 546.016 1302.231, 556.016 1302.231, 566.016 1302.231, 576.016 1302.231, 586.016 1302.231, 596.016 1302.231, 606.016 1302.231, 616.016 1302.231, 626.016 1302.231, 636.016 1302.231, 644.835 1302.377, 645.569 1302.812, 646.238 1303.538, 646.845 1304.554, 647.387 1305.860, 647.865 1307.456, 648.280 1309.343, 648.631 1311.520, 648.918 1313.987, 649.141 1316.745, 649.301 1319.792, 649.396 1323.130, 649.428 1324.181, 649.421 1325.264, 649.400 1326.381, 649.364 1327.532, 649.313 1328.716, 649.249 1329.934, 649.170 1331.185, 649.077 1332.470, 648.969 1333.788, 648.847 1335.140, 648.711 1336.525, 648.560 1337.943, 648.395 1339.319, 648.211 1340.575, 648.002 1341.711, 647.770 1342.728, 647.514 1343.625, 647.234 1344.403, 646.931 1345.060, 646.603 1345.599, 646.251 1346.017, 645.876 1346.316, 645.476 1346.496, 645.053 1346.556, 644.605 1346.556, 634.605 1346.556, 624.605 1346.556, 614.605 1346.556, 604.605 1346.556, 603.496 1349.586, 603.458 1352.552, 603.343 1355.455, 603.152 1358.294, 602.884 1361.069, 602.540 1363.780, 602.118 1366.427, 601.621 1369.011, 601.047 1371.531, 600.396 1373.987, 599.669 1376.379, 598.865 1378.708, 597.985 1380.958, 597.040 1383.116, 596.045 1385.182, 594.999 1387.154, 593.902 1389.035, 592.754 1390.823, 591.554 1392.518, 590.304 1394.121, 589.002 1395.631, 587.650 1397.049, 586.247 1398.374, 584.792 1399.607, 583.286 1401.881, 580.199 1403.958, 577.060 1405.836, 573.870 1407.517, 570.630 1409.000, 567.338 1410.286, 563.995 1411.374, 560.601 1412.263, 557.156 1412.956, 553.660 1413.450, 550.114 1413.747, 546.516 1413.846, 542.867 1413.741, 538.514 1413.428, 534.337 1412.905, 530.336 1412.174, 526.510 1411.234, 522.859 1410.085, 519.384 1408.727, 516.084 1407.160, 512.960 1405.384, 510.011 1403.399, 507.237 1401.206, 504.640 1398.803, 502.217 1396.164, 499.979 1393.262, 497.936 1390.098, 496.088 1386.669, 494.434 1382.978, 492.975 1379.024, 491.710 1374.806, 490.640 1370.325, 489.764 1365.581, 489.083 1360.574, 488.597 1355.304, 488.305 1349.771, 488.208 " fill="none" stroke="rgb(0, 0, 0)" stroke-linecap="butt" stroke-linejoin="round" stroke-opacity="1.0" stroke-width="3.0" />
            <path d=" M 1346.556, 528.168 1351.378, 528.168 1352.945, 528.195 1354.431, 528.277 1355.835, 528.412 1357.158, 528.602 1358.400, 528.846 1359.560, 529.144 1360.639, 529.497 1361.637, 529.904 1362.553, 530.365 1363.388, 530.880 1364.141, 531.449 1364.813, 532.073 1365.419, 532.760 1365.972, 533.521 1366.472, 534.355 1366.919, 535.262 1367.314, 536.243 1367.656, 537.297 1367.945, 538.425 1368.182, 539.626 1368.366, 540.900 1368.498, 542.248 1368.577, 543.669 1368.603, 545.163 1368.565, 546.665 1368.450, 548.110 1368.258, 549.498 1367.990, 550.828 1367.646, 552.101 1367.225, 553.316 1366.727, 554.474 1366.153, 555.574 1365.502, 556.617 1364.775, 557.603 1363.971, 558.531 1363.091, 559.402 1362.155, 560.209 1361.184, 560.946 1360.177, 561.612 1359.136, 562.209 1358.059, 562.735 1356.948, 563.191 1355.801, 563.577 1354.619, 563.893 1353.402, 564.139 1352.150, 564.314 1350.863, 564.419 1349.541, 564.454 1346.556, 564.454 1346.556, 554.454 1346.556, 544.454 1346.556, 534.454 1346.556, 528.168 " fill="none" stroke="rgb(0, 0, 0)" stroke-linecap="butt" stroke-linejoin="round" stroke-opacity="1.0" stroke-width="3.0" />
            <path d=" M 1221.824, 488.450 1216.798, 488.437 1211.773, 488.450 1207.185, 488.488 1203.033, 488.552 1199.319, 488.641 1196.041, 488.756 1193.201, 488.897 1190.798, 489.063 1188.831, 489.254 1187.302, 489.471 1186.209, 489.713 1185.554, 489.981 1185.335, 490.275 1182.806, 499.949 1180.276, 509.624 1177.747, 519.299 1175.217, 528.974 1172.688, 538.649 1170.158, 548.323 1167.629, 557.998 1165.099, 567.673 1162.570, 577.348 1160.041, 587.023 1157.511, 596.698 1154.982, 606.372 1152.452, 616.047 1149.923, 625.722 1147.393, 635.397 1144.686, 645.754 1144.722, 645.872 1144.832, 645.999 1145.016, 646.134 1145.272, 646.277 1145.603, 646.427 1146.006, 646.586 1146.483, 646.753 1147.033, 646.927 1147.657, 647.110 1148.354, 647.301 1149.124, 647.499 1149.968, 647.706 1150.888, 647.908 1151.888, 648.092 1152.968, 648.258 1154.127, 648.408 1155.366, 648.539 1156.685, 648.653 1158.084, 648.750 1159.562, 648.829 1161.121, 648.890 1162.758, 648.934 1164.476, 648.960 1166.273, 648.969 1169.584, 648.919 1172.627, 648.771 1175.402, 648.524 1177.910, 648.178 1180.149, 647.733 1182.120, 647.189 1183.823, 646.546 1185.259, 645.805 1186.426, 644.964 1187.326, 644.025 1187.957, 642.987 1188.321, 641.849 1190.598, 632.112 1192.875, 622.375 1194.981, 613.372 1204.981, 613.372 1214.981, 613.372 1224.981, 613.372 1231.497, 613.372 1233.975, 623.060 1236.453, 632.748 1238.932, 642.436 1239.075, 642.998 1239.471, 644.025 1240.122, 644.963 1241.027, 645.811 1242.188, 646.570 1243.605, 647.240 1245.276, 647.821 1247.203, 648.312 1249.385, 648.714 1251.821, 649.026 1254.513, 649.250 1257.461, 649.384 1260.663, 649.428 1261.727, 649.422 1262.851, 649.403 1264.036, 649.371 1265.282, 649.326 1266.588, 649.269 1267.955, 649.199 1269.382, 649.116 1270.870, 649.020 1272.419, 648.911 1274.028, 648.790 1275.698, 648.656 1277.428, 648.510 1279.116, 648.352 1280.656, 648.184 1282.050, 648.007 1283.297, 647.821 1284.398, 647.624 1285.352, 647.419 1286.159, 647.203 1286.819, 646.979 1287.332, 646.744 1287.699, 646.500 1287.919, 646.246 1287.993, 645.983 1285.520, 636.294 1283.048, 626.604 1280.575, 616.915 1278.103, 607.225 1275.631, 597.536 1273.158, 587.846 1270.686, 578.157 1268.213, 568.467 1265.741, 558.777 1263.269, 549.088 1260.796, 539.398 1258.324, 529.709 1255.851, 520.019 1253.379, 510.330 1250.907, 500.640 1248.262, 490.275 1248.043, 489.981 1247.388, 489.713 1246.295, 489.471 1244.766, 489.254 1242.799, 489.063 1240.396, 488.897 1237.555, 488.756 1234.278, 488.642 1230.564, 488.552 1226.412, 488.488 1221.824, 488.450 " fill="none" stroke="rgb(0, 0, 0)" stroke-linecap="butt" stroke-linejoin="round" stroke-opacity="1.0" stroke-width="3.0" />
            <path d=" M 1213.124, 536.666 1214.502, 536.666 1216.626, 546.438 1218.750, 556.209 1220.875, 565.981 1222.999, 575.753 1224.836, 584.205 1214.836, 584.205 1204.836, 584.205 1200.722, 584.205 1203.246, 574.529 1205.771, 564.853 1208.295, 555.177 1210.819, 545.500 1213.124, 536.666 " fill="none" stroke="rgb(0, 0, 0)" stroke-linecap="butt" stroke-linejoin="round" stroke-opacity="1.0" stroke-width="3.0" />
            <path d=" M 1092.334, 486.174 1089.567, 486.141 1084.623, 486.296 1079.817, 486.760 1075.149, 487.533 1070.621, 488.616 1066.231, 490.008 1061.980, 491.710 1057.867, 493.721 1053.894, 496.042 1050.059, 498.672 1046.363, 501.611 1042.806, 504.860 1039.387, 508.418 1036.177, 512.246 1033.247, 516.306 1030.595, 520.597 1028.223, 525.119 1026.130, 529.872 1024.316, 534.857 1022.781, 540.073 1021.525, 545.520 1020.548, 551.199 1019.850, 557.109 1019.431, 563.250 1019.292, 569.622 1019.427, 575.988 1019.834, 582.109 1020.512, 587.987 1021.461, 593.621 1022.681, 599.011 1024.172, 604.157 1025.934, 609.059 1027.968, 613.716 1030.272, 618.130 1032.848, 622.300 1035.695, 626.225 1038.813, 629.907 1042.141, 633.319 1045.620, 636.433 1049.248, 639.251 1053.026, 641.773 1056.954, 643.998 1061.032, 645.926 1065.260, 647.557 1069.638, 648.892 1074.166, 649.931 1078.844, 650.672 1083.671, 651.117 1088.649, 651.266 1091.752, 651.229 1094.786, 651.119 1097.749, 650.935 1100.642, 650.679 1103.465, 650.348 1106.218, 649.945 1108.900, 649.468 1111.513, 648.918 1114.055, 648.294 1116.527, 647.597 1118.929, 646.827 1121.260, 645.983 1123.461, 645.077 1125.471, 644.121 1127.289, 643.113 1128.916, 642.054 1130.351, 640.944 1131.595, 639.783 1132.648, 638.570 1133.509, 637.307 1134.179, 635.993 1134.657, 634.628 1134.944, 633.212 1135.040, 631.744 1135.017, 630.953 1134.950, 630.108 1134.839, 629.211 1134.682, 628.261 1134.482, 627.259 1134.236, 626.204 1133.946, 625.096 1133.611, 623.936 1133.231, 622.723 1132.807, 621.458 1132.338, 620.140 1131.825, 618.769 1131.285, 617.394 1130.737, 616.064 1130.181, 614.778 1129.617, 613.538 1129.046, 612.342 1128.466, 611.190 1127.878, 610.083 1127.282, 609.021 1126.679, 608.004 1126.067, 607.031 1125.448, 606.102 1124.820, 605.219 1124.205, 604.394 1123.624, 603.640 1123.076, 602.958 1122.562, 602.348 1122.081, 601.810 1121.634, 601.343 1121.220, 600.949 1120.839, 600.626 1120.492, 600.375 1120.179, 600.195 1119.899, 600.087 1119.653, 600.052 1119.429, 600.055 1119.219, 600.064 1119.021, 600.080 1118.836, 600.103 1118.664, 600.131 1118.505, 600.166 1118.358, 600.208 1118.224, 600.256 1118.103, 600.310 1117.994, 600.371 1117.898, 600.438 1117.815, 600.511 1117.330, 600.961 1116.792, 601.394 1116.201, 601.810 1115.557, 602.208 1114.861, 602.588 1114.112, 602.951 1113.311, 603.296 1112.457, 603.624 1111.550, 603.934 1110.591, 604.227 1109.579, 604.502 1108.514, 604.760 1107.432, 604.998 1106.368, 605.216 1105.321, 605.413 1104.291, 605.589 1103.279, 605.744 1102.285, 605.879 1101.308, 605.993 1100.349, 606.086 1099.407, 606.159 1098.483, 606.211 1097.576, 606.242 1096.687, 606.252 1094.574, 606.187 1092.524, 605.991 1090.536, 605.664 1088.611, 605.206 1086.747, 604.618 1084.946, 603.898 1083.206, 603.048 1081.529, 602.067 1079.915, 600.956 1078.362, 599.713 1076.872, 598.340 1075.443, 596.836 1074.105, 595.198 1072.882, 593.420 1071.776, 591.504 1070.786, 589.449 1069.913, 587.255 1069.156, 584.923 1068.516, 582.452 1067.992, 579.842 1067.585, 577.093 1067.294, 574.205 1067.119, 571.179 1067.061, 568.014 1067.117, 564.849 1067.287, 561.823 1067.570, 558.935 1067.967, 556.187 1068.476, 553.577 1069.099, 551.106 1069.835, 548.773 1070.684, 546.579 1071.647, 544.524 1072.723, 542.608 1073.911, 540.831 1075.214, 539.192 1076.608, 537.688 1078.075, 536.315 1079.613, 535.073 1081.223, 533.961 1082.905, 532.980 1084.658, 532.130 1086.484, 531.411 1088.381, 530.822 1090.350, 530.364 1092.390, 530.038 1094.503, 529.841 1096.687, 529.776 1097.348, 529.786 1098.030, 529.817 1098.732, 529.869 1099.455, 529.942 1100.199, 530.035 1100.964, 530.149 1101.750, 530.284 1102.556, 530.439 1103.383, 530.616 1104.230, 530.813 1105.099, 531.030 1105.988, 531.269 1106.860, 531.516 1107.679, 531.760 1108.443, 532.001 1109.152, 532.238 1109.808, 532.473 1110.409, 532.704 1110.956, 532.932 1111.449, 533.157 1111.887, 533.379 1112.272, 533.597 1112.602, 533.813 1112.878, 534.025 1113.124, 534.226 1113.366, 534.411 1113.603, 534.577 1113.835, 534.726 1114.062, 534.858 1114.284, 534.972 1114.502, 535.068 1114.715, 535.147 1114.923, 535.209 1115.126, 535.253 1115.325, 535.279 1115.519, 535.288 1116.221, 535.206 1116.951, 534.959 1117.708, 534.549 1118.492, 533.974 1119.303, 533.234 1120.141, 532.331 1121.006, 531.263 1121.898, 530.031 1122.818, 528.635 1123.764, 527.074 1124.738, 525.349 1125.739, 523.460 1126.711, 521.515 1127.598, 519.623 1128.401, 517.784 1129.120, 515.996 1129.754, 514.262 1130.303, 512.580 1130.768, 510.951 1131.148, 509.375 1131.444, 507.851 1131.656, 506.380 1131.782, 504.961 1131.825, 503.595 1131.736, 502.278 1131.471, 501.008 1131.028, 499.784 1130.408, 498.606 1129.612, 497.475 1128.638, 496.389 1127.487, 495.350 1126.160, 494.357 1124.655, 493.411 1122.973, 492.511 1121.114, 491.657 1119.079, 490.849 1116.926, 490.097 1114.718, 489.410 1112.454, 488.789 1110.135, 488.233 1107.759, 487.743 1105.328, 487.318 1102.841, 486.958 1100.298, 486.664 1097.699, 486.435 1095.044, 486.272 1092.334, 486.174 " fill="none" stroke="rgb(0, 0, 0)" stroke-linecap="butt" stroke-linejoin="round" stroke-opacity="1.0" stroke-width="3.0" />
            <path d=" M 958.185, 486.166 955.447, 486.141 951.454, 486.237 947.590, 486.527 943.856, 487.009 940.251, 487.685 936.775, 488.553 933.428, 489.614 930.211, 490.869 927.122, 492.316 924.163, 493.956 921.333, 495.790 918.632, 497.816 916.060, 500.035 913.658, 502.395 911.464, 504.842 909.479, 507.377 907.703, 510.000 906.136, 512.710 904.778, 515.508 903.629, 518.394 902.689, 521.368 901.958, 524.429 901.435, 527.578 901.122, 530.815 901.018, 534.140 901.081, 537.458 901.273, 540.678 901.592, 543.799 902.038, 546.822 902.612, 549.745 903.314, 552.570 904.143, 555.295 905.100, 557.922 906.185, 560.450 907.397, 562.879 908.737, 565.209 910.204, 567.440 910.760, 568.241 911.355, 569.038 911.991, 569.830 912.666, 570.617 913.382, 571.399 914.137, 572.177 914.932, 572.949 915.767, 573.717 916.642, 574.480 917.556, 575.239 918.511, 575.992 919.505, 576.741 920.503, 577.470 921.467, 578.164 922.397, 578.822 923.294, 579.446 924.158, 580.035 924.988, 580.588 925.785, 581.106 926.548, 581.590 927.278, 582.038 927.974, 582.451 928.636, 582.829 929.266, 583.172 929.904, 583.507 930.592, 583.864 931.332, 584.241 932.124, 584.639 932.966, 585.058 933.859, 585.497 934.803, 585.957 935.798, 586.438 936.844, 586.939 937.942, 587.462 939.090, 588.005 940.289, 588.569 941.482, 589.137 942.611, 589.695 943.677, 590.241 944.678, 590.776 945.616, 591.300 946.490, 591.813 947.300, 592.314 948.047, 592.805 948.729, 593.284 949.348, 593.752 949.903, 594.209 950.394, 594.655 950.834, 595.100 951.236, 595.557 951.600, 596.025 951.925, 596.505 952.212, 596.995 952.461, 597.497 952.672, 598.009 952.844, 598.533 952.978, 599.068 953.073, 599.615 953.131, 600.172 953.150, 600.741 953.082, 601.951 952.879, 603.056 952.540, 604.056 952.066, 604.951 951.456, 605.740 950.710, 606.425 949.829, 607.004 948.812, 607.477 947.660, 607.846 946.372, 608.109 944.949, 608.267 943.390, 608.319 941.756, 608.278 940.111, 608.153 938.452, 607.946 936.781, 607.656 935.096, 607.283 933.399, 606.827 931.690, 606.287 929.967, 605.665 928.232, 604.961 926.484, 604.173 924.723, 603.302 922.950, 602.348 921.214, 601.371 919.566, 600.428 918.005, 599.520 916.532, 598.648 915.147, 597.811 913.850, 597.009 912.640, 596.241 911.518, 595.509 910.484, 594.812 909.537, 594.151 908.678, 593.524 907.907, 592.932 907.260, 593.474 906.619, 594.103 905.984, 594.820 905.356, 595.624 904.734, 596.517 904.118, 597.497 903.509, 598.564 902.906, 599.720 902.309, 600.963 901.719, 602.294 901.136, 603.713 900.558, 605.219 900.008, 606.770 899.505, 608.322 899.051, 609.877 898.644, 611.432 898.285, 612.990 897.974, 614.549 897.711, 616.109 897.496, 617.672 897.329, 619.235 897.209, 620.801 897.137, 622.368 897.113, 623.936 897.171, 625.486 897.343, 626.998 897.630, 628.472 898.032, 629.907 898.549, 631.304 899.180, 632.663 899.927, 633.984 900.788, 635.266 901.764, 636.510 902.855, 637.716 904.060, 638.883 905.381, 640.012 906.779, 641.092 908.217, 642.111 909.694, 643.070 911.212, 643.967 912.769, 644.805 914.367, 645.581 916.004, 646.298 917.681, 646.953 919.397, 647.548 921.154, 648.082 922.951, 648.556 924.787, 648.969 926.662, 649.336 928.573, 649.671 930.522, 649.974 932.506, 650.245 934.528, 650.484 936.586, 650.691 938.681, 650.867 940.812, 651.010 942.981, 651.122 945.185, 651.202 947.427, 651.250 949.705, 651.266 954.311, 651.084 958.713, 650.691 962.911, 650.089 966.904, 649.275 970.693, 648.251 974.279, 647.017 977.660, 645.572 980.837, 643.916 983.810, 642.050 986.578, 639.974 989.143, 637.687 991.503, 635.189 993.667, 632.524 995.643, 629.735 997.431, 626.821 999.031, 623.783 1000.442, 620.620 1001.666, 617.333 1002.701, 613.922 1003.547, 610.386 1004.206, 606.726 1004.677, 602.941 1004.959, 599.032 1005.053, 594.999 1004.968, 591.911 1004.715, 588.926 1004.292, 586.042 1003.701, 583.261 1002.940, 580.582 1002.010, 578.004 1000.911, 575.529 999.643, 573.156 998.206, 570.885 996.600, 568.716 994.825, 566.649 992.881, 564.684 991.891, 563.781 990.913, 562.907 989.946, 562.065 988.990, 561.252 988.045, 560.470 987.111, 559.718 986.188, 558.996 985.277, 558.305 984.377, 557.644 983.487, 557.013 982.609, 556.412 981.743, 555.842 980.886, 555.295 980.039, 554.764 979.202, 554.249 978.374, 553.750 977.556, 553.267 976.747, 552.799 975.948, 552.348 975.159, 551.913 974.379, 551.493 973.609, 551.090 972.848, 550.702 972.097, 550.330 971.358, 549.971 970.633, 549.619 969.922, 549.275 969.226, 548.940 968.544, 548.612 967.877, 548.292 967.224, 547.980 966.585, 547.677 965.961, 547.381 965.351, 547.093 964.755, 546.813 964.174, 546.541 963.611, 546.278 963.070, 546.024 962.552, 545.780 962.056, 545.546 961.582, 545.321 961.131, 545.106 960.702, 544.900 960.295, 544.704 959.911, 544.517 959.549, 544.340 959.209, 544.173 958.892, 544.015 957.534, 543.356 956.295, 542.682 955.174, 541.991 954.171, 541.284 953.286, 540.562 952.519, 539.824 951.869, 539.069 951.338, 538.299 950.925, 537.513 950.630, 536.710 950.453, 535.892 950.394, 535.058 950.475, 533.738 950.716, 532.532 951.119, 531.441 951.683, 530.465 952.408, 529.604 953.294, 528.857 954.341, 528.226 955.549, 527.709 956.918, 527.307 958.448, 527.020 960.140, 526.848 961.992, 526.790 963.946, 526.843 965.944, 527.001 967.985, 527.264 970.068, 527.633 972.195, 528.106 974.365, 528.685 976.578, 529.369 978.834, 530.159 981.133, 531.053 983.475, 532.053 985.860, 533.159 988.288, 534.369 988.653, 534.064 989.060, 533.607 989.508, 532.998 989.998, 532.238 990.529, 531.327 991.101, 530.264 991.715, 529.049 992.371, 527.684 993.068, 526.166 993.806, 524.497 994.586, 522.677 995.407, 520.704 996.214, 518.686 996.951, 516.727 997.618, 514.827 998.214, 512.985 998.741, 511.203 999.197, 509.480 999.583, 507.816 999.898, 506.210 1000.144, 504.664 1000.319, 503.177 1000.425, 501.749 1000.460, 500.380 1000.460, 500.265 1000.460, 500.150 1000.460, 500.035 1000.460, 499.920 1000.460, 499.805 1000.460, 499.691 1000.460, 499.576 1000.460, 499.461 1000.460, 499.346 1000.460, 499.231 1000.460, 499.117 1000.460, 499.002 1000.289, 498.060 999.930, 497.148 999.383, 496.267 998.648, 495.416 997.725, 494.596 996.613, 493.806 995.313, 493.046 993.825, 492.316 992.149, 491.617 990.285, 490.948 988.232, 490.309 985.991, 489.701 983.639, 489.132 981.251, 488.613 978.829, 488.143 976.371, 487.723 973.878, 487.352 971.351, 487.031 968.788, 486.759 966.190, 486.536 963.557, 486.363 960.888, 486.240 958.185, 486.166 " fill="none" stroke="rgb(0, 0, 0)" stroke-linecap="butt" stroke-linejoin="round" stroke-opacity="1.0" stroke-width="3.0" />
            <path d=" M 882.645, 488.208 872.645, 488.208 862.645, 488.208 852.645, 488.208 842.645, 488.208 832.645, 488.208 822.645, 488.208 812.645, 488.208 802.645, 488.208 792.645, 488.208 782.743, 488.208 782.109, 488.281 781.506, 488.501 780.935, 488.868 780.396, 489.382 779.888, 490.042 779.413, 490.849 778.970, 491.803 778.558, 492.903 778.179, 494.150 777.831, 495.544 777.515, 497.085 777.231, 498.772 777.121, 499.616 777.021, 500.463 776.930, 501.313 776.849, 502.166 776.777, 503.022 776.715, 503.882 776.662, 504.745 776.619, 505.611 776.586, 506.480 776.562, 507.352 776.547, 508.228 776.542, 509.107 776.547, 509.985 776.562, 510.861 776.586, 511.733 776.619, 512.603 776.662, 513.469 776.715, 514.331 776.777, 515.191 776.849, 516.047 776.930, 516.901 777.021, 517.751 777.121, 518.598 777.231, 519.441 777.515, 521.129 777.831, 522.669 778.179, 524.063 778.558, 525.310 778.970, 526.411 779.413, 527.365 779.888, 528.172 780.396, 528.832 780.935, 529.345 781.506, 529.712 782.109, 529.932 782.743, 530.006 792.743, 530.006 802.743, 530.006 810.305, 530.006 810.305, 540.006 810.304, 550.006 810.304, 560.006 810.304, 570.006 810.304, 580.006 810.304, 590.006 810.303, 600.006 810.303, 610.006 810.303, 620.006 810.303, 630.006 810.302, 640.006 810.302, 645.294 810.460, 646.028 810.934, 646.698 811.723, 647.304 812.829, 647.846 814.250, 648.325 815.986, 648.739 818.039, 649.090 820.407, 649.377 823.091, 649.600 826.091, 649.760 829.407, 649.856 833.039, 649.888 836.670, 649.856 839.986, 649.760 842.986, 649.600 845.670, 649.377 848.038, 649.090 850.091, 648.739 851.827, 648.325 853.248, 647.846 854.354, 647.304 855.143, 646.698 855.617, 646.028 855.775, 645.294 855.775, 635.294 855.775, 625.294 855.774, 615.294 855.774, 605.294 855.774, 595.294 855.774, 585.294 855.774, 575.294 855.774, 565.294 855.774, 555.294 855.774, 545.294 855.774, 535.294 855.774, 530.008 865.774, 530.007 875.774, 530.006 882.645, 530.006 883.280, 529.932 883.882, 529.712 884.453, 529.345 884.992, 528.832 885.500, 528.172 885.975, 527.365 886.418, 526.411 886.830, 525.310 887.209, 524.063 887.557, 522.669 887.873, 521.129 888.157, 519.441 888.267, 518.598 888.367, 517.751 888.458, 516.901 888.539, 516.047 888.611, 515.191 888.673, 514.331 888.726, 513.469 888.769, 512.603 888.803, 511.733 888.826, 510.861 888.841, 509.985 888.846, 509.107 888.841, 508.228 888.826, 507.352 888.803, 506.480 888.769, 505.611 888.726, 504.745 888.673, 503.882 888.611, 503.022 888.539, 502.166 888.458, 501.313 888.367, 500.463 888.267, 499.616 888.157, 498.772 887.873, 497.085 887.557, 495.544 887.209, 494.150 886.830, 492.903 886.418, 491.803 885.975, 490.849 885.500, 490.042 884.992, 489.382 884.453, 488.868 883.882, 488.501 883.280, 488.281 882.645, 488.208 " fill="none" stroke="rgb(0, 0, 0)" stroke-linecap="butt" stroke-linejoin="round" stroke-opacity="1.0" stroke-width="3.0" />
            <path d=" M 703.511, 488.208 693.511, 488.208 683.511, 488.208 673.511, 488.208 663.511, 488.208 659.646, 488.208 658.289, 488.264 657.050, 488.431 655.928, 488.710 654.925, 489.101 654.040, 489.603 653.273, 490.217 652.624, 490.943 652.093, 491.780 651.680, 492.729 651.385, 493.790 651.208, 494.962 651.149, 496.246 651.149, 506.246 651.149, 516.246 651.149, 526.246 651.149, 536.246 651.149, 546.246 651.149, 556.246 651.149, 566.246 651.149, 576.246 651.149, 586.246 651.149, 596.246 651.149, 606.246 651.149, 616.246 651.149, 626.246 651.149, 636.246 651.149, 645.983 651.302, 646.534 651.761, 647.036 652.527, 647.490 653.599, 647.897 654.976, 648.256 656.661, 648.567 658.651, 648.830 660.948, 649.045 663.550, 649.213 666.459, 649.333 669.675, 649.404 673.196, 649.428 676.681, 649.403 679.862, 649.326 682.741, 649.199 685.317, 649.020 687.590, 648.790 689.559, 648.510 691.226, 648.178 692.589, 647.795 693.650, 647.361 694.408, 646.876 694.862, 646.341 695.014, 645.754 695.014, 635.754 695.014, 625.754 695.014, 615.754 695.014, 605.754 695.014, 595.754 695.014, 593.621 702.133, 593.621 706.077, 602.810 710.022, 612.000 713.966, 621.189 717.910, 630.378 721.854, 639.568 723.721, 643.916 724.480, 644.943 725.303, 645.881 726.190, 646.730 727.140, 647.489 728.155, 648.159 729.233, 648.739 730.375, 649.230 731.580, 649.632 732.850, 649.945 734.183, 650.168 735.580, 650.302 737.041, 650.347 738.567, 650.278 740.161, 650.073 741.821, 649.730 743.548, 649.250 745.342, 648.632 747.204, 647.878 749.132, 646.987 751.127, 645.958 753.189, 644.792 755.318, 643.489 757.514, 642.049 759.777, 640.472 761.404, 639.296 762.916, 638.143 764.313, 637.012 765.595, 635.904 766.763, 634.818 767.815, 633.754 768.753, 632.713 769.576, 631.693 770.284, 630.697 770.878, 629.722 771.356, 628.770 771.720, 627.840 766.575, 619.265 761.430, 610.690 756.285, 602.116 751.140, 593.541 745.995, 584.966 742.783, 579.612 744.435, 578.431 746.023, 577.185 747.548, 575.873 749.009, 574.496 750.406, 573.053 751.739, 571.545 753.009, 569.972 754.215, 568.333 755.356, 566.629 756.435, 564.860 757.449, 563.025 758.399, 561.124 759.280, 559.173 760.084, 557.185 760.811, 555.160 761.462, 553.099 762.036, 551.001 762.533, 548.866 762.954, 546.695 763.299, 544.487 763.567, 542.242 763.758, 539.961 763.873, 537.643 763.911, 535.288 763.492, 527.768 762.233, 520.902 760.136, 514.690 757.200, 509.132 753.425, 504.228 748.811, 499.978 743.358, 496.381 737.067, 493.439 729.936, 491.150 721.967, 489.516 713.158, 488.535 703.511, 488.208 " fill="none" stroke="rgb(0, 0, 0)" stroke-linecap="butt" stroke-linejoin="round" stroke-opacity="1.0" stroke-width="3.0" />
            <path d=" M 695.014, 528.857 699.836, 528.857 701.407, 528.885 702.902, 528.969 704.322, 529.109 705.667, 529.304 706.938, 529.555 708.133, 529.862 709.253, 530.225 710.299, 530.644 711.269, 531.118 712.165, 531.648 712.985, 532.234 713.731, 532.876 714.409, 533.576 715.029, 534.334 715.590, 535.151 716.091, 536.028 716.534, 536.963 716.917, 537.958 717.242, 539.011 717.507, 540.123 717.714, 541.295 717.861, 542.525 717.950, 543.815 717.979, 545.163 717.828, 548.061 717.373, 550.707 716.616, 553.101 715.555, 555.243 714.192, 557.133 712.525, 558.770 710.555, 560.156 708.283, 561.290 705.707, 562.172 702.828, 562.802 699.647, 563.180 696.162, 563.306 695.014, 563.306 695.014, 553.306 695.014, 543.306 695.014, 533.306 695.014, 528.857 " fill="none" stroke="rgb(0, 0, 0)" stroke-linecap="butt" stroke-linejoin="round" stroke-opacity="1.0" stroke-width="3.0" />
            <path d=" M 569.822, 488.450 564.797, 488.437 559.772, 488.450 555.183, 488.488 551.032, 488.552 547.317, 488.641 544.040, 488.756 541.200, 488.897 538.796, 489.063 536.830, 489.254 535.300, 489.471 534.208, 489.713 533.552, 489.981 533.334, 490.275 530.804, 499.949 528.275, 509.624 525.745, 519.299 523.216, 528.974 520.687, 538.649 518.157, 548.323 515.628, 557.998 513.098, 567.673 510.569, 577.348 508.039, 587.023 505.510, 596.698 502.980, 606.372 500.451, 616.047 497.921, 625.722 495.392, 635.397 492.684, 645.754 492.721, 645.872 492.831, 645.999 493.014, 646.134 493.271, 646.277 493.601, 646.427 494.005, 646.586 494.482, 646.753 495.032, 646.927 495.655, 647.110 496.352, 647.301 497.123, 647.499 497.966, 647.706 498.887, 647.908 499.887, 648.092 500.966, 648.258 502.126, 648.408 503.365, 648.539 504.684, 648.653 506.083, 648.750 507.561, 648.829 509.119, 648.890 510.757, 648.934 512.475, 648.960 514.272, 648.969 517.583, 648.919 520.626, 648.771 523.401, 648.524 525.908, 648.178 528.147, 647.733 530.119, 647.189 531.822, 646.546 533.257, 645.805 534.425, 644.964 535.324, 644.025 535.956, 642.987 536.319, 641.849 538.597, 632.112 540.874, 622.375 542.979, 613.372 552.979, 613.372 562.979, 613.372 572.979, 613.372 579.495, 613.372 581.974, 623.060 584.452, 632.748 586.930, 642.436 587.074, 642.998 587.469, 644.025 588.120, 644.963 589.026, 645.811 590.187, 646.570 591.603, 647.240 593.275, 647.821 595.201, 648.312 597.383, 648.714 599.820, 649.026 602.512, 649.250 605.459, 649.384 608.662, 649.428 609.726, 649.422 610.850, 649.403 612.035, 649.371 613.281, 649.326 614.587, 649.269 615.954, 649.199 617.381, 649.116 618.869, 649.020 620.418, 648.911 622.027, 648.790 623.697, 648.656 625.427, 648.510 627.114, 648.352 628.655, 648.184 630.049, 648.007 631.296, 647.821 632.396, 647.624 633.350, 647.419 634.157, 647.203 634.818, 646.979 635.331, 646.744 635.698, 646.500 635.918, 646.246 635.991, 645.983 633.519, 636.294 631.046, 626.604 628.574, 616.915 626.102, 607.225 623.629, 597.536 621.157, 587.846 618.684, 578.157 616.212, 568.467 613.740, 558.777 611.267, 549.088 608.795, 539.398 606.322, 529.709 603.850, 520.019 601.378, 510.330 598.905, 500.640 596.260, 490.275 596.042, 489.981 595.386, 489.713 594.294, 489.471 592.764, 489.254 590.798, 489.063 588.395, 488.897 585.554, 488.756 582.277, 488.642 578.562, 488.552 574.411, 488.488 569.822, 488.450 " fill="none" stroke="rgb(0, 0, 0)" stroke-linecap="butt" stroke-linejoin="round" stroke-opacity="1.0" stroke-width="3.0" />
            <path d=" M 561.122, 536.666 562.500, 536.666 564.625, 546.438 566.749, 556.209 568.873, 565.981 570.998, 575.753 572.835, 584.205 562.835, 584.205 552.835, 584.205 548.721, 584.205 551.245, 574.529 553.769, 564.853 556.294, 555.177 558.818, 545.500 561.122, 536.666 " fill="none" stroke="rgb(0, 0, 0)" stroke-linecap="butt" stroke-linejoin="round" stroke-opacity="1.0" stroke-width="3.0" />
        </g>
    </g>
</svg>
