<?xml version="1.0" encoding="UTF-8" standalone="no"?>
<!-- Created with Inkscape (http://www.inkscape.org/) -->

<svg
   width="534.22351mm"
   height="71.525703mm"
   viewBox="0 0 534.22351 71.525703"
   version="1.1"
   id="svg2576"
   xml:space="preserve"
   sodipodi:docname="dartscape_logo.svg"
   inkscape:version="1.2.2 (732a01da63, 2022-12-09)"
   xmlns:inkscape="http://www.inkscape.org/namespaces/inkscape"
   xmlns:sodipodi="http://sodipodi.sourceforge.net/DTD/sodipodi-0.dtd"
   xmlns="http://www.w3.org/2000/svg"
   xmlns:svg="http://www.w3.org/2000/svg"><sodipodi:namedview
     id="namedview2578"
     pagecolor="#ffffff"
     bordercolor="#000000"
     borderopacity="0.25"
     inkscape:showpageshadow="2"
     inkscape:pageopacity="0.0"
     inkscape:pagecheckerboard="0"
     inkscape:deskcolor="#d1d1d1"
     inkscape:document-units="mm"
     showgrid="false"
     inkscape:zoom="0.22178358"
     inkscape:cx="-54.106801"
     inkscape:cy="394.52876"
     inkscape:window-width="1920"
     inkscape:window-height="991"
     inkscape:window-x="-10"
     inkscape:window-y="-10"
     inkscape:window-maximized="1"
     inkscape:current-layer="layer1" /><defs
     id="defs2573" /><g
     inkscape:label="Layer 1"
     inkscape:groupmode="layer"
     id="layer1"
     transform="translate(-24.037991,-148.66591)"><g
       id="g29317"
       transform="matrix(1.0095491,0,0,1.0095491,-40.715902,28.387052)"><g
         id="strokes"
         inkscape:label="strokes"
         transform="matrix(0.42140764,0,0,0.42140764,-50.935374,-85.090254)"><path
           d="m 1521.556,488.208 h -10 -10 -10 -10 -10 -10 -10 -10 -2.218 l -0.844,0.041 -0.77,0.125 -0.697,0.207 -0.624,0.29 -0.55,0.373 -0.477,0.457 -0.403,0.539 -0.33,0.622 -0.257,0.705 -0.184,0.787 -0.11,0.871 -0.036,0.954 v 10 10 10 10 10 10 10 10 10 10 10 10 10 10 7.67 l 0.06,1.138 0.182,1.038 0.303,0.939 0.424,0.841 0.546,0.741 0.666,0.643 0.788,0.544 0.909,0.445 1.031,0.346 1.151,0.247 1.273,0.148 1.394,0.05 h 10 10 10 10 10 10 10 8.543 l 0.523,-0.054 0.498,-0.163 0.472,-0.271 0.446,-0.38 0.421,-0.488 0.396,-0.596 0.37,-0.705 0.344,-0.813 0.319,-0.922 0.294,-1.031 0.268,-1.138 0.242,-1.248 0.22,-1.281 0.201,-1.242 0.182,-1.201 0.163,-1.162 0.143,-1.122 0.125,-1.082 0.105,-1.042 0.086,-1.003 0.067,-0.962 0.048,-0.923 0.029,-0.883 0.01,-0.843 -0.01,-0.819 -0.014,-0.811 -0.024,-0.803 -0.033,-0.795 -0.044,-0.787 -0.052,-0.779 -0.062,-0.771 -0.072,-0.763 -0.081,-0.755 -0.091,-0.747 -0.101,-0.74 -0.11,-0.731 -0.247,-1.614 -0.282,-1.473 -0.318,-1.334 -0.352,-1.193 -0.388,-1.052 -0.422,-0.912 -0.458,-0.772 -0.493,-0.632 -0.528,-0.491 -0.563,-0.351 -0.598,-0.211 -0.633,-0.07 h -10 -10 -10 -10 -2.257 v -10 -10 -2.966 h 10 10 9.166 l 0.448,-0.045 0.423,-0.136 0.4,-0.228 0.375,-0.318 0.352,-0.409 0.328,-0.5 0.304,-0.591 0.279,-0.682 0.256,-0.772 0.232,-0.864 0.209,-0.954 0.184,-1.046 0.165,-1.079 0.151,-1.055 0.136,-1.031 0.122,-1.007 0.108,-0.983 0.093,-0.96 0.079,-0.935 0.064,-0.911 0.051,-0.888 0.036,-0.864 0.021,-0.839 0.01,-0.816 -0.03,-2.568 -0.091,-2.344 -0.151,-2.121 -0.213,-1.898 -0.272,-1.675 -0.334,-1.451 -0.394,-1.228 -0.454,-1.005 -0.515,-0.781 -0.576,-0.559 -0.636,-0.334 -0.697,-0.112 h -10 -10 -9.626 v -10 -10 -3.196 h 10 10 10 10 2.487 l 0.77,-0.141 0.703,-0.423 0.637,-0.706 0.569,-0.988 0.502,-1.27 0.436,-1.553 0.368,-1.835 0.302,-2.117 0.234,-2.399 0.168,-2.682 0.1,-2.964 0.034,-3.246 -0.034,-3.247 -0.1,-2.964 -0.168,-2.682 -0.234,-2.399 -0.302,-2.117 -0.368,-1.835 -0.436,-1.553 -0.502,-1.27 -0.569,-0.988 -0.637,-0.706 -0.703,-0.423 -0.77,-0.141"
           fill="none"
           stroke="#000000"
           stroke-linecap="butt"
           stroke-linejoin="round"
           stroke-opacity="1"
           stroke-width="3"
           id="path28827" /><path
           d="m 1349.771,488.208 h -10 -10 -10 -10 -0.42 l -1.137,0.054 -1.038,0.163 -0.94,0.271 -0.84,0.379 -0.742,0.488 -0.643,0.597 -0.543,0.705 -0.445,0.813 -0.346,0.922 -0.248,1.03 -0.148,1.139 -0.05,1.247 v 10 10 10 10 10 10 10 10 10 10 10 10 10 10 8.819 l 0.146,0.734 0.435,0.669 0.726,0.607 1.016,0.542 1.306,0.478 1.596,0.415 1.887,0.351 2.177,0.287 2.467,0.223 2.758,0.16 3.047,0.095 3.338,0.032 1.051,-0.007 1.083,-0.021 1.117,-0.036 1.151,-0.051 1.184,-0.064 1.218,-0.079 1.251,-0.093 1.285,-0.108 1.318,-0.122 1.352,-0.136 1.385,-0.151 1.418,-0.165 1.376,-0.184 1.256,-0.209 1.136,-0.232 1.017,-0.256 0.897,-0.28 0.778,-0.303 0.657,-0.328 0.539,-0.352 0.418,-0.375 0.299,-0.4 0.18,-0.423 0.06,-0.448 v -10 -10 -10 -10 -1.109 l 3.03,-0.038 2.966,-0.115 2.903,-0.191 2.839,-0.268 2.775,-0.344 2.711,-0.422 2.647,-0.497 2.584,-0.574 2.52,-0.651 2.456,-0.727 2.392,-0.804 2.329,-0.88 2.25,-0.945 2.158,-0.995 2.066,-1.046 1.972,-1.097 1.881,-1.148 1.788,-1.2 1.695,-1.25 1.603,-1.302 1.51,-1.352 1.418,-1.403 1.325,-1.455 1.233,-1.506 2.274,-3.087 2.077,-3.139 1.878,-3.19 1.681,-3.24 1.483,-3.292 1.286,-3.343 1.088,-3.394 0.889,-3.445 0.693,-3.496 0.494,-3.546 0.297,-3.598 0.099,-3.649 -0.105,-4.353 -0.313,-4.177 -0.523,-4.001 -0.731,-3.826 -0.94,-3.651 -1.149,-3.475 -1.358,-3.3 -1.567,-3.124 -1.776,-2.949 -1.985,-2.774 -2.193,-2.597 -2.403,-2.423 -2.639,-2.238 -2.902,-2.043 -3.164,-1.848 -3.429,-1.654 -3.691,-1.459 -3.954,-1.265 -4.218,-1.07 -4.481,-0.876 -4.744,-0.681 -5.007,-0.486 -5.27,-0.292 -5.533,-0.097"
           fill="none"
           stroke="#000000"
           stroke-linecap="butt"
           stroke-linejoin="round"
           stroke-opacity="1"
           stroke-width="3"
           id="path28829" /><path
           d="m 1346.556,528.168 h 4.822 l 1.567,0.027 1.486,0.082 1.404,0.135 1.323,0.19 1.242,0.244 1.16,0.298 1.079,0.353 0.998,0.407 0.916,0.461 0.835,0.515 0.753,0.569 0.672,0.624 0.606,0.687 0.553,0.761 0.5,0.834 0.447,0.907 0.395,0.981 0.342,1.054 0.289,1.128 0.237,1.201 0.184,1.274 0.132,1.348 0.079,1.421 0.026,1.494 -0.038,1.502 -0.115,1.445 -0.192,1.388 -0.268,1.33 -0.344,1.273 -0.421,1.215 -0.498,1.158 -0.574,1.1 -0.651,1.043 -0.727,0.986 -0.804,0.928 -0.88,0.871 -0.936,0.807 -0.971,0.737 -1.007,0.666 -1.041,0.597 -1.077,0.526 -1.111,0.456 -1.147,0.386 -1.182,0.316 -1.217,0.246 -1.252,0.175 -1.287,0.105 -1.322,0.035 h -2.985 v -10 -10 -10 -6.286"
           fill="none"
           stroke="#000000"
           stroke-linecap="butt"
           stroke-linejoin="round"
           stroke-opacity="1"
           stroke-width="3"
           id="path28831" /><path
           d="m 1221.824,488.45 -5.026,-0.013 -5.025,0.013 -4.588,0.038 -4.152,0.064 -3.714,0.089 -3.278,0.115 -2.84,0.141 -2.403,0.166 -1.967,0.191 -1.529,0.217 -1.093,0.242 -0.655,0.268 -0.219,0.294 -2.529,9.674 -2.53,9.675 -2.529,9.675 -2.53,9.675 -2.529,9.675 -2.53,9.674 -2.529,9.675 -2.53,9.675 -2.529,9.675 -2.529,9.675 -2.53,9.675 -2.529,9.674 -2.53,9.675 -2.529,9.675 -2.53,9.675 -2.707,10.357 0.036,0.118 0.11,0.127 0.184,0.135 0.256,0.143 0.331,0.15 0.403,0.159 0.477,0.167 0.55,0.174 0.624,0.183 0.697,0.191 0.77,0.198 0.844,0.207 0.92,0.202 1,0.184 1.08,0.166 1.159,0.15 1.239,0.131 1.319,0.114 1.399,0.097 1.478,0.079 1.559,0.061 1.637,0.044 1.718,0.026 1.797,0.009 3.311,-0.05 3.043,-0.148 2.775,-0.247 2.508,-0.346 2.239,-0.445 1.971,-0.544 1.703,-0.643 1.436,-0.741 1.167,-0.841 0.9,-0.939 0.631,-1.038 0.364,-1.138 2.277,-9.737 2.277,-9.737 2.106,-9.003 h 10 10 10 6.516 l 2.478,9.688 2.478,9.688 2.479,9.688 0.143,0.562 0.396,1.027 0.651,0.938 0.905,0.848 1.161,0.759 1.417,0.67 1.671,0.581 1.927,0.491 2.182,0.402 2.436,0.312 2.692,0.224 2.948,0.134 3.202,0.044 1.064,-0.006 1.124,-0.019 1.185,-0.032 1.246,-0.045 1.306,-0.057 1.367,-0.07 1.427,-0.083 1.488,-0.096 1.549,-0.109 1.609,-0.121 1.67,-0.134 1.73,-0.146 1.688,-0.158 1.54,-0.168 1.394,-0.177 1.247,-0.186 1.101,-0.197 0.954,-0.205 0.807,-0.216 0.66,-0.224 0.513,-0.235 0.367,-0.244 0.22,-0.254 0.074,-0.263 -2.473,-9.689 -2.472,-9.69 -2.473,-9.689 -2.472,-9.69 -2.472,-9.689 -2.473,-9.69 -2.472,-9.689 -2.473,-9.69 -2.472,-9.69 -2.472,-9.689 -2.473,-9.69 -2.472,-9.689 -2.473,-9.69 -2.472,-9.689 -2.472,-9.69 -2.645,-10.365 -0.219,-0.294 -0.655,-0.268 -1.093,-0.242 -1.529,-0.217 -1.967,-0.191 -2.403,-0.166 -2.841,-0.141 -3.277,-0.114 -3.714,-0.09 -4.152,-0.064 -4.588,-0.038"
           fill="none"
           stroke="#000000"
           stroke-linecap="butt"
           stroke-linejoin="round"
           stroke-opacity="1"
           stroke-width="3"
           id="path28833" /><path
           d="m 1213.124,536.666 h 1.378 l 2.124,9.772 2.124,9.771 2.125,9.772 2.124,9.772 1.837,8.452 h -10 -10 -4.114 l 2.524,-9.676 2.525,-9.676 2.524,-9.676 2.524,-9.677 2.305,-8.834"
           fill="none"
           stroke="#000000"
           stroke-linecap="butt"
           stroke-linejoin="round"
           stroke-opacity="1"
           stroke-width="3"
           id="path28835" /><path
           d="m 1092.334,486.174 -2.767,-0.033 -4.944,0.155 -4.806,0.464 -4.668,0.773 -4.528,1.083 -4.39,1.392 -4.251,1.702 -4.113,2.011 -3.973,2.321 -3.835,2.63 -3.696,2.939 -3.557,3.249 -3.419,3.558 -3.21,3.828 -2.93,4.06 -2.652,4.291 -2.372,4.522 -2.093,4.753 -1.814,4.985 -1.535,5.216 -1.256,5.447 -0.977,5.679 -0.698,5.91 -0.419,6.141 -0.139,6.372 0.135,6.366 0.407,6.121 0.678,5.878 0.949,5.634 1.22,5.39 1.491,5.146 1.762,4.902 2.034,4.657 2.304,4.414 2.576,4.17 2.847,3.925 3.118,3.682 3.328,3.412 3.479,3.114 3.628,2.818 3.778,2.522 3.928,2.225 4.078,1.928 4.228,1.631 4.378,1.335 4.528,1.039 4.678,0.741 4.827,0.445 4.978,0.149 3.103,-0.037 3.034,-0.11 2.963,-0.184 2.893,-0.256 2.823,-0.331 2.753,-0.403 2.682,-0.477 2.613,-0.55 2.542,-0.624 2.472,-0.697 2.402,-0.77 2.331,-0.844 2.201,-0.906 2.01,-0.956 1.818,-1.008 1.627,-1.059 1.435,-1.11 1.244,-1.161 1.053,-1.213 0.861,-1.263 0.67,-1.314 0.478,-1.365 0.287,-1.416 0.096,-1.468 -0.023,-0.791 -0.067,-0.845 -0.111,-0.897 -0.157,-0.95 -0.2,-1.002 -0.246,-1.055 -0.29,-1.108 -0.335,-1.16 -0.38,-1.213 -0.424,-1.265 -0.469,-1.318 -0.513,-1.371 -0.54,-1.375 -0.548,-1.33 -0.556,-1.286 -0.564,-1.24 -0.571,-1.196 -0.58,-1.152 -0.588,-1.107 -0.596,-1.062 -0.603,-1.017 -0.612,-0.973 -0.619,-0.929 -0.628,-0.883 -0.615,-0.825 -0.581,-0.754 -0.548,-0.682 -0.514,-0.61 -0.481,-0.538 -0.447,-0.467 -0.414,-0.394 -0.381,-0.323 -0.347,-0.251 -0.313,-0.18 -0.28,-0.108 -0.246,-0.035 -0.224,0.003 -0.21,0.009 -0.198,0.016 -0.185,0.023 -0.172,0.028 -0.159,0.035 -0.147,0.042 -0.134,0.048 -0.121,0.054 -0.109,0.061 -0.096,0.067 -0.083,0.073 -0.485,0.45 -0.538,0.433 -0.591,0.416 -0.644,0.398 -0.696,0.38 -0.749,0.363 -0.801,0.345 -0.854,0.328 -0.907,0.31 -0.959,0.293 -1.012,0.275 -1.065,0.258 -1.082,0.238 -1.064,0.218 -1.047,0.197 -1.03,0.176 -1.012,0.155 -0.994,0.135 -0.977,0.114 -0.959,0.093 -0.942,0.073 -0.924,0.052 -0.907,0.031 -0.889,0.01 -2.113,-0.065 -2.05,-0.196 -1.988,-0.327 -1.925,-0.458 -1.864,-0.588 -1.801,-0.72 -1.74,-0.85 -1.677,-0.981 -1.614,-1.111 -1.553,-1.243 -1.49,-1.373 -1.429,-1.504 -1.338,-1.638 -1.223,-1.778 -1.106,-1.916 -0.99,-2.055 -0.873,-2.194 -0.757,-2.332 -0.64,-2.471 -0.524,-2.61 -0.407,-2.749 -0.291,-2.888 -0.175,-3.026 -0.058,-3.165 0.056,-3.165 0.17,-3.026 0.283,-2.888 0.397,-2.748 0.509,-2.61 0.623,-2.471 0.736,-2.333 0.849,-2.194 0.963,-2.055 1.076,-1.916 1.188,-1.777 1.303,-1.639 1.394,-1.504 1.467,-1.373 1.538,-1.242 1.61,-1.112 1.682,-0.981 1.753,-0.85 1.826,-0.719 1.897,-0.589 1.969,-0.458 2.04,-0.326 2.113,-0.197 2.184,-0.065 0.661,0.01 0.682,0.031 0.702,0.052 0.723,0.073 0.744,0.093 0.765,0.114 0.786,0.135 0.806,0.155 0.827,0.177 0.847,0.197 0.869,0.217 0.889,0.239 0.872,0.247 0.819,0.244 0.764,0.241 0.709,0.237 0.656,0.235 0.601,0.231 0.547,0.228 0.493,0.225 0.438,0.222 0.385,0.218 0.33,0.216 0.276,0.212 0.246,0.201 0.242,0.185 0.237,0.166 0.232,0.149 0.227,0.132 0.222,0.114 0.218,0.096 0.213,0.079 0.208,0.062 0.203,0.044 0.199,0.026 0.194,0.009 0.702,-0.082 0.73,-0.247 0.757,-0.41 0.784,-0.575 0.811,-0.74 0.838,-0.903 0.865,-1.068 0.892,-1.232 0.92,-1.396 0.946,-1.561 0.974,-1.725 1.001,-1.889 0.972,-1.945 0.887,-1.892 0.803,-1.839 0.719,-1.788 0.634,-1.734 0.549,-1.682 0.465,-1.629 0.38,-1.576 0.296,-1.524 0.212,-1.471 0.126,-1.419 0.043,-1.366 -0.089,-1.317 -0.265,-1.27 -0.443,-1.224 -0.62,-1.178 -0.796,-1.131 -0.974,-1.086 -1.151,-1.039 -1.327,-0.993 -1.505,-0.946 -1.682,-0.9 -1.859,-0.854 -2.035,-0.808 -2.153,-0.752 -2.208,-0.687 -2.264,-0.621 -2.319,-0.556 -2.376,-0.49 -2.431,-0.425 -2.487,-0.36 -2.543,-0.294 -2.599,-0.229 -2.655,-0.163 -2.71,-0.098"
           fill="none"
           stroke="#000000"
           stroke-linecap="butt"
           stroke-linejoin="round"
           stroke-opacity="1"
           stroke-width="3"
           id="path28837" /><path
           d="m 958.185,486.166 -2.738,-0.025 -3.993,0.096 -3.864,0.29 -3.734,0.482 -3.605,0.676 -3.476,0.868 -3.347,1.061 -3.217,1.255 -3.089,1.447 -2.959,1.64 -2.83,1.834 -2.701,2.026 -2.572,2.219 -2.402,2.36 -2.194,2.447 -1.985,2.535 -1.776,2.623 -1.567,2.71 -1.358,2.798 -1.149,2.886 -0.94,2.974 -0.731,3.061 -0.523,3.149 -0.313,3.237 -0.104,3.325 0.063,3.318 0.192,3.22 0.319,3.121 0.446,3.023 0.574,2.923 0.702,2.825 0.829,2.725 0.957,2.627 1.085,2.528 1.212,2.429 1.34,2.33 1.467,2.231 0.556,0.801 0.595,0.797 0.636,0.792 0.675,0.787 0.716,0.782 0.755,0.778 0.795,0.772 0.835,0.768 0.875,0.763 0.914,0.759 0.955,0.753 0.994,0.749 0.998,0.729 0.964,0.694 0.93,0.658 0.897,0.624 0.864,0.589 0.83,0.553 0.797,0.518 0.763,0.484 0.73,0.448 0.696,0.413 0.662,0.378 0.63,0.343 0.638,0.335 0.688,0.357 0.74,0.377 0.792,0.398 0.842,0.419 0.893,0.439 0.944,0.46 0.995,0.481 1.046,0.501 1.098,0.523 1.148,0.543 1.199,0.564 1.193,0.568 1.129,0.558 1.066,0.546 1.001,0.535 0.938,0.524 0.874,0.513 0.81,0.501 0.747,0.491 0.682,0.479 0.619,0.468 0.555,0.457 0.491,0.446 0.44,0.445 0.402,0.457 0.364,0.468 0.325,0.48 0.287,0.49 0.249,0.502 0.211,0.512 0.172,0.524 0.134,0.535 0.095,0.547 0.058,0.557 0.019,0.569 -0.068,1.21 -0.203,1.105 -0.339,1 -0.474,0.895 -0.61,0.789 -0.746,0.685 -0.881,0.579 -1.017,0.473 -1.152,0.369 -1.288,0.263 -1.423,0.158 -1.559,0.052 -1.634,-0.041 -1.645,-0.125 -1.659,-0.207 -1.671,-0.29 -1.685,-0.373 -1.697,-0.456 -1.709,-0.54 -1.723,-0.622 -1.735,-0.704 -1.748,-0.788 -1.761,-0.871 -1.773,-0.954 -1.736,-0.977 -1.648,-0.943 -1.561,-0.908 -1.473,-0.872 -1.385,-0.837 -1.297,-0.802 -1.21,-0.768 -1.122,-0.732 -1.034,-0.697 -0.947,-0.661 -0.859,-0.627 -0.771,-0.592 -0.647,0.542 -0.641,0.629 -0.635,0.717 -0.628,0.804 -0.622,0.893 -0.616,0.98 -0.609,1.067 -0.603,1.156 -0.597,1.243 -0.59,1.331 -0.583,1.419 -0.578,1.506 -0.55,1.551 -0.503,1.552 -0.454,1.555 -0.407,1.555 -0.359,1.558 -0.311,1.559 -0.263,1.56 -0.215,1.563 -0.167,1.563 -0.12,1.566 -0.072,1.567 -0.024,1.568 0.058,1.55 0.172,1.512 0.287,1.474 0.402,1.435 0.517,1.397 0.631,1.359 0.747,1.321 0.861,1.282 0.976,1.244 1.091,1.206 1.205,1.167 1.321,1.129 1.398,1.08 1.438,1.019 1.477,0.959 1.518,0.897 1.557,0.838 1.598,0.776 1.637,0.717 1.677,0.655 1.716,0.595 1.757,0.534 1.797,0.474 1.836,0.413 1.875,0.367 1.911,0.335 1.949,0.303 1.984,0.271 2.022,0.239 2.058,0.207 2.095,0.176 2.131,0.143 2.169,0.112 2.204,0.08 2.242,0.048 2.278,0.016 4.606,-0.182 4.402,-0.393 4.198,-0.602 3.993,-0.814 3.789,-1.024 3.586,-1.234 3.381,-1.445 3.177,-1.656 2.973,-1.866 2.768,-2.076 2.565,-2.287 2.36,-2.498 2.164,-2.665 1.976,-2.789 1.788,-2.914 1.6,-3.038 1.411,-3.163 1.224,-3.287 1.035,-3.411 0.846,-3.536 0.659,-3.66 0.471,-3.785 0.282,-3.909 0.094,-4.033 -0.085,-3.088 -0.253,-2.985 -0.423,-2.884 -0.591,-2.781 -0.761,-2.679 -0.93,-2.578 -1.099,-2.475 -1.268,-2.373 -1.437,-2.271 -1.606,-2.169 -1.775,-2.067 -1.944,-1.965 -0.99,-0.903 -0.978,-0.874 -0.967,-0.842 -0.956,-0.813 -0.945,-0.782 -0.934,-0.752 -0.923,-0.722 -0.911,-0.691 -0.9,-0.661 -0.89,-0.631 -0.878,-0.601 -0.866,-0.57 -0.857,-0.547 -0.847,-0.531 -0.837,-0.515 -0.828,-0.499 -0.818,-0.483 -0.809,-0.468 -0.799,-0.451 -0.789,-0.435 -0.78,-0.42 -0.77,-0.403 -0.761,-0.388 -0.751,-0.372 -0.739,-0.359 -0.725,-0.352 -0.711,-0.344 -0.696,-0.335 -0.682,-0.328 -0.667,-0.32 -0.653,-0.312 -0.639,-0.303 -0.624,-0.296 -0.61,-0.288 -0.596,-0.28 -0.581,-0.272 -0.563,-0.263 -0.541,-0.254 -0.518,-0.244 -0.496,-0.234 -0.474,-0.225 -0.451,-0.215 -0.429,-0.206 -0.407,-0.196 -0.384,-0.187 -0.362,-0.177 -0.34,-0.167 -0.317,-0.158 -1.358,-0.659 -1.239,-0.674 -1.121,-0.691 -1.003,-0.707 -0.885,-0.722 -0.767,-0.738 -0.65,-0.755 -0.531,-0.77 -0.413,-0.786 -0.295,-0.803 -0.177,-0.818 -0.059,-0.834 0.081,-1.32 0.241,-1.206 0.403,-1.091 0.564,-0.976 0.725,-0.861 0.886,-0.747 1.047,-0.631 1.208,-0.517 1.369,-0.402 1.53,-0.287 1.692,-0.172 1.852,-0.058 1.954,0.053 1.998,0.158 2.041,0.263 2.083,0.369 2.127,0.473 2.17,0.579 2.213,0.684 2.256,0.79 2.299,0.894 2.342,1 2.385,1.106 2.428,1.21 0.365,-0.305 0.407,-0.457 0.448,-0.609 0.49,-0.76 0.531,-0.911 0.572,-1.063 0.614,-1.215 0.656,-1.365 0.697,-1.518 0.738,-1.669 0.78,-1.82 0.821,-1.973 0.807,-2.018 0.737,-1.959 0.667,-1.9 0.596,-1.842 0.527,-1.782 0.456,-1.723 0.386,-1.664 0.315,-1.606 0.246,-1.546 0.175,-1.487 0.106,-1.428 0.035,-1.369 v -0.115 -0.115 -0.115 -0.115 -0.115 -0.114 -0.115 -0.115 -0.115 -0.115 -0.114 -0.115 l -0.171,-0.942 -0.359,-0.912 -0.547,-0.881 -0.735,-0.851 -0.923,-0.82 -1.112,-0.79 -1.3,-0.76 -1.488,-0.73 -1.676,-0.699 -1.864,-0.669 -2.053,-0.639 -2.241,-0.608 -2.352,-0.569 -2.388,-0.519 -2.422,-0.47 -2.458,-0.42 -2.493,-0.371 -2.527,-0.321 -2.563,-0.272 -2.598,-0.223 -2.633,-0.173 -2.669,-0.123 -2.703,-0.074"
           fill="none"
           stroke="#000000"
           stroke-linecap="butt"
           stroke-linejoin="round"
           stroke-opacity="1"
           stroke-width="3"
           id="path28839" /><path
           d="m 882.645,488.208 h -10 -10 -10 -10 -10 -10 -10 -10 -10 -9.902 l -0.634,0.073 -0.603,0.22 -0.571,0.367 -0.539,0.514 -0.508,0.66 -0.475,0.807 -0.443,0.954 -0.412,1.1 -0.379,1.247 -0.348,1.394 -0.316,1.541 -0.284,1.687 -0.11,0.844 -0.1,0.847 -0.091,0.85 -0.081,0.853 -0.072,0.856 -0.062,0.86 -0.053,0.863 -0.043,0.866 -0.033,0.869 -0.024,0.872 -0.015,0.876 -0.005,0.879 0.005,0.878 0.015,0.876 0.024,0.872 0.033,0.87 0.043,0.866 0.053,0.862 0.062,0.86 0.072,0.856 0.081,0.854 0.091,0.85 0.1,0.847 0.11,0.843 0.284,1.688 0.316,1.54 0.348,1.394 0.379,1.247 0.412,1.101 0.443,0.954 0.475,0.807 0.508,0.66 0.539,0.513 0.571,0.367 0.603,0.22 0.634,0.074 h 10 10 7.562 v 10 l -10e-4,10 v 10 10 10 10 l -10e-4,10 v 10 10 10 l -10e-4,10 v 5.288 l 0.158,0.734 0.474,0.67 0.789,0.606 1.106,0.542 1.421,0.479 1.736,0.414 2.053,0.351 2.368,0.287 2.684,0.223 3,0.16 3.316,0.096 3.632,0.032 3.631,-0.032 3.316,-0.096 3,-0.16 2.684,-0.223 2.368,-0.287 2.053,-0.351 1.736,-0.414 1.421,-0.479 1.106,-0.542 0.789,-0.606 0.474,-0.67 0.158,-0.734 v -10 -10 l -10e-4,-10 v -10 -10 -10 -10 -10 -10 -10 -10 -5.286 l 10,-0.001 10,-10e-4 h 6.871 l 0.635,-0.074 0.602,-0.22 0.571,-0.367 0.539,-0.513 0.508,-0.66 0.475,-0.807 0.443,-0.954 0.412,-1.101 0.379,-1.247 0.348,-1.394 0.316,-1.54 0.284,-1.688 0.11,-0.843 0.1,-0.847 0.091,-0.85 0.081,-0.854 0.072,-0.856 0.062,-0.86 0.053,-0.862 0.043,-0.866 0.034,-0.87 0.023,-0.872 0.015,-0.876 0.005,-0.878 -0.005,-0.879 -0.015,-0.876 -0.023,-0.872 -0.034,-0.869 -0.043,-0.866 -0.053,-0.863 -0.062,-0.86 -0.072,-0.856 -0.081,-0.853 -0.091,-0.85 -0.1,-0.847 -0.11,-0.844 -0.284,-1.687 -0.316,-1.541 -0.348,-1.394 -0.379,-1.247 -0.412,-1.1 -0.443,-0.954 -0.475,-0.807 -0.508,-0.66 -0.539,-0.514 -0.571,-0.367 -0.602,-0.22 -0.635,-0.073"
           fill="none"
           stroke="#000000"
           stroke-linecap="butt"
           stroke-linejoin="round"
           stroke-opacity="1"
           stroke-width="3"
           id="path28841" /><path
           d="m 703.511,488.208 h -10 -10 -10 -10 -3.865 l -1.357,0.056 -1.239,0.167 -1.122,0.279 -1.003,0.391 -0.885,0.502 -0.767,0.614 -0.649,0.726 -0.531,0.837 -0.413,0.949 -0.295,1.061 -0.177,1.172 -0.059,1.284 v 10 10 10 10 10 10 10 10 10 10 10 10 10 10 9.737 l 0.153,0.551 0.459,0.502 0.766,0.454 1.072,0.407 1.377,0.359 1.685,0.311 1.99,0.263 2.297,0.215 2.602,0.168 2.909,0.12 3.216,0.071 3.521,0.024 3.485,-0.025 3.181,-0.077 2.879,-0.127 2.576,-0.179 2.273,-0.23 1.969,-0.28 1.667,-0.332 1.363,-0.383 1.061,-0.434 0.758,-0.485 0.454,-0.535 0.152,-0.587 v -10 -10 -10 -10 -10 -2.133 h 7.119 l 3.944,9.189 3.945,9.19 3.944,9.189 3.944,9.189 3.944,9.19 1.867,4.348 0.759,1.027 0.823,0.938 0.887,0.849 0.95,0.759 1.015,0.67 1.078,0.58 1.142,0.491 1.205,0.402 1.27,0.313 1.333,0.223 1.397,0.134 1.461,0.045 1.526,-0.069 1.594,-0.205 1.66,-0.343 1.727,-0.48 1.794,-0.618 1.862,-0.754 1.928,-0.891 1.995,-1.029 2.062,-1.166 2.129,-1.303 2.196,-1.44 2.263,-1.577 1.627,-1.176 1.512,-1.153 1.397,-1.131 1.282,-1.108 1.168,-1.086 1.052,-1.064 0.938,-1.041 0.823,-1.02 0.708,-0.996 0.594,-0.975 0.478,-0.952 0.364,-0.93 -5.145,-8.575 -5.145,-8.575 -5.145,-8.574 -5.145,-8.575 -5.145,-8.575 -3.212,-5.354 1.652,-1.181 1.588,-1.246 1.525,-1.312 1.461,-1.377 1.397,-1.443 1.333,-1.508 1.27,-1.573 1.206,-1.639 1.141,-1.704 1.079,-1.769 1.014,-1.835 0.95,-1.901 0.881,-1.951 0.804,-1.988 0.727,-2.025 0.651,-2.061 0.574,-2.098 0.497,-2.135 0.421,-2.171 0.345,-2.208 0.268,-2.245 0.191,-2.281 0.115,-2.318 0.038,-2.355 -0.419,-7.52 -1.259,-6.866 -2.097,-6.212 -2.936,-5.558 -3.775,-4.904 -4.614,-4.25 -5.453,-3.597 -6.291,-2.942 -7.131,-2.289 -7.969,-1.634 -8.809,-0.981 -9.647,-0.327"
           fill="none"
           stroke="#000000"
           stroke-linecap="butt"
           stroke-linejoin="round"
           stroke-opacity="1"
           stroke-width="3"
           id="path28843" /><path
           d="m 695.014,528.857 h 4.822 l 1.571,0.028 1.495,0.084 1.42,0.14 1.345,0.195 1.271,0.251 1.195,0.307 1.12,0.363 1.046,0.419 0.97,0.474 0.896,0.53 0.82,0.586 0.746,0.642 0.678,0.7 0.62,0.758 0.561,0.817 0.501,0.877 0.443,0.935 0.383,0.995 0.325,1.053 0.265,1.112 0.207,1.172 0.147,1.23 0.089,1.29 0.029,1.348 -0.151,2.898 -0.455,2.646 -0.757,2.394 -1.061,2.142 -1.363,1.89 -1.667,1.637 -1.97,1.386 -2.272,1.134 -2.576,0.882 -2.879,0.63 -3.181,0.378 -3.485,0.126 h -1.148 v -10 -10 -10 -4.449"
           fill="none"
           stroke="#000000"
           stroke-linecap="butt"
           stroke-linejoin="round"
           stroke-opacity="1"
           stroke-width="3"
           id="path28845" /><path
           d="m 569.822,488.45 -5.025,-0.013 -5.025,0.013 -4.589,0.038 -4.151,0.064 -3.715,0.089 -3.277,0.115 -2.84,0.141 -2.404,0.166 -1.966,0.191 -1.53,0.217 -1.092,0.242 -0.656,0.268 -0.218,0.294 -2.53,9.674 -2.529,9.675 -2.53,9.675 -2.529,9.675 -2.529,9.675 -2.53,9.674 -2.529,9.675 -2.53,9.675 -2.529,9.675 -2.53,9.675 -2.529,9.675 -2.53,9.674 -2.529,9.675 -2.53,9.675 -2.529,9.675 -2.708,10.357 0.037,0.118 0.11,0.127 0.183,0.135 0.257,0.143 0.33,0.15 0.404,0.159 0.477,0.167 0.55,0.174 0.623,0.183 0.697,0.191 0.771,0.198 0.843,0.207 0.921,0.202 1,0.184 1.079,0.166 1.16,0.15 1.239,0.131 1.319,0.114 1.399,0.097 1.478,0.079 1.558,0.061 1.638,0.044 1.718,0.026 1.797,0.009 3.311,-0.05 3.043,-0.148 2.775,-0.247 2.507,-0.346 2.239,-0.445 1.972,-0.544 1.703,-0.643 1.435,-0.741 1.168,-0.841 0.899,-0.939 0.632,-1.038 0.363,-1.138 2.278,-9.737 2.277,-9.737 2.105,-9.003 h 10 10 10 6.516 l 2.479,9.688 2.478,9.688 2.478,9.688 0.144,0.562 0.395,1.027 0.651,0.938 0.906,0.848 1.161,0.759 1.416,0.67 1.672,0.581 1.926,0.491 2.182,0.402 2.437,0.312 2.692,0.224 2.947,0.134 3.203,0.044 1.064,-0.006 1.124,-0.019 1.185,-0.032 1.246,-0.045 1.306,-0.057 1.367,-0.07 1.427,-0.083 1.488,-0.096 1.549,-0.109 1.609,-0.121 1.67,-0.134 1.73,-0.146 1.687,-0.158 1.541,-0.168 1.394,-0.177 1.247,-0.186 1.1,-0.197 0.954,-0.205 0.807,-0.216 0.661,-0.224 0.513,-0.235 0.367,-0.244 0.22,-0.254 0.073,-0.263 -2.472,-9.689 -2.473,-9.69 -2.472,-9.689 -2.472,-9.69 -2.473,-9.689 -2.472,-9.69 -2.473,-9.689 -2.472,-9.69 -2.472,-9.69 -2.473,-9.689 -2.472,-9.69 -2.473,-9.689 -2.472,-9.69 -2.472,-9.689 -2.473,-9.69 -2.645,-10.365 -0.218,-0.294 -0.656,-0.268 -1.092,-0.242 -1.53,-0.217 -1.966,-0.191 -2.403,-0.166 -2.841,-0.141 -3.277,-0.114 -3.715,-0.09 -4.151,-0.064 -4.589,-0.038"
           fill="none"
           stroke="#000000"
           stroke-linecap="butt"
           stroke-linejoin="round"
           stroke-opacity="1"
           stroke-width="3"
           id="path28847" /><path
           d="m 561.122,536.666 h 1.378 l 2.125,9.772 2.124,9.771 2.124,9.772 2.125,9.772 1.837,8.452 h -10 -10 -4.114 l 2.524,-9.676 2.524,-9.676 2.525,-9.676 2.524,-9.677 2.304,-8.834"
           fill="none"
           stroke="#000000"
           stroke-linecap="butt"
           stroke-linejoin="round"
           stroke-opacity="1"
           stroke-width="3"
           id="path28849" /></g><path
         style="fill:#ffffff;fill-opacity:1;fill-rule:evenodd;stroke:none;stroke-width:1.26951;stroke-dasharray:none"
         d="m 161.35563,187.41284 c -2.98616,-0.34702 -3.75878,-0.63304 -3.56118,-1.31831 0.0889,-0.3084 3.88795,-14.84448 8.44225,-32.30241 4.55431,-17.45791 8.35482,-31.81724 8.44556,-31.90961 0.22978,-0.23391 24.52903,-0.21195 24.76337,0.0223 0.23922,0.23924 16.73789,64.83881 16.59601,64.98069 -0.28484,0.28484 -7.06894,0.83153 -10.31867,0.83153 -4.09205,0 -6.72596,-0.43698 -7.75493,-1.28658 -0.48531,-0.40074 -1.06789,-2.09487 -2.04096,-5.93506 -0.74898,-2.95584 -1.50896,-5.94108 -1.68886,-6.63385 l -0.32708,-1.25958 h -8.20456 c -7.47565,0 -8.23122,0.0522 -8.50458,0.5878 -0.165,0.3233 -0.87913,3.1356 -1.58694,6.24956 -0.72352,3.18308 -1.54937,5.99537 -1.88638,6.42382 -0.3297,0.41915 -1.26779,0.93038 -2.08466,1.13606 -1.99344,0.50194 -7.5914,0.72698 -10.28839,0.41357 z m 29.74866,-26.00023 c 0.093,-0.2425 -0.81788,-4.96596 -2.02431,-10.49659 -1.20642,-5.53063 -2.19419,-10.16905 -2.19507,-10.3076 -0.003,-0.41913 -1.57507,-0.28215 -1.928,0.16795 -0.50892,0.64905 -5.54464,20.33771 -5.30209,20.73015 0.34173,0.55293 11.23555,0.46357 11.44947,-0.094 z"
         id="path29248" /><path
         style="fill:#ffffff;fill-opacity:1;fill-rule:evenodd;stroke:none;stroke-width:1.26951;stroke-dasharray:none"
         d="m 256.91656,187.60297 c -0.55424,-0.25622 -1.26127,-0.75103 -1.57118,-1.09957 -0.30993,-0.34854 -2.56419,-5.31937 -5.00946,-11.04633 -2.44527,-5.72693 -4.59649,-10.60837 -4.78049,-10.84763 -0.22148,-0.28801 -0.96909,-0.4015 -2.2122,-0.33588 l -1.87766,0.0991 -0.0886,11.15897 c -0.0886,11.15726 -0.0886,11.15904 -0.83973,11.58822 -0.84623,0.48356 -13.81542,0.62709 -15.44646,0.17097 l -0.9237,-0.25833 v -31.75736 c 0,-31.94622 0.0266,-32.72677 1.14194,-33.47147 0.55922,-0.3734 24.21131,-0.29264 26.90494,0.0918 12.48941,1.78286 18.4739,8.47567 17.85875,19.97245 -0.32839,6.13737 -2.60272,11.34918 -6.52244,14.94671 -1.15461,1.05972 -2.09932,2.16323 -2.09932,2.45226 0,0.28903 2.64515,4.92944 5.8781,10.31201 3.23294,5.38258 5.87808,9.93077 5.87808,10.10707 0,1.15951 -5.0647,5.17981 -9.06905,7.19889 -2.21041,1.11456 -5.62877,1.45441 -7.22164,0.71802 z m -9.3848,-35.30912 c 3.12984,-1.30774 4.51533,-3.3116 4.77004,-6.89898 0.40294,-5.67515 -2.32975,-8.39728 -8.42984,-8.39728 -1.66577,0 -2.2137,0.1228 -2.37045,0.53131 -0.11213,0.29222 -0.20389,3.94203 -0.20389,8.11067 v 7.57935 l 2.51987,-0.21299 c 1.3859,-0.11723 3.05734,-0.43759 3.71427,-0.71208 z"
         id="path29250" /><path
         style="fill:#ffffff;fill-opacity:1;fill-rule:evenodd;stroke:none;stroke-width:1.26951;stroke-dasharray:none"
         d="m 294.70426,187.74833 c -1.01608,-0.14541 -2.18652,-0.37303 -2.601,-0.5057 l -0.75359,-0.2412 -0.0861,-24.75001 -0.0861,-24.74999 -6.31822,-0.0915 -6.31821,-0.0914 -0.5673,-1.25211 c -0.82815,-1.82787 -0.82514,-11.43115 0.005,-13.26268 l 0.57146,-1.26207 21.42465,0.0864 21.42464,0.0864 0.44193,0.92214 c 0.8116,1.69347 1.2141,6.61509 0.80203,9.80718 -0.20658,1.60037 -0.57085,3.31744 -0.80947,3.8157 l -0.43386,0.90595 -5.84936,0.0923 c -3.61879,0.057 -6.01883,0.2328 -6.29377,0.461 -0.36118,0.29974 -0.44442,4.95043 -0.44442,24.83193 v 24.46311 l -1.25959,0.36459 c -1.60389,0.46423 -10.41692,0.71804 -12.84782,0.37001 z"
         id="path29252" /><path
         style="fill:#ffffff;fill-opacity:1;fill-rule:evenodd;stroke:none;stroke-width:1.26951;stroke-dasharray:none"
         d="m 344.75198,188.35989 c -1.93978,-0.1357 -4.5849,-0.48965 -5.87809,-0.78642 -4.70238,-1.07922 -8.81974,-3.79863 -10.26191,-6.77772 -0.64312,-1.32852 -0.72144,-1.91501 -0.57157,-4.27883 0.19238,-3.03382 1.48021,-7.36419 2.78044,-9.34932 l 0.80941,-1.23579 3.11798,1.88602 c 1.7149,1.0373 4.17603,2.3425 5.46921,2.90039 2.09986,0.90592 2.7221,1.01595 5.82023,1.02922 l 3.46899,0.0144 0.98156,-1.09694 c 1.63023,-1.82188 1.27938,-4.36826 -0.8555,-6.209 -0.37517,-0.32347 -2.79824,-1.64415 -5.38459,-2.93488 -8.25915,-4.12171 -11.50905,-7.34291 -13.48251,-13.36341 -0.87735,-2.67656 -0.95925,-3.33954 -0.94287,-7.6336 0.0159,-4.00494 0.12885,-5.0014 0.76542,-6.71781 1.66958,-4.5014 5.25901,-8.45279 9.62927,-10.60027 4.34359,-2.13438 6.22429,-2.50248 12.5959,-2.4653 7.91526,0.0462 14.42756,1.49862 16.47076,3.67352 0.65805,0.70047 0.72144,1.01626 0.51709,2.57601 -0.29672,2.26484 -1.88197,7.02349 -3.24665,9.74585 -0.58132,1.15969 -1.08499,2.1419 -1.11925,2.18264 -0.0342,0.0408 -1.1122,-0.35189 -2.3954,-0.87256 -3.33926,-1.35495 -5.66915,-1.85789 -8.54709,-1.84506 -2.95581,0.0128 -4.426,0.63074 -5.23753,2.20004 -0.71093,1.37483 -0.44342,3.42967 0.59149,4.54343 0.43081,0.46365 3.17831,2.03851 6.10558,3.49972 6.10193,3.04595 7.47764,3.93155 10.50194,6.76066 3.81158,3.56553 5.21075,6.92223 5.21959,12.52205 0.006,3.82197 -0.45364,6.80281 -1.46658,9.51013 -3.6719,9.81402 -11.92619,14.06917 -25.45532,13.1224 z"
         id="path29254" /><path
         style="fill:#ffffff;fill-opacity:1;fill-rule:evenodd;stroke:none;stroke-width:1.26951;stroke-dasharray:none"
         d="m 405.04437,188.37775 c -11.89812,-1.02621 -21.10239,-9.14911 -24.20471,-21.361 -1.25666,-4.94664 -1.70539,-10.99815 -1.21673,-16.40844 0.916,-10.14169 3.86525,-16.85221 9.91642,-22.56303 3.33555,-3.14795 6.70131,-5.13186 10.80254,-6.36744 2.71721,-0.81862 3.54969,-0.91164 8.22931,-0.91953 5.5312,-0.009 9.12247,0.59741 12.73538,2.15164 1.78329,0.76715 3.53254,2.41522 3.81593,3.59522 0.51092,2.12726 -2.20886,9.27879 -4.56564,12.00521 l -1.07768,1.24668 -1.39421,-0.72671 c -0.76682,-0.39968 -2.60676,-0.97742 -4.08876,-1.28388 -2.30883,-0.4774 -3.04182,-0.49762 -5.12081,-0.14112 -7.3273,1.25649 -10.832,6.66228 -10.82093,16.6906 0.008,6.62105 1.19642,10.25876 4.35904,13.33503 3.17977,3.09294 7.22536,4.11544 12.51509,3.16309 1.55678,-0.28029 3.56266,-0.88945 4.45748,-1.3537 l 1.62695,-0.84411 1.04551,1.41508 c 1.51223,2.04671 3.54925,6.51098 4.147,9.08834 0.58362,2.51656 0.28765,3.76989 -1.21736,5.15511 -1.88381,1.73384 -7.76738,3.65324 -12.20436,3.98145 -1.30088,0.0962 -2.96982,0.21958 -3.70879,0.27412 -0.73895,0.0544 -2.55276,-0.005 -4.03067,-0.13268 z"
         id="path29256" /><path
         style="fill:#ffffff;fill-opacity:1;fill-rule:evenodd;stroke:none;stroke-width:1.26951;stroke-dasharray:none"
         d="m 436.11426,187.41284 c -2.98616,-0.34702 -3.7588,-0.63304 -3.56119,-1.31831 0.0889,-0.3084 3.88795,-14.84448 8.44226,-32.30241 4.5543,-17.45791 8.35481,-31.81724 8.44555,-31.90961 0.22978,-0.23391 24.52903,-0.21195 24.76337,0.0223 0.23923,0.23924 16.73791,64.83881 16.59601,64.98069 -0.28483,0.28484 -7.06894,0.83153 -10.31867,0.83153 -4.09205,0 -6.72597,-0.43698 -7.75493,-1.28658 -0.48532,-0.40074 -1.06789,-2.09487 -2.04096,-5.93506 -0.74898,-2.95584 -1.50896,-5.94108 -1.68886,-6.63385 l -0.32708,-1.25958 h -8.20455 c -7.47566,0 -8.23123,0.0522 -8.50459,0.5878 -0.165,0.3233 -0.87913,3.1356 -1.58693,6.24956 -0.72353,3.18308 -1.54935,5.99537 -1.88637,6.42382 -0.32972,0.41915 -1.26781,0.93038 -2.08467,1.13606 -1.99346,0.50194 -7.59141,0.72698 -10.28839,0.41357 z m 29.74864,-26.00023 c 0.093,-0.2425 -0.81787,-4.96596 -2.0243,-10.49659 -1.20642,-5.53063 -2.19419,-10.16905 -2.19507,-10.3076 -0.003,-0.41913 -1.57507,-0.28215 -1.928,0.16795 -0.50893,0.64905 -5.54463,20.33771 -5.30209,20.73015 0.34172,0.55293 11.23555,0.46357 11.44946,-0.094 z"
         id="path29258" /><path
         style="fill:#ffffff;fill-opacity:1;fill-rule:evenodd;stroke:none;stroke-width:1.26951;stroke-dasharray:none"
         d="m 500.26939,187.29254 -1.5115,-0.41517 -0.0857,-31.88199 c -0.0768,-28.59459 -0.0309,-31.96557 0.44543,-32.69256 l 0.5311,-0.81057 12.99021,0.14176 c 12.0264,0.13124 13.20145,0.19652 15.83712,0.87992 10.51706,2.72701 15.45914,9.48313 15.45914,21.1336 0,4.43583 -0.77579,7.7963 -2.6909,11.65611 -4.15179,8.36777 -10.83786,12.19636 -22.92076,13.12494 l -2.60316,0.20006 v 9.02461 9.0246 l -1.25959,0.378 c -1.89359,0.56825 -12.34939,0.74263 -14.19138,0.23669 z m 21.06985,-34.35053 c 3.59674,-1.50282 5.12541,-4.05753 5.11895,-8.55483 -0.008,-5.58624 -2.18692,-7.69059 -7.99072,-7.71726 -2.81204,-0.0127 -2.74712,-0.22252 -2.74712,8.8689 v 7.91742 h 2.19409 c 1.21014,0 2.746,-0.2306 3.4248,-0.51423 z"
         id="path29260" /><path
         style="fill:#ffffff;fill-opacity:1;fill-rule:evenodd;stroke:none;stroke-width:1.26951;stroke-dasharray:none"
         d="m 555.43777,187.21563 -1.09333,-0.47518 0.0857,-32.51293 0.0857,-32.51295 18.04041,-0.087 18.04039,-0.0868 0.40118,1.43044 c 0.56318,2.00807 0.50363,10.79327 -0.0849,12.51484 l -0.45924,1.34358 -9.40374,0.16793 -9.40373,0.16795 v 5.5422 5.5422 l 6.62581,0.0911 c 7.71189,0.10591 7.21706,-0.15832 7.52838,4.02076 0.20877,2.80258 -0.32701,7.64197 -0.92594,8.36365 -0.27481,0.33111 -1.98086,0.46494 -6.79757,0.53317 l -6.43068,0.0911 v 5.37426 5.37426 l 9.40069,0.16794 9.40071,0.16794 0.41882,0.87442 c 0.23034,0.48094 0.59147,2.03529 0.80249,3.45412 0.42598,2.86402 -0.008,7.75247 -0.87313,9.82155 l -0.47337,1.13294 -16.89564,-0.0127 c -13.8045,-0.0111 -17.09569,-0.10001 -17.98897,-0.48832 z"
         id="path29264" /></g><g
       id="g26683"
       transform="matrix(0.27719123,0,0,0.27719123,-36.697989,128.34271)"><path
         d="m 331.42829,207.02831 -0.023,0.42016 -0.98743,2.45454 -0.22013,0.54768 -2.07301,1.64413 -2.07301,1.64438 -2.07301,1.64412 -2.07301,1.64412 -2.07275,1.64412 -2.07301,1.64412 -2.07301,1.64439 -2.07301,1.64412 -2.07275,1.64412 -2.07301,1.64412 -2.07301,1.64412 -2.07301,1.64439 -2.07301,1.64412 -2.07274,1.64412 -2.07301,1.64412 -2.07301,1.64412 -2.07301,1.64439 -2.16297,1.71529 -2.38972,1.13533 -2.38998,1.13532 -1.15544,0.54875 -2.64318,0.11748 -2.64346,0.11747 -2.64318,0.11748 -2.64319,0.11747 -2.64319,0.11748 -2.64319,0.11747 -2.64318,0.11748 -2.64319,0.11747 -2.64345,0.11748 -2.64319,0.11747 -0.27675,0.0124 -2.64055,-0.16907 -2.64027,-0.16907 -2.64054,-0.16907 -2.64028,-0.1688 -2.64054,-0.16907 -2.64054,-0.16907 -2.70537,-0.17304 -2.2942,-1.31789 -2.2942,-1.31789 -2.29421,-1.31815 -0.0913,-0.0524 -1.50918,-2.17329 -1.50918,-2.17329 -0.69136,-0.99536 -1.02711,-2.43813 -1.02711,-2.4384 -1.02738,-2.4384 -1.02711,-2.43814 -1.02712,-2.4384 -1.02737,-2.43813 -0.92102,-2.18652 -0.88873,-2.49211 -0.88874,-2.49211 -0.88873,-2.49211 -0.889,-2.49211 -0.0942,-0.26459 -0.42201,-2.61196 -0.15054,-0.9316 v 0 0 l 0.42201,-2.61197 0.15054,-0.93159 0.88874,-2.49211 0.88873,-2.49185 0.88874,-2.49211 0.88874,-2.49211 0.0944,-0.26458 1.02711,-2.4384 1.02738,-2.43814 1.02711,-2.4384 1.02712,-2.4384 1.02737,-2.43814 1.02712,-2.4384 0.92101,-2.18651 1.50918,-2.17302 1.50919,-2.17329 0.69135,-0.99536 2.29421,-1.31789 2.2942,-1.31816 2.2942,-1.31789 0.0913,-0.0524 2.64054,-0.16906 2.64028,-0.16907 2.64054,-0.16881 2.64054,-0.16907 2.64028,-0.16906 2.64054,-0.16907 2.70537,-0.17304 2.64318,0.11747 2.64319,0.11748 2.64319,0.11747 2.64319,0.11748 2.64345,0.11747 2.64319,0.11748 2.64318,0.11747 2.64319,0.11748 2.64319,0.11747 2.64319,0.11748 0.27701,0.0124 2.38972,1.13507 2.38998,1.13532 1.15544,0.54875 2.07301,1.64412 2.07301,1.64439 2.07301,1.64412 2.07301,1.64412 2.07274,1.64412 2.07302,1.64412 2.07301,1.64438 2.07301,1.64413 2.07274,1.64412 2.07301,1.64412 2.07301,1.64412 2.07301,1.64438 2.07301,1.64412 2.07275,1.64413 2.07301,1.64412 2.07301,1.64412 2.07301,1.64438 2.1627,1.7153 0.98769,2.4548 0.22014,0.54769 0.023,0.42016"
         fill="none"
         stroke="#000000"
         stroke-linecap="butt"
         stroke-linejoin="round"
         stroke-opacity="1"
         stroke-width="0.79375"
         id="path24407"
         style="stroke-width:1;stroke-dasharray:none" /><path
         d="m 331.63202,202.72116 0.0151,0.27437 v 2.6e-4 2.7e-4 l -0.0151,0.27384"
         fill="none"
         stroke="#000000"
         stroke-linecap="butt"
         stroke-linejoin="round"
         stroke-opacity="1"
         stroke-width="0.79375"
         id="path24409"
         style="stroke-width:1;stroke-dasharray:none" /><path
         d="m 219.61246,202.99553 h 2.6e-4 2.7e-4 l 0.57176,-0.0691 h 2.64584 1.00356 2.64584 2.64583 1.79255 2.64583 1.06389 1.39489 2.64583 2.64583 0.28734 2.64583 2.64584 2.64583 2.64583 2.64584 2.64583 2.67309 2.64583 2.64583 2.64584 2.64583 2.64583 2.64584 2.64583 2.64583 2.64584 2.89665 2.64584 2.64583 0.64347 2.64583 2.64583 2.64584 2.64583 2.64583 2.64584 2.64583 2.64583 2.64584 2.64583 2.64583 2.64584 2.64583 3.00752 1.20756 l 0.24103,0.0688 2.7e-4,2.6e-4 h 2.6e-4"
         fill="none"
         stroke="#000000"
         stroke-linecap="butt"
         stroke-linejoin="round"
         stroke-opacity="1"
         stroke-width="0.79375"
         id="path24411"
         style="stroke-width:1;stroke-dasharray:none" /><path
         d="m 230.91837,202.92647 h 2.64583 2.64584 2.64583 2.74611 2.64583 2.64584 2.64583 2.64583 2.64584 2.64583 2.64583 2.64584 2.64583 2.64583 2.64584 2.64583 2.64583 2.64584 2.64583 2.64583 2.92391 -2.64583 -2.64583 -2.64584 -2.64583 -2.64583 -2.64584 -2.64583 -2.64583 -2.64584 -2.64583 -2.64583 -2.64584 -2.64583 -2.64583 -2.64584 -2.64583 -2.64583 -2.64584 -2.64583 -0.56541 -2.64584 -2.45877"
         fill="none"
         stroke="#000000"
         stroke-linecap="butt"
         stroke-linejoin="round"
         stroke-opacity="1"
         stroke-width="0.79375"
         id="path24413"
         style="stroke-width:1;stroke-dasharray:none" /><path
         d="m 574.39013,199.3583 v 2.64584 2.64583 1.98279 l 2.64583,-0.0135 2.64584,-0.0137 2.64583,-0.0135 2.64583,-0.0138 2.64584,-0.0138 2.64557,-0.0135 2.64583,-0.0138 2.64583,-0.0138 2.64584,-0.0135 2.64583,-0.0138 2.64583,-0.0135 2.64584,-0.0138 2.64556,-0.0138 2.64584,-0.0135 2.64583,-0.0138 2.64583,-0.0135 2.64584,-0.0138 2.64583,-0.0138 2.64583,-0.0135 2.64557,-0.0138 2.64584,-0.0135 2.64583,-0.0138 1.68698,-0.009 2.59133,-0.53419 2.59133,-0.53446 2.59133,-0.53419 2.59133,-0.5342 2.59133,-0.53445 2.59133,-0.5342 0.59346,-0.1225 -2.59133,-0.53419 -2.59133,-0.5342 -2.59133,-0.53446 -2.59133,-0.53419 -2.59133,-0.53446 -2.59133,-0.53419 -0.59346,-0.12224 -2.64583,-0.0138 -2.64583,-0.0138 -2.64584,-0.0135 -2.64583,-0.0138 -2.64557,-0.0135 -2.64583,-0.0138 -2.64584,-0.0138 -2.64583,-0.0135 -2.64583,-0.0138 -2.64584,-0.0138 -2.64583,-0.0135 -2.64557,-0.0138 -2.64583,-0.0135 -2.64583,-0.0138 -2.64584,-0.0138 -2.64583,-0.0135 -2.64583,-0.0138 -2.64584,-0.0135 -2.64583,-0.0138 -2.64557,-0.0137 -2.64583,-0.0135 -2.64584,-0.0138 -1.68698,-0.009"
         fill="none"
         stroke="#000000"
         stroke-linecap="butt"
         stroke-linejoin="round"
         stroke-opacity="1"
         stroke-width="0.79375"
         id="path24415"
         style="stroke-width:1;stroke-dasharray:none" /><path
         d="m 551.62538,192.30319 -0.0574,-2.64531 -0.0574,-2.64503 -0.0574,-2.64531 -0.0116,-0.53022 -0.17992,-2.63975 -0.18018,-2.63975 -0.18018,-2.63948 -0.1061,-1.5539 -0.3138,-2.62731 -0.31379,-2.62705 -0.3138,-2.62705 -0.13599,-1.13903 -0.45879,-2.60588 -0.45853,-2.60562 -0.45878,-2.60588 -0.13229,-0.75062 -0.6149,-2.57334 -0.61489,-2.57334 -0.61489,-2.57333 -0.0945,-0.39529 -0.78184,-2.52783 -0.78184,-2.52757 -0.78185,-2.52756 -0.0246,-0.0799 -0.95832,-2.46645 -0.95806,-2.46618 -0.88503,-2.2778 -1.14141,-2.38707 -1.14168,-2.38681 -0.9488,-1.98411 -1.32926,-2.28785 -1.32901,-2.28785 -1.00488,-1.72985 -1.51659,-2.16799 -1.5166,-2.168 -1.06071,-1.51685 -1.69942,-2.02804 -1.69915,-2.02803 -1.1266,-1.34435 -1.87219,-1.86954 -1.87246,-1.86928 -1.21126,-1.20915 -2.02327,-1.70471 -2.02353,-1.70471 -1.32424,-1.115482 -2.15133,-1.54014 -2.15133,-1.540404 -1.46817,-1.050925 -2.26298,-1.371071 -2.26298,-1.370806 -1.64439,-0.996156 -2.35796,-1.200415 -2.35797,-1.20015 -1.8542,-0.944033 -2.43628,-1.03161 -2.43655,-1.031611 -2.09656,-0.887941 -2.49978,-0.867305 -2.49952,-0.867568 -2.37014,-0.82259 -2.54873,-0.710142 -2.54873,-0.709877 -2.54873,-0.710141 -0.1225,-0.03387 -2.58578,-0.560652 -2.58577,-0.560388 -2.58577,-0.560652 -0.41117,-0.08916 -2.61223,-0.419894 -2.61223,-0.419894 -2.61249,-0.419629 -0.73105,-0.117739 -2.62996,-0.288396 -2.63022,-0.288396 -2.62996,-0.28866 -1.07738,-0.118005 -2.64081,-0.166423 -2.64054,-0.166422 -2.64054,-0.166423 -1.44542,-0.09102 -2.6453,-0.05345 -2.64531,-0.05318 -2.6453,-0.05318 -1.83092,-0.03704 h -2.64583 -2.64583 -2.64584 -2.64583 -2.64583 -2.64584 -2.64583 -2.64583 -2.64584 -2.64583 -2.64583 -2.64584 -2.64583 -2.64583 -2.64584 -2.64583 -2.64583 -2.64584 -2.64583 -2.64583 -2.64584 -2.64583 -2.64583 -1.95474 l -1.23402,0.03572 -1.19486,0.107156 -1.1557,0.178065 -1.11654,0.249766 -1.07738,0.32094 -1.03823,0.392112 -0.99907,0.46355 -0.95964,0.534988 -0.92075,0.60616 -0.88159,0.677598 -0.84217,0.748771 -0.80328,0.819944 -0.75088,0.881856 -0.68554,0.933185 -0.62018,0.985044 -0.5551,1.036373 -0.48974,1.088231 -0.42439,1.139825 -0.35904,1.191419 -0.29395,1.243277 -0.2286,1.294871 -0.16325,1.3462 -0.0979,1.398058 -0.0325,1.449917 v 2.645833 2.645831 2.64584 2.64583 2.64583 2.64584 2.64583 2.64583 2.64584 2.64583 2.64583 2.64584 2.64583 2.64583 2.64584 2.64583 2.64583 2.64584 2.64583 2.64583 2.64584 2.64583 2.64583 2.64584 2.64583 2.64583 2.64584 2.64583 2.64583 2.64584 2.64583 2.64583 2.64584 2.64583 2.64583 2.64584 2.64583 2.64583 2.9591 2.64584 2.64583 2.64583 0.42122 2.64583 2.64584 2.64583 2.64583 2.64584 2.64583 2.64583 2.64584 2.64583 2.64583 2.64583 2.64584 2.64583 2.64583 2.64584 2.64583 2.64583 2.64584 2.64583 2.64583 2.64584 2.64583 2.64583 2.64584 2.64583 2.64583 2.64584 2.64583 2.64583 2.64584 2.64583 2.64583 2.64584 2.64583 2.64583 2.64584 2.64583 2.72098 l 0.13308,2.60191 0.39979,2.37569 0.66595,2.14921 0.9324,1.92326 1.19882,1.69677 1.46527,1.47056 1.73143,1.2446 1.99813,1.01811 2.26457,0.79164 2.53074,0.56567 2.62652,0.31883 0.17066,0.0206 2.64398,0.0976 0.41963,0.0153 h 2.64583 2.64583 2.64584 2.64583 2.64583 2.64584 2.64583 2.64583 2.64584 2.64583 2.64583 2.64584 2.64583 2.64583 2.64584 2.64583 2.64583 2.64584 2.64583 2.64583 2.64584 2.64583 2.64583 2.64584 0.81332 l 2.64266,-0.12673 2.64293,-0.12674 2.64265,-0.12673 2.64293,-0.127 2.64266,-0.12674 2.64292,-0.12673 2.64266,-0.12674 0.363,-0.0175 2.61356,-0.41196 2.61355,-0.41196 2.61356,-0.41222 2.61355,-0.41195 2.61356,-0.41196 2.61355,-0.41195 1.54093,-0.24289 2.5408,-0.73793 2.54079,-0.73792 2.54106,-0.73792 2.54079,-0.73766 2.5408,-0.73792 2.54079,-0.73793 0.33681,-0.0979 2.40904,-1.09432 2.40876,-1.09458 2.40877,-1.09458 2.40877,-1.09458 2.40903,-1.09458 1.89759,-0.86228 2.20609,-1.4605 2.2061,-1.46076 2.2061,-1.46077 2.20609,-1.4605 2.2061,-1.46076 1.27106,-0.84164 1.93384,-1.80552 1.93383,-1.80578 1.93411,-1.80578 1.93384,-1.80578 1.93384,-1.80552 0.99192,-0.92657 1.60999,-2.09947 1.60999,-2.09973 1.60999,-2.09947 1.60999,-2.09973 1.60999,-2.09974 0.97128,-1.26656 1.26392,-2.32463 1.26391,-2.32436 1.26365,-2.32437 1.26392,-2.32463 1.26391,-2.32436 1.06178,-1.95263 0.92498,-2.47888 0.92498,-2.47888 0.92499,-2.47888 0.92498,-2.47888 0.92472,-2.47888 0.92498,-2.47888 0.19103,-0.51171 0.61383,-2.5736 0.61357,-2.5736 0.61384,-2.5736 0.61383,-2.57361 0.61383,-2.57386 0.61357,-2.5736 0.41804,-1.75287 0.33973,-2.62387 0.33972,-2.62387 0.33973,-2.62414 0.33972,-2.62387 0.33946,-2.62388 0.33973,-2.62387 0.33972,-2.62414 0.0825,-0.63711 0.0349,-0.88609"
         fill="none"
         stroke="#000000"
         stroke-linecap="butt"
         stroke-linejoin="round"
         stroke-opacity="1"
         stroke-width="0.79375"
         id="path24417"
         style="stroke-width:5;stroke-dasharray:none" /><path
         d="m 471.61988,213.62913 -0.29157,2.6297 -0.21934,1.97802 -0.39555,2.6162 -0.27438,1.81425 -0.51064,2.59609 -0.30824,1.56607 -0.63818,2.56778 -0.3294,1.32636 -0.77867,2.52862 -0.33787,1.09749 -0.93319,2.47597 -0.33232,0.88212 -1.10119,2.40586 -0.313,0.68421 -1.28217,2.31431 -0.28099,0.50747 -1.47347,2.1979 -0.23865,0.35613 -1.65312,2.06586 -0.20267,0.25321 -1.81398,1.92617 -0.18018,0.19103 -1.96824,1.76821 -0.1643,0.14763 -2.11164,1.59385 -0.15928,0.12013 -2.24076,1.40678 -0.16854,0.10584 -2.35267,1.2102 -0.19527,0.10054 -2.44554,1.00965 -0.24051,0.0995 -2.51909,0.80909 -0.3056,0.0982 -2.57386,0.61304 -0.38921,0.0929 -2.6117,0.42439 -0.49001,0.0796 -2.63419,0.24607 -0.60563,0.0566 -2.64477,0.0788 -0.73369,0.022 -0.90885,-0.0135 -0.84614,-0.0408 -0.78369,-0.0675 -0.72073,-0.0947 -0.65828,-0.1217 -0.59558,-0.14897 -0.5326,-0.17568 -0.47017,-0.20293 -0.40746,-0.22993 -0.34475,-0.25691 -0.28204,-0.28416 -0.21934,-0.31115 -0.18045,-0.36274 -0.16431,-0.43895 -0.14896,-0.51514 -0.13335,-0.59134 -0.11747,-0.66781 -0.10187,-0.74401 -0.0863,-0.81995 -0.0704,-0.8964 -0.0548,-0.97261 -0.0392,-1.04907 -0.0235,-1.12501 -0.008,-1.20121 v -2.64583 -2.64584 -2.64583 -2.64583 -2.64584 -2.64583 -2.64583 -2.64584 -2.64583 -2.64583 -2.64584 -2.64583 -2.64583 -2.64584 -1.39885 -2.64583 -2.64584 -2.64583 -2.64583 -2.64584 -2.62016 -2.64584 -2.64583 -2.64583 -2.64584 -2.64583 -2.64583 -2.64584 -2.64583 -2.64583 -2.64584 -2.64583 -2.64583 -2.64584 -2.64583 -2.64583 -2.64584 -2.64583 -2.64583 -2.64584 -1.32344 h 2.64583 1.11522 l 2.6453,0.0481 1.27635,0.023 2.6416,0.15108 1.09988,0.063 2.6326,0.26352 0.92842,0.0931 2.61753,0.38629 0.76359,0.11297 2.59423,0.52018 0.60643,0.12144 2.5609,0.66516 0.45985,0.11933 2.51513,0.821 0.32517,0.10636 2.4548,0.98716 0.20532,0.0825 2.37702,1.16205 0.10292,0.0503 2.29949,1.35494 2.11958,1.4978 1.93913,1.64015 1.77218,1.87537 1.5666,2.13201 0.0516,0.0701 1.3253,2.28997 0.13838,0.23944 1.10305,2.4048 0.2069,0.45138 0.90276,2.48708 0.25294,0.69639 0.72602,2.5445 0.27569,0.96599 0.57044,2.58366 0.27702,1.25412 0.43445,2.60985 0.25903,1.55469 0.31538,2.62705 0.22384,1.86478 0.21087,2.63737 0.17436,2.18149 0.1188,2.64319 0.11245,2.50269 v 0.006"
         fill="none"
         stroke="#000000"
         stroke-linecap="butt"
         stroke-linejoin="round"
         stroke-opacity="1"
         stroke-width="0.79375"
         id="path24419"
         style="stroke-width:5;stroke-dasharray:none" /><path
         d="m 350.06739,198.81617 -2.64584,0.013 -2.64583,0.013 -1.79599,0.009 -1.80314,-1.03055 h -2.64583 -2.64583 -2.64584 -0.64955 l -0.94456,1.11628 -0.21669,0.0265 -2.62652,0.31961 -2.62652,0.31988 -2.62626,0.31962 -2.62651,0.31988 -2.62652,0.31962 -2.62652,0.31988 -2.62626,0.31962 -1.14855,0.1397 0.0577,1.35175 2.64583,0.004 2.64583,0.004 2.64584,0.004 2.64583,0.004 2.64583,0.004 2.64584,0.004 2.64583,0.004 1.15888,0.002 0.077,2.6e-4 0.04,0.27411 -0.04,0.27437 h -0.077 l -2.64584,0.004 -2.64583,0.004 -2.64583,0.004 -2.64584,0.004 -2.64583,0.004 -2.64583,0.004 -2.64584,0.004 -1.15887,0.002 -0.0577,1.35149 2.62652,0.31989 2.62652,0.31961 2.62651,0.31988 2.62626,0.31962 2.62652,0.31988 2.62652,0.31962 2.62625,0.31961 1.14856,0.13997 0.21669,0.0265 0.94456,1.11627 h 2.64584 2.64583 2.64583 0.64955 l 1.80314,-1.03055 2.64583,0.013 2.64584,0.0127 1.79599,0.009"
         fill="none"
         stroke="#000000"
         stroke-linecap="butt"
         stroke-linejoin="round"
         stroke-opacity="1"
         stroke-width="0.79375"
         id="path24421"
         style="stroke-width:1;stroke-dasharray:none" /><path
         d="m 422.27853,210.92033 2.62228,0.35216 2.62229,0.35216 2.62228,0.3519 2.62229,0.35216 2.62229,0.35216 2.62228,0.35216 2.62255,0.35216 2.62229,0.35189 1.39303,0.18706 2.64583,-0.0288 2.64557,-0.0288 2.64557,-0.0291 2.64583,-0.0288 2.64557,-0.0291 2.64583,-0.0288 2.64557,-0.0288 2.64557,-0.0291 2.64583,-0.0288 2.64557,-0.0291 0.51303,-0.006 2.64557,-0.0288 1.81531,-0.0198 0.34528,-0.51779 2.64556,-0.0193 1.26524,-0.009 v 0.63262 h 2.64584 2.64583 2.24314 l 0.83396,-0.51779 2.64557,0.0188 1.40917,0.0101"
         fill="none"
         stroke="#000000"
         stroke-linecap="butt"
         stroke-linejoin="round"
         stroke-opacity="1"
         stroke-width="0.79375"
         id="path24423"
         style="stroke-width:1;stroke-dasharray:none" /><path
         d="m 492.76035,213.17776 h 2.64584 2.64583 2.64583 2.64584 2.47279 v 0.48895 h 2.64584 2.64583 2.27145 l 1.00647,-0.51779 h 2.64583 1.46659 l 0.11509,0.48895 2.64584,-0.009 2.64583,-0.009 2.64583,-0.009 0.40217,-0.002 0.89165,-0.51753 h 2.64583 1.35149 l 0.40243,0.6903 2.64584,-0.013 2.64583,-0.0127 2.64583,-0.0127 2.64584,-0.013 2.64583,-0.0127 2.64583,-0.0127 2.7522,-0.0135 2.64583,-0.0127 2.64583,-0.0127 0.76888,-0.004 2.55932,-0.67098 2.55931,-0.67125 2.55932,-0.67098 2.55931,-0.67099 2.55932,-0.67098 2.55931,-0.67098 0.94351,-0.24739 1.02526,-2.43919 0.13308,-0.31697 v -2.64584 -2.64583 -1.98279 l -1.02499,-2.43919 -0.13335,-0.31671 -2.55932,-0.67098 -2.55931,-0.67098 -2.55932,-0.67125 -2.55931,-0.67098 -2.55932,-0.67099 -2.55931,-0.67098 -0.94351,-0.24739 -2.64583,-0.013 -2.66118,-0.0127 -2.64583,-0.0127 -2.64584,-0.013 -2.64583,-0.0127 -2.64583,-0.0127 -2.64584,-0.013 -2.64583,-0.0127 -2.64557,-0.0127 -0.86016,-0.004 -0.40243,0.69029 h -2.64583 -1.35149 l -0.89165,-0.51779 -2.64583,-0.009 -2.64584,-0.009 -2.64583,-0.009 -0.40217,-0.002 -0.11509,0.48895 h -2.64583 -1.46659 l -1.00647,-0.51753 h -2.64584 -2.64583 -2.27145 v 0.48895 h -2.64583 -1.49543 l -1.03531,-0.54663 -2.64557,0.0386 -2.64557,0.0386 -2.58842,0.0378 v 0.43154 l -2.64583,0.0185 -1.40891,0.0101 -0.83396,-0.51753 h -2.64584 -2.64583 -2.24314 v 0.63262 l -2.64557,-0.0196 -1.26523,-0.009 -0.34528,-0.51753 -2.64557,-0.0291 -1.21232,-0.0132 -2.64557,-0.0288 -2.64584,-0.0288 -2.64557,-0.0291 -2.64556,-0.0288 -2.64584,-0.0291 -2.64557,-0.0288 -2.64556,-0.0288 -2.64584,-0.0291 -2.64557,-0.0288 -2.64583,-0.0291 -1.11601,-0.0122 -2.62229,0.35216 -2.62228,0.35216 -2.62229,0.35216 -2.62228,0.35189 -2.62229,0.35216 -2.62228,0.35216 -2.62229,0.35216 -2.62229,0.35216 -1.39329,0.18707"
         fill="none"
         stroke="#000000"
         stroke-linecap="butt"
         stroke-linejoin="round"
         stroke-opacity="1"
         stroke-width="0.79375"
         id="path24425"
         style="stroke-width:1;stroke-dasharray:none" /><path
         d="m 492.76035,213.17776 v 0.43127 l 2.64557,0.0386 2.64557,0.0386 2.58842,0.0378 1.03531,-0.54636 h -2.64583 -2.64583 -2.64584 -0.97737"
         fill="none"
         stroke="#000000"
         stroke-linecap="butt"
         stroke-linejoin="round"
         stroke-opacity="1"
         stroke-width="0.79375"
         id="path24427"
         style="stroke-width:1;stroke-dasharray:none" /><path
         style="fill:#008000;fill-opacity:1;fill-rule:evenodd;stroke:none;stroke-width:1.52442;stroke-dasharray:none"
         d="m 604.39781,422.25143 c 0,-0.1332 0.38275,-2.50765 0.85055,-5.27654 0.73077,-4.32533 1.81253,-7.73421 7.68081,-24.20404 5.81791,-16.32843 8.81185,-23.86989 20.19987,-50.88158 l 13.36961,-31.7119 6.88054,-9.8492 6.88054,-9.8492 12.74481,-7.3006 12.7448,-7.3006 34.18385,-2.1778 c 38.0321,-2.42295 33.15687,-2.36222 67.17547,-0.83685 10.31529,0.46253 29.91738,1.34015 43.5602,1.95026 l 24.80511,1.1093 10.88935,5.17236 10.88935,5.17235 14.30931,11.34369 c 7.87012,6.23903 39.54233,31.35749 70.38269,55.81881 l 56.07343,44.47512 1.9667,4.84894 c 1.0817,2.66691 1.8985,4.9021 1.815,4.96709 -0.083,0.065 -9.4083,1.23491 -20.7218,2.59983 -55.85693,6.73881 -51.15507,6.10118 -51.96485,7.04708 -0.60597,0.70782 -0.69269,1.2546 -0.47514,2.99577 l 0.26611,2.12991 H 776.65096 c -94.73923,0 -172.25315,-0.10899 -172.25315,-0.2422 z"
         id="path25319"
         transform="matrix(0.26458333,0,0,0.26458333,60.369068,90.599473)" /><path
         style="fill:#00b400;fill-opacity:1;fill-rule:evenodd;stroke:none;stroke-width:1.52442;stroke-dasharray:none"
         d="m 719.16581,575.9026 -33.45768,-2.18083 -12.79893,-7.35901 -12.79893,-7.359 -6.74807,-9.67063 -6.74808,-9.67062 -13.282,-31.46015 c -11.38915,-26.97667 -14.27905,-34.25436 -20.27821,-51.06692 -6.18138,-17.32324 -7.09287,-20.20149 -7.82616,-24.71305 -0.45647,-2.80844 -0.82994,-5.28382 -0.82994,-5.50084 0,-0.25659 60.23805,-0.39457 172.25623,-0.39457 h 172.25624 l -0.26248,2.52085 c -0.19051,1.82958 -0.11329,2.72062 0.28159,3.24938 0.46974,0.62902 5.46661,1.32896 36.57905,5.12381 19.81926,2.4174 36.11506,4.47533 36.21296,4.5732 0.098,0.0979 -0.6954,2.32286 -1.7627,4.94444 l -1.9406,4.76651 -70.47531,55.87706 -70.47526,55.87705 -10.84689,5.11873 -10.84689,5.11873 -50.36679,2.24422 c -27.70173,1.23433 -50.82054,2.22133 -51.37513,2.19334 -0.55458,-0.028 -16.06429,-1.03225 -34.46602,-2.2317 z"
         id="path25321"
         transform="matrix(0.26458333,0,0,0.26458333,60.369068,90.599473)" /><path
         style="fill:#1a1a1a;fill-opacity:1;fill-rule:evenodd;stroke:none;stroke-width:0.381104;stroke-dasharray:none"
         d="m 1028.9361,441.42518 c -0.462,-0.54073 -1.1927,-1.39872 -1.6237,-1.90665 -0.4309,-0.50793 -0.935,-0.99537 -1.1201,-1.0832 -0.2045,-0.097 -1.6166,-0.31764 -3.5999,-0.56236 -3.4682,-0.42793 -39.48305,-4.81107 -58.52042,-7.12214 -6.26682,-0.76077 -11.40081,-1.38711 -11.40886,-1.39186 -0.008,-0.005 0.009,-0.33173 0.0378,-0.72662 l 0.0525,-0.71799 36.61527,-0.0716 c 36.57701,-0.0715 36.61571,-0.0718 37.05041,-0.27736 0.6232,-0.29469 0.9121,-0.78829 1.0945,-1.87005 0.1346,-0.79834 0.1344,-0.99336 0,-1.78141 -0.1842,-1.06746 -0.4749,-1.56096 -1.0929,-1.85528 l -0.4352,-0.20727 -36.61534,-0.0719 -36.61539,-0.0719 -0.0523,-0.7162 c -0.0288,-0.39391 -0.0457,-0.72058 -0.0377,-0.72593 0.008,-0.005 2.71446,-0.33691 6.01425,-0.73679 3.29979,-0.39988 12.51095,-1.51979 20.46926,-2.48869 7.95831,-0.9689 21.71722,-2.64375 30.57552,-3.72189 13.0516,-1.58852 16.1781,-1.99726 16.4863,-2.15534 0.2549,-0.1307 0.8962,-0.81189 1.9434,-2.06406 l 1.5629,-1.86899 15.567,-0.006 15.5671,-0.006 3.2888,1.89063 3.2889,1.89064 h 8.9995 8.9994 v 13.81423 13.81423 h -8.9995 -8.9994 l -3.301,1.89063 -3.3009,1.89064 h -15.5242 -15.5242 z"
         id="path25741"
         transform="matrix(0.26458333,0,0,0.26458333,60.369068,90.599473)" /><path
         style="fill:#666666;fill-opacity:1;fill-rule:evenodd;stroke:none;stroke-width:2.15585;stroke-dasharray:none"
         d="m 1414.8825,458.91461 c -20.2351,-2.7925 -36.8552,-5.09583 -36.9336,-5.1185 -0.078,-0.0227 -0.1426,-13.13195 -0.1426,-29.13173 0,-20.02629 0.1875,-29.09051 0.6019,-29.09051 0.331,0 16.9511,-2.21454 36.9335,-4.9212 l 36.3317,-4.92119 58.9546,0.60962 c 50.9575,0.52692 59.0826,0.72542 59.898,1.46331 0.7331,0.66345 2.8002,0.87939 9.2763,0.96901 8.4998,0.11764 9.6232,-0.058 9.6232,-1.50404 0,-0.69114 2.0197,-0.82135 12.6915,-0.81819 11.7053,0.003 12.8244,0.0918 14.4026,1.13705 1.5025,0.99505 2.6872,1.13375 9.7125,1.13705 6.5567,0.003 8.247,-0.16831 9.3619,-0.9492 1.146,-0.80274 3.4374,-0.99422 14.5363,-1.21474 12.6187,-0.25072 13.2715,-0.21044 15.4422,0.95295 2.0088,1.0767 3.1911,1.21474 10.4031,1.21474 7.3761,0 8.2433,-0.10663 9.2775,-1.1408 1.0701,-1.07019 1.9013,-1.1408 13.4271,-1.1408 11.1607,0 12.4913,0.10451 14.5226,1.1408 1.9403,0.98989 3.3618,1.1408 10.745,1.1408 6.8677,0 8.6459,-0.16503 9.219,-0.8556 1.0241,-1.23388 29.2137,-1.23388 31.3722,0 1.0593,0.60559 3.6573,0.82038 10.1045,0.83539 8.1059,0.0189 8.7189,-0.0551 9.2891,-1.12059 0.6027,-1.12617 1.1943,-1.1408 46.1122,-1.1408 h 45.5016 l 30.4726,7.98563 c 16.76,4.39209 30.5117,7.98563 30.5593,7.98563 0.048,0 1.0156,2.16213 2.1508,4.80474 l 2.0641,4.80474 v 12.74593 12.74592 l -1.7702,4.26721 c -0.9736,2.34697 -2.0645,4.56364 -2.4242,4.92593 -0.3597,0.3623 -14.0014,4.13336 -30.3149,8.38014 l -29.6609,7.72142 -45.7718,0.39927 -45.7717,0.39927 -1.1852,-1.50678 c -1.1802,-1.50028 -1.2196,-1.50678 -9.1522,-1.50678 -6.8413,0 -8.2829,0.16119 -10.2031,1.14081 -2.0602,1.051 -3.3619,1.1408 -16.5369,1.1408 -12.1855,0 -14.3492,-0.12655 -14.629,-0.8556 -0.4678,-1.21923 -18.0375,-1.21923 -20.1703,0 -2.1504,1.22925 -26.9296,1.22925 -27.9497,0 -1.0577,-1.27437 -67.0141,-1.25695 -68.6999,0.0181 -0.8976,0.6789 -3.5445,0.83746 -13.9803,0.83746 -12.2552,0 -12.9072,-0.0548 -13.5854,-1.1408 -0.6591,-1.05532 -1.3302,-1.14081 -8.9562,-1.14081 -7.3147,0 -8.3588,0.12044 -9.2642,1.06859 -0.9724,1.01826 -2.9415,1.08556 -41.8042,1.42869 -22.4311,0.19805 -48.9976,0.48043 -59.0366,0.62749 l -18.2529,0.2674 z"
         id="path25743"
         transform="matrix(0.26458333,0,0,0.26458333,60.369068,90.599473)" /><path
         style="fill:#cccccc;fill-opacity:1;fill-rule:evenodd;stroke:none;stroke-width:1.07793;stroke-dasharray:none"
         d="m 1944.9286,424.80698 v -11.69324 l 4.9197,10e-4 c 2.7059,7.7e-4 53.0474,0.25349 111.8702,0.56158 l 106.9504,0.56018 25.3116,5.20453 c 13.9213,2.8625 25.3115,5.27374 25.3115,5.35832 0,0.0846 -11.3902,2.4959 -25.3115,5.3585 l -25.3116,5.20472 -108.3761,0.56862 c -59.6068,0.31274 -109.9483,0.56862 -111.8701,0.56862 h -3.4941 z"
         id="path25745"
         transform="matrix(0.26458333,0,0,0.26458333,60.369068,90.599473)" /><path
         style="fill:#ffffff;fill-opacity:1;fill-rule:evenodd;stroke:none;stroke-width:6.09767;stroke-dasharray:none"
         d="m 1143.3193,869.53601 c -18.2823,-3.96825 -29.6334,-13.09823 -34.9225,-28.08907 -2.169,-6.14762 -2.4517,-54.89434 -2.4517,-422.81789 0,-412.8937379 0.023,-415.9447622 3.264,-426.4365645 4.1374,-13.3955105 15.3745,-26.3123115 27.7604,-31.9100395 l 8.5025,-3.842648 h 150.8474 c 161.8962,0 171.7063,0.397178 223.4477,9.046582 124.8544,20.871447 214.6039,75.335859 266.8467,161.93565 35.2221,58.38561 54.9471,135.09743 59.2849,230.56263 l 1.071,23.57045 h -32.4222 c -19.8744,0 -32.808,0.62437 -33.4192,1.61334 -1.2216,1.97656 -13.188,2.15542 -14.3872,0.21505 -1.1284,-1.82586 -181.6337,-1.82217 -181.6337,0.004 0,2.07805 -8.422,1.6847 -13.309,-0.62159 -4.9819,-2.3511 -5.9991,-5.26609 -6.0291,-17.27888 -0.039,-15.51885 -5.0012,-50.32421 -9.8763,-69.27019 -11.5535,-44.90058 -29.1977,-68.10849 -65.1661,-85.71489 -27.2557,-13.34157 -54.0498,-18.9443 -97.7687,-20.44373 -27.5589,-0.94517 -28.4972,-0.87172 -31.8635,2.49455 l -3.4684,3.46841 v 210.81216 c 0,151.12888 0.5232,213.81637 1.8479,221.42358 3.296,18.92721 12.3646,24.31979 40.9056,24.32423 31.2507,0.005 60.1771,-7.31249 83.801,-21.19869 14.7583,-8.675 38.4656,-32.43255 47.4279,-47.5286 14.5148,-24.44855 25.2787,-58.77738 30.3473,-96.7852 l 2.6679,-20.00622 4.9984,-0.2032 c 2.7491,-0.11181 22.7854,-0.0113 44.5252,0.22464 21.7398,0.23532 42.4309,0.39317 45.9802,0.3508 79.7836,-0.95253 120.6487,-0.94206 121.25,0.0311 0.4112,0.66551 14.5797,1.21001 31.4855,1.21001 h 30.7378 l -0.8852,5.24336 c -0.4869,2.88384 -2.4658,17.94841 -4.3977,33.47682 -4.909,39.45846 -16.4734,87.28792 -29.6987,122.83172 -55.7449,149.81718 -175.7343,230.24292 -358.226,240.10937 -16.8594,0.91152 -90.5488,1.6033 -163.7541,1.53733 -106.5455,-0.096 -135.1395,-0.56252 -143.32,-2.33815 z"
         id="path25747"
         transform="matrix(0.26458333,0,0,0.26458333,60.369068,90.599473)" /><rect
         style="fill:#1a1a1a;fill-opacity:1;fill-rule:evenodd;stroke:none;stroke-width:1;stroke-dasharray:none"
         id="rect26527"
         width="7.4866314"
         height="2.425247"
         x="519.16248"
         y="195.83409" /><rect
         style="fill:#1a1a1a;fill-opacity:1;fill-rule:evenodd;stroke:none;stroke-width:1;stroke-dasharray:none"
         id="rect26527-9"
         width="7.4866314"
         height="2.425247"
         x="519.21521"
         y="201.89722" /><rect
         style="fill:#1a1a1a;fill-opacity:1;fill-rule:evenodd;stroke:none;stroke-width:1;stroke-dasharray:none"
         id="rect26527-9-3"
         width="7.4866314"
         height="2.425247"
         x="519.21521"
         y="208.01306" /><rect
         style="fill:#1a1a1a;fill-opacity:1;fill-rule:evenodd;stroke:none;stroke-width:1;stroke-dasharray:none"
         id="rect26527-0"
         width="7.4866314"
         height="2.425247"
         x="506.21906"
         y="195.59685" /><rect
         style="fill:#1a1a1a;fill-opacity:1;fill-rule:evenodd;stroke:none;stroke-width:1;stroke-dasharray:none"
         id="rect26527-9-6"
         width="7.4866314"
         height="2.425247"
         x="506.27179"
         y="201.65997" /><rect
         style="fill:#1a1a1a;fill-opacity:1;fill-rule:evenodd;stroke:none;stroke-width:1;stroke-dasharray:none"
         id="rect26527-9-3-1"
         width="7.4866314"
         height="2.425247"
         x="506.27179"
         y="207.77582" /><rect
         style="fill:#1a1a1a;fill-opacity:1;fill-rule:evenodd;stroke:none;stroke-width:1;stroke-dasharray:none"
         id="rect26527-00"
         width="7.4866314"
         height="2.425247"
         x="493.92148"
         y="195.71545" /><rect
         style="fill:#1a1a1a;fill-opacity:1;fill-rule:evenodd;stroke:none;stroke-width:1;stroke-dasharray:none"
         id="rect26527-9-2"
         width="7.4866314"
         height="2.425247"
         x="493.97421"
         y="201.77858" /><rect
         style="fill:#1a1a1a;fill-opacity:1;fill-rule:evenodd;stroke:none;stroke-width:1;stroke-dasharray:none"
         id="rect26527-9-3-7"
         width="7.4866314"
         height="2.425247"
         x="493.97421"
         y="207.89442" /><rect
         style="fill:#1a1a1a;fill-opacity:1;fill-rule:evenodd;stroke:none;stroke-width:1;stroke-dasharray:none"
         id="rect26527-0-0"
         width="7.4866314"
         height="2.425247"
         x="480.97806"
         y="195.47821" /><rect
         style="fill:#1a1a1a;fill-opacity:1;fill-rule:evenodd;stroke:none;stroke-width:1;stroke-dasharray:none"
         id="rect26527-9-6-4"
         width="7.4866314"
         height="2.425247"
         x="481.03079"
         y="201.54134" /><rect
         style="fill:#1a1a1a;fill-opacity:1;fill-rule:evenodd;stroke:none;stroke-width:1;stroke-dasharray:none"
         id="rect26527-9-3-1-4"
         width="7.4866314"
         height="2.425247"
         x="481.03079"
         y="207.65718" /></g></g></svg>
