<?xml version="1.0" encoding="UTF-8" standalone="no"?>
<svg
   version="1.1"
   width="1000"
   height="358"
   viewBox="0 0 1000 358"
   id="svg123"
   sodipodi:docname="dartscape_logo.svg"
   inkscape:version="1.2.2 (732a01da63, 2022-12-09)"
   xmlns:inkscape="http://www.inkscape.org/namespaces/inkscape"
   xmlns:sodipodi="http://sodipodi.sourceforge.net/DTD/sodipodi-0.dtd"
   xmlns="http://www.w3.org/2000/svg"
   xmlns:svg="http://www.w3.org/2000/svg">
  <defs
     id="defs127">
    <defs
       id="defs112" />
  </defs>
  <sodipodi:namedview
     id="namedview125"
     pagecolor="#000000"
     bordercolor="#000000"
     borderopacity="0.25"
     inkscape:showpageshadow="2"
     inkscape:pageopacity="0"
     inkscape:pagecheckerboard="0"
     inkscape:deskcolor="#d1d1d1"
     showgrid="false"
     inkscape:zoom="0.50840978"
     inkscape:cx="356.01204"
     inkscape:cy="-61.957896"
     inkscape:window-width="1920"
     inkscape:window-height="991"
     inkscape:window-x="-10"
     inkscape:window-y="-10"
     inkscape:window-maximized="1"
     inkscape:current-layer="svg123" />
  <g
     transform="matrix(1,0,0,1,-0.6060422256384186,0.0186724704753658)"
     id="g121"
     style="fill:#ffffff">
    <svg
       viewBox="0 0 396 142"
       data-background-color="#c9efc7"
       preserveAspectRatio="xMidYMid meet"
       height="358"
       width="1000"
       version="1.1"
       id="svg119"
       style="fill:#ffffff">
      <path
         style="stroke-width:2.23024;fill:#ffffff"
         d="m 121.14077,70.001506 c 0.0122,0.0996 0.0204,0.20196 0.0234,0.30492 0.0489,1.27687 -0.5766,2.62406 -1.86522,2.72385 -0.008,-1e-4 -0.0132,0.001 -0.0195,-0.002 l -51.402501,0.0182 c -0.28305,-5.3e-4 -0.55145,0.10262 -0.76241,0.28999 l -7.07831,6.315568 c -0.39947,0.35611 -0.91619,0.56018 -1.45372,0.57357 l -13.23255,0.29158 c -0.88943,0.0206 -1.70989,-0.485 -2.08792,-1.28843 l -3.96925,-8.498988 c -0.0315,-0.0748 -0.0326,-0.15778 9.8e-4,-0.2315 l 3.97827,-8.46775 c 0.38779,-0.824222 1.22734,-1.330222 2.14227,-1.288192 l 13.15411,0.60078 c 0.51947,0.0221 1.01823,0.22731 1.40387,0.573672 l 7.20124,6.47015 c 0.21445,0.19172 0.48974,0.29549 0.77867,0.28989 l 51.354201,-0.69485 c 0.96378,5.9e-4 1.68923,0.81545 1.8347,2.01773 z m -1.87476,2.47786 c 0.9317,-0.0789 1.38069,-1.1398 1.3415,-2.15048 -0.0213,-0.88031 -0.44606,-1.79266 -1.29751,-1.79296 l -51.353891,0.69709 c -0.42824,0.007 -0.8401,-0.14777 -1.15797,-0.43495 l -7.20123,-6.47016 c -0.29022,-0.26115 -0.66324,-0.414172 -1.05181,-0.432502 l -13.15656,-0.6027 c -0.69122,-0.0307 -1.32118,0.3508 -1.61246,0.970122 l -3.92468,8.35344 3.91654,8.379528 c 0.28196,0.60389 0.89877,0.98528 1.57074,0.96911 l 13.2326,-0.29159 c 0.40308,-0.0115 0.79373,-0.1612 1.09577,-0.43138 l 7.07828,-6.315568 c 0.31226,-0.27821 0.71375,-0.43231 1.1295,-0.431 z"
         id="path71-6-6" />
      <path
         style="fill:#ffffff"
         d="m 50.051403,24.673365 -0.799728,7.453588 -1.817192,-0.222252 0.898159,-7.441549 z"
         transform="matrix(-0.26793337,-2.2140828,2.2140828,-0.26793337,30.208269,186.33751)"
         id="polygon73-6-8" />
      <path
         style="stroke-width:2.23024;fill:#ffffff"
         d="m 88.420599,68.648106 c -2e-4,0.0123 0.002,0.0227 0.001,0.0335 l -0.007,4.08272 c 4.6e-4,0.15273 -0.1239,0.27558 -0.27665,0.27608 l -16.71561,0.005 c -0.074,2.9e-4 -0.14519,-0.0291 -0.19829,-0.0795 -0.0492,-0.0527 -0.0889,-0.11929 -0.0799,-0.19695 l 0.005,-3.86006 c -6.3e-4,-0.15048 0.12198,-0.27522 0.27427,-0.27792 l 16.71811,-0.2259 c 0.074,-2.8e-4 0.1449,0.0271 0.19829,0.0795 0.0435,0.044 0.073,0.10364 0.0808,0.16304 z m -0.5595,3.84186 0.005,-3.52759 -16.16181,0.21924 -0.004,3.31178 z"
         id="path75-6-0" />
      <path
         style="fill:#ffffff"
         d="m 50.124893,23.60372 -0.02701,0.223777 -1.663959,-0.20351 0.02701,-0.223778 z"
         transform="matrix(-0.26793337,-2.2140828,2.2140828,-0.26793337,30.208269,186.33751)"
         id="polygon77-9-3" />
      <path
         style="stroke-width:2.23024;fill:#ffffff"
         d="m 69.817049,68.998826 c -0.002,0.0113 7.6e-4,0.0224 0.001,0.0334 l -0.004,3.73863 c -3.7e-4,0.0718 -0.028,0.1426 -0.0816,0.19647 -0.0523,0.0514 -0.12277,0.0801 -0.19481,0.0796 l -0.50317,-6.1e-4 c -0.15277,-6.7e-4 -0.29694,-0.11446 -0.27838,-0.2763 l 0.004,-3.73864 c -2.6e-4,-0.0718 0.028,-0.14258 0.0817,-0.19428 0.0524,-0.0513 0.12269,-0.0802 0.19444,-0.0822 l 0.50342,0.002 c 0.14142,-4.7e-4 0.25988,0.10287 0.27602,0.2409 z"
         id="path79-1-6" />
      <path
         style="stroke-width:2.23024;fill:#ffffff"
         d="m 119.31023,68.259596 c 2.09381,4.2e-4 1.92095,4.4942 -0.006,4.496 l -14.53659,0.005 0.005,-4.30268 z"
         id="path81-4-02" />
      <path
         style="stroke-width:2.23024;fill:#ffffff"
         d="m 121.06375,69.959156 c 0.0193,0.15937 0.0276,0.32017 0.0288,0.47954 -0.001,1.28741 -0.61627,2.5929 -1.78888,2.59326 l -14.5366,0.005 c -0.0741,3e-4 -0.1452,-0.0291 -0.1965,-0.0815 -0.0512,-0.0524 -0.0889,-0.11938 -0.0822,-0.19444 l 0.007,-4.30292 c -3.3e-4,-0.1505 0.12169,-0.27531 0.27439,-0.27582 l 14.53569,-0.19776 c 0,0 0.003,-0.002 0.003,-0.002 1.07386,6.2e-4 1.62902,0.93059 1.7555,1.97562 z m -16.01759,2.52469 14.25801,-0.005 c 0.79973,2e-5 1.23182,-1.05217 1.23349,-2.04084 0.004,-0.94855 -0.37593,-1.89998 -1.2277,-1.90249 l -14.25764,0.19323 z m 14.26185,-4.22398 -0.002,-0.004 z"
         id="path83-2-8" />
      <path
         style="fill:#ffffff"
         d="m 46.630535,50.558514 0.461403,-3.822869 -0.703953,-0.08609 -0.461399,3.822865 -0.01161,3.366947 z"
         transform="matrix(-0.26793337,-2.2140828,2.2140828,-0.26793337,30.208269,186.33751)"
         id="polygon85-1-2" />
      <path
         style="stroke-width:2.23024;fill:#ffffff"
         d="m 137.38688,70.219136 c 2.9e-4,0.008 5.4e-4,0.0208 8.5e-4,0.0314 0.001,0.14141 -0.10339,0.25961 -0.2451,0.27677 l -7.45801,0.87553 -8.61923,0.005 c -0.0741,3e-4 -0.14515,-0.0291 -0.19864,-0.0815 -0.0507,-0.0504 -0.0868,-0.12202 -0.08,-0.19465 l 0.002,-1.58177 c 0.002,-0.15301 0.12391,-0.27561 0.27665,-0.27606 l 8.58821,-10e-4 7.4831,0.70518 c 0.13186,0.0134 0.23409,0.11558 0.24903,0.24201 z m -16.04394,0.63633 8.30966,-0.001 4.84409,-0.57048 -4.86797,-0.46227 -8.28231,0.005 z"
         id="path87-3-6" />
      <path
         style="fill:#ffffff"
         d="m 46.48555,18.675936 0.633343,-6.337574 3.417419,-1.058059 -1.43774,10.977622 z"
         transform="matrix(-0.26793337,-2.2140828,2.2140828,-0.26793337,30.208269,186.33751)"
         id="polygon89-2-1" />
      <path
         style="stroke-width:2.23024;fill:#ffffff"
         d="m 66.608619,71.631356 c 0.0108,0.0862 -0.02,0.17306 -0.0842,0.23477 l -7.23074,6.745148 c -0.0513,0.0457 -0.11458,0.0743 -0.18405,0.076 l -14.20274,0.29452 c -0.11199,0.003 -0.21197,-0.0619 -0.25801,-0.16416 l -3.25804,-7.282058 c -0.0413,-0.0824 -0.0314,-0.18489 0.0197,-0.26299 0.0512,-0.0781 0.14219,-0.12495 0.23652,-0.12509 l 24.68927,0.24275 c 0.11472,10e-4 0.21307,0.0707 0.25484,0.17594 0.008,0.0218 0.0132,0.0437 0.0156,0.0658 z m -7.61709,6.504318 6.64962,-6.200768 -23.56679,-0.23033 3.00602,6.721728 z"
         id="path91-0-0" />
      <path
         style="fill:#ffffff"
         d="M 53.307072,19.544737 54.261669,13.248078 51.213707,11.366577 49.89016,22.358742 Z"
         transform="matrix(-0.26793337,-2.2140828,2.2140828,-0.26793337,30.208269,186.33751)"
         id="polygon93-7-40" />
      <path
         style="stroke-width:2.23024;fill:#ffffff"
         d="m 66.622529,69.852696 c 0.003,0.0446 -2e-4,0.0921 -0.0197,0.13482 -0.0408,0.10399 -0.14537,0.17456 -0.25776,0.17257 l -24.69168,0.0159 c -0.0966,6.9e-4 -0.18312,-0.0481 -0.23558,-0.12637 -0.0544,-0.0787 -0.0622,-0.17897 -0.0186,-0.26509 l 3.35027,-7.25276 c 0.0455,-0.1023 0.14843,-0.16422 0.2617,-0.15934 l 14.19573,0.42753 c 0.0695,4e-4 0.13379,0.0287 0.18445,0.0767 l 7.14566,6.80932 c 0.0493,0.0447 0.0772,0.10573 0.0851,0.16737 z m -24.53916,-0.2272 23.57077,-0.0151 -6.57187,-6.26326 -13.90257,-0.41808 z"
         id="path95-9-6" />
      <path
         style="fill:#ffffff;stroke-width:1.08406"
         d="m 39.668168,77.212087 -0.31395,2.457401 -23.073833,-1.313549 z"
         id="path2065" />
      <path
         style="fill:#ffffff;stroke-width:1.08406"
         d="m 35.063495,62.504313 -0.31395,2.457401 -23.073834,-1.313549 z"
         id="path2065-7" />
      <path
         style="fill:#ffffff;stroke-width:1.08406"
         d="M 29.822665,69.538058 29.508715,71.995459 6.4348813,70.68191 Z"
         id="path2065-7-8" />
      <path
         style="stroke-width:2.23024;fill:#ffffff"
         d="m 244.57939,124.19309 c 0.0122,0.0996 0.0204,0.20196 0.0234,0.30492 0.0489,1.27687 -0.5766,2.62406 -1.86522,2.72385 -0.008,-1e-4 -0.0132,10e-4 -0.0195,-0.002 l -51.4025,0.0182 c -0.28305,-5.3e-4 -0.55145,0.10262 -0.76241,0.28999 l -7.07831,6.31556 c -0.39947,0.35611 -0.91619,0.56018 -1.45372,0.57357 l -13.23255,0.29158 c -0.88943,0.0206 -1.70989,-0.485 -2.08792,-1.28843 l -3.96925,-8.49898 c -0.0315,-0.0748 -0.0326,-0.15778 9.8e-4,-0.2315 l 3.97827,-8.46776 c 0.38779,-0.82422 1.22734,-1.33022 2.14227,-1.28819 l 13.15411,0.60078 c 0.51947,0.0221 1.01823,0.22731 1.40387,0.57367 l 7.20124,6.47015 c 0.21445,0.19172 0.48974,0.29549 0.77867,0.28989 l 51.3542,-0.69485 c 0.96378,5.9e-4 1.68923,0.81545 1.8347,2.01774 z m -1.87476,2.47786 c 0.9317,-0.0789 1.38069,-1.1398 1.3415,-2.15048 -0.0213,-0.88031 -0.44606,-1.79267 -1.29751,-1.79297 l -51.35389,0.6971 c -0.42824,0.007 -0.8401,-0.14778 -1.15797,-0.43496 l -7.20123,-6.47016 c -0.29022,-0.26115 -0.66324,-0.41417 -1.05181,-0.4325 l -13.15656,-0.6027 c -0.69122,-0.0307 -1.32118,0.3508 -1.61246,0.97012 l -3.92468,8.35345 3.91654,8.37952 c 0.28196,0.60389 0.89877,0.98528 1.57074,0.96911 l 13.2326,-0.29159 c 0.40308,-0.0115 0.79373,-0.1612 1.09577,-0.43138 l 7.07828,-6.31556 c 0.31226,-0.27821 0.71375,-0.43231 1.1295,-0.431 z"
         id="path71-6-6-3" />
      <path
         style="fill:#ffffff"
         d="m 47.434483,31.904701 0.898159,-7.441549 1.718761,0.210213 -0.799728,7.453588 z"
         transform="matrix(-0.26793337,-2.2140828,2.2140828,-0.26793337,153.64689,240.52909)"
         id="polygon73-6-8-5" />
      <path
         style="stroke-width:2.23024;fill:#ffffff"
         d="m 211.85922,122.83968 c -2e-4,0.0123 0.002,0.0227 0.001,0.0335 l -0.007,4.08273 c 4.6e-4,0.15273 -0.1239,0.27558 -0.27665,0.27608 l -16.71561,0.005 c -0.074,2.9e-4 -0.14519,-0.0291 -0.19829,-0.0795 -0.0492,-0.0527 -0.0889,-0.11929 -0.0799,-0.19695 l 0.005,-3.86007 c -6.3e-4,-0.15048 0.12198,-0.27522 0.27427,-0.27792 l 16.71811,-0.2259 c 0.074,-2.8e-4 0.1449,0.0271 0.19829,0.0795 0.0435,0.044 0.073,0.10364 0.0808,0.16304 z m -0.5595,3.84187 0.005,-3.5276 -16.16181,0.21924 -0.004,3.31179 z"
         id="path75-6-0-4" />
      <path
         style="fill:#ffffff"
         d="m 48.433926,23.623987 0.02701,-0.223778 1.663959,0.203511 -0.02701,0.223777 z"
         transform="matrix(-0.26793337,-2.2140828,2.2140828,-0.26793337,153.64689,240.52909)"
         id="polygon77-9-3-8" />
      <path
         style="stroke-width:2.23024;fill:#ffffff"
         d="m 193.25567,123.1904 c -0.002,0.0113 7.6e-4,0.0224 0.001,0.0334 l -0.004,3.73864 c -3.7e-4,0.0718 -0.028,0.1426 -0.0816,0.19647 -0.0523,0.0514 -0.12277,0.0801 -0.19481,0.0796 l -0.50317,-6.1e-4 c -0.15277,-6.7e-4 -0.29694,-0.11446 -0.27838,-0.2763 l 0.004,-3.73865 c -2.6e-4,-0.0718 0.028,-0.14258 0.0817,-0.19428 0.0524,-0.0513 0.12269,-0.0802 0.19444,-0.0822 l 0.50342,0.002 c 0.14142,-4.7e-4 0.25988,0.10287 0.27602,0.2409 z"
         id="path79-1-6-8" />
      <path
         style="stroke-width:2.23024;fill:#ffffff"
         d="m 242.74885,122.45117 c 2.09381,4.2e-4 1.92095,4.49421 -0.006,4.49601 l -14.53659,0.005 0.005,-4.30269 z"
         id="path81-4-02-7" />
      <path
         style="stroke-width:2.23024;fill:#ffffff"
         d="m 244.50237,124.15074 c 0.0193,0.15937 0.0276,0.32017 0.0288,0.47954 -0.001,1.28741 -0.61627,2.5929 -1.78888,2.59326 l -14.5366,0.005 c -0.0741,3e-4 -0.1452,-0.0291 -0.1965,-0.0815 -0.0512,-0.0524 -0.0889,-0.11938 -0.0822,-0.19444 l 0.007,-4.30293 c -3.3e-4,-0.1505 0.12169,-0.27531 0.27439,-0.27582 l 14.53569,-0.19776 c 0,0 0.003,-0.002 0.003,-0.002 1.07386,6.2e-4 1.62902,0.93059 1.7555,1.97563 z m -16.01759,2.52469 14.25801,-0.005 c 0.79973,2e-5 1.23182,-1.05217 1.23349,-2.04084 0.004,-0.94855 -0.37593,-1.89999 -1.2277,-1.9025 l -14.25764,0.19323 z m 14.26185,-4.22399 -0.002,-0.004 z"
         id="path83-2-8-2" />
      <path
         style="fill:#ffffff"
         d="m 47.091938,46.735645 -0.703953,-0.08609 -0.461399,3.822865 -0.01161,3.366947 0.715557,-3.280849 z"
         transform="matrix(-0.26793337,-2.2140828,2.2140828,-0.26793337,153.64689,240.52909)"
         id="polygon85-1-2-5" />
      <path
         style="stroke-width:2.23024;fill:#ffffff"
         d="m 260.8255,124.41072 c 2.9e-4,0.008 5.4e-4,0.0208 8.5e-4,0.0314 0.001,0.14141 -0.10339,0.25961 -0.2451,0.27677 l -7.45801,0.87553 -8.61923,0.005 c -0.0741,3e-4 -0.14515,-0.0291 -0.19864,-0.0815 -0.0507,-0.0504 -0.0868,-0.12202 -0.08,-0.19465 l 0.002,-1.58177 c 0.002,-0.15301 0.12391,-0.27561 0.27665,-0.27606 l 8.58821,-0.001 7.4831,0.70518 c 0.13186,0.0134 0.23409,0.11558 0.24903,0.24201 z m -16.04394,0.63633 8.30966,-0.001 4.84409,-0.57048 -4.86797,-0.46227 -8.28231,0.005 z"
         id="path87-3-6-5" />
      <path
         style="fill:#ffffff"
         d="m 50.536312,11.280303 -1.43774,10.977622 -2.613022,-3.581989 0.633343,-6.337574 z"
         transform="matrix(-0.26793337,-2.2140828,2.2140828,-0.26793337,153.64689,240.52909)"
         id="polygon89-2-1-1" />
      <path
         style="stroke-width:2.23024;fill:#ffffff"
         d="m 190.04724,125.82294 c 0.0108,0.0862 -0.02,0.17306 -0.0842,0.23477 l -7.23074,6.74514 c -0.0513,0.0457 -0.11458,0.0743 -0.18405,0.076 l -14.20274,0.29452 c -0.11199,0.003 -0.21197,-0.0619 -0.25801,-0.16416 l -3.25804,-7.28205 c -0.0413,-0.0824 -0.0314,-0.18489 0.0197,-0.26299 0.0512,-0.0781 0.14219,-0.12495 0.23652,-0.12509 l 24.68927,0.24275 c 0.11472,0.001 0.21307,0.0707 0.25484,0.17594 0.008,0.0218 0.0132,0.0437 0.0156,0.0658 z m -7.61709,6.50431 6.64962,-6.20076 -23.56679,-0.23033 3.00602,6.72172 z"
         id="path91-0-0-0" />
      <path
         style="fill:#ffffff"
         d="m 51.213707,11.366577 -1.323547,10.992165 3.416912,-2.814005 0.954597,-6.296659 z"
         transform="matrix(-0.26793337,-2.2140828,2.2140828,-0.26793337,153.64689,240.52909)"
         id="polygon93-7-40-4" />
      <path
         style="stroke-width:2.23024;fill:#ffffff"
         d="m 190.06115,124.04428 c 0.003,0.0446 -2e-4,0.0921 -0.0197,0.13482 -0.0408,0.10399 -0.14537,0.17456 -0.25776,0.17257 l -24.69168,0.0159 c -0.0966,6.9e-4 -0.18312,-0.0481 -0.23558,-0.12637 -0.0544,-0.0787 -0.0622,-0.17897 -0.0186,-0.26509 l 3.35027,-7.25277 c 0.0455,-0.1023 0.14843,-0.16422 0.2617,-0.15934 l 14.19573,0.42753 c 0.0695,4e-4 0.13379,0.0287 0.18445,0.0767 l 7.14566,6.80933 c 0.0493,0.0447 0.0772,0.10573 0.0851,0.16737 z m -24.53916,-0.2272 23.57077,-0.0151 -6.57187,-6.26327 -13.90257,-0.41808 z"
         id="path95-9-6-2" />
      <path
         style="fill:#ffffff;stroke-width:1.08406"
         d="m 163.10679,131.40367 -0.31395,2.4574 -23.07384,-1.31355 z"
         id="path2065-9" />
      <path
         style="fill:#ffffff;stroke-width:1.08406"
         d="m 158.50211,116.69589 -0.31395,2.4574 -23.07383,-1.31355 z"
         id="path2065-7-2" />
      <path
         style="fill:#ffffff;stroke-width:1.08406"
         d="m 153.26128,123.72964 -0.31395,2.4574 -23.07383,-1.31355 z"
         id="path2065-7-8-5" />
      <path
         style="stroke-width:2.23024;fill:#ffffff"
         d="m 375.64861,93.376219 c 0.0122,0.0996 0.0204,0.20196 0.0234,0.30492 0.0489,1.27687 -0.5766,2.62406 -1.86522,2.72385 -0.008,-1e-4 -0.0132,0.001 -0.0195,-0.002 l -51.4025,0.0182 c -0.28305,-5.3e-4 -0.55145,0.10262 -0.76241,0.28999 l -7.07831,6.315561 c -0.39947,0.35611 -0.91619,0.56018 -1.45372,0.57357 l -13.23255,0.29158 c -0.88943,0.0206 -1.70989,-0.485 -2.08792,-1.28843 l -3.96925,-8.498981 c -0.0315,-0.0748 -0.0326,-0.15778 9.8e-4,-0.2315 l 3.97827,-8.46776 c 0.38779,-0.82422 1.22734,-1.33022 2.14227,-1.28819 l 13.15411,0.60078 c 0.51947,0.0221 1.01823,0.22731 1.40387,0.57367 l 7.20124,6.47015 c 0.21445,0.19172 0.48974,0.29549 0.77867,0.28989 l 51.3542,-0.69485 c 0.96378,5.9e-4 1.68923,0.81545 1.8347,2.01774 z m -1.87476,2.47786 c 0.9317,-0.0789 1.38069,-1.1398 1.3415,-2.15048 -0.0213,-0.88031 -0.44606,-1.79267 -1.29751,-1.79297 l -51.35389,0.6971 c -0.42824,0.007 -0.8401,-0.14778 -1.15797,-0.43496 l -7.20123,-6.47016 c -0.29022,-0.26115 -0.66324,-0.41417 -1.05181,-0.4325 l -13.15656,-0.6027 c -0.69122,-0.0307 -1.32118,0.3508 -1.61246,0.97012 l -3.92468,8.35345 3.91654,8.379521 c 0.28196,0.60389 0.89877,0.98528 1.57074,0.96911 l 13.2326,-0.29159 c 0.40308,-0.0115 0.79373,-0.1612 1.09577,-0.43138 l 7.07828,-6.315561 c 0.31226,-0.27821 0.71375,-0.43231 1.1295,-0.431 z"
         id="path71-6-6-3-5" />
      <path
         style="fill:#ffffff"
         d="m 47.434483,31.904701 0.898159,-7.441549 1.718761,0.210213 -0.799728,7.453588 z"
         transform="matrix(-0.26793337,-2.2140828,2.2140828,-0.26793337,284.71611,209.71222)"
         id="polygon73-6-8-5-7" />
      <path
         style="stroke-width:2.23024;fill:#ffffff"
         d="m 342.92844,92.022809 c -2e-4,0.0123 0.002,0.0227 10e-4,0.0335 l -0.007,4.08273 c 4.6e-4,0.15273 -0.1239,0.27558 -0.27665,0.27608 l -16.71561,0.005 c -0.074,2.9e-4 -0.14519,-0.0291 -0.19829,-0.0795 -0.0492,-0.0527 -0.0889,-0.11929 -0.0799,-0.19695 l 0.005,-3.86007 c -6.3e-4,-0.15048 0.12198,-0.27522 0.27427,-0.27792 l 16.71811,-0.2259 c 0.074,-2.8e-4 0.1449,0.0271 0.19829,0.0795 0.0435,0.044 0.073,0.10364 0.0808,0.16304 z m -0.5595,3.84187 0.005,-3.5276 -16.16181,0.21924 -0.004,3.31179 z"
         id="path75-6-0-4-0" />
      <path
         style="fill:#ffffff"
         d="m 48.433926,23.623987 0.02701,-0.223778 1.663959,0.203511 -0.02701,0.223777 z"
         transform="matrix(-0.26793337,-2.2140828,2.2140828,-0.26793337,284.71611,209.71222)"
         id="polygon77-9-3-8-1" />
      <path
         style="stroke-width:2.23024;fill:#ffffff"
         d="m 324.32489,92.373529 c -0.002,0.0113 7.6e-4,0.0224 0.001,0.0334 l -0.004,3.73864 c -3.7e-4,0.0718 -0.028,0.1426 -0.0816,0.19647 -0.0523,0.0514 -0.12277,0.0801 -0.19481,0.0796 l -0.50317,-6.1e-4 c -0.15277,-6.7e-4 -0.29694,-0.11446 -0.27838,-0.2763 l 0.004,-3.73865 c -2.6e-4,-0.0718 0.028,-0.14258 0.0817,-0.19428 0.0524,-0.0513 0.12269,-0.0802 0.19444,-0.0822 l 0.50342,0.002 c 0.14142,-4.7e-4 0.25988,0.10287 0.27602,0.2409 z"
         id="path79-1-6-8-4" />
      <path
         style="stroke-width:2.23024;fill:#ffffff"
         d="m 373.81807,91.634299 c 2.09381,4.2e-4 1.92095,4.49421 -0.006,4.49601 l -14.53659,0.005 0.005,-4.30269 z"
         id="path81-4-02-7-4" />
      <path
         style="stroke-width:2.23024;fill:#ffffff"
         d="m 375.57159,93.333869 c 0.0193,0.15937 0.0276,0.32017 0.0288,0.47954 -10e-4,1.28741 -0.61627,2.5929 -1.78888,2.59326 l -14.5366,0.005 c -0.0741,3e-4 -0.1452,-0.0291 -0.1965,-0.0815 -0.0512,-0.0524 -0.0889,-0.11938 -0.0822,-0.19444 l 0.007,-4.30293 c -3.3e-4,-0.1505 0.12169,-0.27531 0.27439,-0.27582 l 14.53569,-0.19776 c 0,0 0.003,-0.002 0.003,-0.002 1.07386,6.2e-4 1.62902,0.93059 1.7555,1.97563 z m -16.01759,2.52469 14.25801,-0.005 c 0.79973,2e-5 1.23182,-1.05217 1.23349,-2.04084 0.004,-0.94855 -0.37593,-1.89999 -1.2277,-1.9025 l -14.25764,0.19323 z m 14.26185,-4.22399 -0.002,-0.004 z"
         id="path83-2-8-2-7" />
      <path
         style="fill:#ffffff"
         d="m 45.914978,53.839363 0.715557,-3.280849 0.461403,-3.822869 -0.703953,-0.08609 -0.461399,3.822865 z"
         transform="matrix(-0.26793337,-2.2140828,2.2140828,-0.26793337,284.71611,209.71222)"
         id="polygon85-1-2-5-5" />
      <path
         style="stroke-width:2.23024;fill:#ffffff"
         d="m 391.89472,93.593849 c 2.9e-4,0.008 5.4e-4,0.0208 8.5e-4,0.0314 10e-4,0.14141 -0.10339,0.25961 -0.2451,0.27677 l -7.45801,0.87553 -8.61923,0.005 c -0.0741,3e-4 -0.14515,-0.0291 -0.19864,-0.0815 -0.0507,-0.0504 -0.0868,-0.12202 -0.08,-0.19465 l 0.002,-1.58177 c 0.002,-0.15301 0.12391,-0.27561 0.27665,-0.27606 l 8.58821,-10e-4 7.4831,0.70518 c 0.13186,0.0134 0.23409,0.11558 0.24903,0.24201 z m -16.04394,0.63633 8.30966,-0.001 4.84409,-0.57048 -4.86797,-0.46227 -8.28231,0.005 z"
         id="path87-3-6-5-9" />
      <path
         style="fill:#ffffff"
         d="m 50.536312,11.280303 -1.43774,10.977622 -2.613022,-3.581989 0.633343,-6.337574 z"
         transform="matrix(-0.26793337,-2.2140828,2.2140828,-0.26793337,284.71611,209.71222)"
         id="polygon89-2-1-1-9" />
      <path
         style="stroke-width:2.23024;fill:#ffffff"
         d="m 321.11646,95.006069 c 0.0108,0.0862 -0.02,0.17306 -0.0842,0.23477 l -7.23074,6.745141 c -0.0513,0.0457 -0.11458,0.0743 -0.18405,0.076 l -14.20274,0.29452 c -0.11199,0.003 -0.21197,-0.0619 -0.25801,-0.16416 l -3.25804,-7.282051 c -0.0413,-0.0824 -0.0314,-0.18489 0.0197,-0.26299 0.0512,-0.0781 0.14219,-0.12495 0.23652,-0.12509 l 24.68927,0.24275 c 0.11472,10e-4 0.21307,0.0707 0.25484,0.17594 0.008,0.0218 0.0132,0.0437 0.0156,0.0658 z m -7.61709,6.504311 6.64962,-6.200761 -23.56679,-0.23033 3.00602,6.721721 z"
         id="path91-0-0-0-6" />
      <path
         style="fill:#ffffff"
         d="m 51.213707,11.366577 -1.323547,10.992165 3.416912,-2.814005 0.954597,-6.296659 z"
         transform="matrix(-0.26793337,-2.2140828,2.2140828,-0.26793337,284.71611,209.71222)"
         id="polygon93-7-40-4-9" />
      <path
         style="stroke-width:2.23024;fill:#ffffff"
         d="m 321.13037,93.227409 c 0.003,0.0446 -2e-4,0.0921 -0.0197,0.13482 -0.0408,0.10399 -0.14537,0.17456 -0.25776,0.17257 l -24.69168,0.0159 c -0.0966,6.9e-4 -0.18312,-0.0481 -0.23558,-0.12637 -0.0544,-0.0787 -0.0622,-0.17897 -0.0186,-0.26509 l 3.35027,-7.25277 c 0.0455,-0.1023 0.14843,-0.16422 0.2617,-0.15934 l 14.19573,0.42753 c 0.0695,4e-4 0.13379,0.0287 0.18445,0.0767 l 7.14566,6.80933 c 0.0493,0.0447 0.0772,0.10573 0.0851,0.16737 z m -24.53916,-0.2272 23.57077,-0.0151 -6.57187,-6.26327 -13.90257,-0.41808 z"
         id="path95-9-6-2-1" />
      <path
         style="fill:#ffffff;stroke-width:1.08406"
         d="m 294.17601,100.5868 -0.31395,2.4574 -23.07384,-1.31355 z"
         id="path2065-9-1" />
      <path
         style="fill:#ffffff;stroke-width:1.08406"
         d="m 289.57133,85.879019 -0.31395,2.4574 -23.07383,-1.31355 z"
         id="path2065-7-2-7" />
      <path
         style="fill:#ffffff;stroke-width:1.08406"
         d="m 284.3305,92.912769 -0.31395,2.4574 -23.07383,-1.31355 z"
         id="path2065-7-8-5-2" />
    </svg>
  </g>
  <g
     id="g4971"
     transform="matrix(2.4772232,0,0,2.321288,8.6307037,0.97595102)"
     style="fill:#e6e6e6">
    <svg
       width="395.51999"
       viewBox="-12.5 -32 364.82999 32.75"
       height="35.503029"
       data-palette-color="#454545"
       version="1.1"
       id="svg5"
       style="stroke-width:2.23024;fill:#e6e6e6">
      <path
         d="m 329.88,-31.25 -0.4,2.25 -21.15,-2.25 z"
         id="path4416"
         style="fill:#e6e6e6" />
      <path
         d="m 325.68,-7.25 -0.4,2.25 -21.2,-2.25 z"
         id="path4414"
         style="fill:#e6e6e6" />
      <path
         d="m 324.83,-2.4 -0.4,2.25 -21.2,-2.25 z"
         id="path4412"
         style="fill:#e6e6e6" />
      <path
         d="m 348.28,-19.05 -1.3,7.25 h -9.5 l -0.65,3.8 h 11.65 l -1.4,8 h -21.15 l 5.5,-31.25 h 20.9 l -2.6,8 h -10.25 l -0.7,4.2 z"
         id="path4410"
         style="fill:#e6e6e6" />
      <path
         d="m 304.48,-7.55 v 0 h -6.2 L 296.98,0 h -9.5 l 5.5,-31.25 h 15 q 8.5,0 8.5,7.9 v 0 q 0,3.75 -1.05,6.78 -1.05,3.02 -2.32,4.79 -1.28,1.78 -3.5,3 -2.23,1.23 -5.13,1.23 z m -4.8,-8 h 2.2 q 1.7,0 2.58,-0.38 0.87,-0.37 1.12,-1.72 v 0 q 0.65,-3.7 0.65,-4.05 v 0 q 0,-0.95 -0.75,-1.25 -0.75,-0.3 -2.25,-0.3 v 0 h -2.2 z m 26.85,3.5 -0.4,2.25 -21.2,-2.25 z m 0.85,-4.8 -0.4,2.25 -21.2,-2.25 z m 0.85,-4.8 -0.4,2.25 -21.2,-2.25 z m 0.8,-4.8 -0.35,2.25 -21.2,-2.25 z"
         id="path4408"
         style="fill:#e6e6e6" />
      <path
         d="m 251.79,-21.65 -0.9,2.2 -20.45,-2.2 z"
         id="path4406"
         style="fill:#e6e6e6" />
      <path
         d="m 249.79,-16.85 -0.95,2.2 -20.45,-2.2 z"
         id="path4404"
         style="fill:#e6e6e6" />
      <path
         d="m 247.74,-12.05 -0.9,2.2 -20.5,-2.2 z"
         id="path4402"
         style="fill:#e6e6e6" />
      <path
         d="M 256.29,-4.95 254.34,0 h -10 l 13.15,-31.25 h 14.7 L 274.39,0 h -10.05 l -0.2,-4.95 z m 3.1,-7.95 h 4 v -8.75 h -0.5 z m 26.99,10.5 -0.4,2.25 -21.2,-2.25 z m 1.7,-9.65 -0.4,2.25 -21.2,-2.25 z m 1.65,-9.6 -0.4,2.25 -21.15,-2.25 z m 0.85,-4.8 -0.4,2.25 -21.15,-2.25 z m -3.35,19.2 -0.4,2.25 -21.2,-2.25 z m 4.2,-24 -0.4,2.25 -21.15,-2.25 z m -2.55,14.4 -0.4,2.25 -21.15,-2.25 z"
         id="path4400"
         style="fill:#e6e6e6" />
      <path
         d="m 222.74,0.75 v 0 q -6.3,0 -9.03,-2.45 -2.72,-2.45 -2.72,-7.55 v 0 q 0,-2.15 0.7,-6.35 v 0 q 1.5,-8.6 5.17,-12.5 3.68,-3.9 11.63,-3.9 v 0 q 1.85,0 4.22,0.37 2.38,0.38 3.48,0.93 v 0 l -2.8,7.65 q -2.95,-0.7 -5.53,-0.7 -2.57,0 -3.67,0.5 -1.1,0.5 -1.35,2 v 0 l -2.3,13.1 q 1.8,0.4 3.7,0.4 v 0 q 4.05,0 7.4,-1.2 v 0 l -0.8,8.4 q -3.2,1.3 -8.1,1.3 z m 20.95,-3.15 -0.95,2.2 -20.5,-2.2 z m 2.05,-4.85 -0.95,2.2 -20.5,-2.2 z m 10.1,-24 -0.9,2.15 -20.4,-2.15 z m -2.05,4.8 -0.9,2.15 -20.4,-2.15 z m -19.25,-4.8 20.4,2.15 0.9,-2.15 z"
         id="path4398"
         style="fill:#e6e6e6" />
      <path
         d="m 200.79,-31.25 h 17.55 q -1.45,0.9 -2.25,1.65 v 0 z"
         id="path4396"
         style="fill:#e6e6e6" />
      <path
         d="m 195.24,-2.4 h 15.8 q 0.65,1.15 1.5,1.85 v 0 z"
         id="path4394"
         style="fill:#e6e6e6" />
      <path
         d="m 191.54,-21.65 h 20 l -0.6,2.05 z"
         id="path4392"
         style="fill:#e6e6e6" />
      <path
         d="m 171.34,-0.55 2.8,-8.25 q 4.2,1.15 7.68,1.15 3.47,0 5.67,-0.3 v 0 l 0.4,-2.5 -4.15,-0.4 q -4.75,-0.45 -6.72,-2.15 -1.98,-1.7 -1.98,-4.8 v 0 q 0,-1.35 0.3,-3 v 0 q 1.15,-6.4 4.2,-8.8 3.05,-2.4 9.38,-2.4 6.32,0 11.17,1.25 v 0 l -2.6,8 q -4.35,-0.75 -6.97,-0.75 -2.63,0 -4.53,0.25 v 0 l -0.4,2.45 3.35,0.35 q 5.1,0.55 7.25,2.42 2.15,1.88 2.15,5.03 v 0 q 0,3.2 -1.35,6.6 v 0 q -0.75,1.75 -1.57,2.92 -0.83,1.18 -2.1,2 -1.28,0.83 -2.33,1.25 -1.05,0.43 -2.7,0.63 v 0 q -2.3,0.35 -5.7,0.35 v 0 q -6.2,0 -11.25,-1.3 z m 39,-16.3 -0.15,1 q -0.1,0.4 -0.2,1.1 v 0 l -19.65,-2.1 z m -20.55,4.8 h 19.85 q -0.15,1.15 -0.15,2.1 v 0 z m 0.65,4.8 h 19.1 q 0.2,1.4 0.35,2.1 v 0 z m 3.45,-19.2 h 19.7 q -0.7,1.3 -1,2 v 0 z"
         id="path4390"
         style="fill:#e6e6e6" />
      <path
         d="m 169.64,-0.2 -17.2,-2.2 h 17.95 z"
         id="path4388"
         style="fill:#e6e6e6" />
      <path
         d="m 171.24,-5.05 -17.95,-2.2 h 18.7 z"
         id="path4386"
         style="fill:#e6e6e6" />
      <path
         d="m 180.59,-9.8 v 0 l -26.45,-2.25 h 21.55 q 1.65,1.6 4.9,2.25 z"
         id="path4384"
         style="fill:#e6e6e6" />
      <path
         d="m 137.74,-31.25 -0.4,2.25 -21.15,-2.25 z"
         id="path4382"
         style="fill:#e6e6e6" />
      <path
         d="m 140.39,-7.25 -0.4,2.25 -21.2,-2.25 z"
         id="path4380"
         style="fill:#e6e6e6" />
      <path
         d="m 162.59,-31.25 -1.45,8 h -6.9 L 150.19,0 h -9.5 l 4.05,-23.25 h -6.85 l 1.45,-8 z m 11,11.85 v 0 l -21.2,-2.25 h 21.55 q -0.25,1 -0.35,2.25 z m -19.8,-7.05 h 21.5 l -0.75,2.2 z m -0.95,9.6 h 20.75 q 0.1,1.35 0.4,2.25 v 0 z m 4.7,-14.4 h 21.5 q -1.15,0.75 -2.2,2.05 v 0 z"
         id="path4378"
         style="fill:#e6e6e6" />
      <path
         d="m 100.3,-31.25 h 15 q 8.55,0 8.55,7.65 v 0 q 0,3.15 -0.95,6 v 0 q -1.75,5.4 -5.5,7.2 v 0 L 120.7,0 h -10.45 l -2.3,-9.3 H 105.9 L 104.3,0 h -9.5 z m 6.95,14.25 h 2.2 q 1.7,0 2.57,-0.38 0.88,-0.37 1.2,-2.15 0.33,-1.77 0.33,-2.17 v 0 q 0,-1 -0.78,-1.28 -0.77,-0.27 -2.52,-0.27 v 0 h -1.9 z m 32.29,14.6 -0.4,2.25 -21.2,-2.25 z m 1.7,-9.65 -0.4,2.25 -21.2,-2.25 z m 0.85,-4.8 -0.4,2.25 -21.2,-2.25 z m 0.85,-4.8 -0.4,2.25 -21.2,-2.25 z m -6.05,-4.8 -0.35,2.25 -21.2,-2.25 z"
         id="path4376"
         style="fill:#e6e6e6" />
      <path
         d="m 63.15,-31.25 -0.9,2.15 -20.4,-2.15 z m -21.3,0 20.4,2.15 0.9,-2.15 z"
         id="path4374"
         style="fill:#e6e6e6" />
      <path
         d="M 63.6,-4.95 61.65,0 h -10 L 64.8,-31.25 H 79.5 L 81.7,0 H 71.65 l -0.2,-4.95 z m 3.1,-7.95 h 4 v -8.75 h -0.5 z m 27,10.5 -0.4,2.25 -21.2,-2.25 z m 1.7,-9.65 -0.4,2.25 -21.2,-2.25 z m 1.65,-9.6 -0.4,2.25 -21.15,-2.25 z m 0.85,-4.8 -0.4,2.25 -21.15,-2.25 z m -3.35,19.2 -0.4,2.25 -21.2,-2.25 z m 4.2,-24 -0.4,2.25 -21.15,-2.25 z m -2.55,14.4 -0.4,2.25 -21.15,-2.25 z"
         id="path4372"
         style="fill:#e6e6e6" />
      <path
         d="M 14.15,-31.25 13.75,-29 -7.4,-31.25 Z"
         id="path4370"
         style="fill:#e6e6e6" />
      <path
         d="M 9.95,-7.25 9.55,-5 -11.65,-7.25 Z"
         id="path4368"
         style="fill:#e6e6e6" />
      <path
         d="m 13.3,-26.45 -0.35,2.25 -21.2,-2.25 z"
         id="path4366"
         style="fill:#e6e6e6" />
      <path
         d="m 12.5,-21.65 -0.4,2.25 -21.2,-2.25 z"
         id="path4364"
         style="fill:#e6e6e6" />
      <path
         d="m 11.65,-16.85 -0.4,2.25 -21.2,-2.25 z"
         id="path4362"
         style="fill:#e6e6e6" />
      <path
         d="m 10.8,-12.05 -0.4,2.25 -21.2,-2.25 z"
         id="path4360"
         style="fill:#e6e6e6" />
      <path
         d="M 9.1,-2.4 8.7,-0.15 -12.5,-2.4 Z"
         id="path4358"
         style="fill:#e6e6e6" />
      <path
         d="M 15.7,-31.25 H 29 q 6.45,0 9.18,2.27 2.72,2.28 2.72,7.38 v 0 q 0,2.6 -0.6,6 v 0 q -1.5,8.4 -5.12,12 Q 31.55,0 23.5,0 V 0 H 10.2 Z m 12,8 v 0 H 23.75 L 21.1,-8 h 3.95 q 1.95,0 2.9,-0.47 0.95,-0.48 1.25,-2.18 v 0 l 1.75,-9.95 Q 31,-20.9 31,-21.4 v 0 q 0,-1.15 -0.8,-1.5 -0.8,-0.35 -2.5,-0.35 z M 51,-2.4 50.05,-0.2 29.55,-2.4 Z m 2.05,-4.85 -0.95,2.2 -20.5,-2.2 z m 2,-4.8 -0.9,2.2 -20.5,-2.2 z m 2.05,-4.8 -0.95,2.2 -20.45,-2.2 z m 2,-4.8 -0.9,2.2 -20.45,-2.2 z m 2,-4.8 -0.9,2.15 -20.4,-2.15 z"
         id="path4353"
         style="fill:#e6e6e6" />
    </svg>
  </g>
</svg>
