<?xml version="1.0" encoding="UTF-8"?>
<svg viewBox="0 0 500 260" xmlns="http://www.w3.org/2000/svg" xmlns:xlink="http://www.w3.org/1999/xlink">
 <defs>
  <filter id="n">
   <feGaussianBlur stdDeviation="1.2856"/>
  </filter>
  <linearGradient id="b">
   <stop offset="0"/>
   <stop stop-color="#333" offset=".5"/>
   <stop offset="1"/>
  </linearGradient>
  <linearGradient id="c">
   <stop stop-color="#4e4e4e" offset="0"/>
   <stop stop-color="#afafaf" offset="1"/>
  </linearGradient>
  <linearGradient id="l" x1="-190.31" x2="-336.31" y1="412.73" y2="573.86" gradientUnits="userSpaceOnUse">
   <stop stop-color="#fff" offset="0"/>
   <stop stop-color="#fff" stop-opacity="0" offset="1"/>
  </linearGradient>
  <linearGradient id="k" x1="-212.69" x2="-356.33" y1="735.53" y2="610.38" gradientUnits="userSpaceOnUse">
   <stop stop-color="#666" offset="0"/>
   <stop stop-color="#666" stop-opacity="0" offset="1"/>
  </linearGradient>
  <linearGradient id="h" x2="0" y1="88.767" y2="122.97" gradientUnits="userSpaceOnUse" spreadMethod="reflect">
   <stop stop-color="#fff" offset="0"/>
   <stop stop-color="#808080" offset="1"/>
  </linearGradient>
  <linearGradient id="e" x1="238.91" x2="239.52" y1="70.681" y2="110.57" gradientUnits="userSpaceOnUse">
   <stop offset="0"/>
   <stop stop-color="#808080" offset=".5"/>
   <stop offset="1"/>
  </linearGradient>
  <linearGradient id="m" x1="-239.44" x2="442.08" y1="265.76" y2="227.96" gradientTransform="matrix(.9987 -.05095 .05095 .9987 -15.3 -1.3882)" gradientUnits="userSpaceOnUse">
   <stop offset="0"/>
   <stop stop-opacity="0" offset="1"/>
  </linearGradient>
  <linearGradient id="j" x1="432.62" x2="432.52" y1="136.37" y2="143.78" gradientTransform="matrix(1.713 0 0 .58378 -18 10)" gradientUnits="userSpaceOnUse" xlink:href="#c" spreadMethod="reflect"/>
  <linearGradient id="i" x1="382.68" x2="382.48" y1="107.68" y2="137.47" gradientTransform="matrix(1.5295 0 0 .6538 -18.606 10)" gradientUnits="userSpaceOnUse" xlink:href="#b"/>
  <linearGradient id="a" x1="-36.234" x2="-30.62" y1="1307.6" y2="1307.7" gradientTransform="matrix(2.3686 0 0 .42219 -9.9798 -18.044)" gradientUnits="userSpaceOnUse" xlink:href="#c" spreadMethod="reflect"/>
  <linearGradient id="g" x1="-36.234" x2="-30.62" y1="1307.6" y2="1307.7" gradientTransform="matrix(3.1829 0 0 .42219 18.387 -201)" gradientUnits="userSpaceOnUse" xlink:href="#c" spreadMethod="reflect"/>
  <linearGradient id="f" x1="111.3" x2="109.19" y1="98.723" y2="76.6" gradientUnits="userSpaceOnUse" xlink:href="#b"/>
  <linearGradient id="d" x1="50.148" x2="50.261" y1="97.856" y2="82.391" gradientUnits="userSpaceOnUse" xlink:href="#b"/>
 </defs>
 <path d="m15.715 247.29 101.62-5.2152 14.655 2.9495 202.6-16.751 127.53 2.6593 12.406-26.294-37.31-12.76-101.68 18.934-204.2 21.415-15.835 3.5854z" fill="url(#m)" filter="url(#n)"/>
 <g transform="matrix(.65684 -.27321 .27321 .65684 -10.362 187)">
  <g transform="translate(961.63 -508.41)">
   <path d="m-234.04 592.8v8.3474l-20.869 56.218c-6.4344 7.6993-4.6984 10.24-11.959 12.988-8.2781 3.1321-10.786 3.2034-27.452 1.785l-60.248-4.1252-62.18-63.032v-16.014l62.18-63.032 60.248-4.1252c16.666-1.4184 19.174-1.3471 27.452 1.785 7.2606 2.7471 5.5246 5.2882 11.959 12.988l20.869 56.218z" fill="#000080" fill-rule="evenodd"/>
   <path d="m-309.94 522.88-13.531 0.9375 0.25 44.75-32.5-41.469-20.469 20.781 34.188 44.219-74.75 0.4375v12.25l77.031 0.15625-36.938 40.688 21.031 21.344 32.781-36.562 0.21875 39.812 12.406 0.84375 0.0625-37.781 30.75 39.75c4.8391-0.0588 7.7125-0.86429 12.531-2.6875 7.2606-2.7471 5.5344-5.2694 11.969-12.969l0.40625-1.0938-40.156-51.25 59.125 0.125 1.5-4v-8.3438l-0.5-1.3438-53.719 0.3125 38.062-42.469-4.7188-12.719c-6.2072-7.4275-4.8381-10.045-11.25-12.688l-43.875 48.344 0.0937-49.375z" fill="#fff"/>
   <path d="m-309.94 522.88-13.531 0.9375 0.375 68.156-93.656 0.53125v12.281l93.75 0.1875 0.375 65.25 12.406 0.84375 0.125-66.062 74.562 0.15625 1.5-4v-8.3438l-0.5-1.3438-75.531 0.4375 0.125-69.031z" fill="#fff"/>
   <path d="m-314 523.16-5.4688 0.375v62.812l-42.25-53.156-9.5625 9.6875 42.594 53.594h-88.062v5.4688h88.531l-43.938 48.281 9.5 9.625 43.188-47.469v58.062l5.4688 0.375v-55.875l44.75 56.281c0.75345-0.2598 1.5205-0.5517 2.375-0.875 5.2074-1.9702 5.8397-3.8563 8.125-7.5938l-48.344-60.812h72.781l0.28125-0.78125v-4.6875h-70.969l51.375-56.438-1.2812-3.4375c-3.4284-4.1024-4.5514-6.7338-5.9375-8.7188l-53.156 58.438v-63.156z" fill="#a00"/>
   <path d="m-280.51 520.94c-3.3187 0.0301-7.5628 0.34311-13.812 0.875l-60.25 4.125-53.188 53.906 168.44-1.2812-15.594-41.969c-6.4344-7.6993-4.7082-10.253-11.969-13-5.1738-1.9576-8.0939-2.7064-13.625-2.6562z" fill="url(#l)" fill-rule="evenodd"/>
   <path d="m-237.44 610.32-167.66 6.4688 50.531 51.219 60.25 4.125c16.666 1.4184 19.159 1.3508 27.438-1.7812 7.2606-2.7471 5.5344-5.2694 11.969-12.969l17.469-47.062z" fill="url(#k)" fill-rule="evenodd"/>
  </g>
  <path d="m708.03 85.281v8.6562h11.424v-0.21875h12.37c0.8884 0 1.6055-1.0887 1.6055-2.4375v-3.3438c0-1.3488-0.71708-2.4375-1.6055-2.4375h-12.37v-0.21875h-11.424z" fill="url(#j)" fill-rule="evenodd"/>
  <path d="m350.47 77.531 0.0312 24.375c13.739-1.0339 13.722-1.0295 26.219-2.2812 6.9798-0.48847 24.187-1.3028 30.906-1.2188l70.281-0.3125 65.062-0.125v2.0625l47.031-4.5312-0.125-12.031-46.906-3.5312v1.7812l-65.156-0.125-70.25-0.3125c-6.7196 0.084-23.958-0.73027-30.938-1.2188-12.496-1.2518-12.452-1.252-26.156-2.5312z" fill="url(#i)" fill-rule="evenodd"/>
  <path transform="matrix(-.00443,-.99999,1,-.00113,0,0)" d="m-100.98 538.27h20.78a1.571 2.132 0 0 1 1.571 2.132 1.571 2.132 0 0 1 -1.571 2.132h-20.78a1.571 2.132 0 0 1 -1.571 -2.132 1.571 2.132 0 0 1 1.571 -2.132" fill="url(#a)"/>
  <path transform="matrix(-.00443,-.99999,1,-.00113,0,0)" d="m-100.98 534.03h20.78a1.571 2.132 0 0 1 1.571 2.132 1.571 2.132 0 0 1 -1.571 2.132h-20.78a1.571 2.132 0 0 1 -1.571 -2.132 1.571 2.132 0 0 1 1.571 -2.132" fill="url(#a)"/>
  <path transform="matrix(-.00443,-.99999,1,-.00113,0,0)" d="m-100.92 529.79h20.78a1.571 2.132 0 0 1 1.571 2.132 1.571 2.132 0 0 1 -1.571 2.132h-20.78a1.571 2.132 0 0 1 -1.571 -2.132 1.571 2.132 0 0 1 1.571 -2.132" fill="url(#a)"/>
  <path d="m134.92 102.94 0.25701-26.97c33.411-3.3411 50.034-6.0679 62.614-5.622 15.974 0.56614 85.551 3.9515 150.7 5.108l-0.25701 27.998c-65.151 1.1565-134.73 4.5419-150.7 5.108-12.58 0.44586-29.203-2.2809-62.614-5.622z" fill="url(#h)"/>
  <path transform="matrix(-.0033,-.99999,1,-.00151,0,0)" d="m-103.82 346.84h27.924a2.1112 2.132 0 0 1 2.1112 2.132 2.1112 2.132 0 0 1 -2.1112 2.132h-27.924a2.1112 2.132 0 0 1 -2.1112 -2.132 2.1112 2.132 0 0 1 2.1112 -2.132" fill="url(#g)"/>
  <path d="m135.03 75.985-42.635 9.9846-85.458-0.03179c-1.634 0-2.9375 1.6865-2.9375 3.7812s1.3035 3.7812 2.9375 3.7812c0 0 85.136 0.02632 85.441-0.10911l42.81 9.2654-0.15786-26.672z" fill="url(#f)"/>
  <path d="m194.75,70.3125v38.28125c.94907-.00027 1.87852.00074 2.78125-.0312l1.21875-.0625v-38.125c-.19705-.0072-.78569-.02476-.96875-.03125-.98039-.03475-1.99573-.03383-3.03125-.03125zm-3,.03125c-1.28675.04147-2.60404.10152-4,.1875v37.84375c1.39612.0838 2.71301.14898 4,.1875v-38.21875zm10,.15625v37.875l4-.15625v-37.53125c-1.21061-.04986-3.01135-.14868-4-.1875zm-17,.25c-1.2984.0998-2.59353.21455-4,.34375v36.71875c1.41009.12853 2.69874.2452 4,.34375v-37.40625zm23,0v37.375c1.3296-.0556 2.46781-.0913 4-.15625v-37.03125c-1.5204-.06441-2.68309-.13253-4-.1875zm7,.28125v36.8125c1.66-.0706 2.16235-.0783 4-.15625v-36.46875c-1.84677-.07834-2.33516-.11672-4-.1875zm7,.3125v36.21875c1.1405-.0482 2.80166-.10589 4-.15625v-35.90625l-4-.15625zm7,.28125v35.65625c1.24046-.0519 2.7061-.13388 4-.1875v-35.3125c-1.29021-.05349-2.76336-.10454-4-.15625zm7,.28125v35.09375c1.33229-.0548 2.61871-.13132 4-.1875v-34.75c-1.37785-.05608-2.67128-.10157-4-.15625zm47,1.78125v31.53125l4-.125v-31.28125l-4-.125zm22,.71875v30.09375c1.32277-.0391 2.67054-.0556 4-.0937v-29.90625c-1.33075-.03823-2.67603-.05454-4-.09375zm21,.5625v28.96875l4-.0937v-28.78125l-4-.09375z" fill="url(#e)"/>
  <path d="m93.062 85.812-0.65625 0.15625-85.469-0.03125c-1.634 0-2.9375 1.6865-2.9375 3.7812s1.3035 3.7812 2.9375 3.7812c0 0 85.133 0.04168 85.438-0.09375l0.6875 0.15625v-7.75z" fill="url(#d)"/>
 </g>
</svg>
