<?xml version="1.0" encoding="UTF-8" standalone="no"?>
<svg
   viewBox="0 0 2577 488.00003"
   version="1.1"
   id="svg20319"
   sodipodi:docname="dart_vec.svg"
   width="2577"
   height="488"
   inkscape:version="1.2.2 (732a01da63, 2022-12-09)"
   xmlns:inkscape="http://www.inkscape.org/namespaces/inkscape"
   xmlns:sodipodi="http://sodipodi.sourceforge.net/DTD/sodipodi-0.dtd"
   xmlns="http://www.w3.org/2000/svg"
   xmlns:svg="http://www.w3.org/2000/svg"
   xmlns:rdf="http://www.w3.org/1999/02/22-rdf-syntax-ns#"
   xmlns:cc="http://creativecommons.org/ns#"
   xmlns:dc="http://purl.org/dc/elements/1.1/">
  <sodipodi:namedview
     id="namedview20321"
     pagecolor="#ffffff"
     bordercolor="#000000"
     borderopacity="0.25"
     inkscape:showpageshadow="2"
     inkscape:pageopacity="0.0"
     inkscape:pagecheckerboard="0"
     inkscape:deskcolor="#d1d1d1"
     showgrid="false"
     inkscape:zoom="0.22987922"
     inkscape:cx="1650.8669"
     inkscape:cy="-176.17947"
     inkscape:window-width="1920"
     inkscape:window-height="991"
     inkscape:window-x="-10"
     inkscape:window-y="-10"
     inkscape:window-maximized="1"
     inkscape:current-layer="svg20319" />
  <defs
     id="defs20077">
    <linearGradient
       id="linearGradient23193"
       inkscape:swatch="solid">
      <stop
         style="stop-color:#000000;stop-opacity:1;"
         offset="0"
         id="stop23191" />
    </linearGradient>
    <style
       id="style20075"> .cls-1 { fill: #de2237; } .cls-2 { fill: #a40017; } .cls-3 { fill: #fe8b00; } .cls-3, .cls-4 { stroke: #fcc329; stroke-width: 3.98px; } .cls-3, .cls-4, .cls-7, .cls-8 { stroke-linecap: square; } .cls-4 { fill: #ff7101; } .cls-5 { fill: #1d8aff; } .cls-5, .cls-6 { stroke: #1d8aff; stroke-linecap: round; stroke-linejoin: round; } .cls-5, .cls-6, .cls-7, .cls-8 { stroke-width: 5.26px; } .cls-6 { fill: #0051f9; } .cls-7 { fill: #ffb30d; } .cls-7, .cls-8 { stroke: #ffd163; } .cls-8 { fill: #ff8e01; fill-opacity: 0.67; } .cls-9 { fill: #bca057; } .cls-10 { fill: #d9be7f; } .cls-11 { fill: #424650; } </style>
  </defs>
  <title
     id="title20079">Darts</title>
  <path
     class="cls-1"
     d="m 563.956,17.704 h -362.44 l -184.19,225.19 184.19,226.39 h 362.44 l 184.18,-226.39 z"
     id="path20081"
     style="fill:#457e14;fill-opacity:1" />
  <path
     class="cls-2"
     d="m 563.956,18.344 h -362.44 l -184.19,225.15 h 730.81 z"
     id="path20083"
     style="fill:#003600;fill-opacity:1" />
  <path
     d="m 1381.696,293.264 c 0,0 -143,-24 -235.37,-26.75 -92.37,-2.75 -134.24,15.59 -233.86,22.38 -99.62,6.79 -208.15,6.21 -208.15,6.21 l 0.34,-0.89 c -0.83,0 -1.25,0.05 -1.25,0.05 l 8,-18 3.69,-9.74 h -118.15 l -0.16,-0.28 h -0.4 c 0,0 -6.32,-10.66 -6.32,-22.74 v -0.21 c 0.07,-10.87 5.66,-20.76 6.72,-22.53 h 118.47 l -0.11,-0.28 h 0.67 l -4.36,-9.74 -6.8,-17.93 c 14.16,0.63 111.82,-1.5 207.81,5.25 95.99,6.75 140.55,25.29 233.86,22.7 93.31,-2.59 235.37,-26.31 235.37,-26.31 0,0 45.29,-5 74.75,-7.49 v 0 h 512.18 c 62.92,5.37 116.23,12.67 155.55,21.28 39.32,8.61 63.4,18.63 71.67,26 v 0 h 340.92 c 0,0 5.25,5.3 5.25,9.21 0,3.91 -5.25,9.2 -5.25,9.2 h -340.92 v 0 c -17,17.5 -101.37,36.59 -227.22,47.33 h -512.18 v 0 c -29.42,-2.47 -74.75,-6.72 -74.75,-6.72 z"
     id="path20107"
     style="fill:#000000;fill-opacity:1" />
  <path
     class="cls-9"
     d="m 2085.636,285.984 v -85.21 c -39.9,-6.58 -53.28,-8.44 -116.27,-13.82 h -512.18 v 113.07 c -46.35,-4 -87.48,-9 -121.65,-14.75 v -83.56 c 34.17,-5.8 75.3,-10.8 121.65,-14.76 v 113.07 h 512.18 v 0 c 62.99,-5.37 78.6,-6.84 116.27,-14.04 z m -857.61,-42.48 z"
     id="path20109" />
  <path
     class="cls-10"
     d="m 1469.306,300.024 h -18.86 v -113.07 c -43.15,3.69 -81.77,8.27 -114.46,13.57 v 85.94 c 32.69,5.3 71.31,9.88 114.46,13.56 v -113.07 h 18.86 z m 30,0 h 49.36 v -113.07 h -49.36 z m 60.93,0 h 48.89 v -113.07 h -48.89 z m 60.93,0 h 49.35 v -113.07 h -49.35 z m 60.93,0 h 48.93 v -113.07 h -48.88 z m 60.46,0 h 49.35 v -113.07 h -49.35 z m 61.38,0 h 48.9 v -113.07 h -48.9 z m 60.47,0 h 49.35 v -113.07 h -49.35 z m 79.36,0 h 24.2 c 45.29,-1.71 77.28,-6.66 109.12,-12.38 v -88.45 a 980,980 0 0 0 -114.46,-12.24 h -18.86 z"
     id="path20111" />
  <metadata
     id="metadata20669">
    <rdf:RDF>
      <cc:Work
         rdf:about="">
        <dc:title>Darts</dc:title>
      </cc:Work>
    </rdf:RDF>
  </metadata>
  <g
     id="g30174"
     style="opacity:1;fill:#8d8d8d;fill-opacity:1;fill-rule:evenodd;stroke:#e5e5e5;stroke-width:1.4;stroke-dasharray:none;stroke-opacity:1"
     transform="translate(-1.0875276,0.54376272)">
    <path
       style="fill:#8d8d8d;fill-opacity:1;fill-rule:evenodd;stroke:#e5e5e5;stroke-width:1.4;stroke-dasharray:none;stroke-opacity:1"
       d="m 2195.6503,233.54655 0.068,19.50753 343.2509,-0.20391 39.6948,-10.19557 -41.5979,-8.42834 z"
       id="path23255" />
  </g>
</svg>
