<?xml version="1.0" encoding="UTF-8" standalone="no"?>
<svg
   viewBox="0 0 108.21394 518.91411"
   version="1.1"
   id="svg6824"
   sodipodi:docname="dart.svg"
   width="108.21394"
   height="518.91412"
   inkscape:version="1.2.2 (732a01da63, 2022-12-09)"
   xmlns:inkscape="http://www.inkscape.org/namespaces/inkscape"
   xmlns:sodipodi="http://sodipodi.sourceforge.net/DTD/sodipodi-0.dtd"
   xmlns:xlink="http://www.w3.org/1999/xlink"
   xmlns="http://www.w3.org/2000/svg"
   xmlns:svg="http://www.w3.org/2000/svg">
  <sodipodi:namedview
     id="namedview6826"
     pagecolor="#ffffff"
     bordercolor="#000000"
     borderopacity="0.25"
     inkscape:showpageshadow="2"
     inkscape:pageopacity="0.0"
     inkscape:pagecheckerboard="0"
     inkscape:deskcolor="#d1d1d1"
     showgrid="false"
     inkscape:zoom="1.0168196"
     inkscape:cx="-13.768421"
     inkscape:cy="160.79549"
     inkscape:window-width="1920"
     inkscape:window-height="991"
     inkscape:window-x="-10"
     inkscape:window-y="-10"
     inkscape:window-maximized="1"
     inkscape:current-layer="svg6824" />
  <defs
     id="defs6784">
    <linearGradient
       id="linearGradient7544">
      <stop
         stop-color="#333"
         offset=".5"
         id="stop7540"
         style="stop-color:#000000;stop-opacity:1" />
      <stop
         offset="1"
         id="stop7542" />
    </linearGradient>
    <linearGradient
       id="linearGradient7536">
      <stop
         offset="0"
         id="stop7530"
         style="stop-color:#aaaaaa;stop-opacity:1;" />
      <stop
         offset="1"
         id="stop7534"
         style="stop-color:#d9d9d9;stop-opacity:1;" />
    </linearGradient>
    <filter
       id="n"
       x="-0.0067248605"
       y="-0.055682402"
       width="1.0134497"
       height="1.1113648">
      <feGaussianBlur
         stdDeviation="1.2856"
         id="feGaussianBlur6736" />
    </filter>
    <linearGradient
       id="b">
      <stop
         offset="0"
         id="stop6739" />
      <stop
         stop-color="#333"
         offset=".5"
         id="stop6741" />
      <stop
         offset="1"
         id="stop6743" />
    </linearGradient>
    <linearGradient
       id="c">
      <stop
         stop-color="#4e4e4e"
         offset="0"
         id="stop6746" />
      <stop
         stop-color="#afafaf"
         offset="1"
         id="stop6748" />
    </linearGradient>
    <linearGradient
       id="l"
       x1="-190.31"
       x2="-336.31"
       y1="412.73001"
       y2="573.85999"
       gradientUnits="userSpaceOnUse"
       gradientTransform="matrix(-0.0026735,-0.71138973,-0.71138973,0.0026735,478.04461,-163.9337)">
      <stop
         stop-color="#fff"
         offset="0"
         id="stop6751" />
      <stop
         stop-color="#fff"
         stop-opacity="0"
         offset="1"
         id="stop6753" />
    </linearGradient>
    <linearGradient
       id="k"
       x1="-212.69"
       x2="-356.32999"
       y1="735.53003"
       y2="610.38"
       gradientUnits="userSpaceOnUse"
       gradientTransform="matrix(-0.0026735,-0.71138973,-0.71138973,0.0026735,478.04461,-163.9337)">
      <stop
         stop-color="#666"
         offset="0"
         id="stop6756" />
      <stop
         stop-color="#666"
         stop-opacity="0"
         offset="1"
         id="stop6758" />
    </linearGradient>
    <linearGradient
       id="h"
       x2="0"
       y1="88.766998"
       y2="122.97"
       gradientUnits="userSpaceOnUse"
       spreadMethod="reflect"
       gradientTransform="matrix(-0.0026735,-0.71138973,-0.71138973,0.0026735,118.93787,521.51924)">
      <stop
         stop-color="#fff"
         offset="0"
         id="stop6761"
         style="stop-color:#ddd8b6;stop-opacity:1;" />
      <stop
         stop-color="#808080"
         offset="0.52187502"
         id="stop6763"
         style="stop-color:#c9a600;stop-opacity:1;" />
    </linearGradient>
    <linearGradient
       id="e"
       x1="238.91"
       x2="239.52"
       y1="70.681"
       y2="110.57"
       gradientUnits="userSpaceOnUse"
       gradientTransform="matrix(-0.0026735,-0.71138973,-0.71138973,0.0026735,118.93787,521.51924)">
      <stop
         offset="0"
         id="stop6766" />
      <stop
         stop-color="#808080"
         offset=".5"
         id="stop6768" />
      <stop
         offset="1"
         id="stop6770" />
    </linearGradient>
    <linearGradient
       id="m"
       x1="-239.44"
       x2="442.07999"
       y1="265.76001"
       y2="227.96001"
       gradientTransform="matrix(0.9987,-0.05095,0.05095,0.9987,-15.3,-1.3882)"
       gradientUnits="userSpaceOnUse">
      <stop
         offset="0"
         id="stop6773" />
      <stop
         stop-opacity="0"
         offset="1"
         id="stop6775" />
    </linearGradient>
    <linearGradient
       id="j"
       x1="432.62"
       x2="432.51999"
       y1="136.37"
       y2="143.78"
       gradientTransform="matrix(-0.00457971,-1.2186106,-0.4152951,0.00156074,111.8721,534.35099)"
       gradientUnits="userSpaceOnUse"
       xlink:href="#c"
       spreadMethod="reflect" />
    <linearGradient
       id="i"
       x1="382.67999"
       x2="382.48001"
       y1="107.68"
       y2="137.47"
       gradientTransform="matrix(1.0880706,0.00408912,-0.00174793,0.46510661,-15.867991,-3.6597778)"
       gradientUnits="userSpaceOnUse"
       xlink:href="#b" />
    <linearGradient
       id="a"
       x1="-36.234001"
       x2="-30.620001"
       y1="1307.6"
       y2="1307.7"
       gradientTransform="matrix(1.6850089,0.00113215,-7.8933909e-4,-0.30034291,111.87203,534.35084)"
       gradientUnits="userSpaceOnUse"
       xlink:href="#c"
       spreadMethod="reflect" />
    <linearGradient
       id="g"
       x1="-36.234001"
       x2="-30.620001"
       y1="1307.6"
       y2="1307.7"
       gradientTransform="matrix(2.2642878,-0.00103727,-6.7520847e-4,-0.30034334,132.33968,664.50339)"
       gradientUnits="userSpaceOnUse"
       xlink:href="#c"
       spreadMethod="reflect" />
    <linearGradient
       id="f"
       x1="111.3"
       x2="109.19"
       y1="98.723"
       y2="76.599998"
       gradientUnits="userSpaceOnUse"
       xlink:href="#m"
       gradientTransform="matrix(0.71138973,0.0026735,-0.0026735,0.71138973,-2.6051384,-10.723932)" />
    <linearGradient
       id="d"
       x1="50.147999"
       x2="50.261002"
       y1="97.856003"
       y2="82.390999"
       gradientUnits="userSpaceOnUse"
       xlink:href="#linearGradient7536"
       gradientTransform="matrix(-0.0026735,-0.71138973,-0.71138973,0.0026735,118.93787,521.51924)" />
    <linearGradient
       inkscape:collect="always"
       xlink:href="#c"
       id="linearGradient7331"
       gradientUnits="userSpaceOnUse"
       gradientTransform="matrix(1.6850089,0.00113215,-7.8933909e-4,-0.30034291,111.87203,534.35084)"
       x1="-36.234001"
       y1="1307.6"
       x2="-30.620001"
       y2="1307.7"
       spreadMethod="reflect" />
    <linearGradient
       inkscape:collect="always"
       xlink:href="#c"
       id="linearGradient7333"
       gradientUnits="userSpaceOnUse"
       gradientTransform="matrix(1.6850089,0.00113215,-7.8933909e-4,-0.30034291,111.87203,534.35084)"
       x1="-36.234001"
       y1="1307.6"
       x2="-30.620001"
       y2="1307.7"
       spreadMethod="reflect" />
  </defs>
  <path
     d="M 56.958484,4.1448032 51.020229,4.16712 11.083115,19.163411 c -5.4600008,4.59795 -7.2720699,3.36977 -9.2075576,8.542233 -2.20601231,5.897329 -2.25002952,7.681614 -1.19643778,19.533843 l 3.09569798,42.84878 45.0065554,44.065693 11.392195,-0.0428 44.674082,-44.402728 2.77355,-42.870838 c 0.96448,-11.859813 0.90705,-13.643788 -1.34322,-19.524298 -1.97367,-5.157772 -3.77675,-3.916006 -9.271506,-8.472787 L 56.957773,4.1448059 Z"
     fill="#000080"
     fill-rule="evenodd"
     id="path6788"
     style="stroke-width:0.711395;fill:#025612;fill-opacity:1" />
  <path
     d="m 108.20319,37.010966 c -0.0125,2.36097 -0.22387,5.381016 -0.58554,9.828055 L 104.84424,89.71128 66.638267,127.69279 67.099375,7.8628832 96.997381,18.844091 c 5.494409,4.556782 7.306469,3.321953 9.280069,8.479868 1.40645,3.675354 1.94694,5.750681 1.92602,9.685583 z"
     fill="url(#l)"
     fill-rule="evenodd"
     id="path6796"
     style="fill:url(#l);stroke-width:0.711395" />
  <path
     d="M 44.504026,6.610368 40.350427,125.89926 3.7786617,90.088964 0.68310073,47.238761 C -0.37049101,35.386532 -0.3290661,33.612857 1.8768726,27.714888 3.8117201,22.542427 5.6106734,23.763684 11.070887,19.165591 L 44.503607,6.6125038 Z"
     fill="url(#k)"
     fill-rule="evenodd"
     id="path6798"
     style="fill:url(#k);stroke-width:0.711395" />
  <path
     d="m 56.376924,18.061973 -6.157932,0.0231 -0.03054,-8.1269195 0.155617,-5.8e-4 -0.03307,-8.79989 c -0.0024,-0.63200001 0.770197,-1.14505001 1.72972,-1.14866001 L 54.419464,2.3493756e-5 C 55.378986,-0.00397651 56.155393,0.50363349 56.157769,1.1356435 l 0.03307,8.79989 0.155616,-5.8e-4 0.03054,8.1269195 z"
     fill="url(#j)"
     fill-rule="evenodd"
     id="path6802"
     style="fill:url(#j);stroke-width:0.711395" />
  <path
     d="m 62.846131,272.40576 -17.340208,0.043 c 0.698775,-9.77655 0.69569,-9.76444 1.552726,-18.65803 0.328832,-4.96666 0.862135,-17.20986 0.784415,-21.98947 l 0.03441,-49.99801 -0.08502,-46.28478 -1.467241,0.006 3.097712,-33.46949 8.559064,0.0568 2.637462,33.35901 -1.267127,0.005 0.263118,46.35098 0.410123,49.97429 c -0.04179,4.78048 0.583558,17.04152 0.949754,22.00572 0.923926,8.88618 0.923951,8.85487 1.870598,18.60034 z"
     fill="url(#i)"
     fill-rule="evenodd"
     id="path6804"
     style="fill:#333333;fill-opacity:1;stroke-width:0.711395" />
  <path
     d="m 46.094892,138.5496 14.782777,0.01 a 1.5167044,1.1175876 89.624799 0 0 1.113614,-1.51594 1.5167044,1.1175876 89.624799 0 0 -1.121587,-1.51744 l -14.782776,-0.01 a 1.5167044,1.1175876 89.624799 0 0 -1.113615,1.51594 1.5167044,1.1175876 89.624799 0 0 1.121587,1.51744"
     fill="url(#a)"
     id="path6806"
     style="fill:url(#linearGradient7331);stroke-width:0.711393" />
  <path
     d="m 46.102819,141.5659 14.782777,0.01 a 1.5167044,1.1175876 89.624799 0 0 1.113614,-1.51593 1.5167044,1.1175876 89.624799 0 0 -1.121586,-1.51744 l -14.782777,-0.01 a 1.5167044,1.1175876 89.624799 0 0 -1.113615,1.51594 1.5167044,1.1175876 89.624799 0 0 1.121587,1.51744"
     fill="url(#a)"
     id="path6808"
     style="fill:url(#linearGradient7333);stroke-width:0.711393" />
  <path
     d="m 46.15343,144.58224 14.782777,0.01 a 1.5167044,1.1175876 89.624799 0 0 1.113614,-1.51594 1.5167044,1.1175876 89.624799 0 0 -1.121586,-1.51744 l -14.782777,-0.01 a 1.5167044,1.1175876 89.624799 0 0 -1.113615,1.51594 1.5167044,1.1175876 89.624799 0 0 1.121587,1.51744"
     fill="url(#a)"
     id="path6810"
     style="fill:url(#a);stroke-width:0.711393" />
  <path
     d="m 45.346703,425.81375 19.185493,-0.25494 c 2.2875,-23.77718 4.182876,-35.6099 3.832035,-44.55799 -0.445453,-11.36223 -3.039777,-60.84954 -4.036675,-107.19278 l -19.916803,0.25769 c -0.648541,46.35085 -2.87086,95.85768 -3.230882,107.22009 -0.283548,8.95047 1.700683,20.76862 4.166832,44.52793 z"
     fill="url(#h)"
     id="path6812"
     style="fill:url(#h);stroke-width:0.711395" />
  <path
     d="m 44.526509,274.81326 19.864895,-0.009 a 1.516817,1.5017669 84.751682 0 0 1.49848,-1.51738 1.516817,1.5017669 84.751682 0 0 -1.505299,-1.51601 l -19.864895,0.009 a 1.516817,1.5017669 84.751682 0 0 -1.49848,1.51738 1.516817,1.5017669 84.751682 0 0 1.505299,1.51601"
     fill="url(#g)"
     id="path6814"
     style="fill:url(#g);stroke-width:0.711393" />
  <path
     d="m 64.521919,425.66343 -6.988958,30.3568 0.251087,60.79386 c 0.0044,1.16241 -1.191905,2.09421 -2.682053,2.09981 -1.490148,0.006 -2.693392,-0.91719 -2.69776,-2.0796 0,0 -0.246335,-60.5648 -0.150807,-60.78214 l -6.705763,-30.42982 18.974609,0.041 z"
     fill="url(#f)"
     id="path6816"
     style="fill:#242424;fill-opacity:1;stroke-width:0.711395" />
  <path
     d="m 68.397615,383.16407 -27.232888,0.10234 c -0.0023,-0.67516 -0.0055,-1.33635 0.01476,-1.97863 l 0.0412,-0.86718 27.121733,-0.10192 c 0.0056,0.14016 0.01971,0.55886 0.02482,0.68907 0.02734,0.69735 0.0294,1.41965 0.03034,2.15632 z m -0.01421,2.13425 c -0.02606,0.91549 -0.06526,1.85276 -0.122692,2.84606 l -26.921655,0.10118 c -0.06335,-0.99296 -0.113236,-1.92961 -0.144079,-2.84506 z m -0.13789,-7.11348 -26.943886,0.10126 0.100461,-2.84598 26.699346,-0.10034 c 0.03871,0.86109 0.11382,2.14185 0.144079,2.84506 z m -0.132398,12.0943 c -0.06752,0.92393 -0.145694,1.84558 -0.233846,2.84647 l -26.121341,0.0982 c -0.09521,-1.00278 -0.181648,-1.9192 -0.255235,-2.84464 z m -0.06149,-16.36197 -26.588191,0.0999 c 0.036,-0.94601 0.05835,-1.75581 0.10046,-2.84597 l 26.343651,-0.099 c 0.04989,1.08143 0.101454,1.90837 0.14408,2.84506 z M 67.832834,368.9382 41.6448,369.0366 c 0.04579,-1.18109 0.04992,-1.53848 0.10046,-2.84597 l 25.943495,-0.0975 c 0.06067,1.31356 0.08928,1.6609 0.144079,2.84506 z m -0.241024,-4.9789 -25.765646,0.0968 c 0.03124,-0.81146 0.06784,-1.99335 0.10046,-2.84597 l 25.543338,-0.096 z m -0.218793,-4.97897 -25.36549,0.0953 c 0.03361,-0.88259 0.08801,-1.92545 0.122692,-2.84606 l 25.12095,-0.0944 c 0.0415,0.9177 0.08176,1.96554 0.121848,2.84514 z m -0.218792,-4.97898 -24.965334,0.0938 c 0.03542,-0.94792 0.08642,-1.86327 0.122692,-2.84606 l 24.720793,-0.0929 c 0.04358,0.98004 0.0794,1.90005 0.121849,2.84514 z m -1.392818,-33.43055 -22.431007,0.0843 0.07823,-2.84589 22.25316,-0.0836 z m -0.570128,-15.64866 -21.408385,0.0805 c 0.02428,-0.94111 0.03241,-1.89994 0.05596,-2.84581 l 21.274999,-0.0799 c 0.03075,0.94657 0.04595,1.90355 0.07739,2.8453 z m -0.4563,-14.93768 -20.608072,0.0774 0.05596,-2.84581 20.474685,-0.0769 0.07739,2.84531 z"
     fill="url(#e)"
     id="path6818"
     style="fill:url(#e);stroke-width:0.711395" />
  <path
     d="m 57.643293,455.54531 -0.1094,0.46727 0.250732,60.80168 c 0.0044,1.16241 -1.191905,2.09422 -2.682053,2.09982 -1.490148,0.006 -2.693392,-0.91719 -2.69776,-2.0796 0,0 -0.257254,-60.56263 -0.161726,-60.77997 l -0.112993,-0.48866 5.513271,-0.0207 z"
     fill="url(#d)"
     id="path6820"
     style="fill:#b1b1b1;stroke-width:0.711395;fill-opacity:1" />
  <rect
     style="fill:#217705;fill-opacity:1;fill-rule:evenodd;stroke:#e5e5e5;stroke-width:0"
     id="rect12514"
     width="1.6115375"
     height="110.57095"
     x="52.560501"
     y="14.630008" />
</svg>
