<?xml version="1.0" encoding="UTF-8" standalone="no"?>
<!-- Uploaded to: SVG Repo, www.svgrepo.com, Generator: SVG Repo Mixer Tools -->

<svg
   height="800px"
   width="800px"
   version="1.1"
   id="Layer_1"
   viewBox="0 0 512.001 512.001"
   xml:space="preserve"
   sodipodi:docname="ic_add_team.svg"
   inkscape:version="1.2.2 (732a01da63, 2022-12-09)"
   xmlns:inkscape="http://www.inkscape.org/namespaces/inkscape"
   xmlns:sodipodi="http://sodipodi.sourceforge.net/DTD/sodipodi-0.dtd"
   xmlns="http://www.w3.org/2000/svg"
   xmlns:svg="http://www.w3.org/2000/svg"><defs
   id="defs17443" /><sodipodi:namedview
   id="namedview17441"
   pagecolor="#ffffff"
   bordercolor="#000000"
   borderopacity="0.25"
   inkscape:showpageshadow="2"
   inkscape:pageopacity="0.0"
   inkscape:pagecheckerboard="0"
   inkscape:deskcolor="#d1d1d1"
   showgrid="false"
   inkscape:zoom="0.35134368"
   inkscape:cx="-385.66226"
   inkscape:cy="749.97791"
   inkscape:window-width="1920"
   inkscape:window-height="991"
   inkscape:window-x="-10"
   inkscape:window-y="-10"
   inkscape:window-maximized="1"
   inkscape:current-layer="Layer_1" />
<path
   style="fill:#4cbd91;stroke-width:0.806316"
   d="m 336.5559,459.78144 c 0,0 0,9.57165 0,21.753 H 6.7049836 c 0,-12.18224 0,-21.753 0,-21.753 0,0 0.7811827,-47.59682 82.4631484,-73.96198 0,0 29.600248,-15.48812 39.061438,-26.10445 0,0 17.88107,21.75305 43.40173,21.75305 25.52066,0 43.40139,-21.75305 43.40139,-21.75305 9.46124,10.61633 39.0619,26.10445 39.0619,26.10445 82.20024,26.10426 82.46131,73.96198 82.46131,73.96198 z"
   id="path19473" /><path
   style="fill:#fedaab;stroke-width:0.806316"
   d="m 128.22957,332.04411 c 12.58686,6.61345 27.25601,10.26725 43.40173,10.26725 16.14561,0 30.81495,-3.74189 43.40139,-10.26725 v 27.6709 c 0,0 -17.88073,21.75305 -43.40139,21.75305 -25.52066,0 -43.40173,-21.75305 -43.40173,-21.75305 z"
   id="path19475" /><path
   style="fill:#a67c52;stroke-width:0.806316"
   d="m 149.92973,155.2315 c -39.06161,39.1568 -73.782397,39.1568 -73.782397,39.1568 v -4.35058 c 0,0 -4.513934,-108.767411 95.483157,-108.767411 99.82293,0 95.48315,108.767411 95.48315,108.767411 C 206.35192,190.0369 149.92973,155.2315 149.92973,155.2315 Z"
   id="path19477" /><path
   style="fill:#fedaab;stroke-width:0.806316"
   d="m 215.03181,332.04411 c -12.58641,6.52623 -27.25577,10.26725 -43.40132,10.26725 -16.14564,0 -30.81491,-3.65467 -43.40171,-10.26725 C 100.36568,317.51266 82.050514,288.97219 77.362595,254.94895 63.908502,253.12205 50.10656,240.33044 50.10656,229.1933 c 0,-12.0076 11.631551,-17.40289 26.040773,-17.40289 v -17.40299 c 0,0 34.720787,0 73.782397,-39.15671 0,0 56.42153,34.8055 117.18391,34.8055 v 21.75258 c 14.40878,0 26.04063,5.39436 26.04063,17.40306 0,11.13859 -13.80099,23.92874 -27.25588,25.75564 -4.68712,34.0247 -23.00231,62.56517 -50.86658,77.09662 z"
   id="path19479" /><path
   style="fill:#231f20;stroke-width:0.806316"
   d="m 256.61479,379.7632 c -7.75102,-4.09156 -26.83195,-14.92702 -35.06114,-22.71355 v -21.14432 c 26.31857,-15.16661 44.33012,-42.30661 50.09745,-75.50803 14.98469,-4.28748 28.02526,-18.31338 28.02526,-31.204 0,-13.09492 -9.81326,-21.79137 -26.04098,-23.59349 v -15.4428 c 0.12711,-3.69623 1.25871,-54.61558 -30.59823,-87.85317 -17.53569,-18.295953 -41.55992,-27.571877 -71.40585,-27.571877 -29.92473,0 -53.99365,9.295343 -71.53548,27.626767 -31.794957,33.22617 -30.603857,84.05916 -30.46937,87.80317 v 15.43868 c -16.228461,1.80206 -26.040808,10.49854 -26.040808,23.59342 0,12.89068 13.041789,26.91494 28.02518,31.20417 5.767885,33.20763 23.784146,60.35115 50.097078,75.50973 v 21.14338 c -8.22803,7.78327 -27.330803,18.63236 -35.075794,22.72165 C 2.0211166,407.29448 0.21875256,457.5446 0.18411784,459.67406 l -8.0417e-4,28.39878 H 343.07687 v -28.32749 c -0.0131,-2.14414 -1.26189,-52.71148 -86.46208,-79.98215 z M 134.75126,342.17026 c 11.38768,4.42942 23.74555,6.67873 36.88004,6.67873 13.03135,0 25.38669,-2.2604 36.87993,-6.71436 v 15.04742 c -4.48833,4.66843 -18.68807,17.74814 -36.87993,17.74814 -18.19191,0 -32.39243,-13.08047 -36.88004,-17.74814 z M 109.56332,111.3513 c 14.9838,-15.622981 35.86614,-23.544228 62.06798,-23.544228 26.12703,0 46.96933,7.905963 61.94509,23.498208 22.31382,23.22944 26.2632,57.85079 26.91636,72.04699 -55.61864,-2.36042 -106.61767,-33.36423 -107.14352,-33.688 l -4.38691,-2.70687 -3.64251,3.65156 c -26.72947,26.7947 -51.346205,34.31767 -62.667714,36.42458 0.132873,-10.66094 2.350803,-50.07219 26.911224,-75.68224 z m -25.740265,142.70473 -0.677284,-4.91773 -4.90778,-0.66723 c -9.436194,-1.2812 -21.609769,-10.85981 -21.609769,-19.27777 0,-10.08127 14.940742,-10.86518 19.519111,-10.86518 h 6.521669 v -18.00641 c 11.946479,-1.78872 38.740208,-8.87626 68.263278,-36.9443 14.0912,7.92276 59.45141,31.16014 109.66289,33.0678 l -0.005,21.88203 h 6.52156 c 4.57912,0 19.51899,0.78406 19.51899,10.8654 0,8.41781 -12.17357,17.99696 -21.6099,19.27768 l -4.90743,0.66705 -0.67708,4.91784 c -4.47718,32.4973 -21.76005,58.80915 -47.403,72.18188 -12.2047,6.32869 -25.79794,9.5367 -40.40466,9.5367 -14.76773,0 -28.35064,-3.20326 -40.39212,-9.5302 C 105.58248,312.86436 88.299895,286.55158 83.822975,254.05603 Z M 330.03428,474.99691 H 13.22665 V 459.9011 c 0.04184,-0.76511 0.785231,-11.25463 10.053112,-24.37265 16.318664,-23.09866 45.923898,-36.39798 67.88804,-43.4871 l 0.526695,-0.17046 0.491246,-0.25774 c 2.70115,-1.41317 23.678757,-12.51774 35.822527,-22.71324 7.5089,7.08569 23.24944,19.10503 43.62222,19.10503 20.37183,0 36.11305,-12.01934 43.62214,-19.10503 12.14467,10.1955 33.12151,21.30083 35.82265,22.71324 l 0.50469,0.26506 0.54389,0.17312 c 22.09437,7.01617 51.83417,20.2333 68.04302,43.35766 9.31171,13.28274 9.84717,23.90599 9.86827,24.44314 z"
   id="path19481" /><path
   style="fill:#e7eced;stroke-width:0.862534"
   d="m 360.9581,396.59247 c 12.2712,-24.17207 37.37289,-40.62678 66.28609,-40.62678 41.09173,0 74.37455,33.28316 74.37455,74.37456 0,41.09139 -33.28282,74.37444 -74.37455,74.37444 -41.0915,0 -74.37434,-33.28305 -74.37434,-74.37444 0,-12.17915 2.97508,-23.61398 8.08825,-33.74778 z"
   id="path17424" />
<path
   style="fill:#fedaab;stroke-width:0.862534"
   d="m 236.66046,344.99525 c 13.48102,7.06586 29.19174,10.96962 46.48416,10.96962 17.29219,0 33.00343,-3.99771 46.48411,-10.96962 v 29.56422 c 0,0 -19.15104,23.24141 -46.48411,23.24141 -27.33318,0 -46.48416,-23.24141 -46.48416,-23.24141 z"
   id="path17426" />
<path
   style="fill:#4cbd91;stroke-width:0.862534"
   d="M 427.24419,504.71381 H 106.50564 c 0,-13.01585 0,-23.24141 0,-23.24141 0,0 0.83657,-50.85399 88.32013,-79.0226 0,0 31.70264,-16.54784 41.8355,-27.89033 0,0 19.15105,23.24141 46.48419,23.24141 27.33323,0 46.48421,-23.24141 46.48421,-23.24141 6.32134,7.15911 21.10286,16.17732 31.33018,22.03382 -5.11327,10.13298 -8.08831,21.56863 -8.08831,33.74796 -0.002,41.09039 33.28115,74.37256 74.37265,74.37256 z"
   id="path17428" />
<path
   style="fill:#fedaab;stroke-width:0.862534"
   d="m 329.62797,344.99525 c -13.48067,6.97279 -29.19209,10.96962 -46.48423,10.96962 -17.29202,0 -33.00322,-3.90474 -46.48417,-10.96962 -29.84198,-15.5257 -49.45803,-46.01917 -54.47899,-82.37032 -14.40958,-1.95177 -29.19192,-15.61877 -29.19192,-27.5174 0,-12.82977 12.45791,-18.59384 27.89041,-18.59384 v -18.59395 c 0,0 37.18681,0 79.0228,-41.83593 0,0 60.42898,37.18671 125.50664,37.18671 v 23.24123 c 15.43297,0 27.89025,5.76354 27.89025,18.59396 0,11.90045 -14.78121,25.56581 -29.19203,27.51746 -5.01999,36.35291 -24.6358,66.84638 -54.47876,82.37208 z"
   id="path17430" />
<path
   style="fill:#a67c52;stroke-width:0.862534"
   d="m 259.90187,156.08473 c -41.83599,41.83594 -79.0228,41.83594 -79.0228,41.83594 v -4.64839 c 0,0 -4.83433,-116.209275 102.26467,-116.209275 106.91303,0 102.26477,116.209275 102.26477,116.209275 -65.07683,-8.8e-4 -125.50664,-37.18755 -125.50664,-37.18755 z"
   id="path17432" />
<g
   id="g17438"
   transform="matrix(0.86254159,0,0,0.86254159,83.250609,70.077276)">
	<path
   style="fill:#231f20"
   d="m 493.139,417.675 c 0,-52.011 -42.313,-94.325 -94.324,-94.325 -32.83,0 -62.688,16.69 -79.835,44.071 -13.989,-8.37 -21.365,-14.022 -25.239,-17.694 v -26.213 c 32.68,-18.787 55.046,-52.405 62.205,-93.531 18.607,-5.311 34.799,-22.685 34.799,-38.652 0,-16.221 -12.185,-26.993 -32.334,-29.225 v -19.129 c 0.158,-4.58 1.563,-67.652 -37.994,-108.823 C 298.641,11.49 268.81,0 231.75,0 194.592,0 164.706,11.514 142.924,34.221 103.443,75.378 104.923,138.344 105.09,142.982 v 19.124 c -20.151,2.232 -32.335,13.004 -32.335,29.225 0,15.967 16.194,33.339 34.799,38.652 7.162,41.134 29.533,74.756 62.206,93.533 v 26.19 c -10.217,9.641 -33.937,23.08 -43.552,28.145 -105.062,34.093 -107.3,96.338 -107.343,98.975 l -10e-4,35.177 h 385.341 v -0.158 c 49.511,-2.806 88.934,-43.968 88.934,-94.17 z M 185.956,331.273 c 14.14,5.487 29.485,8.273 45.794,8.273 16.181,0 31.523,-2.8 45.794,-8.317 v 18.656 c -5.531,5.782 -23.048,21.968 -45.794,21.968 -22.598,0 -40.237,-16.217 -45.794,-21.984 z M 154.681,45.36 c 18.604,-19.352 44.534,-29.164 77.069,-29.164 32.442,0 58.322,9.793 76.918,29.107 27.707,28.774 32.611,71.659 33.422,89.244 -69.063,-2.924 -132.388,-41.328 -133.041,-41.73 l -5.447,-3.351 -4.523,4.523 c -33.19,33.19 -63.757,42.509 -77.815,45.119 0.166,-13.207 2.919,-62.025 33.417,-93.748 z m -31.963,176.767 -0.841,-6.092 -6.094,-0.826 C 104.066,213.622 88.95,201.757 88.95,191.33 c 0,-12.488 18.552,-13.459 24.237,-13.459 h 8.098 v -22.304 c 14.834,-2.216 48.103,-10.995 84.763,-45.763 17.497,9.814 73.822,38.598 136.169,40.961 l -0.005,27.105 h 8.098 c 5.686,0 24.236,0.971 24.236,13.459 0,10.427 -15.116,22.292 -26.833,23.879 l -6.094,0.826 -0.841,6.092 c -5.558,40.254 -27.019,72.846 -58.86,89.411 -15.155,7.839 -32.035,11.813 -50.172,11.813 -18.337,0 -35.203,-3.968 -50.155,-11.805 -31.854,-16.573 -53.314,-49.166 -58.873,-89.418 z m -87.66,273.677 v -18.699 c 0.052,-0.944 0.973,-13.938 12.483,-30.19 20.263,-28.612 57.025,-45.086 84.297,-53.867 l 0.655,-0.211 0.61,-0.319 c 3.354,-1.75 29.401,-15.506 44.481,-28.135 9.324,8.777 28.869,23.665 54.166,23.665 25.276,0 44.811,-14.866 54.143,-23.645 6.004,5.039 14.511,10.818 25.671,17.453 -4.695,11.431 -7.076,23.445 -7.076,35.819 0,32.466 16.488,61.153 41.531,78.129 z m 363.756,0 c -43.081,0 -78.129,-35.049 -78.129,-78.129 0,-12.349 2.861,-24.281 8.505,-35.468 13.364,-26.314 40.041,-42.662 69.624,-42.662 43.08,0 78.128,35.049 78.128,78.129 0,43.08 -35.047,78.13 -78.128,78.13 z"
   id="path17434" />
	<polygon
   style="fill:#231f20"
   points="406.912,409.577 406.912,363.783 390.716,363.783 390.716,409.577 344.922,409.577 344.922,425.773 390.716,425.773 390.716,471.567 406.912,471.567 406.912,425.773 452.705,425.773 452.705,409.577 "
   id="polygon17436" />
</g>
</svg>
