<svg xmlns="http://www.w3.org/2000/svg" xmlns:xlink="http://www.w3.org/1999/xlink" viewBox="0 0 512 512" xmlns:v="https://vecta.io/nano"><style><![CDATA[.B{fill:#44b25c}.C{fill:#d16b77}.D{fill:#f8fae7}]]></style><circle cx="260.115" cy="255.474" r="215.369" fill="#f7f9e6"/><path d="M98.495 256.006c0-9.327.82-18.466 2.382-27.352l-42.011-7.408c-1.986 11.293-3.028 22.907-3.028 34.76s1.042 23.466 3.028 34.759l42.011-7.408c-1.562-8.886-2.382-18.024-2.382-27.351zM255.998 98.502V55.846c-24.035 0-47.093 4.261-68.462 12.063l14.59 40.086c16.815-6.139 34.96-9.493 53.872-9.493zm-101.191 36.909l-27.405-32.661c-17.805 14.965-32.979 32.962-44.708 53.198l36.934 21.324c9.228-15.923 21.169-30.085 35.179-41.861zm202.382 0l27.406-32.661c-17.706-14.881-38.011-26.764-60.135-34.841l-14.59 40.086c17.409 6.356 33.387 15.707 47.319 27.416z" class="D"/><path d="M508.515 214.296c-2.509-14.974-6.232-29.461-11.088-43.22a251.5 251.5 0 0 0-31.564-61.591c-3.804-5.504-7.851-10.765-12.059-15.945-5.342-6.474-10.926-12.625-16.835-18.534-2.59-2.672-5.342-5.181-8.094-7.689s-5.503-5.018-8.417-7.365c-3.48-2.913-6.96-5.746-10.603-8.418-1.942-1.537-4.047-2.993-6.07-4.451-.323-.323-.728-.566-1.052-.728-.081-.081-.081-.162-.161-.162-2.266-1.618-4.532-3.076-6.799-4.533-3.076-2.023-6.232-4.047-9.469-5.908-3.156-1.861-6.394-3.723-9.631-5.422-3.318-1.78-6.556-3.481-9.874-5.019-3.4-1.618-6.718-3.156-10.117-4.613-2.914-1.214-5.747-2.427-8.66-3.481-1.457-.647-2.995-1.213-4.532-1.78l-2.752-.97c-2.509-.891-5.018-1.7-7.608-2.509-2.833-.971-5.666-1.78-8.579-2.59a97.97 97.97 0 0 0-6.556-1.699c-2.023-.567-3.966-.971-5.989-1.456-.081 0-.243-.081-.324-.081-2.104-.486-4.208-.891-6.394-1.295-.728-.243-1.376-.324-2.104-.485s-1.376-.243-2.104-.324c-3.723-.648-7.365-1.214-11.088-1.699-.486-.162-1.052-.243-1.618-.243-3.157-.486-6.313-.81-9.47-1.053C275.1.71 271.296.467 267.492.306c-7.608-.405-15.216-.405-22.986 0-3.237.161-6.556.323-9.793.646a49.25 49.25 0 0 0-4.856.486c-2.671.243-5.26.486-7.851.891-2.59.323-5.18.727-7.77 1.132-.567.081-1.133.162-1.7.324l-5.827 1.052c-1.78.323-3.48.647-5.18 1.052l-7.446 1.78c-.89.162-1.781.405-2.671.648-2.509.647-4.937 1.294-7.365 2.104-5.261 1.456-10.521 3.156-15.62 5.017l-8.418 3.238c-3.399 1.376-6.798 2.832-10.117 4.371-2.185.971-4.37 2.023-6.556 3.157-1.861.809-3.642 1.699-5.423 2.67-2.832 1.457-5.666 2.995-8.498 4.613-1.619.891-3.238 1.861-4.775 2.833-2.185 1.213-4.289 2.508-6.313 3.885-2.671 1.618-5.18 3.399-7.77 5.099-1.538 1.052-3.076 2.184-4.532 3.319-2.023 1.375-3.966 2.833-5.908 4.37-2.914 2.266-5.828 4.613-8.66 6.96a181.03 181.03 0 0 0-8.337 7.365c-2.509 2.266-4.937 4.613-7.365 7.041-2.266 2.185-4.532 4.533-6.718 6.88-2.509 2.67-4.937 5.422-7.284 8.174-2.347 2.671-4.613 5.423-6.799 8.256-.243.162-.323.324-.405.566-2.266 2.834-4.451 5.747-6.556 8.742-2.185 2.995-4.29 6.07-6.313 9.146-1.942 2.914-3.723 5.908-5.504 8.822-.243.324-.405.648-.567.971-.486.647-.89 1.376-1.295 2.104l-4.047 7.365c-1.781 3.237-3.399 6.556-5.018 9.955s-3.156 6.798-4.613 10.198a18.4 18.4 0 0 0-.81 1.861l-2.589 6.556c-.243.647-.567 1.294-.81 1.942-1.295 3.399-2.509 6.879-3.642 10.36-1.133 3.318-2.104 6.636-3.076 10.036-.162.242-.243.485-.243.728-.971 3.481-1.861 7.041-2.671 10.602a166.27 166.27 0 0 0-1.942 9.146c-.405 1.538-.729 3.157-.971 4.775-.162 1.134-.405 2.266-.567 3.4l-.971 6.394-.486 3.885-.809 7.203-.648 10.036a89.21 89.21 0 0 0-.243 6.637c-.077 1.375-.158 2.75-.158 4.127v2.751a184.71 184.71 0 0 0 .243 9.47c.081 3.238.243 6.394.486 9.632 0 .485.081.971.081 1.456l1.133 10.441c0 .486.081.971.162 1.375.405 3.077.81 6.232 1.376 9.39 1.295 7.526 2.833 14.81 4.694 22.014.891 3.642 1.862 7.202 2.995 10.683 1.052 3.562 2.185 7.041 3.399 10.521a154.01 154.01 0 0 0 3.157 8.58c.405 1.052.809 2.104 1.295 3.157l2.023 4.856c.971 2.348 2.023 4.614 3.076 6.799 1.457 3.156 2.914 6.151 4.532 9.226.323.729.729 1.457 1.133 2.185 1.457 2.753 2.995 5.504 4.532 8.175a228 228 0 0 0 8.255 13.354l.162.162a34.59 34.59 0 0 0 1.861 2.833c.243.405.567.809.81 1.133 1.7 2.509 3.399 4.937 5.261 7.365 4.047 5.503 8.418 10.845 12.95 15.944 1.457 1.699 2.914 3.399 4.451 5.018.729.728 1.457 1.538 2.104 2.265 1.619 1.7 3.238 3.32 4.856 4.938a254.76 254.76 0 0 0 39.415 32.212c3.642 2.509 7.446 4.856 11.25 7.122 25.414 15.054 53.498 25.819 83.121 31.322 28.57 5.422 58.597 5.908 88.948.89s58.516-15.135 83.849-29.461c26.304-14.731 49.451-33.992 68.633-56.412a254.74 254.74 0 0 0 45.324-76.483 255.1 255.1 0 0 0 16.43-87.41c.08-14.649-.973-29.541-3.482-44.433zm-59.082 114.441c-8.498 22.662-20.962 43.544-36.583 61.755-15.539 18.129-34.235 33.668-55.44 45.647-20.396 11.574-43.219 19.749-67.662 23.795-24.524 4.047-48.723 3.643-71.79-.728-23.957-4.533-46.619-13.193-67.176-25.414-4.209-2.508-8.418-5.18-12.464-8.013l-3.723-2.671c-3.723-2.671-7.365-5.504-10.927-8.499l-4.128-3.481c-.162-.08-.243-.242-.405-.404-3.157-2.671-6.232-5.585-9.227-8.661-1.861-1.78-3.723-3.723-5.585-5.665-2.751-2.995-5.503-6.07-8.093-9.227-15.054-18.292-27.113-39.415-35.288-62.563-3.885-11.169-6.879-22.823-8.903-34.883a200.83 200.83 0 0 1-2.752-35.935l.324-8.58c0-1.618.081-3.157.324-4.694.162-2.509.405-4.937.648-7.446a112.91 112.91 0 0 1 .971-7.284c.324-2.833.809-5.584 1.376-8.417l1.538-7.527a228.66 228.66 0 0 1 4.128-15.054c.486-1.619.971-3.156 1.538-4.694.728-2.348 1.538-4.614 2.428-6.88 8.498-22.58 20.962-43.461 36.583-61.672 15.539-18.21 34.235-33.75 55.44-45.649 20.396-11.573 43.22-19.829 67.662-23.876 3.238-.566 6.475-.971 9.712-1.375 2.913-.324 5.746-.567 8.66-.81 18.21-1.375 36.097-.243 53.417 2.996 23.957 4.451 46.619 13.192 67.177 25.332 2.671 1.619 5.261 3.238 7.851 4.938a202.43 202.43 0 0 1 6.879 4.694c2.59 1.861 5.099 3.723 7.527 5.665l6.96 5.666 5.827 5.179c1.942 1.781 3.885 3.643 5.828 5.585 4.775 4.775 9.388 9.713 13.678 14.973 15.054 18.291 27.113 39.335 35.288 62.482a217 217 0 0 1 8.903 34.965 200.26 200.26 0 0 1 2.752 35.935 204.14 204.14 0 0 1-13.273 70.495z" fill="#333438"/><path d="M403.384 311.445l39.918 15.015c8.121-21.481 12.617-44.543 12.859-68.31l-42.658-.457c-.192 18.703-3.729 36.849-10.119 53.752zm-70.097 81.805l20.933 37.171c20.511-11.577 38.605-26.613 53.648-44.183l-32.366-27.755c-11.837 13.825-26.076 25.656-42.215 34.767zm44.416-237.164a156.38 156.38 0 0 1 26.878 47.636l40.242-14.16c-7.878-22.424-19.556-42.813-34.158-60.537l-32.962 27.061zM226.986 410.821l-7.857 41.93c22.355 4.212 45.799 4.657 69.513.737l-6.957-42.087c-18.66 3.084-37.108 2.734-54.699-.58z" class="D"/><path d="M223.355 58.526l-1.07-6.475c-24.491 4.048-47.268 12.275-67.728 23.823l3.22 5.719c19.811-11.183 41.865-19.148 65.578-23.067z" class="B"/><path d="M157.777 81.592l-3.22-5.719c-21.183 11.957-39.871 27.485-55.406 45.631l4.98 4.27c15.041-17.569 33.136-32.604 53.646-44.182z" class="C"/><path d="M104.13 125.775l-4.98-4.27c-15.623 18.248-28.053 39.142-36.595 61.737l6.141 2.31c8.272-21.878 20.308-42.109 35.434-59.777z" class="B"/><path d="M68.696 185.551l-6.141-2.31c-8.388 22.185-13.031 46.003-13.282 70.549l6.563.07a198.79 198.79 0 0 1 12.86-68.309z" class="C"/><path d="M444.823 189.562l6.191-2.178c-8.137-23.16-20.198-44.216-35.278-62.522l-5.071 4.163a198.73 198.73 0 0 1 34.158 60.537z" class="B"/><path d="M223.356 58.525c23.713-3.92 47.157-3.476 69.512.737l1.209-6.451c-23.088-4.35-47.301-4.809-71.792-.761l1.071 6.475h0z" class="C"/><path d="M58.518 288.65a200.54 200.54 0 0 1-2.681-34.789l-6.563-.07c-.121 11.841.773 23.851 2.769 35.929a207.07 207.07 0 0 0 8.94 34.909l6.191-2.179c-3.801-10.818-6.723-22.106-8.656-33.8z" class="B"/><path d="M410.665 129.024l5.071-4.163c-15.359-18.644-33.852-34.427-54.516-46.676l-3.34 5.645c20.007 11.86 37.913 27.142 52.785 45.194z" class="C"/><path d="M357.88 83.83l3.34-5.645c-20.548-12.181-43.239-20.869-67.143-25.374l-1.209 6.451c23.145 4.361 45.116 12.774 65.012 24.568z" class="B"/><path d="M407.868 386.238l4.978 4.269c15.622-18.248 28.053-39.142 36.596-61.737l-6.14-2.31c-8.272 21.879-20.307 42.11-35.434 59.778z" class="C"/><path d="M443.302 326.461l6.14 2.31c8.388-22.185 13.031-46.003 13.282-70.549l-6.562-.07a198.79 198.79 0 0 1-12.86 68.309z" class="B"/><path d="M451.014 187.383l-6.191 2.178a200.58 200.58 0 0 1 8.657 33.801 200.52 200.52 0 0 1 2.681 34.788l6.562.07c.121-11.841-.773-23.851-2.769-35.929a207.18 207.18 0 0 0-8.94-34.908zM67.174 322.449l-6.191 2.179a205.27 205.27 0 0 0 35.278 62.522l5.071-4.163c-14.602-17.725-26.28-38.113-34.158-60.538z" class="C"/><path d="M354.22 430.421l3.22 5.718c21.183-11.957 39.871-27.485 55.406-45.631l-4.978-4.269c-15.043 17.569-33.137 32.604-53.648 44.182z" class="B"/><path d="M288.642 453.487h0l1.07 6.474c24.491-4.048 47.268-12.275 67.728-23.823l-3.22-5.718c-19.811 11.183-41.865 19.147-65.578 23.067z" class="C"/><path d="M101.332 382.987l-5.071 4.163c15.359 18.644 33.852 34.427 54.516 46.676l3.34-5.645c-20.008-11.86-37.914-27.141-52.785-45.194z" class="B"/><path d="M154.117 428.182l-3.34 5.645c20.548 12.181 43.239 20.869 67.143 25.374l1.209-6.45c-23.146-4.362-45.116-12.774-65.012-24.569z" class="C"/><path d="M219.129 452.75l-1.209 6.45c23.088 4.35 47.301 4.809 71.792.761l-1.07-6.474c-23.714 3.92-47.158 3.476-69.513-.737z" class="B"/><path d="M134.294 355.925l-32.962 27.062c14.871 18.052 32.777 33.334 52.785 45.195l21.712-36.694c-15.743-9.333-29.833-21.358-41.535-35.563z" class="D"/><path d="M113.606 306.111l-6.191 2.178c6.2 17.645 15.388 33.689 26.879 47.636l5.071-4.164c-11.011-13.365-19.818-28.74-25.759-45.65zm1.149-103.235l-6.142-2.31c-6.391 16.903-9.928 35.05-10.12 53.752l6.563.07c.184-17.922 3.575-35.313 9.699-51.512zm67.175-78.395l-3.221-5.719c-16.139 9.11-30.378 20.941-42.214 34.766l4.98 4.271c11.344-13.249 24.989-24.587 40.455-33.318zm49.453-17.395c17.882-2.956 35.561-2.621 52.419.556l1.209-6.451c-17.591-3.315-36.039-3.664-54.698-.58l1.07 6.475h0zM404.919 231.39a151.18 151.18 0 0 1 2.022 26.233l6.562.07a157.88 157.88 0 0 0-2.11-27.374 157.8 157.8 0 0 0-6.812-26.597l-6.19 2.178a151.34 151.34 0 0 1 6.528 25.49zm-34.397 122.823l4.979 4.27a158.63 158.63 0 0 0 27.882-47.038l-6.141-2.31c-6.237 16.499-15.313 31.755-26.72 45.078zm-191.352 31.63l-3.341 5.645c15.656 9.281 32.944 15.9 51.157 19.332l1.209-6.451c-17.453-3.288-34.021-9.632-49.025-18.526zm156.997-265.32l-3.341 5.646c15.088 8.944 28.591 20.468 39.805 34.081l5.071-4.163a158.61 158.61 0 0 0-41.535-35.564z" class="B"/><path d="M141.476 157.799l-4.98-4.271a158.63 158.63 0 0 0-27.882 47.038l6.142 2.31c6.236-16.497 15.313-31.753 26.72-45.077zm89.906-50.713l-1.07-6.475c-18.66 3.084-36.014 9.352-51.603 18.151l3.221 5.719c14.939-8.432 31.57-14.439 49.452-17.395zm-92.017 244.676l-5.071 4.164c11.702 14.205 25.792 26.23 41.536 35.563l3.341-5.645c-15.089-8.945-28.591-20.469-39.806-34.082zm193.462-225.593l3.341-5.646c-15.656-9.281-32.944-15.901-51.157-19.332l-1.209 6.451c17.453 3.289 34.021 9.633 49.025 18.527zM107.079 280.622c-1.458-8.819-2.111-17.588-2.022-26.234l-6.563-.07a157.88 157.88 0 0 0 2.11 27.374 157.8 157.8 0 0 0 6.811 26.597l6.191-2.178c-2.866-8.158-5.069-16.67-6.527-25.489zm290.164 28.514l6.141 2.31c6.391-16.903 9.928-35.05 10.119-53.752l-6.562-.07a149.91 149.91 0 0 1-9.698 51.512zm1.148-103.235l6.19-2.178a156.38 156.38 0 0 0-26.878-47.636l-5.071 4.163c11.012 13.366 19.818 28.74 25.759 45.651zM228.195 404.37l-1.209 6.451c17.591 3.315 36.039 3.664 54.699.58l-1.07-6.474c-17.883 2.955-35.562 2.62-52.42-.557zm101.872-16.838l3.22 5.718c16.139-9.11 30.378-20.941 42.215-34.767l-4.979-4.27c-11.344 13.25-24.989 24.588-40.456 33.319z" class="C"/><path d="M280.615 404.926h0l1.07 6.474c18.66-3.084 36.014-9.352 51.602-18.151l-3.22-5.718c-14.939 8.433-31.57 14.439-49.452 17.395z" class="B"/><g class="D"><path d="M149.164 273.665c-1.046-6.328-1.485-12.615-1.421-18.819l-42.686-.458c-.089 8.646.564 17.415 2.022 26.234s3.661 17.331 6.527 25.488l40.269-14.17c-2.057-5.853-3.664-11.947-4.711-18.275zm23.184 51.018l-32.983 27.079c11.215 13.613 24.717 25.137 39.805 34.081l21.718-36.703a109.05 109.05 0 0 1-28.54-24.457zm65.991-175.511l-6.957-42.086c-17.882 2.956-34.513 8.962-49.452 17.395l20.933 37.171c10.717-6.049 22.647-10.36 35.476-12.48zm-64.49 36.388l-32.373-27.761c-11.407 13.323-20.483 28.579-26.72 45.077l39.942 15.024c4.473-11.834 10.968-22.782 19.151-32.34zM357.3 294.111l39.943 15.025a149.91 149.91 0 0 0 9.698-51.512l-42.688-.457c-.132 12.855-2.56 25.324-6.953 36.944zm.821-74.04l40.27-14.17c-5.941-16.91-14.747-32.285-25.759-45.651l-32.983 27.079c7.899 9.587 14.21 20.612 18.472 32.742zm-82.177-70.499c12.521 2.36 24.402 6.918 35.165 13.299l21.718-36.703c-15.003-8.894-31.572-15.238-49.025-18.527l-7.858 41.931zm-39.891 212.867l-7.858 41.931c16.858 3.177 34.537 3.512 52.42.556l-6.957-42.087c-12.829 2.121-25.511 1.879-37.605-.4zm73.08-12.08l20.934 37.172c15.467-8.731 29.112-20.069 40.455-33.318l-32.374-27.762c-8.137 9.505-17.919 17.645-29.015 23.908z"/><path d="M228.431 278.639l-56.083 46.044a109.05 109.05 0 0 0 28.54 24.457l36.948-62.441c-3.566-2.115-6.754-4.842-9.405-8.06zm-7.64-16.813c-.345-2.086-.489-4.158-.468-6.202l-72.579-.778c-.064 6.204.375 12.491 1.421 18.819s2.654 12.422 4.711 18.276l68.468-24.093c-.679-1.929-1.209-3.937-1.553-6.022zm8.134-29.036l-55.077-47.23c-8.183 9.558-14.677 20.506-19.152 32.341l67.917 25.547c1.475-3.9 3.616-7.508 6.312-10.658zm21.254-11.992l-11.84-71.626c-12.829 2.12-24.759 6.431-35.476 12.481l35.624 63.259c3.532-1.995 7.464-3.415 11.692-4.114zm-.754 70.283l-13.372 71.358c12.094 2.279 24.776 2.521 37.605.401l-11.84-71.626c-4.228.698-8.407.619-12.393-.133zm40.229-46.918l68.468-24.092a107.48 107.48 0 0 0-18.472-32.742l-56.083 46.044a35.45 35.45 0 0 1 6.087 10.79zm-15.494-18.85l36.948-62.441c-10.763-6.381-22.643-10.939-35.165-13.299l-13.372 71.357c4.127.778 8.042 2.28 11.589 4.383zm-.651 61.788l35.624 63.259c11.096-6.263 20.878-14.403 29.015-23.908l-55.077-47.23c-2.681 3.132-5.905 5.814-9.562 7.879zm15.874-18.538L357.3 294.11c4.393-11.62 6.821-24.089 6.953-36.945l-72.579-.778c-.043 4.238-.843 8.347-2.291 12.176z"/></g><g fill="#b76962"><use xlink:href="#B"/><use xlink:href="#B"/><use xlink:href="#B"/><use xlink:href="#B"/><use xlink:href="#B"/><use xlink:href="#B"/><use xlink:href="#B"/><use xlink:href="#B"/><use xlink:href="#B"/><use xlink:href="#B"/><use xlink:href="#B"/><use xlink:href="#B"/></g><path d="M67.174 322.449c7.878 22.424 19.555 42.814 34.158 60.539l32.962-27.062c-11.491-13.948-20.679-29.991-26.879-47.636l-40.241 14.159zm111.535-203.688l-20.932-37.169c-20.51 11.578-38.605 26.613-53.647 44.183l32.365 27.753c11.837-13.824 26.075-25.656 42.214-34.767zm-70.096 81.805l-39.917-15.014c-8.121 21.48-12.617 44.542-12.859 68.309l42.656.458c.192-18.704 3.729-36.85 10.12-53.753zm45.504 227.616c19.896 11.795 41.867 20.208 65.012 24.569l7.857-41.93c-18.213-3.432-35.501-10.052-51.157-19.332l-21.712 36.693zm-6.373-173.337l72.579.778a35.44 35.44 0 0 1 2.291-12.176L154.697 217.9l-39.941-15.024c-6.124 16.199-9.515 33.589-9.698 51.511l42.686.458zm34.186-130.363c-15.467 8.729-29.112 20.068-40.455 33.317l32.373 27.761 55.077 47.23c2.682-3.133 5.905-5.815 9.562-7.879l-35.624-63.258-20.933-37.171zm46.5 154.156c-2.603-3.159-4.683-6.792-6.087-10.79l-68.468 24.092-40.269 14.17c5.941 16.91 14.747 32.285 25.758 45.65l32.983-27.078 56.083-46.044zm-27.542 70.502l-21.718 36.703c15.004 8.894 31.572 15.238 49.025 18.526l7.858-41.93 13.372-71.358c-4.126-.777-8.041-2.279-11.589-4.382l-36.948 62.441zm80.797 62.26l6.957 42.087h0c23.713-3.92 45.767-11.884 65.578-23.066l-20.933-37.171c-15.589 8.799-32.943 15.065-51.602 18.15zm48.382-23.869l-20.934-37.172-35.624-63.259a35.52 35.52 0 0 1-11.691 4.113l11.84 71.627 6.957 42.087h0c17.882-2.956 34.513-8.963 49.452-17.396zM292.952 59.213c-22.29-4.2-45.666-4.643-69.31-.734h0l6.936 41.963c18.605-3.076 37-2.727 54.54.578l7.834-41.807zm84.59 96.544l32.866-26.985c-14.828-17.999-32.683-33.237-52.632-45.063l-21.65 36.587c15.699 9.306 29.747 21.296 41.416 35.461zm-2.041 202.726l32.366 27.754c15.127-17.668 27.162-37.898 35.434-59.777l-39.918-15.015c-6.508 17.215-15.979 33.135-27.882 47.038zm68.967-169.349l-40.125 14.12c2.982 8.487 5.275 17.344 6.792 26.521a157.35 157.35 0 0 1 2.104 27.295l42.535.456c.116-11.433-.747-23.026-2.674-34.688s-4.843-22.917-8.632-33.704zm-47.225 120.001L357.3 294.111l-.025.058-67.664-25.452c-1.47 3.889-3.604 7.486-6.293 10.627l54.871 47.055c-.015.016-.027.036-.042.053l32.374 27.762c11.408-13.323 20.484-28.58 26.722-45.079zm-113.566-76.316l55.921-45.911 32.887-27c-11.182-13.574-24.646-25.065-39.69-33.983l-21.655 36.597-36.841 62.26a35.79 35.79 0 0 1 9.378 8.037zm80.454 23.724l42.564.456c.088-8.62-.563-17.364-2.016-26.157a150.87 150.87 0 0 0-6.509-25.416l-40.153 14.13-68.27 24.021a35.63 35.63 0 0 1 1.548 6.007c.344 2.079.487 4.144.467 6.184l72.369.775zm-88.054-107.282l7.835-41.809c-16.809-3.167-34.436-3.501-52.266-.554h-.001l6.936 41.964 11.805 71.417c4.216-.697 8.383-.617 12.357.132l13.334-71.15z" fill="#333438"/><path d="M118.017 304.559l-5.999 2.111c6.007 17.099 14.912 32.645 26.046 46.16l4.914-4.034a145.28 145.28 0 0 1-24.961-44.237zm1.114-100.036l-5.952-2.239c-6.193 16.379-9.621 33.964-9.806 52.086l6.36.068a145.23 145.23 0 0 1 9.398-49.915zm65.094-75.967l-3.121-5.542c-15.639 8.828-29.437 20.293-40.907 33.69l4.826 4.138c10.992-12.839 24.215-23.826 39.202-32.286zm47.92-16.856c17.328-2.864 34.459-2.54 50.795.538l1.171-6.251c-17.046-3.212-34.922-3.551-53.004-.562l1.038 6.275h0zm168.16 120.453c1.413 8.546 2.045 17.042 1.96 25.421l6.359.068c.09-8.742-.57-17.609-2.044-26.526s-3.703-17.525-6.601-25.773l-5.999 2.111c2.777 7.904 4.913 16.153 6.325 24.699zm-33.331 119.018l4.825 4.137c11.534-13.472 20.711-28.898 27.018-45.58l-5.95-2.238c-6.044 15.987-14.839 30.77-25.893 43.681zm-185.424 30.65l-3.237 5.47c15.171 8.993 31.924 15.408 49.572 18.734l1.171-6.251c-16.912-3.187-32.967-9.335-47.506-17.953zM333.684 124.72l-3.237 5.471c14.62 8.667 27.705 19.834 38.572 33.025l4.914-4.035a153.76 153.76 0 0 0-40.249-34.461z" class="B"/><path d="M145.023 160.842l-4.826-4.138c-11.534 13.472-20.711 28.898-27.018 45.58l5.952 2.239c6.044-15.987 14.839-30.771 25.892-43.681zm87.122-49.142l-1.037-6.275c-18.082 2.989-34.898 9.062-50.004 17.589l3.121 5.542c14.476-8.171 30.592-13.992 47.92-16.856zm-89.167 237.095l-4.914 4.034c11.339 13.765 24.993 25.417 40.249 34.461l3.237-5.47c-14.62-8.666-27.705-19.833-38.572-33.025zm187.469-218.604l3.237-5.471c-15.171-8.993-31.924-15.408-49.572-18.734l-1.171 6.251c16.912 3.188 32.967 9.336 47.506 17.954zM111.692 279.86a146.52 146.52 0 0 1-1.959-25.422l-6.36-.068a152.9 152.9 0 0 0 2.045 26.526c1.474 8.917 3.702 17.525 6.6 25.773l5.999-2.111c-2.777-7.904-4.912-16.153-6.325-24.698zm281.175 27.63l5.95 2.238a151.56 151.56 0 0 0 9.806-52.087l-6.359-.068c-.177 17.368-3.462 34.22-9.397 49.917zm1.113-100.037l5.999-2.111c-6.007-17.099-14.911-32.645-26.046-46.16l-4.914 4.035c10.67 12.951 19.204 27.849 24.961 44.236zM229.056 399.774l-1.171 6.251c17.046 3.212 34.923 3.551 53.004.562l-1.037-6.274c-17.328 2.864-34.46 2.54-50.796-.539zm98.716-16.317l3.12 5.541c15.64-8.828 29.437-20.293 40.907-33.69l-4.825-4.137c-10.991 12.839-24.214 23.826-39.202 32.286z" class="C"/><path d="M279.852 400.313h0l1.037 6.274c18.082-2.989 34.898-9.062 50.003-17.589l-3.12-5.541c-14.476 8.171-30.591 13.991-47.92 16.856zM224.008 62.475l-1.049-6.346c-24.001 3.967-46.323 12.029-66.374 23.347l3.156 5.605c19.415-10.959 41.028-18.765 64.267-22.606z" class="B"/><path d="M159.742 85.081l-3.156-5.605c-20.759 11.718-39.073 26.936-54.298 44.718l4.88 4.185c14.741-17.218 32.473-31.952 52.574-43.298z" class="C"/><path d="M107.167 128.379l-4.88-4.185c-15.31 17.883-27.492 38.359-35.863 60.502l6.018 2.264c8.106-21.44 19.902-41.266 34.725-58.581z" class="B"/><path d="M72.442 186.96l-6.018-2.264c-8.22 21.742-12.77 45.083-13.016 69.138l6.432.069c.238-23.291 4.644-45.891 12.602-66.943z" class="C"/><path d="M441.047 190.891l6.067-2.135c-7.974-22.696-19.794-43.332-34.573-61.272l-4.969 4.08c14.31 17.37 25.754 37.351 33.475 59.327z" class="B"/><path d="M224.009 62.475c23.239-3.841 46.214-3.406 68.122.722l1.185-6.322c-22.626-4.264-46.355-4.713-70.356-.746l1.049 6.346h0z" class="C"/><path d="M62.468 287.997a196.53 196.53 0 0 1-2.628-34.093l-6.432-.069c-.119 11.605.757 23.374 2.714 35.21a203.04 203.04 0 0 0 8.761 34.211l6.067-2.135c-3.724-10.602-6.588-21.664-8.482-33.124z" class="B"/><path d="M407.572 131.564l4.969-4.08c-15.052-18.271-33.175-33.738-53.426-45.743l-3.273 5.532c19.608 11.624 37.156 26.6 51.73 44.291z" class="C"/><path d="M355.842 87.273l3.273-5.532c-20.137-11.938-42.374-20.452-65.8-24.866l-1.185 6.322c22.683 4.274 44.214 12.518 63.712 24.076z" class="B"/><path d="M404.83 383.633l4.879 4.184c15.31-17.883 27.492-38.359 35.864-60.502l-6.017-2.263c-8.107 21.44-19.901 41.266-34.726 58.581z" class="C"/><path d="M439.556 325.052l6.017 2.263c8.22-21.742 12.77-45.083 13.016-69.138l-6.431-.069c-.238 23.292-4.644 45.892-12.602 66.944z" class="B"/><path d="M447.114 188.756l-6.067 2.135c3.725 10.602 6.589 21.665 8.483 33.125a196.61 196.61 0 0 1 2.628 34.092l6.431.069a203.14 203.14 0 0 0-2.714-35.21c-1.957-11.837-4.915-23.262-8.761-34.211zM70.951 321.121l-6.067 2.135a201.15 201.15 0 0 0 34.573 61.272l4.969-4.08c-14.311-17.371-25.755-37.352-33.475-59.327z" class="C"/><path d="M352.255 426.932l3.155 5.603c20.759-11.718 39.074-26.936 54.298-44.718l-4.879-4.184c-14.74 17.219-32.473 31.953-52.574 43.299z" class="B"/><path d="M287.989 449.538h0l1.048 6.345c24.001-3.967 46.323-12.029 66.373-23.347l-3.155-5.603c-19.414 10.958-41.027 18.763-64.266 22.605z" class="C"/><path d="M104.425 380.448l-4.969 4.08c15.052 18.271 33.175 33.738 53.425 45.743l3.273-5.532c-19.607-11.624-37.155-26.6-51.729-44.291z" class="B"/><path d="M156.155 424.738l-3.273 5.532c20.137 11.938 42.374 20.452 65.8 24.866l1.185-6.321c-22.683-4.274-44.214-12.518-63.712-24.077z" class="C"/><path d="M219.866 448.815l-1.185 6.321c22.626 4.263 46.355 4.713 70.356.746l-1.049-6.345c-23.239 3.842-46.214 3.407-68.122-.722z" class="B"/><path d="M136.728 353.927l-32.303 26.521c14.574 17.691 32.122 32.667 51.73 44.291l21.278-35.96c-15.429-9.147-29.237-20.931-40.705-34.852z" class="D"/><path d="M224.648 66.346l-1.028-6.219c-23.521 3.888-45.396 11.788-65.046 22.88l3.093 5.493c19.026-10.74 40.207-18.39 62.981-22.154z" class="B"/><path d="M161.667 88.499l-3.093-5.493c-20.344 11.484-38.292 26.397-53.212 43.824l4.783 4.101c14.445-16.873 31.824-31.313 51.522-42.432z" class="C"/><path d="M110.144 130.932l-4.783-4.101c-15.004 17.525-26.942 37.592-35.146 59.292l5.898 2.219a193.64 193.64 0 0 1 34.031-57.41z" class="B"/><path d="M76.114 188.341l-5.898-2.219c-8.056 21.307-12.515 44.181-12.756 67.755l6.303.068c.233-22.825 4.551-44.974 12.351-65.604z" class="C"/><path d="M437.346 192.193l5.946-2.092c-7.815-22.242-19.398-42.465-33.881-60.046l-4.87 3.998c14.023 17.023 25.238 36.603 32.805 58.14z" class="B"/><path d="M224.648 66.346c22.774-3.765 45.29-3.338 66.759.707l1.161-6.195c-22.174-4.178-45.428-4.619-68.949-.731l1.029 6.219h0z" class="C"/><path d="M66.338 287.357a192.58 192.58 0 0 1-2.575-33.411l-6.303-.068c-.117 11.373.742 22.906 2.66 34.506a198.9 198.9 0 0 0 8.586 33.526l5.946-2.092c-3.651-10.389-6.457-21.23-8.314-32.461z" class="B"/><path d="M404.54 134.053l4.87-3.998c-14.751-17.906-32.512-33.063-52.357-44.828l-3.208 5.421c19.216 11.391 36.413 26.067 50.695 43.405z" class="C"/><path d="M353.845 90.648l3.208-5.421c-19.734-11.699-41.527-20.043-64.484-24.369l-1.161 6.195c22.229 4.189 43.329 12.268 62.437 23.595z" class="B"/><path d="M401.854 381.081l4.781 4.1c15.004-17.525 26.942-37.592 35.146-59.292l-5.897-2.218c-7.944 21.011-19.502 40.441-34.03 57.41z" class="C"/><path d="M435.885 323.671l5.897 2.218c8.056-21.307 12.515-44.181 12.756-67.755l-6.302-.068c-.234 22.826-4.552 44.974-12.351 65.605z" class="B"/><path d="M443.292 190.101l-5.946 2.092c3.651 10.39 6.457 21.231 8.314 32.463a192.57 192.57 0 0 1 2.575 33.41l6.302.068a198.95 198.95 0 0 0-2.66-34.506c-1.917-11.6-4.816-22.797-8.585-33.527zM74.651 319.818l-5.946 2.092c7.814 22.243 19.397 42.465 33.881 60.046l4.87-3.998c-14.023-17.022-25.238-36.603-32.805-58.14z" class="C"/><path d="M350.33 423.514l3.092 5.491c20.344-11.484 38.292-26.397 53.212-43.824l-4.781-4.1c-14.446 16.874-31.824 31.314-51.523 42.433z" class="B"/><path d="M287.349 445.667h0l1.027 6.218c23.521-3.888 45.396-11.788 65.046-22.88l-3.092-5.491c-19.025 10.739-40.206 18.388-62.981 22.153z" class="C"/><path d="M107.456 377.959l-4.87 3.998c14.751 17.906 32.512 33.063 52.357 44.828l3.208-5.421c-19.215-11.391-36.412-26.068-50.695-43.405z" class="B"/><path d="M158.151 421.364l-3.208 5.421c19.735 11.699 41.527 20.043 64.484 24.369l1.161-6.195c-22.228-4.189-43.329-12.268-62.437-23.595z" class="C"/><path d="M220.589 444.959l-1.161 6.195c22.174 4.178 45.428 4.619 68.949.731l-1.028-6.218c-22.775 3.765-45.29 3.338-66.76-.708z" class="B"/><path d="M139.113 351.969l-31.657 25.99c14.283 17.338 31.479 32.014 50.695 43.405l20.853-35.241c-15.12-8.963-28.652-20.512-39.891-34.154z" class="D"/><path d="M264.324 297.451c-4.896.809-9.835.757-14.679-.157-4.836-.911-9.452-2.657-13.721-5.188-4.24-2.511-7.983-5.719-11.124-9.53-3.148-3.824-5.575-8.125-7.213-12.79-.824-2.342-1.441-4.741-1.836-7.126a42.43 42.43 0 0 1-.555-7.339c.05-4.943.964-9.799 2.714-14.429 1.747-4.62 4.258-8.861 7.467-12.607 3.227-3.77 7.038-6.909 11.322-9.325 4.294-2.425 8.953-4.064 13.846-4.872a41.97 41.97 0 0 1 14.677.159c4.83.908 9.448 2.652 13.72 5.184 4.243 2.516 7.986 5.723 11.125 9.534 3.147 3.821 5.575 8.124 7.213 12.788a42.41 42.41 0 0 1 1.836 7.128c.394 2.385.582 4.855.556 7.339-.05 4.943-.964 9.798-2.714 14.428a42.36 42.36 0 0 1-7.465 12.606c-3.229 3.77-7.038 6.907-11.322 9.327-4.293 2.422-8.953 4.061-13.847 4.87z" class="B"/><path d="M292.661 249.988c-.405-2.104-.89-4.128-1.538-6.07 0-.081-.081-.162-.081-.242l-.243-.486a33.62 33.62 0 0 0-5.828-10.036c-.161-.161-.242-.323-.486-.485 0-.162-.081-.243-.243-.324-.648-.89-1.457-1.699-2.266-2.347-1.942-1.942-4.128-3.561-6.394-4.937-.324-.161-.648-.404-.971-.566h-.162c-3.238-1.861-6.718-3.076-10.44-3.804-.486-.081-.891-.162-1.376-.162-3.561-.567-7.284-.567-11.007 0-4.208.728-8.175 2.185-11.736 4.128-3.642 2.104-6.879 4.775-9.55 7.932-2.671 3.075-4.856 6.717-6.313 10.602s-2.266 7.932-2.266 12.221c0 2.023.081 4.128.486 6.151.324 2.104.891 4.128 1.538 6.07 1.376 3.966 3.48 7.608 6.07 10.764.567.648 1.133 1.295 1.781 1.942 2.185 2.428 4.775 4.452 7.608 6.151 3.561 2.104 7.527 3.562 11.655 4.371 2.995.567 6.151.729 9.388.486.486-.081.971-.162 1.538-.162.162-.081.405-.081.648-.162h.243c.162 0 .405 0 .567-.081 3.723-.567 7.203-1.78 10.441-3.399.405-.243.809-.405 1.214-.648 3.319-1.942 6.313-4.29 8.822-7.122v-.081c.324-.242.486-.485.728-.728 2.59-2.995 4.613-6.313 5.989-9.955.162-.243.243-.405.324-.648a35.42 35.42 0 0 0 2.347-11.978v-.647c-.001-1.864-.163-3.887-.487-5.748z" fill="#b76962"/><path d="M123.375 302.673l-5.766 2.029a145.65 145.65 0 0 0 25.035 44.368l4.723-3.878c-10.256-12.449-18.458-26.769-23.992-42.519zm1.071-96.151l-5.721-2.152c-5.952 15.743-9.247 32.645-9.425 50.064l6.113.065c.171-16.692 3.328-32.89 9.033-47.977zm62.566-73.017l-3-5.327c-15.032 8.485-28.294 19.505-39.318 32.381l4.639 3.978c10.565-12.34 23.274-22.9 37.679-31.032zm46.06-16.202c16.655-2.753 33.121-2.441 48.822.518l1.126-6.009c-16.384-3.087-33.566-3.413-50.946-.54l.998 6.031h0zm161.63 115.776a140.8 140.8 0 0 1 1.883 24.433l6.112.066c.086-8.403-.548-16.925-1.965-25.496a147.07 147.07 0 0 0-6.344-24.772l-5.766 2.029a140.83 140.83 0 0 1 6.08 23.74zm-32.037 114.396l4.638 3.977a147.77 147.77 0 0 0 25.969-43.81l-5.719-2.151a141.6 141.6 0 0 1-24.888 41.984zm-178.224 29.46l-3.111 5.258c14.582 8.644 30.684 14.809 47.647 18.006l1.126-6.008c-16.256-3.063-31.688-8.972-45.662-17.256zm146.226-247.117l-3.111 5.258c14.053 8.331 26.629 19.064 37.074 31.743l4.723-3.878c-10.899-13.23-24.022-24.43-38.686-33.123z" class="B"/><path d="M149.333 164.537l-4.639-3.978a147.77 147.77 0 0 0-25.969 43.81l5.721 2.152c5.809-15.365 14.263-29.575 24.887-41.984zm83.738-47.234l-.997-6.031c-17.379 2.873-33.543 8.71-48.062 16.906l3 5.327c13.914-7.854 29.404-13.448 46.059-16.202zm-85.704 227.889l-4.723 3.878c10.899 13.23 24.023 24.43 38.686 33.123l3.111-5.258c-14.053-8.331-26.629-19.064-37.074-31.743zm180.189-210.115l3.111-5.258c-14.581-8.644-30.684-14.81-47.647-18.006l-1.126 6.009c16.256 3.062 31.688 8.971 45.662 17.255zm-210.26 143.857c-1.358-8.214-1.966-16.381-1.883-24.434l-6.113-.065c-.086 8.403.549 16.925 1.965 25.496a146.88 146.88 0 0 0 6.344 24.772l5.766-2.029a141 141 0 0 1-6.079-23.74zm270.256 26.557l5.719 2.151c5.952-15.743 9.247-32.645 9.425-50.064l-6.112-.066a139.57 139.57 0 0 1-9.032 47.979zm1.07-96.153l5.766-2.029c-5.774-16.435-14.333-31.377-25.034-44.368l-4.723 3.878c10.255 12.449 18.457 26.769 23.991 42.519zM230.103 394.191l-1.126 6.008c16.384 3.087 33.566 3.413 50.946.54l-.997-6.03c-16.656 2.753-33.122 2.441-48.823-.518zm94.882-15.683l2.999 5.326c15.032-8.485 28.294-19.505 39.318-32.381l-4.638-3.977c-10.564 12.34-23.273 22.9-37.679 31.032z" class="C"/><path d="M278.926 394.709h0l.996 6.03c17.379-2.873 33.543-8.71 48.062-16.906l-2.999-5.326c-13.914 7.855-29.403 13.449-46.059 16.202zM126.028 301.74l-5.651 1.988a142.75 142.75 0 0 0 24.534 43.48l4.629-3.8c-10.051-12.2-18.089-26.233-23.512-41.668zm1.049-94.229l-5.606-2.109c-5.833 15.428-9.062 31.992-9.237 49.063l5.991.064c.167-16.358 3.261-32.232 8.852-47.018zm61.315-71.556l-2.94-5.22c-14.732 8.316-27.728 19.115-38.532 31.734l4.546 3.898c10.354-12.094 22.808-22.443 36.926-30.412zm45.138-15.878c16.322-2.698 32.459-2.392 47.846.507l1.103-5.888c-16.056-3.026-32.895-3.344-49.927-.529l.978 5.91h0zm158.398 113.461c1.331 8.049 1.926 16.053 1.846 23.945l5.989.064c.084-8.235-.537-16.587-1.926-24.986a144.13 144.13 0 0 0-6.217-24.277l-5.65 1.989c2.616 7.445 4.627 15.215 5.958 23.265zm-31.396 112.108l4.545 3.897a144.81 144.81 0 0 0 25.45-42.934l-5.605-2.108c-5.694 15.059-13.978 28.984-24.39 41.145zm-174.66 28.871l-3.049 5.153c14.29 8.471 30.07 14.513 46.694 17.646l1.104-5.888c-15.931-3.003-31.054-8.793-44.749-16.911zm143.302-242.175l-3.049 5.153c13.772 8.164 26.096 18.682 36.333 31.108l4.629-3.8a144.83 144.83 0 0 0-37.913-32.461z" class="B"/><path d="M151.466 166.366l-4.546-3.898c-10.864 12.69-19.509 27.221-25.45 42.934l5.606 2.109c5.694-15.058 13.978-28.984 24.39-41.145zm82.064-46.289l-.977-5.91c-17.032 2.815-32.872 8.536-47.101 16.568l2.94 5.22c13.636-7.697 28.815-13.18 45.138-15.878zm-83.991 223.332l-4.629 3.8a144.81 144.81 0 0 0 37.912 32.461l3.049-5.153c-13.77-8.164-26.095-18.683-36.332-31.108zm176.585-205.914l3.049-5.153c-14.29-8.471-30.07-14.513-46.694-17.646l-1.103 5.888c15.931 3.003 31.054 8.793 44.748 16.911zM120.07 278.475c-1.331-8.05-1.927-16.054-1.846-23.946l-5.991-.064c-.084 8.235.538 16.587 1.926 24.986s3.487 16.507 6.217 24.277l5.651-1.988a138.22 138.22 0 0 1-5.957-23.265zm264.851 26.026l5.605 2.108a142.74 142.74 0 0 0 9.236-49.063l-5.989-.064c-.167 16.359-3.261 32.233-8.852 47.019zm1.048-94.229l5.65-1.989a142.75 142.75 0 0 0-24.534-43.48l-4.629 3.8a136.79 136.79 0 0 1 23.513 41.669zM230.621 391.428l-1.104 5.888c16.056 3.026 32.895 3.345 49.927.529l-.977-5.909c-16.322 2.697-32.459 2.391-47.846-.508zm92.985-15.37l2.939 5.219c14.732-8.316 27.728-19.115 38.532-31.734l-4.545-3.897c-10.354 12.094-22.809 22.443-36.926 30.412z" class="C"/><path d="M278.468 391.935h0l.977 5.91c17.032-2.815 32.872-8.536 47.101-16.568l-2.939-5.219c-13.637 7.697-28.817 13.179-45.139 15.877zm-149.841-91.11l-5.538 1.949c5.545 15.784 13.765 30.135 24.043 42.611l4.536-3.724c-9.849-11.957-17.726-25.71-23.041-40.836zm1.028-92.344l-5.494-2.067c-5.717 15.12-8.881 31.352-9.052 48.081l5.871.063c.164-16.031 3.197-31.587 8.675-46.077zm60.089-70.125l-2.881-5.116c-14.437 8.149-27.173 18.732-37.761 31.099l4.455 3.82c10.146-11.851 22.352-21.993 36.187-29.803zm44.235-15.56c15.996-2.644 31.81-2.344 46.889.497l1.081-5.771c-15.735-2.965-32.237-3.278-48.928-.519l.958 5.793h0zm155.23 111.191a135.31 135.31 0 0 1 1.809 23.466l5.87.063c.083-8.07-.527-16.255-1.887-24.486a141.28 141.28 0 0 0-6.093-23.792l-5.537 1.949c2.563 7.297 4.534 14.911 5.838 22.8zm-30.768 109.866l4.454 3.819a141.91 141.91 0 0 0 24.941-42.076l-5.493-2.066c-5.58 14.759-13.698 28.405-23.902 40.323zm-171.166 28.293l-2.988 5.05c14.004 8.302 29.469 14.223 45.76 17.293l1.081-5.77c-15.612-2.942-30.432-8.617-43.853-16.573zm140.435-237.33l-2.988 5.05c13.496 8.001 25.575 18.309 35.606 30.486l4.536-3.724c-10.468-12.708-23.071-23.464-37.154-31.812z" class="B"/><path d="M153.557 168.159l-4.455-3.82a141.91 141.91 0 0 0-24.941 42.076l5.494 2.067c5.579-14.758 13.698-28.405 23.902-40.323zm80.422-45.363l-.957-5.792c-16.691 2.759-32.215 8.365-46.159 16.236l2.881 5.116c13.363-7.543 28.239-12.916 44.235-15.56zm-82.31 218.864l-4.536 3.724c10.468 12.707 23.071 23.463 37.154 31.811l2.988-5.05c-13.496-7.999-25.575-18.308-35.606-30.485zm173.053-201.795l2.988-5.05c-14.004-8.302-29.469-14.223-45.76-17.293l-1.081 5.771c15.612 2.942 30.432 8.617 43.853 16.572zM122.789 278.026a135.33 135.33 0 0 1-1.809-23.467l-5.871-.063c-.083 8.07.527 16.255 1.888 24.487a141.15 141.15 0 0 0 6.093 23.791l5.538-1.949c-2.564-7.297-4.535-14.911-5.839-22.799zm259.554 25.505l5.493 2.066c5.716-15.12 8.881-31.352 9.052-48.081l-5.87-.063a134.08 134.08 0 0 1-8.675 46.078zm1.027-92.345l5.537-1.949c-5.546-15.784-13.765-30.135-24.043-42.611l-4.536 3.724c9.85 11.957 17.727 25.71 23.042 40.836zM231.128 388.719l-1.081 5.77c15.735 2.965 32.237 3.278 48.928.519l-.957-5.791c-15.996 2.644-31.81 2.344-46.89-.498zm91.125-15.062l2.88 5.115c14.437-8.149 27.174-18.732 37.761-31.099l-4.454-3.819c-10.146 11.851-22.351 21.993-36.187 29.803z" class="C"/><path d="M278.018 389.216h0l.957 5.791c16.691-2.759 32.215-8.365 46.159-16.236l-2.88-5.115c-13.364 7.544-28.24 12.916-44.236 15.56zm-146.843-89.287l-5.427 1.91c5.435 15.468 13.49 29.532 23.562 41.759l4.445-3.65c-9.652-11.718-17.372-25.195-22.58-40.019zm1.007-90.497l-5.384-2.025a137.09 137.09 0 0 0-8.871 47.12l5.754.062c.16-15.712 3.132-30.957 8.501-45.157zm58.887-68.723l-2.824-5.014c-14.148 7.986-26.63 18.358-37.006 30.477l4.366 3.744c9.944-11.614 21.906-21.554 35.464-29.207zm43.351-15.249c15.676-2.591 31.173-2.298 45.951.487l1.06-5.655c-15.421-2.906-31.592-3.212-47.949-.508l.938 5.676h0zm152.125 108.967a132.64 132.64 0 0 1 1.773 22.996l5.752.062c.081-7.909-.516-15.93-1.849-23.997s-3.349-15.854-5.971-23.316l-5.427 1.91c2.512 7.152 4.444 14.614 5.722 22.345zm-30.153 107.669l4.365 3.743a139.08 139.08 0 0 0 24.442-41.234l-5.383-2.025c-5.468 14.463-13.424 27.837-23.424 39.516zm-167.743 27.728l-2.928 4.949c13.724 8.136 28.88 13.939 44.845 16.947l1.06-5.655c-15.3-2.883-29.824-8.445-42.977-16.241zm137.627-232.585l-2.928 4.949c13.226 7.841 25.063 17.943 34.894 29.876l4.446-3.65c-10.26-12.452-22.611-22.993-36.412-31.175z" class="B"/><path d="M155.606 169.916l-4.366-3.744c-10.434 12.188-18.736 26.143-24.442 41.234l5.384 2.025c5.468-14.462 13.424-27.835 23.424-39.515zm78.814-44.456l-.938-5.676c-16.357 2.704-31.571 8.198-45.236 15.912l2.824 5.014c13.095-7.393 27.674-12.659 43.35-15.25zm-80.665 214.487l-4.445 3.65c10.258 12.452 22.61 22.994 36.411 31.175l2.928-4.949c-13.226-7.84-25.063-17.942-34.894-29.876zm169.593-197.759l2.928-4.949c-13.724-8.136-28.879-13.939-44.845-16.947l-1.06 5.655c15.3 2.883 29.824 8.444 42.977 16.241zM125.453 277.585a132.55 132.55 0 0 1-1.772-22.997l-5.754-.062c-.081 7.909.516 15.93 1.85 23.997a138.38 138.38 0 0 0 5.971 23.315l5.427-1.91c-2.513-7.15-4.444-14.612-5.722-22.343zm254.363 24.995l5.383 2.025c5.602-14.818 8.703-30.725 8.871-47.12l-5.752-.062c-.162 15.712-3.133 30.957-8.502 45.157zm1.006-90.497l5.427-1.91c-5.435-15.468-13.49-29.532-23.562-41.758l-4.446 3.65c9.654 11.716 17.373 25.194 22.581 40.018zM231.625 386.065l-1.06 5.655c15.42 2.906 31.592 3.212 47.95.508l-.938-5.675c-15.676 2.591-31.174 2.297-45.952-.488zm89.303-14.761l2.823 5.012c14.148-7.986 26.63-18.358 37.006-30.477l-4.365-3.743c-9.943 11.615-21.905 21.554-35.464 29.208z" class="C"/><path d="M277.578 386.552h0l.938 5.676c16.357-2.704 31.57-8.198 45.235-15.912l-2.823-5.012c-13.095 7.392-27.674 12.657-43.35 15.248zM133.671 299.05l-5.319 1.871c5.326 15.159 13.22 28.941 23.091 40.923l4.356-3.577c-9.459-11.481-17.024-24.689-22.128-39.217zm.987-88.687l-5.277-1.985c-5.49 14.521-8.529 30.111-8.694 46.177l5.639.06a128.78 128.78 0 0 1 8.332-44.252zm57.71-67.348l-2.767-4.913c-13.865 7.827-26.097 17.99-36.266 29.868l4.279 3.669c9.744-11.383 21.466-21.124 34.754-28.624zm42.484-14.944c15.362-2.539 30.55-2.252 45.032.477l1.038-5.542c-15.112-2.848-30.96-3.148-46.991-.498l.921 5.563h0zm149.082 106.788a129.98 129.98 0 0 1 1.737 22.537l5.637.06c.079-7.751-.506-15.611-1.812-23.517a135.64 135.64 0 0 0-5.852-22.849l-5.318 1.872c2.462 7.007 4.356 14.321 5.608 21.897zm-29.55 105.516l4.278 3.668c10.226-11.944 18.362-25.62 23.953-40.409l-5.275-1.984c-5.359 14.172-13.156 27.278-22.956 38.725zm-164.388 27.172l-2.87 4.85c13.45 7.973 28.302 13.66 43.948 16.608l1.039-5.542c-14.994-2.825-29.227-8.275-42.117-15.916zM324.87 139.615l-2.87 4.85c12.962 7.684 24.562 17.584 34.196 29.278l4.357-3.577c-10.053-12.203-22.157-22.533-35.683-30.551z" class="B"/><path d="M157.613 171.638l-4.279-3.669c-10.225 11.944-18.362 25.62-23.953 40.409l5.277 1.985c5.359-14.173 13.156-27.279 22.955-38.725zm77.238-43.567l-.919-5.563c-16.03 2.65-30.939 8.034-44.331 15.593l2.767 4.913c12.833-7.243 27.121-12.403 42.483-14.943zM155.8 338.269l-4.356 3.577c10.053 12.203 22.158 22.534 35.683 30.552l2.87-4.85c-12.962-7.685-24.562-17.585-34.197-29.279zM322 144.465l2.87-4.85c-13.449-7.973-28.302-13.66-43.948-16.608l-1.038 5.542c14.994 2.825 29.227 8.275 42.116 15.916zM128.064 277.154a129.99 129.99 0 0 1-1.737-22.538l-5.639-.06a135.61 135.61 0 0 0 1.813 23.517c1.307 7.905 3.282 15.536 5.852 22.849l5.319-1.871c-2.463-7.009-4.356-14.321-5.608-21.897zm249.276 24.495l5.275 1.984c5.49-14.521 8.529-30.111 8.693-46.177l-5.637-.06a128.78 128.78 0 0 1-8.331 44.253zm.986-88.688l5.318-1.872c-5.326-15.159-13.22-28.941-23.091-40.923l-4.357 3.577c9.461 11.483 17.026 24.691 22.13 39.218zM232.113 383.464l-1.039 5.542c15.112 2.848 30.961 3.148 46.991.498l-.919-5.562c-15.362 2.539-30.551 2.251-45.033-.478zm87.517-14.466l2.766 4.912c13.865-7.826 26.098-17.991 36.266-29.867l-4.278-3.668c-9.744 11.382-21.467 21.122-34.754 28.623z" class="C"/><path d="M277.146 383.941h0l.919 5.562c16.03-2.65 30.939-8.034 44.331-15.593l-2.766-4.912c-12.834 7.244-27.121 12.404-42.484 14.943zM136.118 298.19l-5.212 1.834a131.65 131.65 0 0 0 22.629 40.105l4.269-3.505a126.22 126.22 0 0 1-21.686-38.434zm.967-86.914l-5.171-1.945a131.66 131.66 0 0 0-8.52 45.254l5.526.059c.155-15.089 3.009-29.73 8.165-43.368zm56.555-66.001l-2.712-4.815c-13.588 7.67-25.575 17.631-35.54 29.27l4.193 3.596c9.55-11.155 21.038-20.701 34.059-28.051zm41.634-14.645c15.055-2.489 29.939-2.207 44.132.468l1.018-5.431c-14.81-2.791-30.341-3.085-46.051-.488l.901 5.451h0zm146.101 104.652a127.32 127.32 0 0 1 1.702 22.086l5.524.059c.078-7.595-.496-15.299-1.776-23.046a132.81 132.81 0 0 0-5.735-22.392l-5.212 1.834a127.1 127.1 0 0 1 5.497 21.459zm-28.958 103.405l4.192 3.595c10.021-11.705 17.995-25.108 23.474-39.601l-5.17-1.945c-5.252 13.89-12.893 26.734-22.496 37.951zm-161.101 26.629l-2.813 4.753c13.181 7.813 27.736 13.387 43.069 16.276l1.018-5.431c-14.694-2.768-28.642-8.109-41.274-15.598zm132.177-223.374l-2.813 4.753c12.703 7.53 24.071 17.232 33.512 28.693l4.269-3.505c-9.851-11.959-21.713-22.083-34.968-29.941z" class="B"/><path d="M159.581 173.325l-4.193-3.596c-10.021 11.705-17.995 25.107-23.474 39.601l5.171 1.945a128.01 128.01 0 0 1 22.496-37.95zm75.693-42.695l-.901-5.452c-15.71 2.597-30.32 7.873-43.444 15.282l2.712 4.815c12.576-7.1 26.578-12.157 41.633-14.645zm-77.47 205.993l-4.269 3.505c9.852 11.959 21.714 22.083 34.969 29.941l2.813-4.753c-12.703-7.53-24.071-17.232-33.513-28.693zM320.68 146.695l2.813-4.753c-13.181-7.813-27.736-13.387-43.069-16.276l-1.018 5.431c14.694 2.77 28.643 8.11 41.274 15.598zM130.622 276.731a127.34 127.34 0 0 1-1.702-22.087l-5.526-.059c-.078 7.596.496 15.299 1.777 23.046s3.216 15.226 5.734 22.392l5.212-1.834a127.49 127.49 0 0 1-5.495-21.458zm244.291 24.005l5.17 1.945c5.38-14.231 8.358-29.509 8.519-45.254l-5.524-.059c-.155 15.089-3.009 29.73-8.165 43.368zm.966-86.914l5.212-1.834a131.65 131.65 0 0 0-22.629-40.105l-4.269 3.505c9.271 11.253 16.685 24.197 21.686 38.434zM232.591 380.915l-1.018 5.431c14.81 2.791 30.341 3.085 46.051.488l-.901-5.451c-15.055 2.488-29.94 2.206-44.132-.468zm85.766-14.177l2.711 4.814c13.588-7.67 25.576-17.631 35.541-29.27l-4.192-3.595c-9.55 11.155-21.038 20.701-34.06 28.051z" class="C"/><path d="M276.723 381.383h0l.901 5.451c15.71-2.597 30.32-7.873 43.444-15.281l-2.711-4.814c-12.577 7.098-26.578 12.155-41.634 14.644z" class="B"/><path d="M428.875 67.317c-2.752-2.508-5.503-5.018-8.417-7.365-3.48-2.913-6.96-5.746-10.603-8.418-1.942-1.537-4.047-2.993-6.07-4.451-.323-.323-.728-.566-1.052-.728-.081-.081-.081-.162-.161-.162-2.266-1.618-4.532-3.076-6.799-4.533-3.076-2.023-6.232-4.047-9.469-5.908-3.156-1.861-6.394-3.723-9.631-5.422-3.318-1.78-6.556-3.481-9.874-5.019-3.4-1.618-6.718-3.156-10.117-4.613-2.914-1.214-5.747-2.427-8.66-3.481-1.457-.647-2.995-1.213-4.532-1.78l-2.752-.97c-2.509-.891-5.018-1.7-7.608-2.509-2.833-.971-5.666-1.78-8.579-2.59a97.97 97.97 0 0 0-6.556-1.699c-2.023-.567-3.966-.971-5.989-1.456-.081 0-.243-.081-.324-.081-2.104-.486-4.208-.891-6.394-1.295-1.376-.324-2.832-.566-4.209-.809-3.723-.648-7.365-1.214-11.088-1.699-.567-.081-1.133-.162-1.699-.162-3.076-.486-6.232-.81-9.389-1.134-3.804-.323-7.608-.566-11.412-.727a269.15 269.15 0 0 0-11.493-.243 269.15 269.15 0 0 0-11.493.243c-3.237.161-6.556.323-9.793.646a49.25 49.25 0 0 0-4.856.486c-2.671.243-5.26.486-7.851.891-3.238.404-6.394.889-9.47 1.456l-5.827 1.052c-1.78.323-3.48.647-5.18 1.052l-7.446 1.78c-.89.162-1.781.405-2.671.648-2.509.647-4.937 1.294-7.365 2.104-5.261 1.456-10.521 3.156-15.62 5.017l-8.418 3.238c-3.399 1.376-6.798 2.832-10.117 4.371-2.185.971-4.37 2.023-6.556 3.157-1.861.809-3.642 1.699-5.423 2.67-2.832 1.457-5.666 2.995-8.498 4.613-1.619.891-3.238 1.861-4.775 2.833-2.185 1.213-4.289 2.508-6.313 3.885-2.671 1.618-5.18 3.399-7.77 5.099-1.538 1.052-3.076 2.184-4.532 3.319-2.023 1.375-3.966 2.833-5.908 4.37-2.914 2.266-5.828 4.613-8.66 6.96a181.03 181.03 0 0 0-8.337 7.365c-2.509 2.266-4.937 4.613-7.365 7.041-2.266 2.185-4.532 4.533-6.718 6.88-2.509 2.67-4.937 5.422-7.284 8.174-2.347 2.671-4.613 5.423-6.799 8.256-.243.162-.323.324-.405.566-2.266 2.834-4.451 5.747-6.556 8.742-2.185 2.995-4.29 6.07-6.313 9.146-1.942 2.914-3.723 5.908-5.504 8.822-.243.324-.405.648-.567.971-.486.647-.89 1.376-1.295 2.104l-4.047 7.365c-1.781 3.237-3.399 6.556-5.018 9.955s-3.156 6.798-4.613 10.198a18.4 18.4 0 0 0-.81 1.861l-2.589 6.556c-.243.647-.567 1.294-.81 1.942-1.295 3.399-2.509 6.879-3.642 10.36-1.133 3.318-2.104 6.636-3.076 10.036-.162.242-.243.485-.243.728-.971 3.481-1.861 7.041-2.671 10.602a166.27 166.27 0 0 0-1.942 9.146c-.405 1.538-.729 3.157-.971 4.775-.162 1.134-.405 2.266-.567 3.4l-.971 6.394-.486 3.885-.809 7.203L.4 242.462a89.21 89.21 0 0 0-.243 6.637L0 254.764v1.213a184.71 184.71 0 0 0 .243 9.47c.081 3.238.243 6.394.486 9.632 0 .485.081.971.081 1.456l1.133 10.441c0 .486.081.971.162 1.375.405 3.077.81 6.232 1.376 9.39.081.889.243 1.78.405 2.669 1.133 6.556 2.509 13.031 4.289 19.345.891 3.642 1.862 7.202 2.995 10.683 1.052 3.562 2.185 7.041 3.399 10.521a154.01 154.01 0 0 0 3.157 8.58c.405 1.052.809 2.104 1.295 3.157l2.023 4.856c.971 2.348 2.023 4.614 3.076 6.799 1.457 3.156 2.914 6.151 4.532 9.226.323.729.729 1.457 1.133 2.185 1.457 2.753 2.995 5.504 4.532 8.175a228 228 0 0 0 8.255 13.354l.162.162a34.59 34.59 0 0 0 1.861 2.833c.243.405.567.809.81 1.133 1.7 2.509 3.399 4.937 5.261 7.365 4.047 5.503 8.418 10.845 12.95 15.944 1.457 1.699 2.914 3.399 4.451 5.018.729.728 1.457 1.538 2.104 2.265 1.619 1.7 3.238 3.32 4.856 4.938l3.642-3.562 27.356-27.437 3.885-3.885 2.914-2.914 36.259-36.259.243-.243 2.995-2.995.324-.324 1.78-1.699 2.023-2.104.243-.243 1.78-1.78.162-.162 68.309-68.309 3.804-3.804.891-.891 49.856-49.855h.081l.405-.486 63.777-63.776 1.861-1.862 1.862-1.861.243-.243 1.619-1.618 6.232-6.232 1.78-1.7.324-.404 3.076-3.076 1.133-1.133 3.4-3.4a211.66 211.66 0 0 0-6.07-5.827c-.405-.324-.81-.728-1.214-1.051-.89-.81-1.781-1.538-2.671-2.266l-.161-.162v-.081h.081v-.081c.405.324.81.648 1.133 1.052 1.781 1.457 3.48 2.914 5.099 4.532l3.885 3.724 24.443-24.443 2.832-2.752 1.619-1.699 1.133-1.134h.081l1.619-1.699 2.995-2.914 8.498-8.498L434.14 77.76l2.833-2.752c-2.594-2.673-5.346-5.182-8.098-7.691zm-119.055 40.63c-3.723-1.376-7.446-2.59-11.331-3.562a91.13 91.13 0 0 0-6.718-1.699c-.405-.162-.81-.243-1.214-.324l-4.775-.97c-.243-.081-.567-.081-.81-.162l-7.122-1.214c-2.428-.324-4.856-.566-7.284-.809-4.775-.486-9.631-.729-14.568-.729V63.756h.243v34.56c4.694 0 9.389.243 14.002.648 1.214.081 2.428.243 3.642.405a35.82 35.82 0 0 1 4.128.485c2.347.323 4.775.728 7.122 1.133 8.498 1.618 16.754 3.885 24.766 6.798l-.081.162zm-53.822 20.962h.243v84.901h-.243v-84.901z" opacity=".1" fill="#f7f9e6"/><defs ><path id="B" d="M255.998 256.006h0 0z"/></defs></svg>