<?xml version="1.0" encoding="UTF-8" standalone="no"?>
<!-- Uploaded to: SVG Repo, www.svgrepo.com, Transformed by: SVG Repo Mixer Tools -->

<svg
   height="64px"
   width="64px"
   version="1.1"
   id="Layer_1"
   viewBox="0 0 512 512"
   xml:space="preserve"
   fill="#000000"
   sodipodi:docname="ic_stats.svg"
   inkscape:version="1.2.2 (732a01da63, 2022-12-09)"
   xmlns:inkscape="http://www.inkscape.org/namespaces/inkscape"
   xmlns:sodipodi="http://sodipodi.sourceforge.net/DTD/sodipodi-0.dtd"
   xmlns="http://www.w3.org/2000/svg"
   xmlns:svg="http://www.w3.org/2000/svg"><defs
   id="defs40">                  </defs><sodipodi:namedview
   id="namedview38"
   pagecolor="#ffffff"
   bordercolor="#000000"
   borderopacity="0.25"
   inkscape:showpageshadow="2"
   inkscape:pageopacity="0.0"
   inkscape:pagecheckerboard="0"
   inkscape:deskcolor="#d1d1d1"
   showgrid="false"
   inkscape:zoom="12.421875"
   inkscape:cx="31.959748"
   inkscape:cy="32.080503"
   inkscape:window-width="1920"
   inkscape:window-height="991"
   inkscape:window-x="-10"
   inkscape:window-y="-10"
   inkscape:window-maximized="1"
   inkscape:current-layer="Layer_1" />

<g
   id="SVGRepo_bgCarrier"
   stroke-width="0" />

<g
   id="SVGRepo_tracerCarrier"
   stroke-linecap="round"
   stroke-linejoin="round" />

<path
   style="fill:#7dd2f0"
   d="m 502.898,77.509 c 0,-34.009 -27.571,-61.58 -61.58,-61.58 H 69.544 c -34.009,0 -61.58,27.571 -61.58,61.58 v 358.119 c 0,34.01 27.571,61.581 61.58,61.581 h 371.773 c 34.009,0 61.58,-27.571 61.58,-61.58 V 77.509 Z"
   id="path4" /><circle
   style="fill:#ffffff"
   cx="417.45886"
   cy="111.047"
   r="45.636002"
   id="circle6" /><path
   style="fill:#ffffff"
   d="m 62.888,65.409 c -8.094,0 -14.656,6.562 -14.656,14.656 v 61.957 c 0,8.094 6.562,14.656 14.656,14.656 h 255.535 c 8.094,0 14.657,-6.562 14.657,-14.656 V 80.064 c 0,-8.094 -6.562,-14.656 -14.657,-14.656 0,0.001 -255.535,0.001 -255.535,0.001 z"
   id="path8" /><circle
   style="fill:#ffffff"
   cx="417.45886"
   cy="255.772"
   r="45.636002"
   id="circle10" /><path
   style="fill:#ffffff"
   d="m 62.888,210.136 c -8.094,0 -14.656,6.562 -14.656,14.656 v 61.957 c 0,8.094 6.562,14.656 14.656,14.656 h 255.535 c 8.094,0 14.657,-6.562 14.657,-14.656 v -61.957 c 0,-8.094 -6.562,-14.656 -14.657,-14.656 z"
   id="path12" /><circle
   style="fill:#ffffff"
   cx="417.45886"
   cy="400.49799"
   r="45.636002"
   id="circle14" /><path
   style="fill:#ffffff"
   d="m 318.423,446.133 c 8.094,0 14.657,-6.562 14.657,-14.657 V 369.52 c 0,-8.094 -6.562,-14.656 -14.657,-14.656 H 62.888 c -8.094,0 -14.656,6.562 -14.656,14.656 v 61.957 c 0,8.094 6.562,14.657 14.656,14.657 h 255.535 z"
   id="path16" /><path
   d="m 441.887,505.173 h -41.879 c -4.714,0 -8.533,-3.821 -8.533,-8.533 0,-4.712 3.819,-8.533 8.533,-8.533 h 41.879 c 29.25,0 53.047,-23.797 53.047,-53.047 V 76.941 c 0,-29.251 -23.797,-53.048 -53.047,-53.048 H 175.695 c -4.714,0 -8.533,-3.821 -8.533,-8.533 0,-4.712 3.82,-8.533 8.533,-8.533 H 441.887 C 480.547,6.827 512,38.279 512,76.941 V 435.06 c 0,38.661 -31.453,70.113 -70.113,70.113 z"
   id="path20" /><path
   d="M 365.874,505.173 H 70.113 C 31.453,505.173 0,473.721 0,435.06 V 76.941 C 0,38.279 31.453,6.827 70.113,6.827 h 71.448 c 4.714,0 8.533,3.821 8.533,8.533 0,4.712 -3.82,8.533 -8.533,8.533 H 70.113 c -29.25,0 -53.047,23.797 -53.047,53.048 V 435.06 c 0,29.25 23.797,53.047 53.047,53.047 h 295.761 c 4.714,0 8.533,3.821 8.533,8.533 0,4.712 -3.819,8.533 -8.533,8.533 z"
   id="path22" /><path
   d="m 417.175,164.871 c -29.868,0 -54.167,-24.3 -54.167,-54.167 0,-29.867 24.3,-54.167 54.167,-54.167 29.867,0 54.167,24.3 54.167,54.167 0,29.867 -24.299,54.167 -54.167,54.167 z m 0,-91.269 c -20.457,0 -37.101,16.643 -37.101,37.101 0,20.458 16.643,37.101 37.101,37.101 20.458,0 37.101,-16.643 37.101,-37.101 0,-20.458 -16.642,-37.101 -37.101,-37.101 z"
   id="path24" /><path
   d="M 318.139,164.872 H 62.606 c -12.786,0 -23.19,-10.403 -23.19,-23.19 V 79.725 c 0,-12.786 10.404,-23.189 23.19,-23.189 h 174.611 c 4.714,0 8.533,3.821 8.533,8.533 0,4.712 -3.82,8.533 -8.533,8.533 H 62.606 c -3.377,0 -6.124,2.747 -6.124,6.122 v 61.957 c 0,3.377 2.747,6.124 6.124,6.124 h 255.535 c 3.377,0 6.124,-2.747 6.124,-6.124 V 79.725 c 0,-3.376 -2.747,-6.122 -6.124,-6.122 h -46.79 c -4.714,0 -8.533,-3.821 -8.533,-8.533 0,-4.713 3.82,-8.533 8.533,-8.533 h 46.79 c 12.786,0 23.19,10.403 23.19,23.189 v 61.957 c -0.001,12.786 -10.404,23.189 -23.192,23.189 z"
   id="path26" /><path
   d="m 417.175,309.598 c -29.868,0 -54.167,-24.3 -54.167,-54.167 0,-29.867 24.3,-54.167 54.167,-54.167 29.867,0 54.167,24.3 54.167,54.167 0,29.867 -24.299,54.167 -54.167,54.167 z m 0,-91.268 c -20.457,0 -37.101,16.643 -37.101,37.101 0,20.458 16.643,37.101 37.101,37.101 20.458,0 37.101,-16.643 37.101,-37.101 0,-20.458 -16.642,-37.101 -37.101,-37.101 z"
   id="path28" /><path
   d="M 318.139,309.598 H 62.606 c -12.786,0 -23.19,-10.403 -23.19,-23.189 v -61.957 c 0,-12.786 10.404,-23.189 23.19,-23.189 h 45.489 c 4.714,0 8.533,3.821 8.533,8.533 0,4.713 -3.82,8.533 -8.533,8.533 H 62.606 c -3.377,0 -6.124,2.747 -6.124,6.122 v 61.957 c 0,3.376 2.747,6.122 6.124,6.122 h 255.535 c 3.377,0 6.124,-2.747 6.124,-6.122 v -61.957 c 0,-3.376 -2.747,-6.122 -6.124,-6.122 H 142.229 c -4.714,0 -8.533,-3.821 -8.533,-8.533 0,-4.713 3.82,-8.533 8.533,-8.533 H 318.14 c 12.786,0 23.19,10.403 23.19,23.189 v 61.957 c 0,12.787 -10.403,23.189 -23.191,23.189 z"
   id="path30" /><path
   d="m 417.175,454.327 c -29.868,0 -54.167,-24.3 -54.167,-54.167 0,-29.868 24.3,-54.167 54.167,-54.167 29.867,0 54.167,24.299 54.167,54.167 0.001,29.868 -24.299,54.167 -54.167,54.167 z m 0,-91.269 c -20.457,0 -37.101,16.643 -37.101,37.101 0,20.457 16.643,37.101 37.101,37.101 20.458,0 37.101,-16.643 37.101,-37.101 0,-20.458 -16.642,-37.101 -37.101,-37.101 z"
   id="path32" /><path
   d="m 318.139,454.327 h -72.237 c -4.714,0 -8.533,-3.821 -8.533,-8.533 0,-4.712 3.82,-8.533 8.533,-8.533 h 72.237 c 3.377,0 6.124,-2.747 6.124,-6.124 V 369.18 c 0,-3.376 -2.747,-6.122 -6.124,-6.122 H 62.606 c -3.377,0 -6.124,2.747 -6.124,6.122 v 61.957 c 0,3.377 2.747,6.124 6.124,6.124 H 211.77 c 4.714,0 8.533,3.821 8.533,8.533 0,4.712 -3.82,8.533 -8.533,8.533 H 62.606 c -12.786,0 -23.19,-10.403 -23.19,-23.19 V 369.18 c 0,-12.786 10.404,-23.189 23.19,-23.189 h 255.535 c 12.786,0 23.19,10.403 23.19,23.189 v 61.957 c -0.001,12.786 -10.404,23.19 -23.192,23.19 z"
   id="path34" />

</svg>
