<?xml version="1.0" encoding="UTF-8" standalone="no"?>
<!-- Uploaded to: SVG Repo, www.svgrepo.com, Transformed by: SVG Repo Mixer Tools -->

<svg
   width="64px"
   height="64px"
   viewBox="0 0 64 64"
   aria-hidden="true"
   role="img"
   class="iconify iconify--emojione"
   preserveAspectRatio="xMidYMid meet"
   fill="#000000"
   version="1.1"
   id="svg6426"
   sodipodi:docname="ic_sound_medium.svg"
   inkscape:version="1.2.2 (732a01da63, 2022-12-09)"
   xmlns:inkscape="http://www.inkscape.org/namespaces/inkscape"
   xmlns:sodipodi="http://sodipodi.sourceforge.net/DTD/sodipodi-0.dtd"
   xmlns:xlink="http://www.w3.org/1999/xlink"
   xmlns="http://www.w3.org/2000/svg"
   xmlns:svg="http://www.w3.org/2000/svg">
  <defs
     id="defs6430" />
  <sodipodi:namedview
     id="namedview6428"
     pagecolor="#ffffff"
     bordercolor="#000000"
     borderopacity="0.25"
     inkscape:showpageshadow="2"
     inkscape:pageopacity="0.0"
     inkscape:pagecheckerboard="0"
     inkscape:deskcolor="#d1d1d1"
     showgrid="false"
     inkscape:zoom="12.421875"
     inkscape:cx="31.959748"
     inkscape:cy="32.080503"
     inkscape:window-width="1920"
     inkscape:window-height="991"
     inkscape:window-x="-10"
     inkscape:window-y="-10"
     inkscape:window-maximized="1"
     inkscape:current-layer="svg6426" />
  <g
     id="SVGRepo_bgCarrier"
     stroke-width="0" />
  <g
     id="SVGRepo_tracerCarrier"
     stroke-linecap="round"
     stroke-linejoin="round" />
  <path
     d="m 52.5,32 c 0,6.9 -3.7,13 -9.3,16.3 L 45.9,51 C 52.1,47 56.2,40 56.2,32 56.2,24 52.1,17 45.8,13 l -2.7,2.7 c 5.6,3.3 9.4,9.4 9.4,16.3"
     id="path6398"
     style="fill:#42ade2" />
  <path
     d="m 44.8,32 c 0,4.8 -3.1,9 -7.4,10.5 l 2.8,2.8 c 4.9,-2.4 8.3,-7.5 8.3,-13.3 0,-5.9 -3.4,-10.9 -8.3,-13.4 l -2.8,2.8 c 4.3,1.6 7.4,5.7 7.4,10.6"
     id="path6400"
     style="fill:#42ade2" />
  <path
     d="M 11.1,45 H 3.8 C 1.7,45 0,43.4 0,41.5 v -19 C 0,20.5 1.7,19 3.8,19 h 7.3 v 26"
     fill="#8b979e"
     id="IconifyId17ecdb2904d178eab26151" />
  <use
     xlink:href="#IconifyId17ecdb2904d178eab26151"
     id="use6405" />
  <path
     d="M 29.8,2.2 C 31.1,0.9 11.1,19 11.1,19 v 26 c 0,0 10.3,7.9 18.7,16.8 V 2.2 Z"
     fill="#b0bdc6"
     id="path6407" />
  <g
     fill="#333333"
     id="g6413">
    <path
       d="m 33,25.5 v 13.1 c 3.9,0 7,-2.9 7,-6.5 0,-3.7 -3.1,-6.6 -7,-6.6"
       id="path6409" />
    <path
       d="m 33,62.5 c 0,0.8 -0.7,1.5 -1.6,1.5 -0.9,0 -1.6,-0.7 -1.6,-1.5 V 1.5 C 29.8,0.7 30.5,0 31.4,0 32.3,0 33,0.7 33,1.5 v 61"
       id="path6411" />
  </g>
  <path
     d="M 11.1,40.2 H 3.8 C 1.7,40.2 0,39.2 0,38 V 26 c 0,-1.2 1.7,-2.2 3.8,-2.2 h 7.3 z"
     fill="#8b979e"
     id="path6415" />
  <path
     d="M 11.1,40.2 H 3.8 C 1.7,40.2 0,39.2 0,38 V 26 c 0,-1.2 1.7,-2.2 3.8,-2.2 h 7.3 z"
     fill="#b0bdc6"
     id="path6417" />
  <path
     fill="#dfe9ef"
     d="M 29.8,13.3 11.1,23.8 v 16.4 l 18.7,10.5 z"
     id="path6419" />
  <path
     fill="#8b979e"
     d="M 29.8,13.3 H 33 v 37.5 h -3.2 z"
     id="path6421" />
  <path
     fill="#333333"
     d="m 3.8,19 h 7.3 V 45 H 3.8 Z"
     id="path6423" />
</svg>
