<?xml version="1.0" encoding="UTF-8" standalone="no"?>
<!-- Uploaded to: SVG Repo, www.svgrepo.com, Generator: SVG Repo Mixer Tools -->

<svg
   height="800px"
   width="800px"
   version="1.1"
   id="Layer_1"
   viewBox="0 0 512.001 512.001"
   xml:space="preserve"
   sodipodi:docname="ic_team.svg"
   inkscape:version="1.2.2 (732a01da63, 2022-12-09)"
   xmlns:inkscape="http://www.inkscape.org/namespaces/inkscape"
   xmlns:sodipodi="http://sodipodi.sourceforge.net/DTD/sodipodi-0.dtd"
   xmlns="http://www.w3.org/2000/svg"
   xmlns:svg="http://www.w3.org/2000/svg"><defs
   id="defs17443" /><sodipodi:namedview
   id="namedview17441"
   pagecolor="#ffffff"
   bordercolor="#000000"
   borderopacity="0.25"
   inkscape:showpageshadow="2"
   inkscape:pageopacity="0.0"
   inkscape:pagecheckerboard="0"
   inkscape:deskcolor="#d1d1d1"
   showgrid="false"
   inkscape:zoom="0.496875"
   inkscape:cx="695.34591"
   inkscape:cy="626.91824"
   inkscape:window-width="1920"
   inkscape:window-height="991"
   inkscape:window-x="-10"
   inkscape:window-y="-10"
   inkscape:window-maximized="1"
   inkscape:current-layer="Layer_1" />
<path
   style="fill:#4cbd91;stroke-width:0.806316"
   d="m 336.5559,459.78144 c 0,0 0,9.57165 0,21.753 H 6.7049836 c 0,-12.18224 0,-21.753 0,-21.753 0,0 0.7811827,-47.59682 82.4631484,-73.96198 0,0 29.600248,-15.48812 39.061438,-26.10445 0,0 17.88107,21.75305 43.40173,21.75305 25.52066,0 43.40139,-21.75305 43.40139,-21.75305 9.46124,10.61633 39.0619,26.10445 39.0619,26.10445 82.20024,26.10426 82.46131,73.96198 82.46131,73.96198 z"
   id="path19473" /><path
   style="fill:#fedaab;stroke-width:0.806316"
   d="m 128.22957,332.04411 c 12.58686,6.61345 27.25601,10.26725 43.40173,10.26725 16.14561,0 30.81495,-3.74189 43.40139,-10.26725 v 27.6709 c 0,0 -17.88073,21.75305 -43.40139,21.75305 -25.52066,0 -43.40173,-21.75305 -43.40173,-21.75305 z"
   id="path19475" /><path
   style="fill:#a67c52;stroke-width:0.806316"
   d="m 149.92973,155.2315 c -39.06161,39.1568 -73.782397,39.1568 -73.782397,39.1568 v -4.35058 c 0,0 -4.513934,-108.767411 95.483157,-108.767411 99.82293,0 95.48315,108.767411 95.48315,108.767411 C 206.35192,190.0369 149.92973,155.2315 149.92973,155.2315 Z"
   id="path19477" /><path
   style="fill:#fedaab;stroke-width:0.806316"
   d="m 215.03181,332.04411 c -12.58641,6.52623 -27.25577,10.26725 -43.40132,10.26725 -16.14564,0 -30.81491,-3.65467 -43.40171,-10.26725 C 100.36568,317.51266 82.050514,288.97219 77.362595,254.94895 63.908502,253.12205 50.10656,240.33044 50.10656,229.1933 c 0,-12.0076 11.631551,-17.40289 26.040773,-17.40289 v -17.40299 c 0,0 34.720787,0 73.782397,-39.15671 0,0 56.42153,34.8055 117.18391,34.8055 v 21.75258 c 14.40878,0 26.04063,5.39436 26.04063,17.40306 0,11.13859 -13.80099,23.92874 -27.25588,25.75564 -4.68712,34.0247 -23.00231,62.56517 -50.86658,77.09662 z"
   id="path19479" /><path
   style="fill:#231f20;stroke-width:0.806316"
   d="m 256.61479,379.7632 c -7.75102,-4.09156 -26.83195,-14.92702 -35.06114,-22.71355 v -21.14432 c 26.31857,-15.16661 44.33012,-42.30661 50.09745,-75.50803 14.98469,-4.28748 28.02526,-18.31338 28.02526,-31.204 0,-13.09492 -9.81326,-21.79137 -26.04098,-23.59349 v -15.4428 c 0.12711,-3.69623 1.25871,-54.61558 -30.59823,-87.85317 -17.53569,-18.295953 -41.55992,-27.571877 -71.40585,-27.571877 -29.92473,0 -53.99365,9.295343 -71.53548,27.626767 -31.794957,33.22617 -30.603857,84.05916 -30.46937,87.80317 v 15.43868 c -16.228461,1.80206 -26.040808,10.49854 -26.040808,23.59342 0,12.89068 13.041789,26.91494 28.02518,31.20417 5.767885,33.20763 23.784146,60.35115 50.097078,75.50973 v 21.14338 c -8.22803,7.78327 -27.330803,18.63236 -35.075794,22.72165 C 2.0211166,407.29448 0.21875256,457.5446 0.18411784,459.67406 l -8.0417e-4,28.39878 H 343.07687 v -28.32749 c -0.0131,-2.14414 -1.26189,-52.71148 -86.46208,-79.98215 z M 134.75126,342.17026 c 11.38768,4.42942 23.74555,6.67873 36.88004,6.67873 13.03135,0 25.38669,-2.2604 36.87993,-6.71436 v 15.04742 c -4.48833,4.66843 -18.68807,17.74814 -36.87993,17.74814 -18.19191,0 -32.39243,-13.08047 -36.88004,-17.74814 z M 109.56332,111.3513 c 14.9838,-15.622981 35.86614,-23.544228 62.06798,-23.544228 26.12703,0 46.96933,7.905963 61.94509,23.498208 22.31382,23.22944 26.2632,57.85079 26.91636,72.04699 -55.61864,-2.36042 -106.61767,-33.36423 -107.14352,-33.688 l -4.38691,-2.70687 -3.64251,3.65156 c -26.72947,26.7947 -51.346205,34.31767 -62.667714,36.42458 0.132873,-10.66094 2.350803,-50.07219 26.911224,-75.68224 z m -25.740265,142.70473 -0.677284,-4.91773 -4.90778,-0.66723 c -9.436194,-1.2812 -21.609769,-10.85981 -21.609769,-19.27777 0,-10.08127 14.940742,-10.86518 19.519111,-10.86518 h 6.521669 v -18.00641 c 11.946479,-1.78872 38.740208,-8.87626 68.263278,-36.9443 14.0912,7.92276 59.45141,31.16014 109.66289,33.0678 l -0.005,21.88203 h 6.52156 c 4.57912,0 19.51899,0.78406 19.51899,10.8654 0,8.41781 -12.17357,17.99696 -21.6099,19.27768 l -4.90743,0.66705 -0.67708,4.91784 c -4.47718,32.4973 -21.76005,58.80915 -47.403,72.18188 -12.2047,6.32869 -25.79794,9.5367 -40.40466,9.5367 -14.76773,0 -28.35064,-3.20326 -40.39212,-9.5302 C 105.58248,312.86436 88.299895,286.55158 83.822975,254.05603 Z M 330.03428,474.99691 H 13.22665 V 459.9011 c 0.04184,-0.76511 0.785231,-11.25463 10.053112,-24.37265 16.318664,-23.09866 45.923898,-36.39798 67.88804,-43.4871 l 0.526695,-0.17046 0.491246,-0.25774 c 2.70115,-1.41317 23.678757,-12.51774 35.822527,-22.71324 7.5089,7.08569 23.24944,19.10503 43.62222,19.10503 20.37183,0 36.11305,-12.01934 43.62214,-19.10503 12.14467,10.1955 33.12151,21.30083 35.82265,22.71324 l 0.50469,0.26506 0.54389,0.17312 c 22.09437,7.01617 51.83417,20.2333 68.04302,43.35766 9.31171,13.28274 9.84717,23.90599 9.86827,24.44314 z"
   id="path19481" /><path
   style="fill:#4cbd91;stroke-width:0.806316"
   d="m 505.43528,483.67991 c 0,0 0,9.57165 0,21.753 H 175.58436 c 0,-12.18224 0,-21.753 0,-21.753 0,0 0.78119,-47.59682 82.46315,-73.96198 0,0 29.60025,-15.48812 39.06144,-26.10445 0,0 17.88107,21.75305 43.40173,21.75305 25.52066,0 43.40139,-21.75305 43.40139,-21.75305 9.46124,10.61633 39.0619,26.10445 39.0619,26.10445 82.20024,26.10426 82.46131,73.96198 82.46131,73.96198 z"
   id="path19473-5" /><path
   style="fill:#fedaab;stroke-width:0.806316"
   d="m 297.10895,355.94258 c 12.58686,6.61345 27.25601,10.26725 43.40173,10.26725 16.14561,0 30.81495,-3.74189 43.40139,-10.26725 v 27.6709 c 0,0 -17.88073,21.75305 -43.40139,21.75305 -25.52066,0 -43.40173,-21.75305 -43.40173,-21.75305 z"
   id="path19475-8" /><path
   style="fill:#a67c52;stroke-width:0.806316"
   d="m 318.80911,179.12997 c -39.06161,39.1568 -73.7824,39.1568 -73.7824,39.1568 v -4.35058 c 0,0 -4.51393,-108.76741 95.48316,-108.76741 99.82293,0 95.48315,108.76741 95.48315,108.76741 -60.76172,-8.2e-4 -117.18391,-34.80622 -117.18391,-34.80622 z"
   id="path19477-1" /><path
   style="fill:#fedaab;stroke-width:0.806316"
   d="m 383.91119,355.94258 c -12.58641,6.52623 -27.25577,10.26725 -43.40132,10.26725 -16.14564,0 -30.81491,-3.65467 -43.40171,-10.26725 -27.8631,-14.53145 -46.17827,-43.07192 -50.86619,-77.09516 -13.45409,-1.8269 -27.25603,-14.61851 -27.25603,-25.75565 0,-12.0076 11.63155,-17.40289 26.04077,-17.40289 v -17.40299 c 0,0 34.72079,0 73.7824,-39.15671 0,0 56.42153,34.8055 117.18391,34.8055 v 21.75258 c 14.40878,0 26.04063,5.39436 26.04063,17.40306 0,11.13859 -13.80099,23.92874 -27.25588,25.75564 -4.68712,34.0247 -23.00231,62.56517 -50.86658,77.09662 z"
   id="path19479-3" /><path
   style="fill:#231f20;stroke-width:0.806316"
   d="m 425.49417,403.66167 c -7.75102,-4.09156 -26.83195,-14.92702 -35.06114,-22.71355 V 359.8038 c 26.31857,-15.16661 44.33012,-42.30661 50.09745,-75.50803 14.98469,-4.28748 28.02526,-18.31338 28.02526,-31.204 0,-13.09492 -9.81326,-21.79137 -26.04098,-23.59349 v -15.4428 c 0.12711,-3.69623 1.25871,-54.61558 -30.59823,-87.85317 -17.53569,-18.29595 -41.55992,-27.571881 -71.40585,-27.571881 -29.92473,0 -53.99365,9.295351 -71.53548,27.626771 -31.79496,33.22617 -30.60386,84.05916 -30.46937,87.80317 v 15.43868 c -16.22846,1.80206 -26.04081,10.49854 -26.04081,23.59342 0,12.89068 13.04179,26.91494 28.02518,31.20417 5.76789,33.20763 23.78415,60.35115 50.09708,75.50973 v 21.14338 c -8.22803,7.78327 -27.3308,18.63236 -35.07579,22.72165 -84.61099,27.52155 -86.41336,77.77167 -86.44799,79.90113 l -8.1e-4,28.39878 h 342.89356 v -28.32749 c -0.0131,-2.14414 -1.26189,-52.71148 -86.46208,-79.98215 z M 303.63064,366.06873 c 11.38768,4.42942 23.74555,6.67873 36.88004,6.67873 13.03135,0 25.38669,-2.2604 36.87993,-6.71436 v 15.04742 c -4.48833,4.66843 -18.68807,17.74814 -36.87993,17.74814 -18.19191,0 -32.39243,-13.08047 -36.88004,-17.74814 z M 278.4427,135.24977 c 14.9838,-15.62298 35.86614,-23.54423 62.06798,-23.54423 26.12703,0 46.96933,7.90596 61.94509,23.49821 22.31382,23.22944 26.2632,57.85079 26.91636,72.04699 -55.61864,-2.36042 -106.61767,-33.36423 -107.14352,-33.688 l -4.38691,-2.70687 -3.64251,3.65156 c -26.72947,26.7947 -51.34621,34.31767 -62.66771,36.42458 0.13287,-10.66094 2.3508,-50.07219 26.91122,-75.68224 z m -25.74027,142.70473 -0.67728,-4.91773 -4.90778,-0.66723 c -9.43619,-1.2812 -21.60977,-10.85981 -21.60977,-19.27777 0,-10.08127 14.94074,-10.86518 19.51911,-10.86518 h 6.52167 v -18.00641 c 11.94648,-1.78872 38.74021,-8.87626 68.26328,-36.9443 14.0912,7.92276 59.45141,31.16014 109.66289,33.0678 l -0.005,21.88203 h 6.52156 c 4.57912,0 19.51899,0.78406 19.51899,10.8654 0,8.41781 -12.17357,17.99696 -21.6099,19.27768 l -4.90743,0.66705 -0.67708,4.91784 c -4.47718,32.4973 -21.76005,58.80915 -47.403,72.18188 -12.2047,6.32869 -25.79794,9.5367 -40.40466,9.5367 -14.76773,0 -28.35064,-3.20326 -40.39212,-9.5302 -25.65405,-13.37923 -42.93664,-39.69201 -47.41356,-72.18756 z M 498.91366,498.89538 H 182.10603 v -15.09581 c 0.0418,-0.76511 0.78523,-11.25463 10.05311,-24.37265 16.31867,-23.09866 45.9239,-36.39798 67.88804,-43.4871 l 0.5267,-0.17046 0.49124,-0.25774 c 2.70115,-1.41317 23.67876,-12.51774 35.82253,-22.71324 7.5089,7.08569 23.24944,19.10503 43.62222,19.10503 20.37183,0 36.11305,-12.01934 43.62214,-19.10503 12.14467,10.1955 33.12151,21.30083 35.82265,22.71324 l 0.50469,0.26506 0.54389,0.17312 c 22.09437,7.01617 51.83417,20.2333 68.04302,43.35766 9.31171,13.28274 9.84717,23.90599 9.86827,24.44314 z"
   id="path19481-7" />





</svg>
