<!DOCTYPE svg PUBLIC "-//W3C//DTD SVG 1.1//EN" "http://www.w3.org/Graphics/SVG/1.1/DTD/svg11.dtd">
<!-- Uploaded to: SVG Repo, www.svgrepo.com, Transformed by: SVG Repo Mixer Tools -->
<svg height="64px" width="64px" version="1.1" id="Layer_1" xmlns="http://www.w3.org/2000/svg" xmlns:xlink="http://www.w3.org/1999/xlink" viewBox="0 0 512.001 512.001" xml:space="preserve" fill="#000000">
<g id="SVGRepo_bgCarrier" stroke-width="0"/>
<g id="SVGRepo_tracerCarrier" stroke-linecap="round" stroke-linejoin="round"/>
<g id="SVGRepo_iconCarrier"> <g> <path style="fill:#F4661E;" d="M457.018,354.083c17.245,15.737,28.024,38.371,28.024,63.592c0,47.64-38.587,86.227-86.227,86.227 c-25.221,0-47.856-10.779-63.592-28.024L457.018,354.083z"/> <path style="fill:#F4661E;" d="M321.965,378.55c14.227-28.024,43.329-47.101,76.85-47.101c22.419,0,42.898,8.623,58.203,22.634 L335.221,475.878c-14.011-15.305-22.634-35.784-22.634-58.203C312.587,403.556,316.036,390.299,321.965,378.55z"/> </g> <path style="fill:#4CBD91;" d="M335.221,475.878c15.737,17.245,38.371,28.024,63.592,28.024H26.96c0-15.09,0-26.945,0-26.945 s0.97-58.958,102.395-91.616c0,0,36.755-19.185,48.503-32.335c0,0,22.203,26.945,53.892,26.945s53.892-26.945,53.892-26.945 c7.329,8.3,24.466,18.755,36.323,25.545c-5.928,11.748-9.377,25.006-9.377,39.126C312.587,440.094,321.21,460.573,335.221,475.878z"/> <g> <path style="fill:#FEDAAB;" d="M177.858,318.73c15.629,8.192,33.844,12.718,53.892,12.718s38.263-4.635,53.892-12.718v34.276 c0,0-22.203,26.945-53.892,26.945s-53.892-26.945-53.892-26.945L177.858,318.73L177.858,318.73z"/> <path style="fill:#FEDAAB;" d="M285.642,318.73c-15.629,8.084-33.844,12.718-53.892,12.718s-38.263-4.527-53.892-12.718 c-34.598-18-57.34-53.353-63.161-95.497c-16.706-2.263-33.844-18.108-33.844-31.903c0-14.874,14.443-21.557,32.335-21.557v-21.557 c0,0,43.113,0,91.616-48.503c0,0,70.059,43.113,145.508,43.113v26.945c17.892,0,32.335,6.682,32.335,21.557 c0,13.797-17.137,29.64-33.844,31.903C342.982,265.377,320.24,300.73,285.642,318.73z"/> </g> <path style="fill:#A67C52;" d="M204.804,99.714c-48.503,48.503-91.616,48.503-91.616,48.503v-5.389 c0,0-5.605-134.729,118.562-134.729c123.951,0,118.562,134.729,118.562,134.729C274.863,142.827,204.804,99.714,204.804,99.714z"/> <path style="fill:#231F20;" d="M493.138,417.675c0-26.434-11.177-51.793-30.663-69.575c-17.439-15.961-40.047-24.75-63.661-24.75 c-32.824,0-62.679,16.686-79.834,44.072c-13.99-8.371-21.367-14.023-25.242-17.695v-26.213 c32.68-18.787,55.046-52.405,62.205-93.531c18.607-5.311,34.799-22.685,34.799-38.652c0-16.221-12.185-26.993-32.334-29.225v-19.129 c0.158-4.579,1.563-67.652-37.994-108.823C298.642,11.49,268.81,0,231.75,0c-37.158,0-67.045,11.514-88.827,34.221 c-39.48,41.157-38,104.123-37.833,108.761v19.124c-20.151,2.232-32.335,13.004-32.335,29.225c0,15.967,16.194,33.339,34.8,38.652 c7.161,41.134,29.532,74.756,62.205,93.533v26.19c-10.217,9.642-33.938,23.08-43.554,28.145 C21.144,411.942,18.907,474.186,18.864,476.824l-0.001,35.177h385.341v-0.158C453.717,509.039,493.138,467.877,493.138,417.675z M398.814,339.547c16.713,0,32.809,5.334,46.156,15.132L335.817,463.831c-9.798-13.346-15.132-29.443-15.132-46.156 c0-12.352,2.862-24.288,8.501-35.46C342.548,355.897,369.228,339.547,398.814,339.547z M185.956,331.273 c14.14,5.487,29.486,8.273,45.794,8.273c16.181,0,31.524-2.8,45.794-8.317v18.656c-5.532,5.782-23.048,21.968-45.794,21.968 c-22.598,0-40.237-16.217-45.794-21.984L185.956,331.273L185.956,331.273z M154.611,45.432c18.61-19.4,44.563-29.237,77.139-29.237 c32.442,0,58.322,9.793,76.918,29.107c27.707,28.774,32.611,71.659,33.422,89.244c-69.063-2.924-132.389-41.328-133.043-41.73 l-5.447-3.351l-4.523,4.523c-33.196,33.196-63.767,42.512-77.82,45.12C121.399,125.942,124.071,77.269,154.611,45.432z M122.718,222.127l-0.841-6.092l-6.094-0.826c-11.717-1.587-26.834-13.452-26.834-23.879c0-12.488,18.553-13.459,24.237-13.459 h8.098v-22.304c14.835-2.216,48.105-10.995,84.763-45.763c17.498,9.814,73.822,38.598,136.17,40.961l-0.005,27.105h8.098 c5.686,0,24.236,0.971,24.236,13.459c0,10.427-15.116,22.292-26.833,23.879l-6.094,0.826l-0.841,6.092 c-5.558,40.254-27.019,72.846-58.86,89.411c-15.155,7.839-32.035,11.813-50.172,11.813c-18.336,0-35.203-3.968-50.154-11.805 C149.738,294.972,128.278,262.379,122.718,222.127z M35.059,495.804v-18.7c0.053-0.952,0.977-13.943,12.483-30.189 c20.263-28.612,57.024-45.086,84.296-53.867l0.654-0.211l0.61-0.319c3.353-1.751,29.401-15.506,44.481-28.135 c9.324,8.777,28.871,23.665,54.166,23.665c25.276,0,44.811-14.866,54.143-23.645c6.004,5.039,14.511,10.818,25.671,17.453 c-4.695,11.431-7.076,23.445-7.076,35.819c0,23.619,8.794,46.231,24.751,63.661c5.026,5.509,10.659,10.352,16.75,14.467H35.059z M398.814,495.804c-19.296,0-37.889-7.194-52.115-19.951L456.993,365.56c12.754,14.221,19.951,32.817,19.951,52.115 C476.943,460.756,441.895,495.804,398.814,495.804z"/> </g>
</svg>