<?xml version="1.0" encoding="UTF-8" standalone="no"?>
<!-- Uploaded to: SVG Repo, www.svgrepo.com, Generator: SVG Repo Mixer Tools -->

<svg
   height="800px"
   width="800px"
   version="1.1"
   id="Layer_1"
   viewBox="0 0 512.001 512.001"
   xml:space="preserve"
   sodipodi:docname="ic_users_duo.svg"
   inkscape:version="1.2.2 (732a01da63, 2022-12-09)"
   xmlns:inkscape="http://www.inkscape.org/namespaces/inkscape"
   xmlns:sodipodi="http://sodipodi.sourceforge.net/DTD/sodipodi-0.dtd"
   xmlns="http://www.w3.org/2000/svg"
   xmlns:svg="http://www.w3.org/2000/svg"><defs
   id="defs15" /><sodipodi:namedview
   id="namedview13"
   pagecolor="#ffffff"
   bordercolor="#000000"
   borderopacity="0.25"
   inkscape:showpageshadow="2"
   inkscape:pageopacity="0.0"
   inkscape:pagecheckerboard="0"
   inkscape:deskcolor="#d1d1d1"
   showgrid="false"
   inkscape:zoom="0.496875"
   inkscape:cx="169.0566"
   inkscape:cy="331.06918"
   inkscape:window-width="1920"
   inkscape:window-height="991"
   inkscape:window-x="-10"
   inkscape:window-y="-10"
   inkscape:window-maximized="1"
   inkscape:current-layer="Layer_1" />
<path
   style="fill:#4cbd91;stroke-width:0.703529"
   d="m 336.96135,335.55327 c 0,0 0,8.34105 0,18.9566 H 48.811181 c 0,-10.61626 0,-18.9566 0,-18.9566 0,0 0.682424,-41.47868 72.037889,-64.45455 0,0 25.85823,-13.49721 34.12329,-22.74862 0,0 15.62046,18.9566 37.91461,18.9566 22.29414,0 37.9146,-18.9566 37.9146,-18.9566 8.26507,9.25141 34.12329,22.74862 34.12329,22.74862 71.80854,22.74863 72.03649,64.45455 72.03649,64.45455 z"
   id="path2" />
<path
   style="fill:#fedaab;stroke-width:0.703529"
   d="m 154.97236,224.23593 c 10.99546,5.76331 23.81025,8.94748 37.91461,8.94748 14.10435,0 26.91914,-3.26086 37.9146,-8.94748 v 24.11417 c 0,0 -15.62046,18.9566 -37.9146,18.9566 -22.29415,0 -37.91461,-18.9566 -37.91461,-18.9566 z"
   id="path4" />
<path
   style="fill:#a67c52;stroke-width:0.703529"
   d="m 173.92896,70.15173 c -34.12329,34.12329 -64.45455,34.12329 -64.45455,34.12329 v -3.79132 c 0,0 -3.94328,-94.7858154 83.41185,-94.7858154 87.20318,0 83.41186,94.7858154 83.41186,94.7858154 -53.07989,-7.1e-4 -102.36916,-30.33197 -102.36916,-30.33197 z"
   id="path6" />
<path
   style="fill:#fedaab;stroke-width:0.703529"
   d="m 230.80087,224.23593 c -10.99546,5.68733 -23.81025,8.94748 -37.91461,8.94748 -14.10435,0 -26.91914,-3.18488 -37.9146,-8.94748 -24.34071,-12.66353 -40.34038,-37.53541 -44.43562,-67.18495 -11.753166,-1.59209 -23.810253,-12.73951 -23.810253,-22.4447 0,-10.4643 10.161076,-15.16598 22.748623,-15.16598 v -15.16599 c 0,0 30.33126,0 64.45455,-34.123283 0,0 49.28857,30.331263 102.36916,30.331263 v 18.9566 c 12.58754,0 22.74862,4.70098 22.74862,15.16598 0,9.7066 -12.05638,20.85261 -23.81025,22.4447 -4.09454,29.65095 -20.09421,54.52283 -44.43562,67.18636 z"
   id="path8" />
<path
   style="fill:#231f20;stroke-width:0.703529"
   d="m 267.12691,265.82084 c -6.77147,-3.56548 -23.4402,-13.00825 -30.62886,-19.7938 v -18.42613 c 22.99134,-13.21721 38.72578,-36.86846 43.76375,-65.80181 13.09057,-3.73645 24.48212,-15.95957 24.48212,-27.19282 0,-11.41195 -8.57251,-18.99037 -22.74862,-20.56065 V 100.58782 C 282.10645,97.366358 283.09491,52.992648 255.2654,24.02764 239.94675,8.0835528 218.95977,0 192.88697,0 166.74522,0 145.71954,8.1004375 130.39526,24.07548 102.61992,53.030639 103.66044,97.329071 103.77793,100.59204 v 13.4543 c -14.176818,1.57027 -22.74862,9.14869 -22.74862,20.56064 0,11.23326 11.392955,23.45497 24.48212,27.19282 5.03868,28.93898 20.77733,52.59305 43.76375,65.80322 v 18.42543 c -7.18796,6.78273 -23.87568,16.23746 -30.64152,19.80084 -73.914206,23.98402 -75.488705,67.7745 -75.518956,69.63041 L 43.114,360.20776 h 299.54382 v -24.68615 c -0.01,-1.86857 -1.10243,-45.93554 -75.53091,-69.70077 z M 160.66954,233.06029 c 9.94791,3.86027 20.74357,5.8203 32.21743,5.8203 11.38381,0 22.17735,-1.96988 32.21742,-5.85125 v 13.11308 c -3.92077,4.06851 -16.3254,15.4671 -32.21742,15.4671 -15.89203,0 -28.29736,-11.39929 -32.21743,-15.4671 z M 138.66596,31.912094 c 13.08916,-13.614701 31.33168,-20.517732 54.22101,-20.517732 22.8239,0 41.03124,6.889664 54.11407,20.47763 19.49269,20.243355 22.9428,50.414214 23.51336,62.785778 -48.58715,-2.05712 -93.13885,-29.075463 -93.59825,-29.357578 l -3.83213,-2.358934 -3.18206,3.182063 c -23.35014,23.350141 -44.85493,29.906331 -54.74514,31.742543 0.11608,-9.290809 2.0536,-43.635707 23.50914,-65.95377 z m -22.48621,124.360776 -0.59167,-4.2859 -4.28731,-0.58111 c -8.24325,-1.1165 -18.877801,-9.46388 -18.877801,-16.79958 0,-8.78568 13.051881,-9.4688 17.051441,-9.4688 h 5.69718 v -15.69152 c 10.43616,-1.55902 33.84258,-7.73531 59.63326,-32.195618 12.30966,6.904438 51.93525,27.154828 95.7989,28.817268 l -0.004,19.06916 h 5.69718 c 4.00027,0 17.05144,0.68313 17.05144,9.46881 0,7.3357 -10.63455,15.68307 -18.8778,16.79957 l -4.28731,0.58112 -0.59167,4.2859 c -3.91092,28.31987 -19.00866,51.2493 -41.40974,62.90327 -10.66198,5.51497 -22.53686,8.31079 -35.29677,8.31079 -12.90062,0 -24.76635,-2.7916 -35.28552,-8.30516 -22.41163,-11.6596 -37.50937,-34.58973 -41.42029,-62.9082 z M 331.26416,348.81269 H 54.508362 v -13.1553 c 0.03658,-0.66694 0.685941,-9.8079 8.782158,-21.23955 14.255616,-20.12938 40.11806,-31.71933 59.30542,-37.89702 l 0.46011,-0.14844 0.42915,-0.22443 c 2.35964,-1.23188 20.68517,-10.90892 31.29369,-19.7938 6.55971,6.17488 20.31019,16.64903 38.10737,16.64903 17.79648,0 31.54767,-10.47415 38.10738,-16.64903 10.60922,8.88488 28.93405,18.56263 31.29369,19.7938 l 0.44111,0.23076 0.47488,0.15056 c 19.30133,6.11437 45.28127,17.63255 59.4412,37.78445 8.13421,11.57517 8.60206,20.83291 8.62035,21.30146 z"
   id="path10" /><path
   style="fill:#4cbd91;stroke-width:0.703529"
   d="m 475.10502,487.76702 c 0,0 0,8.34105 0,18.9566 H 186.95485 c 0,-10.61626 0,-18.9566 0,-18.9566 0,0 0.68242,-41.47868 72.03789,-64.45455 0,0 25.85823,-13.49721 34.12329,-22.74862 0,0 15.62046,18.9566 37.91461,18.9566 22.29414,0 37.9146,-18.9566 37.9146,-18.9566 8.26507,9.25141 34.12329,22.74862 34.12329,22.74862 71.80854,22.74863 72.03649,64.45455 72.03649,64.45455 z"
   id="path2-9" /><path
   style="fill:#fedaab;stroke-width:0.703529"
   d="m 293.11603,376.44968 c 10.99546,5.76331 23.81025,8.94748 37.91461,8.94748 14.10435,0 26.91914,-3.26086 37.9146,-8.94748 v 24.11417 c 0,0 -15.62046,18.9566 -37.9146,18.9566 -22.29415,0 -37.91461,-18.9566 -37.91461,-18.9566 z"
   id="path4-4" /><path
   style="fill:#a67c52;stroke-width:0.703529"
   d="m 312.07263,222.36548 c -34.12329,34.12329 -64.45455,34.12329 -64.45455,34.12329 v -3.79132 c 0,0 -3.94328,-94.78582 83.41185,-94.78582 87.20318,0 83.41186,94.78582 83.41186,94.78582 -53.07989,-7.1e-4 -102.36916,-30.33197 -102.36916,-30.33197 z"
   id="path6-3" /><path
   style="fill:#fedaab;stroke-width:0.703529"
   d="m 368.94454,376.44968 c -10.99546,5.68733 -23.81025,8.94748 -37.91461,8.94748 -14.10435,0 -26.91914,-3.18488 -37.9146,-8.94748 -24.34071,-12.66353 -40.34038,-37.53541 -44.43562,-67.18495 -11.75317,-1.59209 -23.81025,-12.73951 -23.81025,-22.4447 0,-10.4643 10.16107,-15.16598 22.74862,-15.16598 v -15.16599 c 0,0 30.33126,0 64.45455,-34.12328 0,0 49.28857,30.33126 102.36916,30.33126 v 18.9566 c 12.58754,0 22.74862,4.70098 22.74862,15.16598 0,9.7066 -12.05638,20.85261 -23.81025,22.4447 -4.09454,29.65095 -20.09421,54.52283 -44.43562,67.18636 z"
   id="path8-5" /><path
   style="fill:#231f20;stroke-width:0.703529"
   d="m 405.27058,418.03459 c -6.77147,-3.56548 -23.4402,-13.00825 -30.62886,-19.7938 v -18.42613 c 22.99134,-13.21721 38.72578,-36.86846 43.76375,-65.80181 13.09057,-3.73645 24.48212,-15.95957 24.48212,-27.19282 0,-11.41195 -8.57251,-18.99037 -22.74862,-20.56065 v -13.45781 c 0.11115,-3.22146 1.09961,-47.59517 -26.7299,-76.56018 -15.31865,-15.94409 -36.30563,-24.02764 -62.37843,-24.02764 -26.14175,0 -47.16743,8.10044 -62.49171,24.07548 -27.77534,28.95516 -26.73482,73.25359 -26.61733,76.51656 v 13.4543 c -14.17682,1.57027 -22.74862,9.14869 -22.74862,20.56064 0,11.23326 11.39296,23.45497 24.48212,27.19282 5.03868,28.93898 20.77733,52.59305 43.76375,65.80322 v 18.42543 c -7.18796,6.78273 -23.87568,16.23746 -30.64152,19.80084 -73.91421,23.98402 -75.48871,67.7745 -75.51896,69.63041 l -7e-4,24.74806 h 299.54382 v -24.68615 c -0.01,-1.86857 -1.10243,-45.93554 -75.53091,-69.70077 z M 298.81321,385.27404 c 9.94791,3.86027 20.74357,5.8203 32.21743,5.8203 11.38381,0 22.17735,-1.96988 32.21742,-5.85125 v 13.11308 c -3.92077,4.06851 -16.3254,15.4671 -32.21742,15.4671 -15.89203,0 -28.29736,-11.39929 -32.21743,-15.4671 z m -22.00358,-201.1482 c 13.08916,-13.6147 31.33168,-20.51773 54.22101,-20.51773 22.8239,0 41.03124,6.88967 54.11407,20.47763 19.49269,20.24336 22.9428,50.41422 23.51336,62.78578 -48.58715,-2.05712 -93.13885,-29.07546 -93.59825,-29.35758 l -3.83213,-2.35893 -3.18206,3.18206 c -23.35014,23.35014 -44.85493,29.90633 -54.74514,31.74254 0.11608,-9.2908 2.0536,-43.6357 23.50914,-65.95377 z m -22.48621,124.36078 -0.59167,-4.2859 -4.28731,-0.58111 c -8.24325,-1.1165 -18.8778,-9.46388 -18.8778,-16.79958 0,-8.78568 13.05188,-9.4688 17.05144,-9.4688 h 5.69718 v -15.69152 c 10.43616,-1.55902 33.84258,-7.73531 59.63326,-32.19562 12.30966,6.90444 51.93525,27.15483 95.7989,28.81727 l -0.004,19.06916 h 5.69718 c 4.00027,0 17.05144,0.68313 17.05144,9.46881 0,7.3357 -10.63455,15.68307 -18.8778,16.79957 l -4.28731,0.58112 -0.59167,4.2859 c -3.91092,28.31987 -19.00866,51.2493 -41.40974,62.90327 -10.66198,5.51497 -22.53686,8.31079 -35.29677,8.31079 -12.90062,0 -24.76635,-2.7916 -35.28552,-8.30516 -22.41163,-11.6596 -37.50937,-34.58973 -41.42029,-62.9082 z m 215.08441,192.53982 h -276.7558 v -13.1553 c 0.0366,-0.66694 0.68594,-9.8079 8.78216,-21.23955 14.25561,-20.12938 40.11806,-31.71933 59.30542,-37.89702 l 0.46011,-0.14844 0.42915,-0.22443 c 2.35964,-1.23188 20.68517,-10.90892 31.29369,-19.7938 6.55971,6.17488 20.31019,16.64903 38.10737,16.64903 17.79648,0 31.54767,-10.47415 38.10738,-16.64903 10.60922,8.88488 28.93405,18.56263 31.29369,19.7938 l 0.44111,0.23076 0.47488,0.15056 c 19.30133,6.11437 45.28127,17.63255 59.4412,37.78445 8.13421,11.57517 8.60206,20.83291 8.62035,21.30146 z"
   id="path10-5" />
</svg>
