<svg xmlns="http://www.w3.org/2000/svg" version="1.1" xmlns:xlink="http://www.w3.org/1999/xlink" xmlns:svgjs="http://svgjs.dev/svgjs" width="1000" height="1000" viewBox="0 0 1000 1000"><rect width="1000" height="1000" fill="#ffffff"></rect><g transform="matrix(0.7,0,0,0.7,149.57577044205306,374.7130707293328)"><svg viewBox="0 0 396 142" data-background-color="#c9efc7" preserveAspectRatio="xMidYMid meet" height="358" width="1000" xmlns="http://www.w3.org/2000/svg" xmlns:xlink="http://www.w3.org/1999/xlink"><g id="tight-bounds" transform="matrix(1,0,0,1,0.23999272135282013,-0.0074063989036403655)"><svg viewBox="0 0 395.5199999999999 142.01481279780728" height="142.01481279780728" width="395.5199999999999"><g><svg viewBox="0 0 395.5199999999999 142.01481279780728" height="142.01481279780728" width="395.5199999999999"><g><svg viewBox="0 0 395.5199999999999 35.503028641907626" height="35.503028641907626" width="395.5199999999999"><g id="textblocktransform"><svg viewBox="0 0 395.5199999999999 35.503028641907626" height="35.503028641907626" width="395.5199999999999" id="textblock"><g><svg viewBox="0 0 395.5199999999999 35.503028641907626" height="35.503028641907626" width="395.5199999999999"><g transform="matrix(1,0,0,1,0,0)"><svg width="395.5199999999999" viewBox="-12.5 -32 364.8299865722656 32.75" height="35.503028641907626" data-palette-color="#454545"><g class="undefined-text-0" data-fill-palette-color="primary" id="text-0"><path d="M15.7-31.25L29-31.25Q35.45-31.25 38.18-28.98 40.9-26.7 40.9-21.6L40.9-21.6Q40.9-19 40.3-15.6L40.3-15.6Q38.8-7.2 35.18-3.6 31.55 0 23.5 0L23.5 0 10.2 0 15.7-31.25ZM27.7-23.25L27.7-23.25 23.75-23.25 21.1-8 25.05-8Q27-8 27.95-8.47 28.9-8.95 29.2-10.65L29.2-10.65 30.95-20.6Q31-20.9 31-21.4L31-21.4Q31-22.55 30.2-22.9 29.4-23.25 27.7-23.25ZM9.1-2.4L8.7-0.15-12.5-2.4 9.1-2.4ZM10.8-12.05L10.4-9.8-10.8-12.05 10.8-12.05ZM11.65-16.85L11.25-14.6-9.95-16.85 11.65-16.85ZM12.5-21.65L12.1-19.4-9.1-21.65 12.5-21.65ZM13.3-26.45L12.95-24.2-8.25-26.45 13.3-26.45ZM9.95-7.25L9.55-5-11.65-7.25 9.95-7.25ZM14.15-31.25L13.75-29-7.4-31.25 14.15-31.25ZM63.6-4.95L61.65 0 51.65 0 64.8-31.25 79.5-31.25 81.7 0 71.65 0 71.45-4.95 63.6-4.95ZM66.7-12.9L70.7-12.9 70.7-21.65 70.2-21.65 66.7-12.9ZM51-2.4L50.05-0.2 29.55-2.4 51-2.4ZM53.05-7.25L52.1-5.05 31.6-7.25 53.05-7.25ZM55.05-12.05L54.15-9.85 33.65-12.05 55.05-12.05ZM57.1-16.85L56.15-14.65 35.7-16.85 57.1-16.85ZM59.1-21.65L58.2-19.45 37.75-21.65 59.1-21.65ZM63.15-31.25L62.25-29.1 41.85-31.25 63.15-31.25ZM61.1-26.45L60.2-24.3 39.8-26.45 61.1-26.45ZM41.85-31.25L62.25-29.1 63.15-31.25 41.85-31.25ZM100.3-31.25L115.3-31.25Q123.85-31.25 123.85-23.6L123.85-23.6Q123.85-20.45 122.9-17.6L122.9-17.6Q121.15-12.2 117.4-10.4L117.4-10.4 120.7 0 110.25 0 107.95-9.3 105.9-9.3 104.3 0 94.8 0 100.3-31.25ZM107.25-17L109.45-17Q111.15-17 112.02-17.38 112.9-17.75 113.22-19.53 113.55-21.3 113.55-21.7L113.55-21.7Q113.55-22.7 112.77-22.98 112-23.25 110.25-23.25L110.25-23.25 108.35-23.25 107.25-17ZM93.7-2.4L93.3-0.15 72.1-2.4 93.7-2.4ZM95.4-12.05L95-9.8 73.8-12.05 95.4-12.05ZM97.05-21.65L96.65-19.4 75.5-21.65 97.05-21.65ZM97.9-26.45L97.5-24.2 76.35-26.45 97.9-26.45ZM94.55-7.25L94.15-5 72.95-7.25 94.55-7.25ZM98.75-31.25L98.35-29 77.2-31.25 98.75-31.25ZM96.2-16.85L95.8-14.6 74.65-16.85 96.2-16.85ZM162.59-31.25L161.14-23.25 154.24-23.25 150.19 0 140.69 0 144.74-23.25 137.89-23.25 139.34-31.25 162.59-31.25ZM139.54-2.4L139.14-0.15 117.94-2.4 139.54-2.4ZM141.24-12.05L140.84-9.8 119.64-12.05 141.24-12.05ZM142.09-16.85L141.69-14.6 120.49-16.85 142.09-16.85ZM142.94-21.65L142.54-19.4 121.34-21.65 142.94-21.65ZM140.39-7.25L139.99-5 118.79-7.25 140.39-7.25ZM136.89-26.45L136.54-24.2 115.34-26.45 136.89-26.45ZM137.74-31.25L137.34-29 116.19-31.25 137.74-31.25ZM173.59-19.4L173.59-19.4 152.39-21.65 173.94-21.65Q173.69-20.65 173.59-19.4ZM153.79-26.45L175.29-26.45 174.54-24.25 153.79-26.45ZM152.84-16.85L173.59-16.85Q173.69-15.5 173.99-14.6L173.99-14.6 152.84-16.85ZM180.59-9.8L180.59-9.8 154.14-12.05 175.69-12.05Q177.34-10.45 180.59-9.8ZM157.54-31.25L179.04-31.25Q177.89-30.5 176.84-29.2L176.84-29.2 157.54-31.25ZM171.24-5.05L153.29-7.25 171.99-7.25 171.24-5.05ZM169.64-0.2L152.44-2.4 170.39-2.4 169.64-0.2ZM171.34-0.55L174.14-8.8Q178.34-7.65 181.82-7.65 185.29-7.65 187.49-7.95L187.49-7.95 187.89-10.45 183.74-10.85Q178.99-11.3 177.02-13 175.04-14.7 175.04-17.8L175.04-17.8Q175.04-19.15 175.34-20.8L175.34-20.8Q176.49-27.2 179.54-29.6 182.59-32 188.92-32 195.24-32 200.09-30.75L200.09-30.75 197.49-22.75Q193.14-23.5 190.52-23.5 187.89-23.5 185.99-23.25L185.99-23.25 185.59-20.8 188.94-20.45Q194.04-19.9 196.19-18.03 198.34-16.15 198.34-13L198.34-13Q198.34-9.8 196.99-6.4L196.99-6.4Q196.24-4.65 195.42-3.48 194.59-2.3 193.32-1.48 192.04-0.65 190.99-0.23 189.94 0.2 188.29 0.4L188.29 0.4Q185.99 0.75 182.59 0.75L182.59 0.75Q176.39 0.75 171.34-0.55L171.34-0.55ZM210.34-16.85L210.19-15.85Q210.09-15.45 209.99-14.75L209.99-14.75 190.34-16.85 210.34-16.85ZM189.79-12.05L209.64-12.05Q209.49-10.9 209.49-9.95L209.49-9.95 189.79-12.05ZM191.54-21.65L211.54-21.65 210.94-19.6 191.54-21.65ZM190.44-7.25L209.54-7.25Q209.74-5.85 209.89-5.15L209.89-5.15 190.44-7.25ZM193.89-26.45L213.59-26.45Q212.89-25.15 212.59-24.45L212.59-24.45 193.89-26.45ZM195.24-2.4L211.04-2.4Q211.69-1.25 212.54-0.55L212.54-0.55 195.24-2.4ZM200.79-31.25L218.34-31.25Q216.89-30.35 216.09-29.6L216.09-29.6 200.79-31.25ZM222.74 0.75L222.74 0.75Q216.44 0.75 213.71-1.7 210.99-4.15 210.99-9.25L210.99-9.25Q210.99-11.4 211.69-15.6L211.69-15.6Q213.19-24.2 216.86-28.1 220.54-32 228.49-32L228.49-32Q230.34-32 232.71-31.63 235.09-31.25 236.19-30.7L236.19-30.7 233.39-23.05Q230.44-23.75 227.86-23.75 225.29-23.75 224.19-23.25 223.09-22.75 222.84-21.25L222.84-21.25 220.54-8.15Q222.34-7.75 224.24-7.75L224.24-7.75Q228.29-7.75 231.64-8.95L231.64-8.95 230.84-0.55Q227.64 0.75 222.74 0.75ZM256.29-4.95L254.34 0 244.34 0 257.49-31.25 272.19-31.25 274.39 0 264.34 0 264.14-4.95 256.29-4.95ZM259.39-12.9L263.39-12.9 263.39-21.65 262.89-21.65 259.39-12.9ZM243.69-2.4L242.74-0.2 222.24-2.4 243.69-2.4ZM245.74-7.25L244.79-5.05 224.29-7.25 245.74-7.25ZM247.74-12.05L246.84-9.85 226.34-12.05 247.74-12.05ZM249.79-16.85L248.84-14.65 228.39-16.85 249.79-16.85ZM251.79-21.65L250.89-19.45 230.44-21.65 251.79-21.65ZM255.84-31.25L254.94-29.1 234.54-31.25 255.84-31.25ZM253.79-26.45L252.89-24.3 232.49-26.45 253.79-26.45ZM234.54-31.25L254.94-29.1 255.84-31.25 234.54-31.25ZM304.48-7.55L304.48-7.55 298.28-7.55 296.98 0 287.48 0 292.98-31.25 307.98-31.25Q316.48-31.25 316.48-23.35L316.48-23.35Q316.48-19.6 315.43-16.57 314.38-13.55 313.11-11.78 311.83-10 309.61-8.78 307.38-7.55 304.48-7.55ZM299.68-15.55L301.88-15.55Q303.58-15.55 304.46-15.93 305.33-16.3 305.58-17.65L305.58-17.65Q306.23-21.35 306.23-21.7L306.23-21.7Q306.23-22.65 305.48-22.95 304.73-23.25 303.23-23.25L303.23-23.25 301.03-23.25 299.68-15.55ZM286.38-2.4L285.98-0.15 264.78-2.4 286.38-2.4ZM288.08-12.05L287.68-9.8 266.48-12.05 288.08-12.05ZM289.73-21.65L289.33-19.4 268.18-21.65 289.73-21.65ZM290.58-26.45L290.18-24.2 269.03-26.45 290.58-26.45ZM287.23-7.25L286.83-5 265.63-7.25 287.23-7.25ZM291.43-31.25L291.03-29 269.88-31.25 291.43-31.25ZM288.88-16.85L288.48-14.6 267.33-16.85 288.88-16.85ZM348.28-19.05L346.98-11.8 337.48-11.8 336.83-8 348.48-8 347.08 0 325.93 0 331.43-31.25 352.33-31.25 349.73-23.25 339.48-23.25 338.78-19.05 348.28-19.05ZM324.83-2.4L324.43-0.15 303.23-2.4 324.83-2.4ZM326.53-12.05L326.13-9.8 304.93-12.05 326.53-12.05ZM327.38-16.85L326.98-14.6 305.78-16.85 327.38-16.85ZM328.23-21.65L327.83-19.4 306.63-21.65 328.23-21.65ZM329.03-26.45L328.68-24.2 307.48-26.45 329.03-26.45ZM325.68-7.25L325.28-5 304.08-7.25 325.68-7.25ZM329.88-31.25L329.48-29 308.33-31.25 329.88-31.25Z" fill="#000000" data-fill-palette-color="primary"></path></g></svg></g></svg></g></svg></g></svg></g><g transform="matrix(1,0,0,1,148.69481441688362,43.88444163157461)"><svg viewBox="0 0 98.13037116623268 98.13037116623268" height="98.13037116623268" width="98.13037116623268"><g><svg xmlns="http://www.w3.org/2000/svg" xmlns:xlink="http://www.w3.org/1999/xlink" version="1.1" x="0" y="0" viewBox="11.101539611816406 10 44 44" style="enable-background:new 0 0 64 64;" xml:space="preserve" height="98.13037116623268" width="98.13037116623268" class="icon-icon-0" data-fill-palette-color="accent" id="icon-0"><g fill="#454545" data-fill-palette-color="accent"><path d="M32.608 46.725c-0.558 0-1.126-0.284-1.164-0.846 0-0.004 0-0.007 0-0.009l0.21-23.05c0.001-0.127-0.044-0.248-0.127-0.342l-2.801-3.197c-0.158-0.181-0.247-0.414-0.251-0.654l-0.075-5.934c-0.005-0.4 0.225-0.765 0.587-0.932l3.826-1.751c0.034-0.015 0.072-0.014 0.104 0.001l3.78 1.815c0.368 0.178 0.592 0.557 0.569 0.966l-0.326 5.897c-0.013 0.232-0.106 0.455-0.263 0.627l-2.931 3.205c-0.087 0.094-0.134 0.218-0.134 0.348l0.094 23.03c-0.004 0.469-0.436 0.808-1.049 0.826C32.641 46.725 32.624 46.725 32.608 46.725zM31.691 45.867c0.031 0.418 0.501 0.612 0.959 0.609 0.4-0.013 0.806-0.196 0.809-0.577l-0.094-23.029c0-0.194 0.07-0.378 0.199-0.519l2.931-3.205c0.118-0.129 0.189-0.297 0.198-0.471l0.326-5.897c0.017-0.309-0.151-0.594-0.429-0.728l-3.727-1.788-3.774 1.727c-0.272 0.125-0.446 0.399-0.442 0.7l0.076 5.934c0.002 0.182 0.07 0.356 0.188 0.492l2.802 3.197c0.124 0.142 0.191 0.323 0.189 0.51L31.691 45.867z" fill="#000000" data-fill-palette-color="accent"></path><polygon points="33.525444,31.9236679 31.6949635,31.9067383 31.7633781,24.4107819 33.4947052,24.4267941  " fill="#000000" data-fill-palette-color="accent"></polygon><path d="M33.526 32.049c0 0-0.001 0-0.001 0l-1.831-0.018c-0.069-0.001-0.123-0.057-0.123-0.126l0.069-7.495c0-0.033 0.014-0.065 0.037-0.088 0.023-0.023 0.054-0.036 0.086-0.036 0 0 0.001 0 0.001 0l1.732 0.017c0.068 0.001 0.122 0.055 0.122 0.123l0.031 7.497c0 0.034-0.013 0.066-0.036 0.09C33.59 32.036 33.558 32.049 33.526 32.049zM31.82 31.783l1.581 0.015-0.03-7.247-1.485-0.015L31.82 31.783z" fill="#000000" data-fill-palette-color="accent"></path><rect x="31.7720871" y="23.3478127" transform="matrix(0.9999573 0.0092482 -0.0092482 0.9999573 0.2183633 -0.3005837)" width="1.6761959" height="0.2254231" fill="#000000" data-fill-palette-color="accent"></rect><path d="M33.447 23.706c0 0-0.001 0-0.001 0l-1.676-0.016c-0.069-0.001-0.123-0.056-0.123-0.125l0.002-0.226c0-0.033 0.014-0.065 0.038-0.088 0.023-0.023 0.054-0.036 0.086-0.036 0 0 0.001 0 0.001 0l1.676 0.016c0.069 0.001 0.123 0.056 0.123 0.126l-0.002 0.225c0 0.033-0.014 0.065-0.037 0.088C33.511 23.693 33.48 23.706 33.447 23.706z" fill="#000000" data-fill-palette-color="accent"></path><path d="M33.583 45.9c-0.009 0.939-2.023 0.845-2.016-0.019l0.06-6.518 1.929 0.018L33.583 45.9z" fill="#000000" data-fill-palette-color="accent"></path><path d="M32.614 46.691c-0.282 0-0.568-0.066-0.786-0.195-0.25-0.149-0.387-0.368-0.385-0.616l0.06-6.518c0-0.068 0.056-0.124 0.124-0.123 0 0 0 0 0.001 0l1.929 0.017c0.068 0.001 0.122 0.055 0.123 0.124l0.026 6.519c0 0.001 0 0.002 0 0.002-0.002 0.263-0.14 0.485-0.387 0.625C33.126 46.636 32.872 46.691 32.614 46.691zM31.749 39.489l-0.058 6.393c-0.002 0.2 0.142 0.328 0.262 0.399 0.344 0.203 0.913 0.215 1.244 0.028 0.172-0.098 0.26-0.236 0.262-0.409l-0.026-6.395L31.749 39.489z" fill="#000000" data-fill-palette-color="accent"></path><polygon points="32.2879753,46.6771126 32.2528305,50.5279274 32.6141815,53.8751907 32.9619255,50.5344887 32.9970741,46.68367     " fill="#000000" data-fill-palette-color="accent"></polygon><path d="M32.614 54c-0.063 0-0.116-0.048-0.123-0.111l-0.361-3.348 0.034-3.865c0-0.033 0.014-0.065 0.037-0.087 0.023-0.023 0.054-0.036 0.087-0.036 0 0 0.001 0 0.001 0l0.709 0.007c0.069 0.001 0.123 0.057 0.123 0.125l-0.035 3.85-0.348 3.353C32.731 53.951 32.678 54 32.615 54 32.614 54 32.614 54 32.614 54zM32.411 46.803L32.376 50.528l0.236 2.175 0.227-2.181 0.033-3.714L32.411 46.803z" fill="#000000" data-fill-palette-color="accent"></path><polygon points="29.2143841,12.4977903 32.4933205,11.0628042 32.2803078,22.1333427 29.286869,18.8669338  " fill="#000000" data-fill-palette-color="accent"></polygon><path d="M32.28 22.258c-0.034 0-0.067-0.014-0.091-0.04l-2.993-3.266c-0.021-0.022-0.032-0.053-0.033-0.084l-0.072-6.369c0-0.05 0.029-0.095 0.074-0.115l3.279-1.435c0.039-0.017 0.083-0.014 0.118 0.01 0.035 0.023 0.056 0.063 0.055 0.105l-0.213 11.071c-0.001 0.052-0.032 0.096-0.08 0.115C32.31 22.255 32.295 22.258 32.28 22.258zM29.41 18.817l2.752 3.004 0.204-10.567-3.027 1.325L29.41 18.817z" fill="#000000" data-fill-palette-color="accent"></path><polygon points="36.4133797,12.6002293 33.1760483,11.0725183 33.078125,22.1446972 36.1620865,18.9647655  " fill="#000000" data-fill-palette-color="accent"></polygon><path d="M33.078 22.269c-0.016 0-0.032-0.003-0.047-0.009-0.046-0.019-0.077-0.065-0.076-0.116l0.097-11.073c0-0.043 0.022-0.082 0.058-0.104 0.035-0.021 0.08-0.025 0.119-0.008l3.237 1.528c0.045 0.021 0.073 0.068 0.071 0.118l-0.251 6.364c-0.001 0.031-0.014 0.06-0.036 0.082l-3.083 3.18C33.143 22.257 33.111 22.269 33.078 22.269zM33.298 11.268l-0.093 10.568 2.835-2.924 0.246-6.234L33.298 11.268z" fill="#000000" data-fill-palette-color="accent"></path><path d="M18.654 46.678c-0.5 0-0.988-0.232-1.074-0.73 0-0.003-0.001-0.007-0.001-0.009l-2.183-22.945c-0.012-0.126-0.07-0.242-0.162-0.327l-3.118-2.885c-0.176-0.163-0.289-0.384-0.317-0.624L11.108 13.264c-0.046-0.398 0.145-0.785 0.488-0.987l3.623-2.143c0.031-0.018 0.071-0.023 0.104-0.011l3.947 1.407c0.385 0.137 0.646 0.491 0.666 0.901l0.289 5.899c0.011 0.233-0.059 0.464-0.197 0.651l-2.583 3.495c-0.076 0.104-0.111 0.233-0.097 0.361l2.484 22.894c0.044 0.467-0.35 0.85-0.959 0.932C18.801 46.673 18.727 46.678 18.654 46.678zM17.825 45.91c0.074 0.412 0.565 0.563 1.016 0.507 0.397-0.055 0.782-0.279 0.745-0.66l-2.484-22.893c-0.021-0.192 0.03-0.382 0.144-0.536l2.583-3.495c0.104-0.141 0.156-0.315 0.148-0.492l-0.289-5.898c-0.015-0.309-0.212-0.574-0.501-0.678l-3.892-1.387-3.574 2.113c-0.258 0.153-0.402 0.444-0.367 0.744l0.691 5.894c0.021 0.18 0.106 0.346 0.239 0.47l3.117 2.885c0.138 0.127 0.223 0.3 0.241 0.487L17.825 45.91z" fill="#000000" data-fill-palette-color="accent"></path><polygon points="18.2016468,31.8513298 16.379427,32.0270042 15.6694918,24.5648766 17.3930054,24.3987179  " fill="#000000" data-fill-palette-color="accent"></polygon><path d="M16.38 32.152c-0.029 0-0.057-0.01-0.079-0.029-0.025-0.021-0.041-0.052-0.045-0.084l-0.71-7.462c-0.006-0.068 0.044-0.129 0.112-0.135l1.724-0.167c0.059-0.021 0.127 0.043 0.134 0.11l0.808 7.452c0.004 0.033-0.006 0.066-0.026 0.093-0.021 0.025-0.051 0.042-0.085 0.045l-1.822 0.176C16.387 32.152 16.383 32.152 16.38 32.152zM15.804 24.677l0.687 7.214 1.574-0.152-0.782-7.205L15.804 24.677z" fill="#000000" data-fill-palette-color="accent"></path><polygon points="17.2579956,23.5625286 15.5894346,23.7233887 15.5680857,23.4989929 17.2366467,23.338131  " fill="#000000" data-fill-palette-color="accent"></polygon><path d="M15.59 23.848c-0.063 0-0.117-0.048-0.124-0.113l-0.021-0.225c-0.003-0.032 0.007-0.065 0.027-0.09 0.021-0.026 0.051-0.042 0.084-0.045l1.669-0.161c0.035-0.006 0.065 0.007 0.09 0.028 0.025 0.021 0.041 0.052 0.045 0.084l0.021 0.225c0.006 0.068-0.044 0.129-0.112 0.135L15.601 23.847C15.597 23.848 15.593 23.848 15.59 23.848z" fill="#000000" data-fill-palette-color="accent"></path><path d="M19.709 45.745c0.089 0.935-1.924 1.054-2.006 0.194l-0.617-6.489 1.92-0.185L19.709 45.745z" fill="#000000" data-fill-palette-color="accent"></path><path d="M18.636 46.643c-0.218 0-0.433-0.039-0.61-0.12-0.264-0.122-0.422-0.324-0.446-0.573l-0.618-6.488c-0.003-0.033 0.007-0.065 0.029-0.091 0.021-0.026 0.051-0.042 0.083-0.045l1.92-0.184c0.061-0.021 0.127 0.043 0.135 0.11l0.703 6.479c0 0.001 0 0.001 0 0.002 0.025 0.261-0.089 0.496-0.32 0.663C19.286 46.558 18.958 46.643 18.636 46.643zM17.221 39.562l0.605 6.365c0.019 0.199 0.175 0.31 0.302 0.369 0.362 0.166 0.93 0.12 1.24-0.103 0.161-0.115 0.234-0.262 0.218-0.435l-0.69-6.358L17.221 39.562z" fill="#000000" data-fill-palette-color="accent"></path><polygon points="18.5021534,46.6541786 18.8668594,50.4876213 19.5736351,53.7785568 19.5727577,50.4195671 19.2080498,46.5861282     " fill="#000000" data-fill-palette-color="accent"></polygon><path d="M19.574 53.903c-0.058 0-0.109-0.041-0.121-0.099l-0.707-3.29-0.367-3.848c-0.006-0.068 0.044-0.129 0.112-0.136l0.705-0.068c0.035-0.008 0.065 0.006 0.091 0.027s0.041 0.052 0.044 0.085l0.365 3.834 0.002 3.37c0 0.063-0.048 0.117-0.111 0.124C19.583 53.903 19.578 53.903 19.574 53.903zM18.637 46.766l0.353 3.71 0.46 2.137-0.001-2.194-0.352-3.697L18.637 46.766z" fill="#000000" data-fill-palette-color="accent"></path><polygon points="11.8980446,12.985157 15.0101042,11.2131777 15.9472256,22.2455349 12.6311617,19.3118229  " fill="#000000" data-fill-palette-color="accent"></polygon><path d="M15.947 22.37c-0.029 0-0.058-0.011-0.081-0.031l-3.317-2.934c-0.023-0.02-0.038-0.049-0.041-0.079l-0.733-6.327c-0.006-0.05 0.018-0.098 0.062-0.122l3.112-1.772c0.037-0.021 0.082-0.022 0.119-0.002 0.038 0.019 0.062 0.057 0.065 0.1l0.938 11.031c0.004 0.051-0.022 0.099-0.068 0.122C15.986 22.365 15.966 22.37 15.947 22.37zM12.749 19.249l3.049 2.698-0.895-10.529-2.873 1.635L12.749 19.249z" fill="#000000" data-fill-palette-color="accent"></path><polygon points="19.0682755,12.329916 15.6901054,11.1510363 16.7418556,22.1729202 19.4789066,18.6860504  " fill="#000000" data-fill-palette-color="accent"></polygon><path d="M16.742 22.298c-0.012 0-0.023-0.002-0.035-0.005-0.049-0.015-0.084-0.057-0.088-0.108l-1.052-11.022c-0.004-0.042 0.014-0.084 0.047-0.11 0.032-0.026 0.075-0.034 0.117-0.02l3.378 1.179c0.047 0.017 0.08 0.059 0.082 0.11l0.411 6.356c0.002 0.03-0.007 0.061-0.026 0.085l-2.737 3.487C16.816 22.281 16.779 22.298 16.742 22.298zM15.832 11.332l1.004 10.521 2.516-3.207-0.402-6.226L15.832 11.332z" fill="#000000" data-fill-palette-color="accent"></path><path d="M46.887 46.744c-0.045 0-0.091-0.002-0.137-0.006-0.571-0.047-1.137-0.398-1.112-0.977 0-0.003 0-0.006 0.001-0.009l2.761-22.882c0.015-0.126-0.016-0.251-0.088-0.355l-2.43-3.491c-0.137-0.197-0.2-0.438-0.177-0.678l0.583-5.906c0.039-0.397 0.308-0.735 0.686-0.86l3.997-1.309c0.035-0.01 0.072-0.006 0.103 0.013l3.555 2.227c0.346 0.217 0.526 0.618 0.458 1.023l-0.976 5.823c-0.038 0.23-0.156 0.441-0.331 0.594l-3.268 2.857c-0.097 0.085-0.158 0.202-0.171 0.331L47.884 46.036C47.832 46.465 47.43 46.744 46.887 46.744zM45.885 45.776c-0.015 0.419 0.433 0.676 0.885 0.713 0.393 0.038 0.822-0.102 0.868-0.481l2.456-22.897c0.02-0.191 0.111-0.366 0.256-0.492l3.268-2.857c0.132-0.115 0.22-0.273 0.249-0.445l0.977-5.824c0.051-0.306-0.085-0.607-0.345-0.77l-3.507-2.197-3.941 1.292c-0.284 0.093-0.487 0.347-0.516 0.647l-0.583 5.906c-0.017 0.18 0.029 0.362 0.133 0.511l2.43 3.491c0.107 0.154 0.154 0.341 0.131 0.526L45.885 45.776z" fill="#000000" data-fill-palette-color="accent"></path><polygon points="49.2516747,32.1269531 47.4344826,31.9047012 48.3326416,24.4631519 50.051403,24.6733646  " fill="#000000" data-fill-palette-color="accent"></polygon><path d="M49.252 32.252c-0.005 0-0.01 0-0.015-0.001l-1.817-0.223c-0.068-0.008-0.116-0.07-0.108-0.138l0.898-7.441c0.004-0.033 0.021-0.063 0.046-0.084 0.026-0.019 0.058-0.033 0.092-0.025l1.718 0.21c0.067 0.008 0.116 0.069 0.109 0.137l-0.8 7.454c-0.004 0.033-0.02 0.063-0.046 0.084C49.307 32.242 49.279 32.252 49.252 32.252zM47.572 31.796l1.57 0.192 0.773-7.206-1.474-0.18L47.572 31.796z" fill="#000000" data-fill-palette-color="accent"></path><polygon points="50.0978851,23.8274975 48.4339256,23.6239872 48.4609337,23.4002094 50.1248932,23.6037197  " fill="#000000" data-fill-palette-color="accent"></polygon><path d="M50.098 23.952c-0.005 0-0.01 0-0.015-0.001l-1.664-0.203c-0.032-0.004-0.062-0.02-0.083-0.047-0.02-0.026-0.029-0.059-0.025-0.091l0.027-0.224c0.008-0.068 0.067-0.126 0.138-0.109l1.664 0.203c0.032 0.004 0.062 0.02 0.082 0.047 0.02 0.026 0.029 0.059 0.026 0.091l-0.028 0.224C50.213 23.905 50.16 23.952 50.098 23.952z" fill="#000000" data-fill-palette-color="accent"></path><path d="M47.761 46.023c-0.113 0.932-2.104 0.613-2.001-0.245l0.781-6.471 1.915 0.234L47.761 46.023z" fill="#000000" data-fill-palette-color="accent"></path><path d="M46.91 46.712c-0.072 0-0.144-0.005-0.215-0.013-0.573-0.07-1.121-0.414-1.058-0.936l0.781-6.471c0.004-0.033 0.021-0.063 0.047-0.083 0.026-0.02 0.058-0.033 0.091-0.026l1.915 0.235c0.067 0.008 0.116 0.069 0.108 0.137l-0.695 6.481c0 0 0 0.001 0 0.001C47.826 46.515 47.382 46.712 46.91 46.712zM46.649 39.446l-0.766 6.347c-0.043 0.356 0.402 0.605 0.842 0.659 0.422 0.053 0.866-0.065 0.913-0.444l0.682-6.357L46.649 39.446zM47.761 46.022h0.003H47.761z" fill="#000000" data-fill-palette-color="accent"></path><polygon points="46.3879852,46.6495514 45.9265862,50.4724159 45.914978,53.8393631 46.6305351,50.5585136 47.091938,46.7356453     " fill="#000000" data-fill-palette-color="accent"></polygon><path d="M45.915 53.964c-0.004 0-0.009 0-0.014-0.001-0.063-0.007-0.11-0.06-0.11-0.124l0.012-3.367 0.462-3.837c0.004-0.033 0.021-0.063 0.047-0.084 0.025-0.02 0.059-0.032 0.091-0.025l0.704 0.086c0.068 0.009 0.116 0.07 0.108 0.138l-0.462 3.823-0.717 3.293C46.023 53.924 45.972 53.964 45.915 53.964zM46.496 46.788l-0.447 3.699-0.007 2.187 0.468-2.142 0.444-3.687L46.496 46.788z" fill="#000000" data-fill-palette-color="accent"></path><polygon points="47.1188927,12.3383617 50.5363121,11.280303 49.0985718,22.257925 46.4855499,18.6759357  " fill="#000000" data-fill-palette-color="accent"></polygon><path d="M49.099 22.382c-0.039 0-0.076-0.018-0.1-0.05l-2.613-3.582c-0.018-0.025-0.027-0.055-0.024-0.086l0.634-6.338c0.005-0.05 0.039-0.091 0.087-0.106l3.417-1.058c0.039-0.014 0.084-0.004 0.116 0.023 0.032 0.027 0.048 0.07 0.043 0.112l-1.438 10.977c-0.007 0.051-0.043 0.091-0.092 0.104C49.119 22.381 49.109 22.382 49.099 22.382zM46.614 18.641l2.402 3.294 1.372-10.478-3.154 0.976L46.614 18.641z" fill="#000000" data-fill-palette-color="accent"></path><polygon points="54.2616692,13.2480783 51.213707,11.3665771 49.8901596,22.3587418 53.3070717,19.5447369  " fill="#000000" data-fill-palette-color="accent"></polygon><path d="M49.89 22.484c-0.02 0-0.041-0.005-0.059-0.016-0.044-0.024-0.07-0.074-0.063-0.124l1.323-10.992c0.005-0.043 0.031-0.079 0.069-0.098 0.038-0.02 0.083-0.018 0.119 0.006l3.048 1.882c0.043 0.026 0.065 0.075 0.057 0.125l-0.955 6.296c-0.004 0.031-0.02 0.058-0.044 0.078l-3.416 2.814C49.946 22.474 49.918 22.484 49.89 22.484zM51.313 11.573l-1.263 10.493 3.142-2.588 0.935-6.166L51.313 11.573z" fill="#000000" data-fill-palette-color="accent"></path></g></svg></g></svg></g><g></g></svg></g><defs></defs></svg><rect width="395.5199999999999" height="142.01481279780728" fill="none" stroke="none" visibility="hidden"></rect></g></svg></g></svg>