<svg xmlns="http://www.w3.org/2000/svg" xmlns:android="http://schemas.android.com/apk/res/android" xmlns:aapt="http://schemas.android.com/aapt" viewportWidth="1000" viewportHeight="358" width="1000dp" height="358dp">
	<group translateX="-0.6060422" translateY="0.01867247">
		<group scaleX="2.525253" scaleY="2.521127">
			<path d="M121.14077 70.001506c0.0122 0.0996 0.0204 0.20196 0.0234 0.30492 0.0489 1.27687 -0.5766 2.62406 -1.86522 2.72385 -0.008 -0.0001 -0.0132 0.001 -0.0195 -0.002l-51.402501 0.0182c-0.28305 -0.00053 -0.55145 0.10262 -0.76241 0.28999l-7.07831 6.315568c-0.39947 0.35611 -0.91619 0.56018 -1.45372 0.57357l-13.23255 0.29158c-0.88943 0.0206 -1.70989 -0.485 -2.08792 -1.28843l-3.96925 -8.498988c-0.0315 -0.0748 -0.0326 -0.15778 0.00098 -0.2315l3.97827 -8.46775c0.38779 -0.824222 1.22734 -1.330222 2.14227 -1.288192l13.15411 0.60078c0.51947 0.0221 1.01823 0.22731 1.40387 0.573672l7.20124 6.47015c0.21445 0.19172 0.48974 0.29549 0.77867 0.28989l51.354201 -0.69485c0.96378 0.00059 1.68923 0.81545 1.8347 2.01773zm-1.87476 2.47786c0.9317 -0.0789 1.38069 -1.1398 1.3415 -2.15048 -0.0213 -0.88031 -0.44606 -1.79266 -1.29751 -1.79296l-51.353891 0.69709c-0.42824 0.007 -0.8401 -0.14777 -1.15797 -0.43495l-7.20123 -6.47016c-0.29022 -0.26115 -0.66324 -0.414172 -1.05181 -0.432502l-13.15656 -0.6027c-0.69122 -0.0307 -1.32118 0.3508 -1.61246 0.970122l-3.92468 8.35344 3.91654 8.379528c0.28196 0.60389 0.89877 0.98528 1.57074 0.96911l13.2326 -0.29159c0.40308 -0.0115 0.79373 -0.1612 1.09577 -0.43138l7.07828 -6.315568c0.31226 -0.27821 0.71375 -0.43231 1.1295 -0.431z" fill="#FFFFFF"/>
			<group rotation="83.1" scaleX="-2.230236" scaleY="-2.230236" translateX="30.20827" translateY="186.3375">
				<path d="M50.051403 24.673365l-0.799728 7.453588 -1.817192 -0.222252 0.898159 -7.441549z" fill="#FFFFFF"/>
			</group>
			<path d="M88.420599 68.648106c-0.0002 0.0123 0.002 0.0227 0.001 0.0335l-0.007 4.08272c0.00046 0.15273 -0.1239 0.27558 -0.27665 0.27608l-16.71561 0.005c-0.074 0.00029 -0.14519 -0.0291 -0.19829 -0.0795 -0.0492 -0.0527 -0.0889 -0.11929 -0.0799 -0.19695l0.005 -3.86006c-0.00063 -0.15048 0.12198 -0.27522 0.27427 -0.27792l16.71811 -0.2259c0.074 -0.00028 0.1449 0.0271 0.19829 0.0795 0.0435 0.044 0.073 0.10364 0.0808 0.16304zm-0.5595 3.84186l0.005 -3.52759 -16.16181 0.21924 -0.004 3.31178z" fill="#FFFFFF"/>
			<group rotation="83.1" scaleX="-2.230236" scaleY="-2.230236" translateX="30.20827" translateY="186.3375">
				<path d="M50.124893 23.60372l-0.02701 0.223777 -1.663959 -0.20351 0.02701 -0.223778z" fill="#FFFFFF"/>
			</group>
			<path d="M69.817049 68.998826c-0.002 0.0113 0.00076 0.0224 0.001 0.0334l-0.004 3.73863c-0.00037 0.0718 -0.028 0.1426 -0.0816 0.19647 -0.0523 0.0514 -0.12277 0.0801 -0.19481 0.0796l-0.50317 -0.00061c-0.15277 -0.00067 -0.29694 -0.11446 -0.27838 -0.2763l0.004 -3.73864c-0.00026 -0.0718 0.028 -0.14258 0.0817 -0.19428 0.0524 -0.0513 0.12269 -0.0802 0.19444 -0.0822l0.50342 0.002c0.14142 -0.00047 0.25988 0.10287 0.27602 0.2409z" fill="#FFFFFF"/>
			<path d="M119.31023 68.259596c2.09381 0.00042 1.92095 4.4942 -0.006 4.496l-14.53659 0.005 0.005 -4.30268z" fill="#FFFFFF"/>
			<path d="M121.06375 69.959156c0.0193 0.15937 0.0276 0.32017 0.0288 0.47954 -0.001 1.28741 -0.61627 2.5929 -1.78888 2.59326l-14.5366 0.005c-0.0741 0.0003 -0.1452 -0.0291 -0.1965 -0.0815 -0.0512 -0.0524 -0.0889 -0.11938 -0.0822 -0.19444l0.007 -4.30292c-0.00033 -0.1505 0.12169 -0.27531 0.27439 -0.27582l14.53569 -0.19776c0 0 0.003 -0.002 0.003 -0.002 1.07386 0.00062 1.62902 0.93059 1.7555 1.97562zm-16.01759 2.52469l14.25801 -0.005c0.79973 0.00002 1.23182 -1.05217 1.23349 -2.04084 0.004 -0.94855 -0.37593 -1.89998 -1.2277 -1.90249l-14.25764 0.19323zm14.26185 -4.22398l-0.002 -0.004z" fill="#FFFFFF"/>
			<group rotation="83.1" scaleX="-2.230236" scaleY="-2.230236" translateX="30.20827" translateY="186.3375">
				<path d="M46.630535 50.558514l0.461403 -3.822869 -0.703953 -0.08609 -0.461399 3.822865 -0.01161 3.366947z" fill="#FFFFFF"/>
			</group>
			<path d="M137.38688 70.219136c0.00029 0.008 0.00054 0.0208 0.00085 0.0314 0.001 0.14141 -0.10339 0.25961 -0.2451 0.27677l-7.45801 0.87553 -8.61923 0.005c-0.0741 0.0003 -0.14515 -0.0291 -0.19864 -0.0815 -0.0507 -0.0504 -0.0868 -0.12202 -0.08 -0.19465l0.002 -1.58177c0.002 -0.15301 0.12391 -0.27561 0.27665 -0.27606l8.58821 -0.001 7.4831 0.70518c0.13186 0.0134 0.23409 0.11558 0.24903 0.24201zm-16.04394 0.63633l8.30966 -0.001 4.84409 -0.57048 -4.86797 -0.46227 -8.28231 0.005z" fill="#FFFFFF"/>
			<group rotation="83.1" scaleX="-2.230236" scaleY="-2.230236" translateX="30.20827" translateY="186.3375">
				<path d="M46.48555 18.675936l0.633343 -6.337574 3.417419 -1.058059 -1.43774 10.977622z" fill="#FFFFFF"/>
			</group>
			<path d="M66.608619 71.631356c0.0108 0.0862 -0.02 0.17306 -0.0842 0.23477l-7.23074 6.745148c-0.0513 0.0457 -0.11458 0.0743 -0.18405 0.076l-14.20274 0.29452c-0.11199 0.003 -0.21197 -0.0619 -0.25801 -0.16416l-3.25804 -7.282058c-0.0413 -0.0824 -0.0314 -0.18489 0.0197 -0.26299 0.0512 -0.0781 0.14219 -0.12495 0.23652 -0.12509l24.68927 0.24275c0.11472 0.001 0.21307 0.0707 0.25484 0.17594 0.008 0.0218 0.0132 0.0437 0.0156 0.0658zm-7.61709 6.504318l6.64962 -6.200768 -23.56679 -0.23033 3.00602 6.721728z" fill="#FFFFFF"/>
			<group rotation="83.1" scaleX="-2.230236" scaleY="-2.230236" translateX="30.20827" translateY="186.3375">
				<path d="M53.307072 19.544737L54.261669 13.248078 51.213707 11.366577 49.89016 22.358742Z" fill="#FFFFFF"/>
			</group>
			<path d="M66.622529 69.852696c0.003 0.0446 -0.0002 0.0921 -0.0197 0.13482 -0.0408 0.10399 -0.14537 0.17456 -0.25776 0.17257l-24.69168 0.0159c-0.0966 0.00069 -0.18312 -0.0481 -0.23558 -0.12637 -0.0544 -0.0787 -0.0622 -0.17897 -0.0186 -0.26509l3.35027 -7.25276c0.0455 -0.1023 0.14843 -0.16422 0.2617 -0.15934l14.19573 0.42753c0.0695 0.0004 0.13379 0.0287 0.18445 0.0767l7.14566 6.80932c0.0493 0.0447 0.0772 0.10573 0.0851 0.16737zm-24.53916 -0.2272l23.57077 -0.0151 -6.57187 -6.26326 -13.90257 -0.41808z" fill="#FFFFFF"/>
			<path d="M39.668168 77.212087l-0.31395 2.457401 -23.073833 -1.313549z" fill="#FFFFFF"/>
			<path d="M35.063495 62.504313l-0.31395 2.457401 -23.073834 -1.313549z" fill="#FFFFFF"/>
			<path d="M29.822665 69.538058L29.508715 71.995459 6.4348813 70.68191Z" fill="#FFFFFF"/>
			<path d="M244.57939 124.19309c0.0122 0.0996 0.0204 0.20196 0.0234 0.30492 0.0489 1.27687 -0.5766 2.62406 -1.86522 2.72385 -0.008 -0.0001 -0.0132 0.001 -0.0195 -0.002l-51.4025 0.0182c-0.28305 -0.00053 -0.55145 0.10262 -0.76241 0.28999l-7.07831 6.31556c-0.39947 0.35611 -0.91619 0.56018 -1.45372 0.57357l-13.23255 0.29158c-0.88943 0.0206 -1.70989 -0.485 -2.08792 -1.28843l-3.96925 -8.49898c-0.0315 -0.0748 -0.0326 -0.15778 0.00098 -0.2315l3.97827 -8.46776c0.38779 -0.82422 1.22734 -1.33022 2.14227 -1.28819l13.15411 0.60078c0.51947 0.0221 1.01823 0.22731 1.40387 0.57367l7.20124 6.47015c0.21445 0.19172 0.48974 0.29549 0.77867 0.28989l51.3542 -0.69485c0.96378 0.00059 1.68923 0.81545 1.8347 2.01774zm-1.87476 2.47786c0.9317 -0.0789 1.38069 -1.1398 1.3415 -2.15048 -0.0213 -0.88031 -0.44606 -1.79267 -1.29751 -1.79297l-51.35389 0.6971c-0.42824 0.007 -0.8401 -0.14778 -1.15797 -0.43496l-7.20123 -6.47016c-0.29022 -0.26115 -0.66324 -0.41417 -1.05181 -0.4325l-13.15656 -0.6027c-0.69122 -0.0307 -1.32118 0.3508 -1.61246 0.97012l-3.92468 8.35345 3.91654 8.37952c0.28196 0.60389 0.89877 0.98528 1.57074 0.96911l13.2326 -0.29159c0.40308 -0.0115 0.79373 -0.1612 1.09577 -0.43138l7.07828 -6.31556c0.31226 -0.27821 0.71375 -0.43231 1.1295 -0.431z" fill="#FFFFFF"/>
			<group rotation="83.1" scaleX="-2.230236" scaleY="-2.230236" translateX="153.6469" translateY="240.5291">
				<path d="M47.434483 31.904701l0.898159 -7.441549 1.718761 0.210213 -0.799728 7.453588z" fill="#FFFFFF"/>
			</group>
			<path d="M211.85922 122.83968c-0.0002 0.0123 0.002 0.0227 0.001 0.0335l-0.007 4.08273c0.00046 0.15273 -0.1239 0.27558 -0.27665 0.27608l-16.71561 0.005c-0.074 0.00029 -0.14519 -0.0291 -0.19829 -0.0795 -0.0492 -0.0527 -0.0889 -0.11929 -0.0799 -0.19695l0.005 -3.86007c-0.00063 -0.15048 0.12198 -0.27522 0.27427 -0.27792l16.71811 -0.2259c0.074 -0.00028 0.1449 0.0271 0.19829 0.0795 0.0435 0.044 0.073 0.10364 0.0808 0.16304zm-0.5595 3.84187l0.005 -3.5276 -16.16181 0.21924 -0.004 3.31179z" fill="#FFFFFF"/>
			<group rotation="83.1" scaleX="-2.230236" scaleY="-2.230236" translateX="153.6469" translateY="240.5291">
				<path d="M48.433926 23.623987l0.02701 -0.223778 1.663959 0.203511 -0.02701 0.223777z" fill="#FFFFFF"/>
			</group>
			<path d="M193.25567 123.1904c-0.002 0.0113 0.00076 0.0224 0.001 0.0334l-0.004 3.73864c-0.00037 0.0718 -0.028 0.1426 -0.0816 0.19647 -0.0523 0.0514 -0.12277 0.0801 -0.19481 0.0796l-0.50317 -0.00061c-0.15277 -0.00067 -0.29694 -0.11446 -0.27838 -0.2763l0.004 -3.73865c-0.00026 -0.0718 0.028 -0.14258 0.0817 -0.19428 0.0524 -0.0513 0.12269 -0.0802 0.19444 -0.0822l0.50342 0.002c0.14142 -0.00047 0.25988 0.10287 0.27602 0.2409z" fill="#FFFFFF"/>
			<path d="M242.74885 122.45117c2.09381 0.00042 1.92095 4.49421 -0.006 4.49601l-14.53659 0.005 0.005 -4.30269z" fill="#FFFFFF"/>
			<path d="M244.50237 124.15074c0.0193 0.15937 0.0276 0.32017 0.0288 0.47954 -0.001 1.28741 -0.61627 2.5929 -1.78888 2.59326l-14.5366 0.005c-0.0741 0.0003 -0.1452 -0.0291 -0.1965 -0.0815 -0.0512 -0.0524 -0.0889 -0.11938 -0.0822 -0.19444l0.007 -4.30293c-0.00033 -0.1505 0.12169 -0.27531 0.27439 -0.27582l14.53569 -0.19776c0 0 0.003 -0.002 0.003 -0.002 1.07386 0.00062 1.62902 0.93059 1.7555 1.97563zm-16.01759 2.52469l14.25801 -0.005c0.79973 0.00002 1.23182 -1.05217 1.23349 -2.04084 0.004 -0.94855 -0.37593 -1.89999 -1.2277 -1.9025l-14.25764 0.19323zm14.26185 -4.22399l-0.002 -0.004z" fill="#FFFFFF"/>
			<group rotation="83.1" scaleX="-2.230236" scaleY="-2.230236" translateX="153.6469" translateY="240.5291">
				<path d="M47.091938 46.735645l-0.703953 -0.08609 -0.461399 3.822865 -0.01161 3.366947 0.715557 -3.280849z" fill="#FFFFFF"/>
			</group>
			<path d="M260.8255 124.41072c0.00029 0.008 0.00054 0.0208 0.00085 0.0314 0.001 0.14141 -0.10339 0.25961 -0.2451 0.27677l-7.45801 0.87553 -8.61923 0.005c-0.0741 0.0003 -0.14515 -0.0291 -0.19864 -0.0815 -0.0507 -0.0504 -0.0868 -0.12202 -0.08 -0.19465l0.002 -1.58177c0.002 -0.15301 0.12391 -0.27561 0.27665 -0.27606l8.58821 -0.001 7.4831 0.70518c0.13186 0.0134 0.23409 0.11558 0.24903 0.24201zm-16.04394 0.63633l8.30966 -0.001 4.84409 -0.57048 -4.86797 -0.46227 -8.28231 0.005z" fill="#FFFFFF"/>
			<group rotation="83.1" scaleX="-2.230236" scaleY="-2.230236" translateX="153.6469" translateY="240.5291">
				<path d="M50.536312 11.280303l-1.43774 10.977622 -2.613022 -3.581989 0.633343 -6.337574z" fill="#FFFFFF"/>
			</group>
			<path d="M190.04724 125.82294c0.0108 0.0862 -0.02 0.17306 -0.0842 0.23477l-7.23074 6.74514c-0.0513 0.0457 -0.11458 0.0743 -0.18405 0.076l-14.20274 0.29452c-0.11199 0.003 -0.21197 -0.0619 -0.25801 -0.16416l-3.25804 -7.28205c-0.0413 -0.0824 -0.0314 -0.18489 0.0197 -0.26299 0.0512 -0.0781 0.14219 -0.12495 0.23652 -0.12509l24.68927 0.24275c0.11472 0.001 0.21307 0.0707 0.25484 0.17594 0.008 0.0218 0.0132 0.0437 0.0156 0.0658zm-7.61709 6.50431l6.64962 -6.20076 -23.56679 -0.23033 3.00602 6.72172z" fill="#FFFFFF"/>
			<group rotation="83.1" scaleX="-2.230236" scaleY="-2.230236" translateX="153.6469" translateY="240.5291">
				<path d="M51.213707 11.366577l-1.323547 10.992165 3.416912 -2.814005 0.954597 -6.296659z" fill="#FFFFFF"/>
			</group>
			<path d="M190.06115 124.04428c0.003 0.0446 -0.0002 0.0921 -0.0197 0.13482 -0.0408 0.10399 -0.14537 0.17456 -0.25776 0.17257l-24.69168 0.0159c-0.0966 0.00069 -0.18312 -0.0481 -0.23558 -0.12637 -0.0544 -0.0787 -0.0622 -0.17897 -0.0186 -0.26509l3.35027 -7.25277c0.0455 -0.1023 0.14843 -0.16422 0.2617 -0.15934l14.19573 0.42753c0.0695 0.0004 0.13379 0.0287 0.18445 0.0767l7.14566 6.80933c0.0493 0.0447 0.0772 0.10573 0.0851 0.16737zm-24.53916 -0.2272l23.57077 -0.0151 -6.57187 -6.26327 -13.90257 -0.41808z" fill="#FFFFFF"/>
			<path d="M163.10679 131.40367l-0.31395 2.4574 -23.07384 -1.31355z" fill="#FFFFFF"/>
			<path d="M158.50211 116.69589l-0.31395 2.4574 -23.07383 -1.31355z" fill="#FFFFFF"/>
			<path d="M153.26128 123.72964l-0.31395 2.4574 -23.07383 -1.31355z" fill="#FFFFFF"/>
			<path d="M375.64861 93.376219c0.0122 0.0996 0.0204 0.20196 0.0234 0.30492 0.0489 1.27687 -0.5766 2.62406 -1.86522 2.72385 -0.008 -0.0001 -0.0132 0.001 -0.0195 -0.002l-51.4025 0.0182c-0.28305 -0.00053 -0.55145 0.10262 -0.76241 0.28999l-7.07831 6.315561c-0.39947 0.35611 -0.91619 0.56018 -1.45372 0.57357l-13.23255 0.29158c-0.88943 0.0206 -1.70989 -0.485 -2.08792 -1.28843l-3.96925 -8.498981c-0.0315 -0.0748 -0.0326 -0.15778 0.00098 -0.2315l3.97827 -8.46776c0.38779 -0.82422 1.22734 -1.33022 2.14227 -1.28819l13.15411 0.60078c0.51947 0.0221 1.01823 0.22731 1.40387 0.57367l7.20124 6.47015c0.21445 0.19172 0.48974 0.29549 0.77867 0.28989l51.3542 -0.69485c0.96378 0.00059 1.68923 0.81545 1.8347 2.01774zm-1.87476 2.47786c0.9317 -0.0789 1.38069 -1.1398 1.3415 -2.15048 -0.0213 -0.88031 -0.44606 -1.79267 -1.29751 -1.79297l-51.35389 0.6971c-0.42824 0.007 -0.8401 -0.14778 -1.15797 -0.43496l-7.20123 -6.47016c-0.29022 -0.26115 -0.66324 -0.41417 -1.05181 -0.4325l-13.15656 -0.6027c-0.69122 -0.0307 -1.32118 0.3508 -1.61246 0.97012l-3.92468 8.35345 3.91654 8.379521c0.28196 0.60389 0.89877 0.98528 1.57074 0.96911l13.2326 -0.29159c0.40308 -0.0115 0.79373 -0.1612 1.09577 -0.43138l7.07828 -6.315561c0.31226 -0.27821 0.71375 -0.43231 1.1295 -0.431z" fill="#FFFFFF"/>
			<group rotation="83.1" scaleX="-2.230236" scaleY="-2.230236" translateX="284.7161" translateY="209.7122">
				<path d="M47.434483 31.904701l0.898159 -7.441549 1.718761 0.210213 -0.799728 7.453588z" fill="#FFFFFF"/>
			</group>
			<path d="M342.92844 92.022809c-0.0002 0.0123 0.002 0.0227 0.001 0.0335l-0.007 4.08273c0.00046 0.15273 -0.1239 0.27558 -0.27665 0.27608l-16.71561 0.005c-0.074 0.00029 -0.14519 -0.0291 -0.19829 -0.0795 -0.0492 -0.0527 -0.0889 -0.11929 -0.0799 -0.19695l0.005 -3.86007c-0.00063 -0.15048 0.12198 -0.27522 0.27427 -0.27792l16.71811 -0.2259c0.074 -0.00028 0.1449 0.0271 0.19829 0.0795 0.0435 0.044 0.073 0.10364 0.0808 0.16304zm-0.5595 3.84187l0.005 -3.5276 -16.16181 0.21924 -0.004 3.31179z" fill="#FFFFFF"/>
			<group rotation="83.1" scaleX="-2.230236" scaleY="-2.230236" translateX="284.7161" translateY="209.7122">
				<path d="M48.433926 23.623987l0.02701 -0.223778 1.663959 0.203511 -0.02701 0.223777z" fill="#FFFFFF"/>
			</group>
			<path d="M324.32489 92.373529c-0.002 0.0113 0.00076 0.0224 0.001 0.0334l-0.004 3.73864c-0.00037 0.0718 -0.028 0.1426 -0.0816 0.19647 -0.0523 0.0514 -0.12277 0.0801 -0.19481 0.0796l-0.50317 -0.00061c-0.15277 -0.00067 -0.29694 -0.11446 -0.27838 -0.2763l0.004 -3.73865c-0.00026 -0.0718 0.028 -0.14258 0.0817 -0.19428 0.0524 -0.0513 0.12269 -0.0802 0.19444 -0.0822l0.50342 0.002c0.14142 -0.00047 0.25988 0.10287 0.27602 0.2409z" fill="#FFFFFF"/>
			<path d="M373.81807 91.634299c2.09381 0.00042 1.92095 4.49421 -0.006 4.49601l-14.53659 0.005 0.005 -4.30269z" fill="#FFFFFF"/>
			<path d="M375.57159 93.333869c0.0193 0.15937 0.0276 0.32017 0.0288 0.47954 -0.001 1.28741 -0.61627 2.5929 -1.78888 2.59326l-14.5366 0.005c-0.0741 0.0003 -0.1452 -0.0291 -0.1965 -0.0815 -0.0512 -0.0524 -0.0889 -0.11938 -0.0822 -0.19444l0.007 -4.30293c-0.00033 -0.1505 0.12169 -0.27531 0.27439 -0.27582l14.53569 -0.19776c0 0 0.003 -0.002 0.003 -0.002 1.07386 0.00062 1.62902 0.93059 1.7555 1.97563zm-16.01759 2.52469l14.25801 -0.005c0.79973 0.00002 1.23182 -1.05217 1.23349 -2.04084 0.004 -0.94855 -0.37593 -1.89999 -1.2277 -1.9025l-14.25764 0.19323zm14.26185 -4.22399l-0.002 -0.004z" fill="#FFFFFF"/>
			<group rotation="83.1" scaleX="-2.230236" scaleY="-2.230236" translateX="284.7161" translateY="209.7122">
				<path d="M45.914978 53.839363l0.715557 -3.280849 0.461403 -3.822869 -0.703953 -0.08609 -0.461399 3.822865z" fill="#FFFFFF"/>
			</group>
			<path d="M391.89472 93.593849c0.00029 0.008 0.00054 0.0208 0.00085 0.0314 0.001 0.14141 -0.10339 0.25961 -0.2451 0.27677l-7.45801 0.87553 -8.61923 0.005c-0.0741 0.0003 -0.14515 -0.0291 -0.19864 -0.0815 -0.0507 -0.0504 -0.0868 -0.12202 -0.08 -0.19465l0.002 -1.58177c0.002 -0.15301 0.12391 -0.27561 0.27665 -0.27606l8.58821 -0.001 7.4831 0.70518c0.13186 0.0134 0.23409 0.11558 0.24903 0.24201zm-16.04394 0.63633l8.30966 -0.001 4.84409 -0.57048 -4.86797 -0.46227 -8.28231 0.005z" fill="#FFFFFF"/>
			<group rotation="83.1" scaleX="-2.230236" scaleY="-2.230236" translateX="284.7161" translateY="209.7122">
				<path d="M50.536312 11.280303l-1.43774 10.977622 -2.613022 -3.581989 0.633343 -6.337574z" fill="#FFFFFF"/>
			</group>
			<path d="M321.11646 95.006069c0.0108 0.0862 -0.02 0.17306 -0.0842 0.23477l-7.23074 6.745141c-0.0513 0.0457 -0.11458 0.0743 -0.18405 0.076l-14.20274 0.29452c-0.11199 0.003 -0.21197 -0.0619 -0.25801 -0.16416l-3.25804 -7.282051c-0.0413 -0.0824 -0.0314 -0.18489 0.0197 -0.26299 0.0512 -0.0781 0.14219 -0.12495 0.23652 -0.12509l24.68927 0.24275c0.11472 0.001 0.21307 0.0707 0.25484 0.17594 0.008 0.0218 0.0132 0.0437 0.0156 0.0658zm-7.61709 6.504311l6.64962 -6.200761 -23.56679 -0.23033 3.00602 6.721721z" fill="#FFFFFF"/>
			<group rotation="83.1" scaleX="-2.230236" scaleY="-2.230236" translateX="284.7161" translateY="209.7122">
				<path d="M51.213707 11.366577l-1.323547 10.992165 3.416912 -2.814005 0.954597 -6.296659z" fill="#FFFFFF"/>
			</group>
			<path d="M321.13037 93.227409c0.003 0.0446 -0.0002 0.0921 -0.0197 0.13482 -0.0408 0.10399 -0.14537 0.17456 -0.25776 0.17257l-24.69168 0.0159c-0.0966 0.00069 -0.18312 -0.0481 -0.23558 -0.12637 -0.0544 -0.0787 -0.0622 -0.17897 -0.0186 -0.26509l3.35027 -7.25277c0.0455 -0.1023 0.14843 -0.16422 0.2617 -0.15934l14.19573 0.42753c0.0695 0.0004 0.13379 0.0287 0.18445 0.0767l7.14566 6.80933c0.0493 0.0447 0.0772 0.10573 0.0851 0.16737zm-24.53916 -0.2272l23.57077 -0.0151 -6.57187 -6.26327 -13.90257 -0.41808z" fill="#FFFFFF"/>
			<path d="M294.17601 100.5868l-0.31395 2.4574 -23.07384 -1.31355z" fill="#FFFFFF"/>
			<path d="M289.57133 85.879019l-0.31395 2.4574 -23.07383 -1.31355z" fill="#FFFFFF"/>
			<path d="M284.3305 92.912769l-0.31395 2.4574 -23.07383 -1.31355z" fill="#FFFFFF"/>
		</group>
	</group>
	<group scaleX="2.477223" scaleY="2.321288" translateX="8.630704" translateY="0.975951">
		<group scaleX="1.084121" scaleY="1.084062" translateX="13.55151" translateY="34.68998">
			<path d="M329.88 -31.25l-0.4 2.25 -21.15 -2.25z" fill="#E6E6E6"/>
			<path d="M325.68 -7.25l-0.4 2.25 -21.2 -2.25z" fill="#E6E6E6"/>
			<path d="M324.83 -2.4l-0.4 2.25 -21.2 -2.25z" fill="#E6E6E6"/>
			<path d="M348.28 -19.05l-1.3 7.25h-9.5l-0.65 3.8h11.65l-1.4 8h-21.15l5.5 -31.25h20.9l-2.6 8h-10.25l-0.7 4.2z" fill="#E6E6E6"/>
			<path d="M304.48 -7.55v0h-6.2L296.98 0h-9.5l5.5 -31.25h15q8.5 0 8.5 7.9v0q0 3.75 -1.05 6.78 -1.05 3.02 -2.32 4.79 -1.28 1.78 -3.5 3 -2.23 1.23 -5.13 1.23zm-4.8 -8h2.2q1.7 0 2.58 -0.38 0.87 -0.37 1.12 -1.72v0q0.65 -3.7 0.65 -4.05v0q0 -0.95 -0.75 -1.25 -0.75 -0.3 -2.25 -0.3v0h-2.2zm26.85 3.5l-0.4 2.25 -21.2 -2.25zm0.85 -4.8l-0.4 2.25 -21.2 -2.25zm0.85 -4.8l-0.4 2.25 -21.2 -2.25zm0.8 -4.8l-0.35 2.25 -21.2 -2.25z" fill="#E6E6E6"/>
			<path d="M251.79 -21.65l-0.9 2.2 -20.45 -2.2z" fill="#E6E6E6"/>
			<path d="M249.79 -16.85l-0.95 2.2 -20.45 -2.2z" fill="#E6E6E6"/>
			<path d="M247.74 -12.05l-0.9 2.2 -20.5 -2.2z" fill="#E6E6E6"/>
			<path d="M256.29 -4.95L254.34 0h-10l13.15 -31.25h14.7L274.39 0h-10.05l-0.2 -4.95zm3.1 -7.95h4v-8.75h-0.5zm26.99 10.5l-0.4 2.25 -21.2 -2.25zm1.7 -9.65l-0.4 2.25 -21.2 -2.25zm1.65 -9.6l-0.4 2.25 -21.15 -2.25zm0.85 -4.8l-0.4 2.25 -21.15 -2.25zm-3.35 19.2l-0.4 2.25 -21.2 -2.25zm4.2 -24l-0.4 2.25 -21.15 -2.25zm-2.55 14.4l-0.4 2.25 -21.15 -2.25z" fill="#E6E6E6"/>
			<path d="M222.74 0.75v0q-6.3 0 -9.03 -2.45 -2.72 -2.45 -2.72 -7.55v0q0 -2.15 0.7 -6.35v0q1.5 -8.6 5.17 -12.5 3.68 -3.9 11.63 -3.9v0q1.85 0 4.22 0.37 2.38 0.38 3.48 0.93v0l-2.8 7.65q-2.95 -0.7 -5.53 -0.7 -2.57 0 -3.67 0.5 -1.1 0.5 -1.35 2v0l-2.3 13.1q1.8 0.4 3.7 0.4v0q4.05 0 7.4 -1.2v0l-0.8 8.4q-3.2 1.3 -8.1 1.3zm20.95 -3.15l-0.95 2.2 -20.5 -2.2zm2.05 -4.85l-0.95 2.2 -20.5 -2.2zm10.1 -24l-0.9 2.15 -20.4 -2.15zm-2.05 4.8l-0.9 2.15 -20.4 -2.15zm-19.25 -4.8l20.4 2.15 0.9 -2.15z" fill="#E6E6E6"/>
			<path d="M200.79 -31.25h17.55q-1.45 0.9 -2.25 1.65v0z" fill="#E6E6E6"/>
			<path d="M195.24 -2.4h15.8q0.65 1.15 1.5 1.85v0z" fill="#E6E6E6"/>
			<path d="M191.54 -21.65h20l-0.6 2.05z" fill="#E6E6E6"/>
			<path d="M171.34 -0.55l2.8 -8.25q4.2 1.15 7.68 1.15 3.47 0 5.67 -0.3v0l0.4 -2.5 -4.15 -0.4q-4.75 -0.45 -6.72 -2.15 -1.98 -1.7 -1.98 -4.8v0q0 -1.35 0.3 -3v0q1.15 -6.4 4.2 -8.8 3.05 -2.4 9.38 -2.4 6.32 0 11.17 1.25v0l-2.6 8q-4.35 -0.75 -6.97 -0.75 -2.63 0 -4.53 0.25v0l-0.4 2.45 3.35 0.35q5.1 0.55 7.25 2.42 2.15 1.88 2.15 5.03v0q0 3.2 -1.35 6.6v0q-0.75 1.75 -1.57 2.92 -0.83 1.18 -2.1 2 -1.28 0.83 -2.33 1.25 -1.05 0.43 -2.7 0.63v0q-2.3 0.35 -5.7 0.35v0q-6.2 0 -11.25 -1.3zm39 -16.3l-0.15 1q-0.1 0.4 -0.2 1.1v0l-19.65 -2.1zm-20.55 4.8h19.85q-0.15 1.15 -0.15 2.1v0zm0.65 4.8h19.1q0.2 1.4 0.35 2.1v0zm3.45 -19.2h19.7q-0.7 1.3 -1 2v0z" fill="#E6E6E6"/>
			<path d="M169.64 -0.2l-17.2 -2.2h17.95z" fill="#E6E6E6"/>
			<path d="M171.24 -5.05l-17.95 -2.2h18.7z" fill="#E6E6E6"/>
			<path d="M180.59 -9.8v0l-26.45 -2.25h21.55q1.65 1.6 4.9 2.25z" fill="#E6E6E6"/>
			<path d="M137.74 -31.25l-0.4 2.25 -21.15 -2.25z" fill="#E6E6E6"/>
			<path d="M140.39 -7.25l-0.4 2.25 -21.2 -2.25z" fill="#E6E6E6"/>
			<path d="M162.59 -31.25l-1.45 8h-6.9L150.19 0h-9.5l4.05 -23.25h-6.85l1.45 -8zm11 11.85v0l-21.2 -2.25h21.55q-0.25 1 -0.35 2.25zm-19.8 -7.05h21.5l-0.75 2.2zm-0.95 9.6h20.75q0.1 1.35 0.4 2.25v0zm4.7 -14.4h21.5q-1.15 0.75 -2.2 2.05v0z" fill="#E6E6E6"/>
			<path d="M100.3 -31.25h15q8.55 0 8.55 7.65v0q0 3.15 -0.95 6v0q-1.75 5.4 -5.5 7.2v0L120.7 0h-10.45l-2.3 -9.3H105.9L104.3 0h-9.5zm6.95 14.25h2.2q1.7 0 2.57 -0.38 0.88 -0.37 1.2 -2.15 0.33 -1.77 0.33 -2.17v0q0 -1 -0.78 -1.28 -0.77 -0.27 -2.52 -0.27v0h-1.9zm32.29 14.6l-0.4 2.25 -21.2 -2.25zm1.7 -9.65l-0.4 2.25 -21.2 -2.25zm0.85 -4.8l-0.4 2.25 -21.2 -2.25zm0.85 -4.8l-0.4 2.25 -21.2 -2.25zm-6.05 -4.8l-0.35 2.25 -21.2 -2.25z" fill="#E6E6E6"/>
			<path d="M63.15 -31.25l-0.9 2.15 -20.4 -2.15zm-21.3 0l20.4 2.15 0.9 -2.15z" fill="#E6E6E6"/>
			<path d="M63.6 -4.95L61.65 0h-10L64.8 -31.25H79.5L81.7 0H71.65l-0.2 -4.95zm3.1 -7.95h4v-8.75h-0.5zm27 10.5l-0.4 2.25 -21.2 -2.25zm1.7 -9.65l-0.4 2.25 -21.2 -2.25zm1.65 -9.6l-0.4 2.25 -21.15 -2.25zm0.85 -4.8l-0.4 2.25 -21.15 -2.25zm-3.35 19.2l-0.4 2.25 -21.2 -2.25zm4.2 -24l-0.4 2.25 -21.15 -2.25zm-2.55 14.4l-0.4 2.25 -21.15 -2.25z" fill="#E6E6E6"/>
			<path d="M14.15 -31.25L13.75 -29 -7.4 -31.25Z" fill="#E6E6E6"/>
			<path d="M9.95 -7.25L9.55 -5 -11.65 -7.25Z" fill="#E6E6E6"/>
			<path d="M13.3 -26.45l-0.35 2.25 -21.2 -2.25z" fill="#E6E6E6"/>
			<path d="M12.5 -21.65l-0.4 2.25 -21.2 -2.25z" fill="#E6E6E6"/>
			<path d="M11.65 -16.85l-0.4 2.25 -21.2 -2.25z" fill="#E6E6E6"/>
			<path d="M10.8 -12.05l-0.4 2.25 -21.2 -2.25z" fill="#E6E6E6"/>
			<path d="M9.1 -2.4L8.7 -0.15 -12.5 -2.4Z" fill="#E6E6E6"/>
			<path d="M15.7 -31.25H29q6.45 0 9.18 2.27 2.72 2.28 2.72 7.38v0q0 2.6 -0.6 6v0q-1.5 8.4 -5.12 12Q31.55 0 23.5 0V0H10.2Zm12 8v0H23.75L21.1 -8h3.95q1.95 0 2.9 -0.47 0.95 -0.48 1.25 -2.18v0l1.75 -9.95Q31 -20.9 31 -21.4v0q0 -1.15 -0.8 -1.5 -0.8 -0.35 -2.5 -0.35zM51 -2.4L50.05 -0.2 29.55 -2.4Zm2.05 -4.85l-0.95 2.2 -20.5 -2.2zm2 -4.8l-0.9 2.2 -20.5 -2.2zm2.05 -4.8l-0.95 2.2 -20.45 -2.2zm2 -4.8l-0.9 2.2 -20.45 -2.2zm2 -4.8l-0.9 2.15 -20.4 -2.15z" fill="#E6E6E6"/>
		</group>
	</group>
</svg>
