<svg
    xmlns="http://www.w3.org/2000/svg"
    viewBox="0 0 1000 1000"
    id="vector">
    <path
        id="path"
        d="M 0 0 L 1000 0 L 1000 1000 L 0 1000 Z"
        fill="#010536"
        stroke-width="1"/>
    <g id="group_10">
        <g id="group_9">
            <g id="group_8">
                <g id="group_5">
                    <g id="group_4">
                        <g id="group_1">
                            <g id="group">
                                <path
                                    id="path_1"
                                    d="M 152.544 421.306 L 152.544 405.976 L 156.639 403.561 L 163.884 403.561 L 163.884 407.691 L 157.094 407.691 L 157.094 419.731 L 163.744 419.731 L 163.744 423.686 L 156.639 423.686 L 152.544 421.306 Z M 172.249 410.071 L 176.799 410.071 L 176.799 405.976 L 172.704 403.561 L 165.459 403.561 L 165.459 407.691 L 172.249 407.691 L 172.249 410.071 Z M 176.799 421.306 L 176.799 411.646 L 165.459 411.646 L 165.459 415.636 L 172.249 415.636 L 172.249 419.731 L 165.599 419.731 L 165.599 423.686 L 172.704 423.686 L 176.799 421.306 Z M 190.659 413.326 L 190.659 415.041 L 182.399 415.041 L 182.399 413.326 L 190.659 413.326 Z M 202.244 423.686 L 198.254 423.686 L 194.159 404.856 L 198.254 403.561 L 201.404 418.856 L 205.499 414.061 L 205.499 420.011 L 202.244 423.686 Z M 214.319 423.686 L 210.329 423.686 L 207.074 420.011 L 207.074 414.061 L 211.029 418.856 L 214.319 403.561 L 218.274 404.856 L 214.319 423.686 Z M 221.767 405.976 L 225.862 403.561 L 233.107 403.561 L 233.107 407.516 L 226.177 407.516 L 226.177 419.591 L 232.967 419.591 L 232.967 423.686 L 225.862 423.686 L 221.767 421.306 L 221.767 405.976 Z M 245.882 405.976 L 241.927 403.561 L 234.682 403.561 L 234.682 407.516 L 241.472 407.516 L 241.472 419.591 L 234.682 419.591 L 234.682 423.686 L 241.927 423.686 L 245.882 421.306 L 245.882 405.976 Z M 252.182 403.561 L 263.382 403.561 L 263.382 407.691 L 256.592 407.691 L 256.592 411.646 L 263.382 411.646 L 263.382 415.741 L 256.592 415.741 L 256.592 423.686 L 252.182 423.686 L 252.182 403.561 Z M 276.297 423.686 L 276.297 415.356 L 273.007 413.641 L 276.297 412.066 L 276.297 405.976 L 272.167 403.561 L 264.957 403.561 L 264.957 407.691 L 271.887 407.691 L 271.887 411.646 L 264.957 411.646 L 264.957 415.741 L 271.887 415.741 L 271.887 423.686 L 276.297 423.686 Z M 282.247 423.686 L 282.247 403.561 L 286.657 403.561 L 286.657 411.646 L 288.617 411.646 L 288.617 415.636 L 286.657 415.636 L 286.657 423.686 L 282.247 423.686 Z M 306.362 421.691 L 293.447 413.641 L 306.362 405.556 L 302.232 403.561 L 289.912 411.646 L 289.912 415.636 L 302.232 423.686 L 306.362 421.691 Z M 309.162 413.361 L 309.162 405.976 L 313.152 403.561 L 320.362 403.561 L 320.362 407.691 L 313.432 407.691 L 313.432 411.646 L 320.362 411.646 L 320.362 415.741 L 313.152 415.741 L 309.162 413.361 Z M 333.277 421.306 L 333.277 414.061 L 329.147 411.646 L 321.937 411.646 L 321.937 415.741 L 328.867 415.741 L 328.867 419.731 L 322.077 419.731 L 322.077 423.686 L 329.147 423.686 L 333.277 421.306 Z M 309.162 417.316 L 313.572 417.316 L 313.572 419.731 L 320.362 419.731 L 320.362 423.686 L 313.257 423.686 L 309.162 421.306 L 309.162 417.316 Z M 328.867 410.071 L 333.277 410.071 L 333.277 405.976 L 329.147 403.561 L 321.937 403.561 L 321.937 407.691 L 328.867 407.691 L 328.867 410.071 Z"
                                    fill="#fbfbf8"
                                    stroke-width="0.699999988"/>
                            </g>
                        </g>
                        <g id="group_3">
                            <g id="group_2">
                                <path
                                    id="path_2"
                                    d="M 156.114 437.292 L 159.824 437.292 L 170.324 450.277 L 180.824 437.292 L 184.534 437.292 L 184.534 461.792 L 180.754 461.792 L 180.754 451.397 Q 180.754 449.122 180.845 447.071 Q 180.929 445.027 181.139 442.997 L 171.479 454.757 L 169.169 454.757 L 159.509 442.997 Q 159.719 445.027 159.81 447.071 Q 159.894 449.122 159.894 451.397 L 159.894 461.792 L 156.114 461.792 L 156.114 437.292 Z M 222.404 461.792 L 218.239 461.792 L 215.439 456.052 L 200.914 456.052 L 198.114 461.792 L 194.124 461.792 L 206.094 437.292 L 210.504 437.292 L 222.404 461.792 Z M 206.269 445.062 L 202.699 452.412 L 213.654 452.412 L 210.014 444.922 Q 209.524 443.907 209.069 442.976 Q 208.614 442.052 208.159 440.967 Q 207.704 442.087 207.228 443.067 Q 206.759 444.047 206.269 445.062 Z M 235.774 454.862 L 235.774 461.792 L 231.994 461.792 L 231.994 437.292 L 235.774 437.292 L 235.774 450.557 L 242.494 445.307 L 252.749 437.292 L 258.349 437.292 L 245.749 447.092 L 257.859 461.792 L 252.819 461.792 L 242.774 449.402 L 235.774 454.862 Z M 286.342 458.047 L 286.342 461.792 L 269.752 461.792 L 269.752 458.047 L 276.157 458.047 L 276.157 441.037 L 269.752 441.037 L 269.752 437.292 L 286.342 437.292 L 286.342 441.037 L 279.937 441.037 L 279.937 458.047 L 286.342 458.047 Z M 322.077 445.342 L 322.077 437.292 L 325.857 437.292 L 325.857 461.792 L 322.042 461.792 L 302.477 442.542 Q 302.687 444.817 302.918 447.071 Q 303.142 449.332 303.142 451.607 L 303.142 461.792 L 299.362 461.792 L 299.362 437.292 L 303.107 437.292 L 322.672 457.032 Q 322.427 455.317 322.308 453.287 Q 322.182 451.257 322.133 449.206 Q 322.077 447.162 322.077 445.342 Z M 351.827 437.082 Q 354.487 437.082 356.741 437.677 Q 359.002 438.272 360.731 439.217 Q 362.467 440.162 363.447 441.247 L 360.997 444.012 Q 359.107 442.577 356.797 441.667 Q 354.487 440.757 351.827 440.757 Q 348.712 440.757 346.192 441.912 Q 343.672 443.067 342.202 445.041 Q 340.732 447.022 340.732 449.542 Q 340.732 451.887 341.621 453.567 Q 342.517 455.247 344.057 456.332 Q 345.597 457.417 347.536 457.942 Q 349.482 458.467 351.582 458.467 Q 354.347 458.467 356.587 457.802 Q 358.827 457.137 360.192 455.961 Q 361.557 454.792 361.697 453.252 L 351.757 453.252 L 351.757 449.577 L 365.757 449.577 Q 365.827 449.962 365.862 450.382 Q 365.897 450.802 365.897 451.187 Q 365.897 453.077 365.281 454.757 Q 364.672 456.437 363.762 457.557 Q 362.012 459.727 358.792 460.931 Q 355.572 462.142 351.267 462.142 Q 348.362 462.142 345.737 461.337 Q 343.112 460.532 341.082 458.957 Q 339.052 457.382 337.876 455.016 Q 336.707 452.657 336.707 449.542 Q 336.707 446.882 337.862 444.621 Q 339.017 442.367 341.082 440.666 Q 343.147 438.972 345.891 438.027 Q 348.642 437.082 351.827 437.082 Z M 410.305 458.047 L 410.305 461.792 L 393.715 461.792 L 393.715 458.047 L 400.12 458.047 L 400.12 441.037 L 393.715 441.037 L 393.715 437.292 L 410.305 437.292 L 410.305 441.037 L 403.9 441.037 L 403.9 458.047 L 410.305 458.047 Z M 433.545 461.792 L 429.765 461.792 L 429.765 440.932 L 420.455 440.932 L 420.455 437.292 L 443.065 437.292 L 443.065 440.932 L 433.545 440.932 L 433.545 461.792 Z M 469.91 437.292 L 473.69 437.292 L 473.69 447.897 L 490.805 447.897 L 490.805 437.292 L 494.585 437.292 L 494.585 461.792 L 490.805 461.792 L 490.805 451.537 L 473.69 451.537 L 473.69 461.792 L 469.91 461.792 L 469.91 437.292 Z M 532.448 461.792 L 528.283 461.792 L 525.483 456.052 L 510.958 456.052 L 508.158 461.792 L 504.168 461.792 L 516.138 437.292 L 520.548 437.292 L 532.448 461.792 Z M 516.313 445.062 L 512.743 452.412 L 523.698 452.412 L 520.058 444.922 Q 519.568 443.907 519.113 442.976 Q 518.658 442.052 518.203 440.967 Q 517.748 442.087 517.279 443.067 Q 516.803 444.047 516.313 445.062 Z M 542.038 437.292 L 556.353 437.292 Q 558.523 437.292 560.329 438.286 Q 562.128 439.287 563.213 440.981 Q 564.298 442.682 564.298 444.817 Q 564.298 447.022 563.108 448.821 Q 561.918 450.627 559.958 451.691 Q 557.998 452.762 555.653 452.762 L 545.818 452.762 L 545.818 461.792 L 542.038 461.792 L 542.038 437.292 Z M 545.818 449.122 L 555.303 449.122 Q 556.668 449.122 557.788 448.527 Q 558.908 447.932 559.594 446.952 Q 560.273 445.972 560.273 444.817 Q 560.273 443.732 559.594 442.857 Q 558.908 441.982 557.788 441.457 Q 556.668 440.932 555.303 440.932 L 545.818 440.932 L 545.818 449.122 Z M 575.393 437.292 L 589.708 437.292 Q 591.878 437.292 593.677 438.286 Q 595.483 439.287 596.568 440.981 Q 597.653 442.682 597.653 444.817 Q 597.653 447.022 596.463 448.821 Q 595.273 450.627 593.313 451.691 Q 591.353 452.762 589.008 452.762 L 579.173 452.762 L 579.173 461.792 L 575.393 461.792 L 575.393 437.292 Z M 579.173 449.122 L 588.658 449.122 Q 590.023 449.122 591.143 448.527 Q 592.263 447.932 592.942 446.952 Q 593.628 445.972 593.628 444.817 Q 593.628 443.732 592.942 442.857 Q 592.263 441.982 591.143 441.457 Q 590.023 440.932 588.658 440.932 L 579.173 440.932 L 579.173 449.122 Z M 629.076 461.792 L 608.741 461.792 L 608.741 437.292 L 629.076 437.292 L 629.076 440.932 L 612.521 440.932 L 612.521 447.407 L 627.151 447.407 L 627.151 451.047 L 612.521 451.047 L 612.521 458.152 L 629.076 458.152 L 629.076 461.792 Z M 663.761 445.342 L 663.761 437.292 L 667.541 437.292 L 667.541 461.792 L 663.726 461.792 L 644.161 442.542 Q 644.371 444.817 644.602 447.071 Q 644.826 449.332 644.826 451.607 L 644.826 461.792 L 641.046 461.792 L 641.046 437.292 L 644.791 437.292 L 664.356 457.032 Q 664.111 455.317 663.992 453.287 Q 663.866 451.257 663.817 449.206 Q 663.761 447.162 663.761 445.342 Z"
                                    fill="#fbfbf8"
                                    stroke-width="0.699999988"/>
                            </g>
                        </g>
                    </g>
                </g>
                <g id="group_7">
                    <g id="group_6">
                        <path
                            id="path_3"
                            d="M 220.701 388.728 C 225.173 388.567 229.645 388.405 234.117 388.245 C 233.283 386.866 233.075 385.66 231.48 385.452 C 229.094 385.142 226.709 384.831 224.323 384.52 C 219.695 383.917 215.066 383.314 210.437 382.711 C 210.852 383.38 217.329 388.849 220.701 388.728 Z M 204.219 374.469 C 205.668 376.863 213.002 382.083 215.094 382.351 C 220.813 383.088 226.532 383.824 232.251 384.559 C 231.131 382.708 230.871 381.473 228.848 380.942 C 225.909 380.169 222.97 379.396 220.031 378.624 C 214.76 377.239 209.49 375.854 204.219 374.469 Z M 225.046 393.089 C 228.482 392.356 231.918 391.623 235.356 390.89 C 234.687 389.786 234.685 389.122 233.433 389.178 C 231.401 389.268 229.369 389.359 227.337 389.449 C 223.594 389.616 219.851 389.784 216.108 389.951 C 216.528 390.401 222.35 393.663 225.046 393.089 Z M 233.155 401.011 C 235.044 399.783 235.552 398.462 236.626 396.454 C 237.832 394.202 237.042 393.866 235.695 391.637 C 235.558 391.41 233.768 391.713 233.566 391.936 C 233.32 392.206 233.484 393.736 233.469 394.079 C 233.364 396.389 233.259 398.7 233.155 401.011 Z M 232.716 392.177 C 231.463 392.445 229.876 392.241 229.556 393.573 C 229.104 395.466 228.65 397.359 228.197 399.252 C 231.248 398.524 232.61 394.862 232.716 392.177 Z M 228.86 393.06 C 225.841 393.705 225.904 394.582 224.61 397.41 C 226.663 397.215 228.578 394.981 228.86 393.06 Z M 268 382.711 C 263.372 383.313 258.743 383.917 254.115 384.519 C 251.729 384.83 249.343 385.142 246.957 385.452 C 245.364 385.66 245.155 386.866 244.321 388.244 C 248.793 388.404 253.265 388.566 257.737 388.727 C 261.109 388.849 267.585 383.38 268 382.711 Z M 258.408 378.624 C 255.469 379.397 252.53 380.17 249.59 380.942 C 247.567 381.473 247.307 382.708 246.188 384.559 C 251.907 383.823 257.626 383.087 263.344 382.351 C 265.436 382.083 272.771 376.863 274.219 374.469 C 268.949 375.854 263.679 377.239 258.408 378.624 Z M 262.331 389.95 C 258.588 389.783 254.845 389.615 251.102 389.449 C 249.07 389.358 247.038 389.267 245.005 389.177 C 243.754 389.121 243.752 389.785 243.083 390.889 C 246.52 391.622 249.956 392.355 253.394 393.088 C 256.088 393.663 261.91 390.401 262.331 389.95 Z M 244.97 394.08 C 244.954 393.736 245.119 392.206 244.872 391.937 C 244.67 391.715 242.88 391.411 242.743 391.638 C 241.396 393.866 240.607 394.202 241.812 396.454 C 242.887 398.463 243.393 399.784 245.283 401.011 C 245.179 398.7 245.074 396.389 244.97 394.08 Z M 250.241 399.252 C 249.788 397.359 249.334 395.466 248.881 393.573 C 248.563 392.241 246.975 392.445 245.723 392.177 C 245.828 394.862 247.19 398.524 250.241 399.252 Z M 253.829 397.409 C 252.533 394.581 252.597 393.704 249.579 393.059 C 249.861 394.981 251.776 397.215 253.829 397.409 Z"
                            fill="#ffff00"
                            stroke-width="0.699999988"/>
                    </g>
                </g>
            </g>
        </g>
    </g>
</svg>
